<svg width="28" height="28" viewBox="0 0 28 28" fill="none" xmlns="http://www.w3.org/2000/svg">
<path d="M27.2707 0H20.001C19.5982 0 19.2718 0.326416 19.2718 0.729167C19.2718 1.13192 19.5982 1.45833 20.001 1.45833H25.5216L11.3384 15.7773C11.0664 16.0653 11.0738 16.5173 11.3549 16.7962C11.6361 17.075 12.0884 17.0782 12.3738 16.8039L26.5416 2.5011V7.9989C26.5416 8.40165 26.868 8.72807 27.2707 8.72807C27.6735 8.72807 27.9999 8.40165 27.9999 7.9989V0.729167C27.9999 0.326416 27.6735 0 27.2707 0Z" fill="white"/>
<path d="M23.635 15.6399C23.2322 15.6399 22.9058 15.9663 22.9058 16.3691V24.354C22.9044 25.5617 21.926 26.5401 20.7183 26.5415H3.64583C2.43815 26.5401 1.45976 25.5617 1.45833 24.354V7.28158C1.45976 6.07389 2.43815 5.0955 3.64583 5.09408H11.6308C12.0335 5.09408 12.3599 4.76766 12.3599 4.36491C12.3599 3.96216 12.0335 3.63574 11.6308 3.63574H3.64583C1.63322 3.63802 0.00227865 5.26896 0 7.28158V24.354C0.00227865 26.3667 1.63322 27.9976 3.64583 27.9999H20.7183C22.7309 27.9976 24.3619 26.3667 24.3641 24.354V16.3691C24.3641 15.9663 24.0377 15.6399 23.635 15.6399Z" fill="white"/>
</svg>
