<svg width="26" height="26" viewBox="0 0 26 26" fill="none" xmlns="http://www.w3.org/2000/svg">
<path d="M24.1353 24.1354C24.0599 24.2109 23.9702 24.2708 23.8716 24.3117C23.773 24.3526 23.6672 24.3736 23.5605 24.3736C23.4537 24.3736 23.348 24.3526 23.2493 24.3117C23.1507 24.2708 23.0611 24.2109 22.9856 24.1354L13 14.1497L3.01031 24.1354C2.85785 24.2878 2.65108 24.3735 2.43547 24.3735C2.21986 24.3735 2.01308 24.2878 1.86062 24.1354C1.70817 23.9829 1.62252 23.7761 1.62252 23.5605C1.62252 23.3449 1.70817 23.1381 1.86062 22.9857L11.8503 13L1.86469 3.01035C1.71223 2.8579 1.62658 2.65112 1.62658 2.43551C1.62658 2.2199 1.71223 2.01312 1.86469 1.86067C2.01715 1.70821 2.22392 1.62256 2.43953 1.62256C2.65514 1.62256 2.86192 1.70821 3.01437 1.86067L13 11.8504L22.9897 1.86473C23.1451 1.73162 23.3451 1.66207 23.5495 1.66996C23.754 1.67786 23.948 1.76263 24.0927 1.90733C24.2374 2.05204 24.3222 2.24601 24.3301 2.4505C24.338 2.65499 24.2684 2.85492 24.1353 3.01035L14.1497 13L24.1353 22.9897C24.2866 23.142 24.3716 23.3479 24.3716 23.5625C24.3716 23.7772 24.2866 23.9831 24.1353 24.1354Z" fill="white"/>
</svg>
