<svg width="60" height="60" viewBox="0 0 60 60" fill="none" xmlns="http://www.w3.org/2000/svg">
<circle cx="30" cy="30" r="29.5" stroke="white"/>
<path fill-rule="evenodd" clip-rule="evenodd" d="M30 38.5C29.7182 38.5 29.448 38.3881 29.2487 38.1888C29.0494 37.9895 28.9375 37.7193 28.9375 37.4375L28.9375 25.1274L24.3772 29.6898C24.1777 29.8893 23.9071 30.0013 23.625 30.0013C23.3429 30.0013 23.0723 29.8893 22.8727 29.6898C22.6732 29.4902 22.5612 29.2196 22.5612 28.9375C22.5612 28.6554 22.6732 28.3848 22.8727 28.1852L29.2477 21.8102C29.3464 21.7113 29.4637 21.6328 29.5928 21.5792C29.7219 21.5257 29.8602 21.4981 30 21.4981C30.1398 21.4981 30.2781 21.5257 30.4072 21.5792C30.5363 21.6328 30.6536 21.7113 30.7522 21.8102L37.1272 28.1852C37.3268 28.3848 37.4388 28.6554 37.4388 28.9375C37.4388 29.2196 37.3268 29.4902 37.1272 29.6898C36.9277 29.8893 36.6571 30.0013 36.375 30.0013C36.0929 30.0013 35.8223 29.8893 35.6227 29.6898L31.0625 25.1274L31.0625 37.4375C31.0625 37.7193 30.9506 37.9895 30.7513 38.1888C30.552 38.3881 30.2818 38.5 30 38.5Z" fill="white"/>
</svg>
