<svg width="203" height="159" viewBox="0 0 203 159" fill="none" xmlns="http://www.w3.org/2000/svg">
<g clip-path="url(#clip0_351_33)">
<path d="M126.581 94.2877C126.606 94.2632 126.63 94.2387 126.655 94.2142C126.63 94.2387 126.606 94.2632 126.581 94.2877Z" fill="#F2F2F2"/>
<path d="M135.645 72.9234C128.116 72.5873 120.371 71.6272 112.866 71.8192C106.128 71.9872 109.749 75.4438 112.866 79.6924C117.014 85.3333 121.642 90.614 126.006 96.0869C122.361 91.5022 118.333 85.1412 114.568 80.0044C110.564 74.5076 106.799 72.8514 115.024 73.4034C125.934 74.1476 136.772 75.8038 147.73 75.8758C147.323 76.3559 146.939 76.86 146.531 77.316C147.227 77.316 147.874 77.4361 148.521 77.6761C149.265 76.86 150.008 76.0679 150.751 75.2757C152.118 73.7635 137.443 72.9954 135.645 72.9234ZM124.471 73.3794C124.088 73.8595 122.793 73.4995 122.577 73.1634C122.073 72.3473 124.903 72.8274 124.471 73.3794Z" fill="#F2F2F2"/>
<path d="M126.677 94.2142C133.199 88.0933 141.832 84.7808 148.09 78.1078C147.418 77.9878 146.747 77.8918 146.052 77.8438C140.465 84.3487 132.648 88.2853 126.677 94.2142Z" fill="#F2F2F2"/>
<path d="M83.5884 107.368C83.6129 107.368 83.6373 107.344 83.6373 107.344C83.6373 107.344 83.6129 107.368 83.5884 107.368Z" fill="#F2F2F2"/>
<path d="M90.3502 76.9316C90.1344 76.6676 89.8706 76.4995 89.5589 76.4515C88.0483 77.5317 81.6701 80.1001 79.0085 81.0842C79.6799 81.1562 78.9605 81.5643 78.5049 81.4203C78.5049 81.3483 78.5049 81.3003 78.5529 81.2763C77.2341 81.7563 61.2166 89.1495 61.4324 89.6535C61.5283 89.8696 64.5736 88.5254 65.0052 88.3333C61.6722 90.1336 54.6466 92.1739 52.0809 95.2704C50.7861 95.9905 49.4912 96.6866 48.1964 97.3827C48.2444 97.3587 67.451 89.4855 67.355 88.2853C74.3567 84.9968 81.5742 82.0444 88.4559 78.5399C82.797 87.7332 77.0423 96.7346 71.767 106.216C65.8684 105.448 58.6989 103.168 53.7114 100.143C53.6874 100.191 53.6635 100.239 53.6155 100.263C54.9103 101.103 70.9997 109.961 72.7741 107.392C76.0831 108.64 79.3442 106.504 82.6052 106.84C82.3654 107.296 82.1257 107.776 81.8859 108.232C81.8619 108.28 83.2287 106.456 82.9889 106.84C83.3965 106.84 84.6673 106.696 84.5954 106.144C84.5475 105.712 83.7082 105.952 83.4684 106C84.4036 104.344 85.3148 102.687 86.202 101.007C86.0581 100.911 85.9142 100.767 85.7943 100.623C85.6025 101.007 85.4107 101.367 85.2188 101.751C84.6434 101.871 82.6292 105.952 82.797 106.12C80.2074 106.528 75.7954 107.92 73.3256 106.6C74.1169 105.376 74.9082 104.176 75.7474 103C75.2918 102.663 75.8673 102.375 76.203 102.351C79.4161 97.9588 81.9578 93.0861 84.6434 88.3573C85.8902 86.197 91.4052 79.644 90.4701 77.2917C91.2374 76.7876 91.1655 76.6916 90.3502 76.9316ZM56.4689 93.5661C56.1332 93.2061 56.421 93.2541 56.7327 93.3741C56.6368 93.4461 56.5648 93.5181 56.4689 93.5661ZM73.4455 84.2767C72.966 84.5168 72.4624 84.7328 71.9589 84.9488C72.7502 84.5408 73.5654 84.1567 74.3807 83.7726C74.069 83.9407 73.7572 84.1087 73.4455 84.2767ZM75.0521 83.3886C75.2439 83.2686 75.4597 83.1485 75.6755 83.0285C75.4597 83.1485 75.2679 83.2686 75.0521 83.3886Z" fill="#F2F2F2"/>
<path d="M51.7212 98.7269C51.6253 98.6309 51.5294 98.5589 51.4335 98.4629C51.5294 98.5829 51.6253 98.6549 51.7212 98.7269Z" fill="#F2F2F2"/>
<path d="M51.4095 98.4872C51.0258 98.1512 50.6182 97.7911 50.1626 97.7911C50.5223 97.7911 50.9779 98.1272 51.4095 98.4872Z" fill="#F2F2F2"/>
<path d="M51.7212 98.7269C52.0329 99.015 52.3206 99.279 52.4885 99.399C52.4885 99.351 52.4885 99.303 52.4885 99.255C52.2967 99.111 52.1048 98.991 51.913 98.8469C51.8411 98.8469 51.7691 98.7989 51.7212 98.7269Z" fill="#F2F2F2"/>
<path d="M116.654 99.231L116.199 98.5589C114.784 97.7187 111.091 91.2618 109.533 89.0054C109.413 88.9814 108.766 88.9094 109.173 88.5013C108.838 88.0693 108.358 86.9411 107.687 86.9171C107.471 86.6051 107.255 86.293 107.015 85.981C106.991 85.981 102.507 78.2278 102.315 78.3478C101.908 78.5878 102.339 79.5 102.915 80.3881C103.227 80.8442 103.586 81.3483 103.97 81.8763C104.162 82.1164 104.282 82.2844 104.306 82.3324C104.186 82.1884 104.09 82.0204 103.97 81.8763C103.682 81.4923 103.275 80.9402 102.915 80.3881C100.757 77.2917 99.7258 75.9474 96.9203 79.884C92.7961 85.6449 89.3912 92.942 86.4418 99.375C86.6816 99.567 86.7296 99.8071 86.7775 100.023C89.6549 94.6463 92.7961 89.3655 96.0571 84.2287C95.9612 84.4207 95.7214 84.5167 95.4097 84.5647C95.4337 84.5647 95.4337 84.5888 95.4577 84.5888L95.3378 84.5647C95.3617 84.5647 95.3857 84.5648 95.3857 84.5408C93.995 83.8687 96.6086 83.1485 96.0331 84.2047C97.256 82.2844 98.3111 80.2921 99.534 78.3478C102.052 82.1164 104.45 86.005 107.039 89.7255C106.871 89.8695 107.159 90.4936 107.231 90.6137C107.375 90.5417 107.519 90.4456 107.639 90.3256C107.663 90.0616 107.687 89.8215 107.711 89.5575C108.981 89.6295 107.687 90.4216 107.255 90.6137C108.43 93.014 110.588 94.8383 111.979 97.0946C112.29 96.3025 113.202 98.1748 112.123 97.3107C112.698 98.1748 113.537 98.8949 114.017 99.807C108.598 102.255 102.819 103.528 97.0162 104.608C92.7961 105.4 87.401 105.328 83.6843 107.272C86.3219 105.928 90.1585 106.432 93.0119 106.024C94.8102 105.76 96.5846 105.4 98.407 105.256C98.1192 105.184 97.9034 105.088 97.8555 104.848C98.335 104.176 99.438 105.016 99.1503 105.208C101.308 105.064 117.614 103.072 117.206 100.119C118.117 100.311 125.095 95.9665 124.687 95.3664C124.783 95.6064 117.326 99.0149 116.654 99.231Z" fill="#F2F2F2"/>
<path d="M102.939 80.4121C103.299 80.9642 103.706 81.5163 103.994 81.9003C103.61 81.3723 103.275 80.8682 102.939 80.4121Z" fill="#F2F2F2"/>
<path d="M49.9963 97.7911C49.8984 97.7666 49.8984 97.7666 49.9963 97.7911V97.7911Z" fill="#F2F2F2"/>
<path d="M45.391 71.5068C45.4389 71.4348 45.4389 71.3868 45.415 71.3387C45.415 71.4108 45.391 71.4588 45.391 71.5068Z" fill="#F2F2F2"/>
<path d="M72.6565 43.3029C72.632 43.3273 72.6076 43.3518 72.5586 43.3763C72.6076 43.3763 72.632 43.3518 72.6565 43.3029Z" fill="#F2F2F2"/>
<path d="M115.575 30.2688C115.6 30.2688 115.624 30.2443 115.649 30.2443C115.624 30.2443 115.6 30.2443 115.575 30.2688Z" fill="#F2F2F2"/>
<path d="M153.845 66.0823C153.965 65.3382 154.324 64.6421 154.564 63.922C154.42 64.138 154.324 64.3541 154.276 64.6181C154.108 65.0982 153.917 65.5782 153.845 66.0823Z" fill="#F2F2F2"/>
<path d="M154.852 62.9611C154.804 63.0571 154.756 63.1771 154.756 63.2971C154.804 63.1771 154.828 63.0811 154.852 62.9611Z" fill="#F2F2F2"/>
<path d="M153.821 66.2499C153.821 66.2019 153.845 66.1299 153.845 66.0819C153.797 66.1539 153.797 66.2019 153.821 66.2499Z" fill="#F2F2F2"/>
<path d="M34.5528 65.866C34.5048 65.914 31.7953 70.9067 32.2988 71.0988C32.7544 71.2668 38.4852 62.0494 38.6291 61.0652C38.4612 60.9692 38.2934 60.8972 38.1016 60.8252C36.4471 62.1214 35.9675 64.3777 34.5528 65.866Z" fill="#F2F2F2"/>
<path d="M96.3448 23.8835C97.256 24.1956 95.7933 24.9877 94.9301 24.2916C94.3066 24.4596 82.6052 28.0842 82.893 28.8283C83.3725 28.9483 83.8521 28.9243 84.3317 28.7563C79.4881 30.7006 74.6684 32.6449 70.1126 35.1892C70.8559 34.5411 79.8717 30.0285 79.8957 30.1965C79.7278 29.1883 74.3327 31.9007 73.6613 32.1648C73.6613 32.2848 73.6613 32.4048 73.6374 32.5488C73.4455 32.4528 73.3256 32.4048 73.2537 32.3328C72.1267 32.7889 66.5878 36.7495 67.9545 36.3894C67.1153 36.8695 45.2711 51.3197 46.6618 52.9279C46.47 52.7119 67.5229 37.6856 68.4341 37.1575C76.7306 32.1888 85.6745 28.4922 95.05 26.1399C95.0979 26.0919 95.1219 26.0439 95.1938 25.9958C95.2418 26.0199 95.2658 26.0439 95.3137 26.0919C101.404 24.5796 107.471 23.9555 113.681 23.3074V23.2114L113.849 23.2594L113.753 23.3074C114.544 23.3314 115.312 23.1634 116.055 22.8514C116.223 21.0751 91.6211 26.5239 90.3502 26.86C92.1246 26.1879 121.618 19.2988 121.522 20.7391C121.594 19.0828 98.5508 23.2354 96.3448 23.8835Z" fill="#F2F2F2"/>
<path d="M162.453 34.5891C161.901 34.5171 162.213 35.4533 162.213 35.6933C162.453 35.6693 163.148 35.9573 162.621 36.2214C163.028 36.4374 164.611 37.7096 164.683 38.2377C164.731 38.5977 165.666 40.206 166.122 40.038C166.649 39.8219 163.364 34.6852 162.453 34.5891Z" fill="#F2F2F2"/>
<path d="M123.033 20.9554C122.433 20.8594 122.002 20.7874 121.906 20.7394C121.954 20.9554 122.889 21.3395 123.033 20.9554Z" fill="#F2F2F2"/>
<path d="M121.906 20.7394C121.906 20.7151 121.906 20.7151 121.906 20.7151C121.857 20.7151 121.857 20.7394 121.906 20.7394Z" fill="#F2F2F2"/>
<path d="M130.058 20.5466C128.14 19.6825 124.855 20.8827 122.865 20.6186C122.937 20.6666 123.009 20.7386 123.057 20.8106C123.057 20.8586 123.057 20.9067 123.033 20.9307C125.574 21.2907 131.401 21.8668 131.593 21.2187C131.737 20.7146 130.346 20.6666 130.058 20.5466Z" fill="#F2F2F2"/>
<path d="M54.5985 64.0661C54.5265 64.1381 54.4786 64.2101 54.4546 64.2821C55.4617 64.3781 56.4927 64.4261 57.5238 64.4741C57.356 64.2581 57.26 64.0181 57.2121 63.754C56.3249 63.85 55.4617 63.9701 54.5985 64.0661Z" fill="#F2F2F2"/>
<path d="M73.4455 41.8142C73.949 41.3342 73.0618 40.8781 72.7261 40.7821C72.6063 40.8061 72.5103 40.7581 72.4624 40.6381C71.8869 40.5661 71.3834 40.422 70.9278 40.206C70.9038 40.254 70.9038 40.278 70.9518 40.302C70.5921 40.254 70.2324 40.23 69.8727 40.278C70.0885 40.134 70.2324 40.014 70.3763 39.918C70.1845 39.8219 70.0166 39.7019 69.8488 39.5819C67.0913 40.6381 64.5256 42.3663 62.1757 44.0946C62.3675 43.9746 63.9021 42.8944 64.022 43.1104C64.2139 43.4225 60.2095 46.0629 59.5621 46.543C59.5621 46.567 59.5861 46.567 59.5861 46.591C59.658 46.543 59.706 46.495 59.7779 46.4469C59.706 46.495 59.658 46.543 59.5861 46.591C59.706 46.735 59.8258 46.879 59.9218 47.047C60.785 46.3029 68.7937 40.8061 68.9855 41.2142C69.1054 41.4302 60.8809 46.783 60.1615 47.4791C60.3534 47.7912 60.4733 47.9832 60.713 48.1512C61.3365 47.5511 70.5681 41.1902 70.8558 41.7902C70.9278 41.9343 61.6961 47.7671 61.0727 48.4392C61.1926 48.5113 61.3125 48.6073 61.4803 48.7273C60.809 49.1834 59.7299 49.4234 59.61 50.1675C59.4182 50.1435 59.2504 50.1435 59.0585 50.1195C58.531 50.5276 53.3997 55.5923 53.1359 55.3043C52.7283 54.8962 57.9316 50.2395 58.4591 49.8795C58.2673 49.7354 58.0754 49.5674 57.9076 49.3994C57.5719 49.7354 54.8863 52.5199 54.4547 52.2798C53.9991 52.0398 57.3561 49.0873 57.6678 48.8233C57.5959 48.5353 57.404 48.3672 57.1643 48.2472C56.4689 48.9433 45.4868 59.889 45.5828 59.961C45.6547 59.6249 45.8225 59.3129 46.0863 59.0729C46.446 58.5208 46.8056 58.0167 47.1653 57.4646C46.5659 58.1847 43.089 62.5294 44.8634 61.2332C44.7195 61.5452 44.7195 61.8093 44.8154 62.0493C44.3599 62.1693 43.7604 61.8333 43.3768 62.1213C42.3697 62.8174 46.47 62.8654 46.8296 62.6974C47.2852 62.5534 47.8367 62.4574 48.3403 62.5294C47.477 64.3056 52.7523 64.1136 53.064 64.1376C53.1119 63.6575 52.7283 61.9293 53.6634 62.2173C54.2389 62.4334 54.5027 62.8654 54.4787 63.5135C56.4209 63.7056 56.7087 62.3614 58.3392 62.0973C58.4351 62.1453 59.634 62.6974 59.61 62.7934C58.9147 63.3695 58.0994 63.6815 57.1643 63.7296C57.2122 63.9936 57.3081 64.2336 57.476 64.4497C62.6073 64.6417 67.7147 64.9537 72.8221 65.1458C72.4144 64.9057 73.6373 64.2096 73.973 64.9297C73.973 65.0498 73.8771 65.1458 73.7332 65.1938C77.1621 65.3138 93.5393 68.5783 89.3431 62.3853C89.463 62.5294 90.3022 63.7056 90.566 63.5135C91.0216 63.1535 78.8886 48.9673 78.433 48.0792C76.8025 45.9909 75.124 43.9026 73.4455 41.8142ZM69.2013 40.398C68.9855 40.5421 65.0291 43.1344 64.7414 42.6784C64.2139 41.9343 70.2804 39.7259 69.2013 40.398ZM71.9109 42.4863C72.1267 42.9664 58.531 50.9836 57.7637 51.9678C59.2024 50.1195 71.6711 41.9823 71.9109 42.4863ZM50.9299 54.8242C50.9299 54.8482 50.9299 54.8482 50.9299 54.8242C50.9059 54.8482 50.9059 54.8482 50.8819 54.8482L50.9299 54.8242ZM46.0863 61.0411C46.6138 60.321 53.1599 52.9279 53.4476 53.216C53.9751 53.744 45.5828 61.7133 46.0863 61.0411ZM48.1005 60.4651C48.3642 59.6729 52.2727 55.8324 52.4645 56.0004C52.8961 56.3604 47.9326 60.9451 48.1005 60.4651ZM48.9637 61.8333C48.604 61.9533 48.2923 62.0253 47.9326 61.9293C49.9228 60.345 51.3855 58.2567 53.3277 56.6245C53.7354 56.2884 56.6847 52.6639 57.0444 53.288C57.476 54.0321 49.0596 60.9931 48.9637 61.8333ZM82.4373 54.6322C82.3414 54.5122 82.2455 54.3921 82.1736 54.2961C82.2695 54.3921 82.3654 54.5122 82.4373 54.6322ZM81.766 54.7522C81.8619 54.7762 81.9338 54.7762 82.0297 54.7762C82.0057 54.8242 81.9578 54.8722 81.9338 54.9442C82.7491 55.9044 83.876 57.0085 84.9551 58.1847C84.1878 57.2246 83.4924 56.1684 82.869 55.1603C83.4924 55.9764 84.0919 56.7925 84.6913 57.6326C84.979 58.0407 85.2668 58.4488 85.5545 58.8568C86.6815 60.129 87.7126 61.4492 88.1921 62.6494C88.36 63.1055 89.6068 64.1376 89.463 64.5457C89.3191 64.9537 80.1594 63.8976 79.3921 63.8496C70.1125 63.2255 60.8809 61.8093 51.5533 61.7613C54.8863 57.7046 58.7468 54.5842 62.7991 51.1997C64.4297 49.8315 66.0602 48.4633 67.6907 47.095C67.6667 46.999 67.6428 46.903 67.6188 46.807C67.7627 46.807 67.9065 46.783 68.0744 46.783C69.5131 45.5828 71.2875 44.7187 72.6063 43.3985C72.1267 43.8306 71.5752 44.1906 71.0237 44.5267C70.736 44.7427 70.4242 44.9347 70.0646 45.1027C70.3763 44.9107 70.688 44.7187 71.0237 44.5267C71.5992 44.0706 71.9828 43.4705 72.1747 42.7504C72.5823 42.5104 72.7981 42.1263 72.7981 41.5982C72.9659 41.6462 72.918 41.9343 73.0858 41.9583C73.3736 42.9184 79.0324 51.7277 79.464 51.5117C79.9196 51.3197 77.1142 47.5751 76.8264 47.095C78.2891 48.9673 79.6799 50.8876 81.0946 52.8079C81.5022 53.312 81.9338 53.9361 81.9818 54.0081C81.67 53.6 81.3823 53.192 81.0946 52.8079C80.8068 52.4479 80.5431 52.1358 80.4711 52.2078C79.9676 52.4959 81.5741 54.5122 81.766 54.7522Z" fill="#F2F2F2"/>
<path d="M70.9757 44.5267C70.664 44.7188 70.3283 44.9108 70.0166 45.1028C70.4003 44.9348 70.712 44.7428 70.9757 44.5267Z" fill="#F2F2F2"/>
<path d="M85.5306 58.8572C85.3388 58.6412 85.147 58.4251 84.9312 58.2091C85.2189 58.5932 85.5306 58.9532 85.8423 59.3133C85.7464 59.1452 85.6505 59.0012 85.5306 58.8572Z" fill="#F2F2F2"/>
<path d="M81.0708 52.7843C81.3585 53.1924 81.6703 53.6004 81.958 53.9845C81.91 53.9125 81.4784 53.2884 81.0708 52.7843Z" fill="#F2F2F2"/>
<path d="M114.065 30.3409C112.362 30.677 110.588 30.701 108.885 31.0851C108.909 31.1091 108.933 31.1331 108.957 31.1811C109.101 31.2291 109.293 31.2771 109.389 31.3491C109.437 31.3971 109.485 31.4211 109.533 31.4691C111.475 31.0611 113.585 31.2291 115.383 30.3889C114.28 30.869 113.177 30.797 111.93 30.917C112.65 30.773 113.369 30.581 114.065 30.3409Z" fill="#F2F2F2"/>
<path d="M115.36 30.3646C115.432 30.3406 115.503 30.2926 115.575 30.2686C115.503 30.2926 115.432 30.3406 115.36 30.3646Z" fill="#F2F2F2"/>
<path d="M116.439 30.2925C111.259 39.1739 106.2 48.1032 100.997 56.9845C101.548 57.0326 102.1 57.0806 102.651 57.1046C107.663 48.4153 112.122 39.4379 116.678 30.4845C116.894 30.5806 117.182 30.1485 117.254 29.9805C116.942 30.0765 116.63 30.1005 116.319 30.1245C116.367 30.1965 116.391 30.2445 116.439 30.2925Z" fill="#F2F2F2"/>
<path d="M109.509 27.0041C109.509 26.98 109.509 26.932 109.533 26.908C109.365 26.908 109.173 26.884 109.005 26.884C108.43 27.0281 107.878 27.1721 107.327 27.3161C108.046 27.2201 108.766 27.0761 109.509 27.0041Z" fill="#F2F2F2"/>
<path d="M118.381 26.7641C118.117 26.692 117.494 26.668 117.422 27.0041C117.374 26.9081 117.302 26.8121 117.23 26.7401C118.573 26.572 114.688 26.14 114.328 26.116C112.554 26.0439 110.756 26.452 109.005 26.9081C109.197 26.9081 109.365 26.9081 109.533 26.9321C109.653 26.7401 110.18 26.692 110.252 27.0041C110.012 26.9801 109.773 26.9561 109.533 26.9321C109.509 26.9561 109.509 26.9801 109.509 27.0281C108.765 27.1001 108.046 27.2441 107.327 27.3401C107.878 27.1961 108.43 27.0521 109.005 26.9081C102.124 26.8361 89.1033 32.0689 83.2766 34.9733C83.3006 34.8053 72.4384 38.0698 71.2395 39.1019C71.5512 39.2219 71.8629 39.366 72.1507 39.558C75.6275 38.8379 78.5289 36.3415 82.1017 35.6214C81.6221 36.0535 81.67 36.7496 82.0297 37.2056C81.8859 40.6622 89.0793 47.2872 91.0216 49.9276C93.6112 53.4801 98.1431 64.2577 102.028 58.1608C101.572 58.0168 101.116 57.7287 100.637 57.6087C100.325 58.1368 100.013 58.6649 99.6777 59.1689C96.7764 54.8243 93.9709 50.3116 90.9496 46.063C90.1104 45.8709 90.0864 45.8229 90.4701 45.3909C88.6957 42.8465 86.9932 40.2541 85.1469 37.7577C85.5305 37.5897 100.181 32.3089 100.205 32.933C100.205 33.149 97.6875 33.6531 97.3518 33.8211C100.829 33.101 104.377 32.6209 107.83 31.7808C107.686 31.6608 107.567 31.4928 107.495 31.3007C106.775 31.3728 101.164 32.3089 101.236 32.1889C100.829 32.2129 100.397 32.2369 99.9894 32.2849C102.291 31.8048 104.545 31.3007 106.847 30.8927C106.607 30.7247 106.44 30.5326 106.368 30.2926C105.72 30.4366 96.105 33.197 95.9611 32.789C95.7453 32.0689 105.504 30.0285 106.248 29.8845C106.248 29.8605 106.248 29.8365 106.248 29.8125C105.84 29.8125 105.504 29.6445 105.193 29.2844C104.473 29.5245 98.7426 31.3247 98.4309 30.8207C98.263 30.5326 115.383 26.212 115.431 27.4122C115.455 27.7242 106.583 28.9484 105.696 29.1404C106.008 29.2604 106.224 29.4525 106.344 29.7165C106.464 29.7405 106.559 29.7645 106.655 29.7885C109.053 29.3564 114.4 27.5802 116.75 28.6123C116.798 28.5643 116.846 28.5163 116.894 28.4683C116.918 28.6363 116.702 29.5245 116.558 29.5965C116.774 29.5725 116.99 29.5725 117.206 29.5965C117.158 29.0444 118.836 27.0041 118.501 26.7881C119.244 27.0521 127.756 27.3401 127.78 27.2441C128.188 26.116 116.798 25.8039 118.381 26.7641ZM94.954 33.341C94.7382 33.4611 89.3671 35.2613 89.2232 34.9493C88.8635 34.0852 95.5774 33.029 94.954 33.341ZM87.4248 34.0852C88.0243 33.8211 97.0881 30.8207 97.184 31.1327C97.4477 31.9968 86.7055 34.3972 87.4248 34.0852ZM111.211 26.9321C111.307 26.284 116.343 26.38 116.343 26.5C116.367 26.8601 111.139 27.3161 111.211 26.9321Z" fill="#F2F2F2"/>
<path d="M108.526 30.6766C108.622 30.6526 108.694 30.6526 108.79 30.6286C110.9 30.2926 113.154 29.7885 115.288 29.7645C115.695 29.5245 116.103 29.2604 116.487 28.9484C113.561 29.6205 110.468 29.4764 107.519 30.0765C107.902 30.2446 108.238 30.4366 108.526 30.6766Z" fill="#F2F2F2"/>
<path d="M59.0106 47.071C58.8427 47.2151 58.6749 47.3351 58.507 47.4551C58.6749 47.3111 58.8188 47.167 58.9866 47.047C58.9866 47.023 58.9626 47.023 58.9626 46.999C58.555 47.3111 58.1714 47.6231 57.7397 47.8632C58.0754 47.9112 59.4422 48.0312 59.0825 47.2391C59.0825 47.1911 59.0346 47.119 59.0106 47.071Z" fill="#F2F2F2"/>
<path d="M55.9894 48.775C52.9681 51.3674 49.9708 54.0318 47.4531 57.1523C50.4504 54.0798 53.8793 51.2954 56.8046 48.1749C56.7807 48.1749 56.7807 48.1749 56.7567 48.1749C56.4929 48.367 56.2532 48.583 55.9894 48.775Z" fill="#F2F2F2"/>
<path d="M59.2986 46.2553C59.3945 46.1833 59.4904 46.1113 59.5623 46.0393C59.8261 45.8232 60.0659 45.6072 60.3056 45.4152C59.922 45.6552 59.5623 45.8952 59.2026 46.1593C59.2266 46.1833 59.2746 46.2073 59.2986 46.2553Z" fill="#F2F2F2"/>
<path d="M58.483 46.6867C58.0754 46.9987 57.7157 47.3588 57.332 47.7189C57.8356 47.3828 58.2912 47.0468 58.7707 46.6627C58.7467 46.6147 58.7228 46.5667 58.6988 46.5187C58.6269 46.5667 58.5549 46.6387 58.483 46.6867Z" fill="#F2F2F2"/>
<path d="M109.557 56.9849C110.708 55.4247 111.907 53.5764 112.602 52.4962C111.715 53.7444 110.324 55.4487 109.557 56.9849Z" fill="#F2F2F2"/>
<path d="M148.785 36.1017C149.984 36.9178 150.799 37.4939 150.871 37.4459C151.039 37.3259 150.152 36.8218 148.785 36.1017Z" fill="#F2F2F2"/>
<path d="M124.304 37.9493C123.584 39.1015 122.841 40.3017 122.122 41.4539C122.913 40.3257 123.632 39.1495 124.304 37.9493Z" fill="#F2F2F2"/>
<path d="M148.546 34.2531C148.354 34.1331 148.138 34.0371 147.946 33.917C148.018 33.821 135.501 29.1643 135.453 29.1643C135.214 29.2603 133.823 29.5724 134.446 28.9003C133.583 28.7323 128.644 27.7721 129.267 28.2522C130.106 28.3002 137.228 29.9564 137.06 30.4125C137.108 30.2925 129.507 29.0683 128.811 28.6603C128.476 28.7323 128.26 28.8763 128.14 29.0923C127.996 29.1163 127.852 29.1403 127.708 29.1883C127.828 29.0443 128.356 28.3002 128.284 28.1322C127.972 26.956 126.174 29.3564 126.438 30.1245C126.27 30.3645 126.126 30.6045 125.958 30.8446C126.27 31.0366 125.742 31.2766 125.646 31.3006C125.502 31.5167 125.335 31.7567 125.191 31.9728C125.263 31.7807 125.335 31.5647 125.383 31.3727C125.263 31.3967 125.143 31.3967 125.023 31.4207C122.625 35.4293 120.107 39.3899 117.805 43.4465C118.285 43.1344 118.765 43.1584 119.22 43.5665C119.364 44.4786 117.398 45.0307 116.918 45.0067C116.678 45.4628 116.367 45.8949 116.127 46.3509L116.343 46.3029L116.319 46.4229L116.127 46.3509C115.743 47.047 115.12 47.5511 115.024 48.3672C114.736 48.8713 114.448 49.3994 114.185 49.9035C114.544 50.5275 106.2 59.3849 106.751 59.841C107.111 60.153 108.31 58.7368 109.581 56.9845C110.348 55.4483 111.739 53.744 112.626 52.4958C112.914 52.0638 113.13 51.7277 113.226 51.6077C113.082 51.8718 112.866 52.1598 112.626 52.4958C111.907 53.576 110.708 55.4243 109.581 56.9845C109.269 57.6326 109.053 58.2327 109.029 58.7848C107.423 61.6652 110.516 60.5611 111.763 60.441C116.031 60.081 122.121 55.1603 125.886 53.312C134.566 49.5434 142.695 44.6467 151.063 40.254C138.499 46.903 124.232 52.2558 111.259 58.8568C112.386 57.2006 113.513 55.4483 114.712 53.8401C114.353 53.408 114.568 53.1199 115.36 52.9519C115.959 52.1358 118.429 47.8631 117.158 49.3514C117.302 49.1353 117.422 48.9193 117.566 48.7033C116.702 48.6793 117.302 47.7671 117.925 48.1272C118.069 47.8872 118.213 47.6471 118.381 47.4071C118.405 47.4311 120.155 44.6467 122.193 41.4062C121.81 41.9583 121.402 42.4863 120.995 43.0144C121.282 42.5103 121.57 41.9823 121.858 41.4782C123.752 38.1177 125.622 34.7572 127.493 31.3967C127.589 31.4207 127.708 31.4207 127.804 31.4447C126.701 33.557 125.598 35.7653 124.375 37.9256C126.318 34.8052 128.044 32.0208 128.308 31.5167C130.945 31.9247 133.511 32.7169 136.029 33.557C139.146 34.5891 142.311 35.6933 145.165 37.3256C146.124 37.8776 147.802 39.7019 148.881 39.7979C149.481 40.11 150.392 39.9179 150.776 39.3659C151.591 39.2699 151.759 38.5737 151.519 37.9256C151.663 38.0937 152.19 38.8138 152.454 38.6938C152.742 38.5497 152.334 37.9016 152.262 37.7576C152.454 37.4216 148.306 34.5891 148.546 34.2531ZM115.384 52.2318C115.312 52.3518 115.216 52.4958 115.12 52.6159C115.264 52.3758 115.408 52.1358 115.551 51.8958C115.479 52.0398 115.432 52.1358 115.384 52.2318ZM125.215 33.581C125.215 33.509 125.239 33.437 125.263 33.389C125.335 33.1969 125.454 33.0049 125.694 32.8609C126.15 33.365 126.126 33.389 125.215 33.581ZM144.397 32.8129C145.356 33.2209 146.268 33.773 147.203 34.2531C146.795 34.0851 146.364 33.9651 145.932 33.893C145.356 33.437 144.733 33.0529 144.086 32.6689C144.181 32.7169 144.301 32.7649 144.397 32.8129ZM130.106 29.5724C130.802 29.3324 134.782 30.6766 134.71 30.9646C134.614 31.3727 129.627 29.7404 130.106 29.5724ZM129.579 31.0126C130.73 30.4125 138.211 33.2209 138.043 33.485C137.851 33.821 129.938 30.8446 129.579 31.0126ZM148.689 39.7499C148.713 39.7739 148.737 39.7739 148.785 39.7979C148.737 39.7979 148.713 39.7739 148.689 39.7499ZM149.289 39.7499C149.553 39.6779 139.122 33.413 139.098 33.485C139.626 32.2848 150.2 39.5099 149.289 39.7499ZM150.176 39.0538C150.344 38.9818 144.134 34.8772 143.51 34.5891C141.904 33.869 136.604 31.0606 135.621 31.1086C138.451 31.0366 142.359 33.509 144.805 34.7332C144.949 34.8292 151.351 38.6218 150.176 39.0538ZM150.871 37.4456C150.799 37.4936 149.984 36.9175 148.785 36.1014C145.141 34.2051 138.067 31.0126 138.067 30.8446C138.067 30.7726 138.115 30.7246 138.235 30.7246C140.081 30.2205 145.692 34.0131 148.785 36.1014C150.152 36.8215 151.039 37.3256 150.871 37.4456Z" fill="#F2F2F2"/>
<path d="M19.974 61.1852C20.7173 61.5693 20.7653 61.8813 20.0939 62.1454C19.8301 62.1694 18.6072 61.6413 19.2546 61.2092C15.7538 61.2332 10.6944 57.9688 8.05678 60.6332C-2.82936 72.0589 32.2988 68.8664 31.9871 69.8265C32.2029 69.1544 29.8051 68.1463 29.3735 68.0023C25.7767 68.6024 19.0868 64.9778 14.435 66.49C14.3151 66.202 14.2432 65.9139 14.1233 65.6259C14.2671 65.6259 15.2263 65.7219 15.2263 65.3859C15.2263 65.0018 14.1712 65.1698 13.9794 65.1698C13.9075 64.9058 13.7636 64.6418 13.7396 64.3537C14.7227 64.3057 25.441 64.7618 25.417 64.8338C25.513 64.3057 14.7227 63.8256 13.7636 63.8256C13.7876 63.0095 14.1952 62.4094 15.0824 62.1454C18.9429 63.0095 23.4748 62.7695 27.4792 62.9375C27.1914 62.4814 27.1675 62.0014 27.2873 61.4973C27.1675 61.9774 27.1914 62.4814 27.4792 62.9375C28.4143 62.9855 33.9773 63.0815 33.9053 61.7853C33.8334 60.9932 20.6214 61.1852 19.974 61.1852ZM13.2601 63.8256C12.7565 63.8256 10.4066 63.2976 10.2868 63.6096C10.1429 64.4257 12.6126 64.4017 13.1641 64.3777C13.1402 64.6658 13.2601 64.9778 13.308 65.2659C11.7015 65.5539 9.80719 63.5376 9.30365 63.6096C7.93689 63.8256 12.205 65.7459 13.38 65.6499C13.4519 65.962 13.4998 66.25 13.5958 66.538C13.4998 66.538 13.4039 66.538 13.308 66.538C13.4759 66.6581 8.48839 65.4819 8.72817 65.2659C8.22463 65.7699 10.047 66.442 10.2148 66.49C6.69002 66.058 7.19356 60.4651 10.4066 60.4891C11.5096 60.4891 13.1641 61.6173 14.2911 61.9293C13.6437 62.6255 13.4039 62.9615 13.2601 63.8256ZM22.4917 62.1454L22.5157 62.0254L22.6595 62.1214L22.4917 62.1454ZM24.6977 62.3134C24.2661 62.3854 24.0503 62.0974 24.0503 61.4973C24.0982 61.4253 24.314 61.4013 24.4339 61.3293C24.6737 61.3773 25.6328 62.0014 24.6977 62.3134Z" fill="#F2F2F2"/>
<path d="M71.0476 21.9636C71.2874 21.7476 71.5032 21.5315 71.743 21.3395C71.0236 20.6434 70.3762 19.8513 69.7048 19.1072C69.6568 18.8191 69.465 18.6031 69.2013 18.5071C67.7865 16.8508 63.1347 9.43371 60.7609 15.2906C60.641 15.5306 60.7609 16.2027 61.0007 17.1389C61.5042 16.7548 61.6961 16.6828 62.0797 16.8988V16.7788C62.1277 16.4668 62.1996 16.1787 62.2955 15.9627C62.3195 15.8907 62.3435 15.8187 62.3674 15.8187C62.7991 14.9305 63.6383 14.7145 64.8132 15.1946C64.1898 15.3626 65.053 17.1629 65.101 17.4269C65.2448 17.4509 65.3647 17.5229 65.4846 17.5709C65.2928 16.9468 65.3647 15.8427 65.053 15.2906C66.2759 15.8667 66.9713 17.3069 67.6427 18.4111C67.1871 18.4831 66.5636 18.7231 66.132 18.9151C65.9882 18.6271 65.8683 18.3151 65.7244 18.027C65.5805 18.027 65.4367 18.027 65.2928 18.027C65.4606 18.3871 65.5805 18.8671 65.7004 19.2512C65.4846 19.3712 65.2928 19.5152 65.101 19.6353C64.8372 19.1312 64.6694 18.5791 64.4536 18.051C64.3337 18.051 64.1898 18.051 64.0699 18.051C64.3576 18.6751 64.5255 19.2992 64.7893 19.9473C64.5974 20.2113 64.4296 20.4994 64.2617 20.7874C63.9021 20.2353 62.5113 15.7947 62.3435 15.7947H62.3195C62.2955 15.8427 62.2715 15.8907 62.2476 15.9387C62.1756 16.2507 62.2236 16.8988 62.2476 17.0189C62.3674 17.0909 62.4873 17.1869 62.6552 17.3069C62.5353 17.3069 62.4394 17.3069 62.3195 17.3069C62.6312 18.5071 63.4465 19.5152 63.7102 20.7154C63.1348 19.6593 62.3674 18.5071 62.1037 17.3069C61.744 17.3069 61.3604 17.2829 61.0007 17.2829C62.2476 21.8916 66.8274 32.5492 68.0263 31.7571C68.434 31.493 68.1222 30.0528 68.0263 29.6928C69.0334 29.3567 66.0601 24.676 65.9162 24.748C65.8203 24.556 65.6764 24.34 65.5326 24.1239C65.9882 24.2199 64.8372 21.9156 64.6694 21.6276C64.7893 21.2675 64.9331 20.9074 65.101 20.5474C65.2688 20.8834 66.8274 25.2041 67.3789 24.9401C67.9064 24.676 65.5326 20.4994 65.3408 20.1633C65.5086 20.0193 65.6764 19.8753 65.8683 19.7553C66.0361 20.0433 66.6835 22.3477 67.0672 22.1796C67.6906 21.9156 66.4677 19.7553 66.2519 19.3472C66.7794 19.1312 67.3549 18.9632 67.9064 18.8671C68.4819 19.5632 74.5244 29.1167 75.6754 28.4206C76.5386 27.8925 72.846 22.8277 72.4623 22.2757C72.0307 22.1556 71.5511 22.0596 71.0476 21.9636Z" fill="#F2F2F2"/>
<path d="M60.833 17.2586C60.9049 17.2586 60.9769 17.2586 61.0488 17.2586C61.0248 17.2106 61.0248 17.1626 61.0248 17.1146C60.9529 17.1866 60.9049 17.2106 60.833 17.2586Z" fill="#F2F2F2"/>
<path d="M62.2957 15.9633C62.3199 15.915 62.3441 15.8667 62.3683 15.8184C62.3199 15.8184 62.2957 15.8667 62.2957 15.9633Z" fill="#F2F2F2"/>
<path d="M63.7823 15.2183C63.2068 15.1223 63.7583 17.0426 63.7583 17.2346C63.8782 17.2586 64.0221 17.2586 64.1659 17.2826C64.1659 17.1866 64.1659 17.1146 64.1899 17.0186C64.2139 16.8026 63.9741 15.2423 63.7823 15.2183Z" fill="#F2F2F2"/>
<path d="M137.587 4.27217C137.611 4.27217 137.635 4.27217 137.659 4.27217C137.707 4.27217 137.779 4.24817 137.827 4.24817C137.755 4.24817 137.683 4.27217 137.587 4.27217Z" fill="#F2F2F2"/>
<path d="M123.848 17.2106C125.934 18.6508 131.065 9.16939 131.689 8.20925C132.648 7.68117 133.871 7.65716 134.83 8.11323C134.446 9.12138 129.243 18.1467 129.651 18.3388C130.202 18.6028 134.83 9.2654 135.214 8.30526C135.477 8.44928 135.645 8.42528 135.837 8.61731C135.669 8.92935 133.343 13.034 133.967 13.226C134.542 13.394 135.909 9.33742 136.149 8.97736C136.293 9.26541 136.532 9.48144 136.724 9.74548C136.604 10.1775 133.751 15.0503 134.254 15.3143C134.782 15.6024 136.82 10.6576 137.012 10.2736C137.444 11.2577 136.317 11.9538 136.413 12.7939C135.789 14.3542 134.566 15.6744 133.871 17.2106C135.405 17.2586 134.302 17.9307 133.535 17.9547C133.391 18.2908 132.36 20.3311 133.008 20.7151C133.487 20.7151 133.823 20.4991 134.039 20.067C133.967 20.091 133.871 20.115 133.775 20.139C133.799 19.827 133.967 19.587 134.23 19.3949C134.278 19.4429 134.326 19.515 134.374 19.539C136.676 15.9624 142.839 6.16894 140.057 2.08832C134.302 -7.3211 124.423 17.6187 123.848 17.2106ZM139.674 4.6087C139.506 6.50499 138.235 8.40127 137.516 10.1295C137.42 9.96151 137.324 9.79348 137.204 9.62546C137.707 8.35327 138.738 7.08108 139.098 5.80888C139.458 4.5607 138.379 2.92845 138.379 2.92845C138.259 3.2405 139.002 4.84874 138.619 5.83289C138.163 7.00907 137.492 8.11323 136.916 9.2654C136.724 9.02537 136.556 8.73733 136.341 8.52129C136.508 7.99321 138.355 4.27265 137.971 4.22464H137.947C137.899 4.22464 137.851 4.24865 137.779 4.24865C137.204 5.52084 136.556 6.88905 135.981 8.20925C135.813 8.06522 135.597 8.01722 135.405 7.8972C135.477 7.77718 136.413 6.24095 136.053 6.04892C135.765 5.9049 135.07 7.58515 135.022 7.65716C134.111 7.2251 133.295 7.08108 132.24 7.20109C132.936 6.12093 140.009 -2.0643 139.674 4.6087Z" fill="#F2F2F2"/>
<path d="M137.995 4.20032C137.995 4.20032 137.971 4.22405 137.995 4.20032V4.20032Z" fill="#F2F2F2"/>
<path d="M176.24 37.4457C174.73 38.0938 173.243 38.9579 171.685 39.438C171.493 39.1979 170.893 39.0779 170.749 39.51C170.773 39.534 170.797 39.558 170.797 39.558C173.051 39.582 177.487 37.1336 181.372 34.7812C179.669 35.6454 177.967 36.5095 176.216 37.3256C176.216 37.3736 176.24 37.4217 176.24 37.4457Z" fill="#F2F2F2"/>
<path d="M195.399 27.9885C195.279 27.9885 195.135 27.9885 195.015 27.9885C194.871 27.7965 194.656 27.7245 194.368 27.7245C194.368 27.8205 194.344 27.8925 194.32 27.9885C192.066 30.4369 190.339 32.2132 187.366 33.8934C187.534 33.5094 187.606 33.1973 187.606 32.7653C188.109 32.4532 193.553 28.8287 192.737 28.2286C192.737 28.2286 188.157 32.0211 187.558 32.3332C187.534 32.1172 187.462 31.8771 187.462 31.6611C187.63 31.5651 189.38 30.6049 189.189 30.2929C189.069 30.1009 187.582 31.037 187.39 31.157C187.03 29.8608 186.143 28.7807 185.016 28.0605C186.983 27.0284 192.977 22.3237 194.248 26.3323C194.296 26.3083 194.344 26.2843 194.392 26.2603C194.272 27.1964 194.704 26.8844 195.399 26.5963L195.351 26.6923C195.375 26.9324 195.519 27.1244 195.759 27.2684C196.046 18.3391 182.019 27.3644 179.022 28.9007C177.247 29.8128 175.449 30.6529 173.675 31.5171C172.596 32.0451 166.337 35.2856 168.279 35.2136C173.77 34.9496 179.405 31.037 184.081 28.5406C185.352 28.7567 186.671 30.1249 186.983 31.373C185.64 32.1652 183.578 33.4854 181.372 34.8296C183.266 33.8694 185.136 32.8613 187.03 31.9011C187.078 32.1412 187.078 32.3572 187.102 32.5972C186.431 33.0293 185.736 33.3894 185.04 33.7734C185.136 33.7974 185.232 33.8454 185.304 33.8934C185.352 33.8694 185.376 33.8934 185.352 33.9174C185.328 33.9174 185.328 33.9174 185.304 33.8934C184.753 34.0374 179.765 36.4378 180.125 36.8459C180.628 37.422 186.623 33.4614 187.054 33.1493C187.03 33.5814 186.551 34.1335 186.383 34.5175C185.88 34.9016 178.039 38.6461 178.254 39.1022C178.47 39.5583 181.252 37.95 181.755 37.686C181.491 37.854 172.356 42.8468 172.5 43.0148C171.828 43.3509 171.421 43.8789 171.253 44.551C171.517 45.0791 191.227 34.3255 193.888 31.4691C193.577 31.373 193.241 31.301 192.929 31.205C193.648 30.917 193.696 30.917 193.936 31.4211C194.464 30.797 195.902 28.8527 195.783 27.8445C195.687 27.8925 195.543 27.9405 195.399 27.9885ZM192.018 23.8359C191.586 23.8599 191.179 23.9319 190.747 23.9319C191.179 23.9319 191.61 23.8599 192.018 23.8359ZM190.435 32.5012C190.531 32.4292 190.603 32.3812 190.699 32.3092C191.97 31.5651 192.809 30.6049 193.744 29.5248C193.025 30.941 191.754 31.7091 190.435 32.5012Z" fill="#F2F2F2"/>
<path d="M185.328 33.8453C185.353 33.8453 185.353 33.8454 185.377 33.8698C185.402 33.8454 185.377 33.8209 185.328 33.8453Z" fill="#F2F2F2"/>
<path d="M140.441 130.556C140.417 130.556 140.369 130.556 140.345 130.556C140.777 131.204 144.397 135.74 144.781 134.828C144.829 134.732 141.4 131.324 140.777 130.484C140.681 130.532 140.561 130.556 140.441 130.556Z" fill="#F2F2F2"/>
<path d="M128.548 109.697C128.452 109.769 134.494 121.098 135.094 122.25C135.142 122.154 135.31 122.106 135.453 122.058C135.477 122.058 135.477 122.058 135.501 122.058C135.166 121.338 129.315 109.048 128.548 109.697Z" fill="#F2F2F2"/>
<path d="M42.3217 116.033C42.4656 115.937 42.5855 115.865 42.7533 115.817C42.7773 115.817 42.8013 115.793 42.8492 115.793C41.6024 115.025 40.3795 114.281 39.2285 113.393C40.0438 114.497 41.2187 115.169 42.3217 116.033Z" fill="#F2F2F2"/>
<path d="M144.421 135.645C142.143 134.853 140.968 132.38 139.602 130.628C139.434 130.7 139.266 130.748 139.098 130.796C139.362 131.108 139.626 131.396 139.841 131.708C141.136 133.532 142.671 135.549 144.949 136.125C145.356 136.221 150.68 135.909 149.936 134.853C150.104 135.093 145.045 135.837 144.421 135.645Z" fill="#F2F2F2"/>
<path d="M21.0531 110.585C21.2929 110.633 21.5087 110.657 21.7485 110.705C21.8204 110.657 21.8923 110.609 21.9643 110.537C22.6596 110.033 30.0689 106.288 29.949 105.976C29.7332 105.448 21.9403 110.177 21.0531 110.585Z" fill="#F2F2F2"/>
<path d="M55.7497 156.623C54.4788 157.583 56.0135 156.959 56.3012 156.767C56.1813 156.743 56.0614 156.719 55.9655 156.695C55.8936 156.671 55.8216 156.647 55.7497 156.623Z" fill="#F2F2F2"/>
<path d="M56.5168 156.024C56.7087 156.072 56.9005 156.12 57.1163 156.144C57.2602 156.024 57.404 155.903 57.5479 155.807C58.0994 155.423 58.4831 155.015 58.9147 154.511C58.8667 154.367 58.8188 154.223 58.7948 154.079C58.0515 154.823 57.2842 155.375 56.5168 156.024Z" fill="#F2F2F2"/>
<path d="M15.9696 112.529C16.1375 112.577 16.2813 112.601 16.4492 112.649C16.4971 112.625 16.5211 112.601 16.5691 112.577C16.593 112.553 16.641 112.529 16.665 112.505C16.665 112.361 16.665 112.217 16.665 112.097C16.4492 112.265 16.1854 112.385 15.9696 112.529Z" fill="#F2F2F2"/>
<path d="M19.4705 110.321C19.6863 110.345 19.8781 110.369 20.0699 110.417C20.8132 109.985 24.9375 107.848 24.7697 107.488C24.5778 107.08 20.3816 109.769 19.4705 110.321Z" fill="#F2F2F2"/>
<path d="M196.814 84.0126C196.886 83.7486 196.79 83.5326 196.622 83.3885C196.31 83.4846 195.998 83.5566 195.711 83.6526C195.998 83.8206 196.334 84.0126 196.814 84.0126Z" fill="#F2F2F2"/>
<path d="M30.6923 107.368C30.5244 107.416 30.3566 107.44 30.1887 107.488C30.2127 107.488 30.4285 107.44 30.6923 107.368Z" fill="#F2F2F2"/>
<path d="M30.9801 107.296C30.8842 107.32 30.7883 107.344 30.6924 107.368C30.4286 107.44 30.2128 107.488 30.1888 107.488C30.3567 107.44 30.5245 107.416 30.6924 107.368C31.1 107.272 31.6035 107.08 31.7474 106.864C29.6853 107.488 27.2635 108.785 25.1294 110.057C27.0716 109.097 29.1098 108.281 30.9801 107.296Z" fill="#F2F2F2"/>
<path d="M200.962 77.0273C200.89 77.0273 200.794 77.0273 200.722 77.0033C200.722 76.9553 200.722 76.9313 200.722 76.8833C197.317 75.2511 191.251 75.7792 187.51 75.5391C186.623 75.035 167.68 72.8027 167.44 73.6668C167.057 75.1311 184.081 76.6433 184.657 76.6673C184.129 77.7955 183.937 79.1157 184.081 80.3638C180.94 80.0278 177.751 79.1637 174.706 78.2995C174.898 79.0436 173.291 78.4195 173.914 78.0835C172.979 77.8195 166.649 75.7311 166.529 76.1632C166.217 77.3394 182.762 80.5799 184.129 80.7479C184.153 80.9639 184.177 81.204 184.201 81.42C183.841 81.372 177.751 80.5079 177.775 80.7959C177.847 81.684 183.482 81.8761 184.273 81.9721C184.321 82.2361 184.441 82.5242 184.561 82.7642C180.916 82.1881 176.84 81.9001 173.291 80.7959C173.195 80.6279 166.841 78.3475 166.721 78.8516C166.601 79.3317 168.951 79.7637 169.263 79.8838C168.567 79.7637 163.724 78.7796 165.234 79.8838C165.138 79.8838 165.018 79.8838 164.899 79.8598C164.323 81.516 151.734 97.3584 150.847 96.2542C151.255 96.7583 163.868 80.5799 164.611 79.7878C164.563 79.7637 164.515 79.7638 164.467 79.7397C164.515 79.5957 164.587 79.3797 164.563 79.2117C161.254 79.9558 161.877 77.2194 162.645 77.4834C163.868 77.8915 163.292 78.6356 164.539 79.0916C164.251 76.0672 164.131 73.5948 168.184 73.0907C168.208 73.0187 168.232 72.9227 168.28 72.8507C170.821 71.8426 170.965 60.2728 171.037 58.5445C171.157 55.2801 171.133 51.6795 170.486 48.439C170.366 47.9109 170.174 44.0224 169.67 46.0147C169.598 45.8706 168.999 44.9585 169.023 45.7986C169.119 45.7746 169.287 45.8466 169.43 45.8706C169.287 46.1347 169.311 46.1587 169.047 46.0867C169.91 52.1116 168.256 59.6727 166.289 65.4096C165.762 67.0178 165.114 68.5541 164.515 70.1143C164.251 70.7624 161.901 74.651 163.7 73.0187C163.412 73.6908 163.148 74.2429 163.004 74.579C164.971 74.915 163.939 77.0033 162.237 76.2352C161.949 76.7873 161.638 77.3154 161.302 77.8435C161.829 76.7393 159.959 78.5396 159.695 78.8516C159.719 79.0196 159.599 79.1637 159.36 79.2837C159.384 79.2837 159.384 79.2837 159.408 79.3077L159.312 79.3317C155.955 83.4363 152.31 87.1569 148.33 90.6134C145.62 92.9657 142.815 95.2461 139.865 97.3104C139.122 97.8385 134.83 100.551 136.604 100.095C135.837 100.575 135.118 101.007 134.422 101.439C133.343 100.959 127.181 105.232 125.646 106.048C126.941 106.48 124.735 106.912 125.286 106.24C124.591 106.6 118.381 109.24 120.323 109.192C118.573 109.936 116.439 110.728 113.897 111.521C111.307 113.489 100.301 114.641 95.8172 115.553C96.3447 115.841 96.5605 116.249 96.4406 116.777C95.4096 116.801 92.8199 118.242 93.0117 116.033C91.5251 116.249 86.3458 116.249 85.2188 117.185C83.7801 117.353 82.3174 117.497 80.8068 117.641C79.6319 118.41 71.5992 116.729 69.3212 117.401C68.8417 117.329 65.2209 116.921 65.3888 117.209C64.3098 116.969 63.0629 116.657 61.6721 116.249C59.2264 117.473 43.8083 106.672 43.1609 107.224C42.8732 107.464 43.4487 108.352 43.5686 108.544C42.1059 107.68 40.8111 106.792 39.6361 105.904C38.5571 106.288 33.6895 98.9426 33.0181 97.8625C32.9462 97.8385 32.8743 97.8145 32.8023 97.8145C32.8263 97.7425 32.8503 97.6465 32.8982 97.5984C32.6824 97.1424 31.9631 94.502 31.6034 96.0862C31.1958 95.1981 30.8841 94.358 30.6683 93.5898C31.7473 90.2293 29.7811 85.3806 29.6132 82.0441C29.5653 80.7479 31.0519 69.9463 31.2437 70.0423C29.9729 69.3702 28.9418 79.8118 28.9418 81.0119C28.8699 87.2289 29.9729 93.9259 30.908 100.071C30.908 100.071 31.004 100.023 31.1958 100.071C31.8432 102.135 33.9053 102.975 34.3849 105.472C34.289 105.904 34.1211 106.264 33.9773 106.552C33.3298 106.552 32.5865 106.672 31.7952 106.912C31.6514 107.128 31.1238 107.296 30.7402 107.416C30.8361 107.392 30.932 107.368 31.0279 107.344C29.1576 108.328 27.1195 109.144 25.1772 110.128C23.6426 111.04 22.2759 111.953 21.2928 112.577C22.4677 111.593 23.8105 110.824 25.1772 110.128C27.3113 108.856 29.7331 107.536 31.7952 106.936C31.8432 106.888 31.8672 106.816 31.8432 106.744C31.6514 106.264 22.6116 111.208 21.9402 111.617C21.9402 111.665 21.9402 111.713 21.9402 111.761C20.3576 112.217 18.3674 113.753 17.0486 114.737C17.0726 114.737 17.0966 114.761 17.0966 114.761C17.0726 114.761 17.0246 114.761 17.0006 114.761C16.4012 115.217 15.7538 115.601 15.1783 116.081C15.0584 115.841 14.8906 115.601 14.8186 115.361C15.2263 115.097 15.7058 114.977 16.0895 114.689C15.8976 114.641 15.7058 114.545 15.514 114.425C15.7778 114.425 16.0655 114.473 16.3053 114.521C17.0726 113.921 17.8639 113.345 18.6791 112.793C18.3194 112.841 17.9598 112.865 17.5761 112.865C16.641 113.561 15.514 114.137 14.6508 114.905C14.5549 114.641 14.3391 114.473 14.2192 114.209C14.9625 113.681 15.7058 113.201 16.4971 112.721C16.3293 112.673 16.1854 112.649 16.0175 112.601C15.3461 112.985 14.6987 113.369 14.0513 113.801C13.8115 113.201 13.4039 112.721 12.9483 112.241C12.9483 112.241 12.9243 112.241 12.9243 112.265C12.9004 112.601 13.0442 112.889 13.4279 113.105C13.4039 113.297 13.3799 113.465 13.332 113.633C13.4519 113.777 13.4758 113.945 13.5718 114.089C13.1401 114.401 5.20334 118.818 5.15538 118.65C5.58699 119.874 11.5816 116.009 12.229 115.577C11.3418 115.529 12.6126 114.929 13.0203 115.049C13.284 114.857 13.5478 114.665 13.7876 114.473C13.9794 114.737 14.1952 114.905 14.2911 115.217C14.1472 115.433 13.9314 115.865 14.387 115.577C14.5069 115.817 14.6508 116.105 14.7227 116.369C14.2671 116.705 11.9173 118.05 12.157 118.434C12.3009 118.674 14.5069 117.281 14.8426 117.065C14.8186 117.185 14.8426 117.329 14.8186 117.449C12.6606 119.226 9.59136 121.866 6.54612 121.938C4.31614 121.938 1.46273 121.242 1.63058 118.194C1.79842 114.833 8.34449 112.817 10.7423 111.641C11.1979 111.881 11.8213 112.193 12.205 112.529C12.4688 112.481 12.7085 112.361 12.9004 112.193C12.4688 111.737 11.9892 111.569 11.4856 111.257C12.6366 110.656 31.0999 101.079 30.5963 100.119C30.3805 99.7108 -11.7253 114.593 3.18916 122.754C8.46438 125.635 13.7636 119.634 17.6481 116.729C22.4437 113.153 29.6612 111.593 33.8574 107.392C34.265 107.944 34.7925 108.544 35.4399 109.168C36.1353 109.072 37.1664 110.776 37.6699 111.232C38.4132 113.057 41.8181 114.857 43.4487 115.673C43.6405 115.553 43.8323 115.457 44.0242 115.361C43.8323 115.241 42.01 114.017 42.1538 113.801C42.3936 113.465 44.4558 114.929 44.8634 115.169C44.9353 115.169 44.9833 115.145 45.0552 115.145C44.9833 115.145 44.9353 115.169 44.8634 115.169C49.3713 117.737 54.2149 118.602 58.9866 120.33C59.634 120.138 60.1855 120.258 60.689 120.69C61.2645 120.762 63.2307 121.578 62.895 121.602C62.919 121.626 62.919 121.65 62.943 121.674C62.2956 121.65 61.6002 121.722 60.9768 121.914C60.9528 121.914 63.5904 122.394 63.5185 122.706C63.5185 122.682 57.9315 122.202 57.7877 122.202L57.8117 122.154C57.7877 121.962 57.7877 121.746 57.8117 121.578C57.3081 121.53 46.0623 118.458 46.6378 117.377C46.6378 117.353 57.452 121.194 57.8836 121.242C57.9795 120.978 58.1713 120.762 58.483 120.57C53.7593 118.578 48.4361 118.314 44.0242 115.385C43.8083 115.457 43.6165 115.553 43.4487 115.697C44.0241 115.985 44.9593 116.393 45.295 116.993C45.5348 117.161 45.7746 117.305 45.9904 117.473C45.7506 117.329 45.5108 117.185 45.295 117.017C45.4628 117.377 43.5925 116.273 43.4247 116.177C43.4247 116.273 43.4247 116.369 43.4247 116.465C43.3288 116.537 43.2568 116.633 43.1609 116.705C44.5277 117.641 45.9424 118.482 47.4291 119.226C47.7887 119.178 49.6351 119.514 49.4432 120.33C50.1386 120.666 50.858 120.834 51.5533 121.122C51.6253 120.882 51.8171 120.762 52.0808 120.762C52.8002 120.93 53.1599 121.29 53.1599 121.818C54.6705 122.586 61.1206 125.323 63.0149 124.314C63.1828 124.362 63.3267 124.386 63.4705 124.41C61.1686 130.387 58.6509 136.268 56.2051 142.197C56.8525 142.149 57.4999 142.101 58.1473 142.053C58.2912 141.765 58.4111 141.453 58.555 141.165C61.1207 140.373 63.0629 141.693 64.8613 143.445C63.8062 146.782 62.0318 149.686 60.1375 152.591C60.2574 152.615 60.3533 152.663 60.4732 152.711C62.3196 149.902 64.2138 147.214 65.3408 144.021C65.4607 144.213 65.5326 144.43 65.6525 144.622C64.5975 147.67 63.0869 151.559 60.6651 153.791C60.713 154.463 60.2095 154.919 59.2743 155.207C59.2743 155.207 59.2743 155.183 59.2503 155.183C59.0345 155.399 56.5168 157.776 56.5168 157.752C55.6057 157.68 54.5986 157.103 54.095 156.383C54.0471 156.383 54.0231 156.383 53.9751 156.359C53.9991 156.335 53.9991 156.311 54.0231 156.263C51.6732 152.615 56.6607 145.366 58.1953 142.053C57.5479 142.101 56.9005 142.149 56.2531 142.197C55.0062 145.222 53.4716 148.174 52.5125 151.319C52.7043 151.271 52.8721 151.199 53.064 151.127C53.04 150.862 53.1359 150.622 53.3517 150.454C53.1359 150.622 53.04 150.838 53.064 151.127C52.8961 151.199 52.7043 151.271 52.5125 151.319C51.1217 155.519 53.6394 160.128 58.531 158.808C57.452 159.672 60.8329 157.8 61.2405 157.487C63.5185 155.711 65.0291 153.359 66.3 150.79C67.403 148.582 68.2662 146.158 69.0814 143.829C71.1915 137.684 72.5103 131.276 74.7883 125.179C75.052 125.275 75.3158 125.371 75.6035 125.443V125.491C79.1283 125.011 83.5163 126.067 87.233 125.755C87.2809 125.707 87.3289 125.683 87.3768 125.635C87.4008 125.371 87.4248 125.131 87.4488 124.867C88.6477 124.915 87.5927 125.491 87.233 125.779C94.1147 125.227 100.853 123.546 107.471 121.698C113.058 120.138 121.858 119.154 126.294 115.025C127.013 117.401 128.356 119.586 129.363 121.842C130.226 119.418 134.278 125.131 130.058 123.21C131.137 125.107 132.408 126.907 133.607 128.707C133.871 128.851 134.015 129.043 134.063 129.307C134.758 129.523 135.525 129.691 135.621 130.291C134.878 130.507 135.381 130.723 135.597 130.939C135.405 130.939 135.19 130.939 134.998 130.939C135.166 131.228 135.357 131.54 135.549 131.852C135.717 131.756 135.909 131.684 136.149 131.636C135.981 131.396 135.789 131.18 135.621 130.939C135.789 131.18 135.981 131.396 136.149 131.636C136.149 131.876 136.149 132.092 136.125 132.308C136.245 132.428 136.364 132.524 136.508 132.644C137.06 132.524 137.443 132.236 137.899 132.02C137.419 131.252 136.964 130.459 136.532 129.667C136.532 129.571 136.508 129.475 136.508 129.379C138.259 132.236 140.872 136.148 144.109 137.3C145.212 137.684 153.701 135.836 152.19 134.636C152.742 135.068 146.028 137.444 144.733 137.108C141.831 136.34 139.817 133.34 138.259 130.939C138.139 130.939 138.019 130.939 137.875 130.915C137.827 130.699 137.755 130.507 137.707 130.291C137.707 130.243 137.707 130.195 137.731 130.171C137.3 129.571 136.94 128.947 136.556 128.347C136.508 127.915 136.46 127.483 136.436 127.027C137.036 127.915 137.707 128.779 138.355 129.643C138.57 129.619 138.786 129.619 139.002 129.643C138.211 128.395 137.324 127.195 136.484 125.971C136.532 125.563 136.604 125.155 136.7 124.747C137.707 126.427 138.714 128.059 139.817 129.643C139.985 129.667 140.177 129.715 140.345 129.739C139.05 127.963 137.995 126.091 136.868 124.218C137.731 121.482 140.585 119.73 143.414 120.738C147.275 124.098 153.725 128.923 153.221 134.804C148.378 141.501 141.376 137.733 137.947 131.996C137.491 132.236 137.108 132.5 136.556 132.62C136.58 132.836 136.628 133.052 136.652 133.268C136.604 133.292 136.58 133.292 136.532 133.316C139.026 137.252 141.784 141.837 147.011 141.405C150.056 141.141 153.461 138.861 154.3 135.836C156.027 129.595 148.258 123.306 144.517 119.85C144.205 120.738 142.599 119.226 143.39 118.746C142.958 118.242 142.527 117.737 142.119 117.233C141.951 117.257 141.688 116.921 141.808 116.849C140.321 115.097 138.762 113.393 137.228 111.665C136.772 111.713 135.501 111.617 135.094 111.377C136.173 112.961 137.515 114.401 138.81 115.841C140.081 115.529 139.913 116.321 139.218 116.297C140.369 117.569 141.472 118.914 142.695 120.09C140.105 119.73 137.515 121.146 136.46 123.546C136.292 123.234 136.101 122.946 135.933 122.634C135.741 122.658 135.549 122.658 135.405 122.61C135.669 123.09 135.981 123.57 136.269 124.026C136.125 124.386 136.029 124.747 135.933 125.131C135.837 124.963 134.83 123.09 134.542 123.45C134.422 123.594 135.717 125.971 135.765 126.043C135.717 126.355 135.669 126.691 135.669 127.003C135.189 126.307 131.857 120.426 131.665 120.498C131.425 120.618 132.768 123.378 132.96 123.762C131.041 120.714 126.725 114.833 125.982 112.961C125.982 113.513 126.078 114.065 126.27 114.617C126.222 114.641 126.174 114.641 126.126 114.665C125.958 114.209 125.646 113.393 125.454 112.481C125.838 112.505 125.838 109.744 126.006 109.384C127.804 105.76 132.432 105.016 134.926 108.808C135.285 108.808 135.549 108.976 135.741 109.36C135.501 110.176 133.631 109.024 134.758 108.808C134.494 108.496 134.158 108.304 133.751 108.208C133.079 108.568 134.854 111.016 134.974 111.16C135.022 110.68 136.436 110.752 136.484 110.776C136.245 110.464 135.981 110.176 135.741 109.888C135.933 109.768 136.293 109.576 136.796 109.264C136.796 109.12 150.44 100.431 151.998 99.1107C155.835 95.8462 166.745 86.9648 167.224 80.9399C172.5 83.3883 178.374 83.8924 184.057 84.6605C182.427 82.4522 188.157 84.3484 188.541 85.0686C189.117 85.0926 192.45 84.5885 195.783 83.7003C195.663 83.6523 195.567 83.5803 195.423 83.5323C195.735 83.1003 196.358 83.1483 196.694 83.4363C201.393 81.9721 205.662 79.7397 200.962 77.0273ZM166.937 68.5301C167.416 67.0178 168.687 54.1519 169.598 54.1039C170.725 54.0559 167.992 70.3543 167.009 70.0423C166.553 69.8983 166.865 68.7701 166.937 68.5301ZM31.5315 99.5187C31.3396 99.6388 31.1478 99.6147 30.932 99.4707C31.0519 99.4227 31.1478 99.3507 31.2677 99.3027C31.4835 99.3027 31.5555 99.3747 31.5315 99.5187ZM19.5663 113.729C18.1516 114.761 16.7369 115.817 15.3941 116.921C15.3941 116.825 15.3941 116.705 15.3701 116.609C17.0006 115.265 18.799 114.041 20.5974 112.961C20.2617 113.225 19.902 113.489 19.5663 113.729ZM36.7108 108.592C37.0944 108.256 41.2667 113.345 41.3865 113.201C41.1468 113.537 36.1593 109.096 36.7108 108.592ZM36.6388 106.312C36.3511 106.48 43.9762 114.137 44.2879 113.633C43.8083 114.401 35.2481 107.2 36.6388 106.312ZM44.5756 112.529C43.7364 111.977 37.1424 107.152 38.1255 106.36C37.8138 106.6 45.8465 112.793 46.3261 113.033C46.7097 112.865 47.0694 112.697 47.2372 112.385C47.0934 112.121 46.9975 111.016 47.9086 112.049C48.652 112.025 49.0596 112.361 49.1075 113.081C48.6759 113.513 48.1724 113.729 47.5729 113.681C48.5321 114.185 57.428 118.002 57.5239 117.665C57.2122 118.674 47.8367 114.281 46.6378 113.657C46.4939 113.633 45.8225 113.585 45.8945 113.297C45.4628 113.105 44.9833 112.817 44.5756 112.529ZM48.3642 115.097L48.1724 115.073L48.3163 114.977L48.3642 115.097ZM45.3909 114.377C45.271 114.881 61.3604 120.018 61.9839 119.922C60.4493 120.138 45.0073 116.057 45.3909 114.377ZM58.2672 117.906C58.3632 117.473 63.3506 118.962 63.3027 119.178C63.2547 119.37 58.1234 118.554 58.2672 117.906ZM66.0122 148.294C64.7893 151.391 63.0869 155.087 60.0896 156.839C62.8711 154.679 64.4536 151.223 66.0602 148.174C66.0362 148.222 66.0122 148.246 66.0122 148.294ZM66.3239 146.446C65.173 149.974 62.8231 154.055 59.8738 156.383C59.9217 156.455 59.9457 156.503 59.9937 156.575C59.8978 156.551 59.8258 156.527 59.7299 156.503C59.4422 156.767 59.1544 157.031 58.9146 157.343C58.1473 157.583 57.428 157.752 56.5888 157.704C61.0727 156.887 64.4536 148.606 65.9403 145.102C66.1321 145.462 66.252 145.846 66.3719 146.23C66.3719 146.326 66.3479 146.398 66.3239 146.446ZM74.6923 122.178C72.3185 125.683 71.3594 130.459 70.1844 134.468C70.4002 133.34 73.0139 122.754 73.0378 122.754C71.4793 122.13 69.9686 135.86 69.6569 136.076C69.4651 136.628 69.2733 137.204 69.1054 137.757C68.1223 138.045 67.1152 144.357 66.6596 145.51C66.5158 145.198 66.3479 144.886 66.1801 144.598C66.4678 143.853 69.6329 133.964 68.7937 133.748C68.5539 133.7 66.0842 143.205 65.8444 143.973C65.7485 143.805 65.6286 143.637 65.5326 143.469C65.6046 143.277 66.6356 140.301 66.3719 140.205C65.9882 140.061 65.125 142.701 65.0531 142.917C63.6384 141.021 61.3604 139.605 58.9866 140.253C59.5381 139.005 60.1136 137.732 60.6651 136.484C60.4972 136.652 59.4182 136.844 59.658 136.22C60.0656 135.98 60.4493 135.74 60.8569 135.5C60.8809 135.644 60.9048 135.788 60.9048 135.932C62.7032 131.804 64.4057 123.666 67.9065 120.594C69.7768 118.962 74.6444 118.218 75.076 121.722C74.9321 121.842 74.8122 122.01 74.6923 122.178ZM75.1 124.819C75.0041 124.819 74.9321 124.819 74.8362 124.843C74.8602 124.771 74.8842 124.699 74.9081 124.627C75.052 124.651 75.2439 124.675 75.4357 124.723L75.4597 124.843C75.3398 124.819 75.1959 124.819 75.1 124.819ZM113.993 114.209C114.616 113.801 120.659 111.473 120.683 111.569C121.162 112.577 113.417 114.569 113.993 114.209ZM101.884 115.889C101.884 115.865 101.908 115.865 101.908 115.841C101.836 115.961 101.812 116.105 101.836 116.249C101.74 116.153 101.788 116.033 101.884 115.889ZM96.057 117.761C96.2009 117.954 96.033 118.026 95.7453 118.026C95.8652 117.954 95.9611 117.857 96.057 117.761ZM78.385 120.258C78.433 120.114 78.5768 119.97 78.8166 119.946C78.8406 119.946 80.5191 119.802 80.9027 119.802C80.1594 119.37 80.2793 119.202 81.2864 118.674C81.2864 119.034 81.2864 119.418 81.2864 119.778C89.0074 119.634 96.8243 119.25 104.329 117.281C104.425 117.089 104.521 116.921 104.617 116.729C105.025 116.777 105.456 116.825 105.864 116.873C106.823 116.561 112.626 114.641 112.698 114.857C112.866 115.433 107.423 116.777 106.727 117.017C107.063 117.113 107.231 117.305 107.231 117.593C108.478 117.233 119.843 112.961 119.819 112.937C120.299 114.089 105.097 118.362 104.09 119.034C104.09 119.01 104.09 118.962 104.09 118.938C102.939 119.226 95.6973 121.602 95.0739 120.594C95.0739 120.618 103.538 118.53 104.09 118.41C104.09 118.17 104.09 117.954 104.09 117.713C96.9921 119.418 86.6815 121.986 79.3921 120.114C79.7997 120.666 78.1932 121.002 78.385 120.258ZM76.0831 120.714C75.4357 120.882 75.5795 120.306 76.0831 120.714V120.714ZM76.131 124.843V124.795C76.2749 124.819 76.4188 124.843 76.5866 124.867C76.4188 124.867 76.2749 124.843 76.131 124.843ZM77.258 121.002C77.258 121.05 93.1556 121.218 93.1077 120.81C93.2036 121.602 80.1114 121.746 78.9605 121.578C78.7686 121.53 77.2101 121.29 77.258 121.002ZM89.3671 122.442C89.391 122.706 79.8956 123.138 79.8956 122.442C79.9196 121.914 89.391 122.466 89.3671 122.442ZM96.5126 123.042H96.4886C95.0019 123.834 91.5011 123.738 89.7507 123.834C89.7747 124.026 89.4869 124.194 89.3431 124.242C89.1752 124.194 88.7676 124.218 88.8155 123.906C88.0482 123.954 79.2482 124.555 79.3201 123.834C79.3201 123.714 92.3164 123.186 93.6352 122.946C93.4194 122.202 96.8962 122.802 96.5605 122.634C96.9202 122.634 97.8793 122.874 96.5126 123.042ZM114.664 118.842C114.328 118.842 114.28 118.77 114.496 118.65C114.688 118.626 114.736 118.698 114.664 118.842ZM122.769 114.545C121.642 115.169 120.491 115.601 119.34 116.129C120.946 116.393 117.901 117.017 117.422 116.969C116.822 117.137 99.1262 123.618 98.9584 122.082C98.9584 122.01 111.811 118.746 112.314 118.578C112.242 118.578 112.17 118.602 112.074 118.602C112.074 118.53 112.05 118.482 112.027 118.41C111.643 118.434 111.259 118.482 110.876 118.53C111.259 118.506 111.643 118.458 112.027 118.41C112.17 118.146 112.266 117.833 112.578 117.665C111.259 118.17 90.8777 123.882 90.8057 122.346C90.8537 123.426 116.966 115.625 119.172 114.521C119.412 114.281 119.7 114.161 120.011 114.161C120.299 114.041 122.145 113.249 122.217 113.393C122.313 113.609 120.898 114.281 120.563 114.449C120.611 114.761 119.628 115.049 119.388 114.953C117.278 115.985 115.048 116.753 112.842 117.593C113.513 117.425 114.089 117.689 113.273 118.242C114.448 117.785 115.791 117.137 117.014 116.753C117.398 116.345 117.901 116.153 118.501 116.153C119.532 115.529 124.399 113.633 122.769 114.545ZM123.392 110.2C123.272 110.104 123.296 110.056 123.488 110.032C123.608 110.152 123.584 110.2 123.392 110.2ZM144.301 140.853C144.109 140.829 143.99 140.709 143.918 140.541C144.253 140.493 144.397 140.589 144.301 140.853ZM152.861 135.836C150.775 141.597 143.558 140.349 140.704 136.532C143.942 139.605 150.104 139.557 152.909 135.764C152.885 135.764 152.861 135.812 152.861 135.836ZM135.237 127.531C135.357 127.699 135.477 127.891 135.597 128.059C135.597 128.107 135.597 128.131 135.621 128.179C135.453 127.891 135.261 127.579 135.094 127.291C135.142 127.387 135.19 127.459 135.237 127.531ZM163.58 79.6197C165.186 80.7719 145.956 101.127 145.069 99.9268C145.476 100.479 160.678 83.6763 161.757 81.8521C161.901 81.612 163.436 79.4997 163.58 79.6197ZM147.251 96.6383C148.162 97.1424 161.254 81.372 161.518 80.4839C160.942 82.4041 149.217 97.7425 147.251 96.6383ZM157.729 83.8924C157.178 83.4843 162.477 77.6274 161.182 79.5957C160.391 80.7719 159.599 81.9961 158.784 83.1723C158.76 83.3643 158.76 83.5563 158.76 83.7483C158.568 84.0124 158.4 84.2764 158.209 84.5405C158.041 84.5405 157.873 84.5165 157.705 84.5165L157.657 84.4925C157.777 84.0844 158.161 83.8684 158.76 83.7483C158.76 83.5563 158.76 83.3643 158.784 83.1723C158.664 83.3643 158.041 84.1084 157.729 83.8924ZM134.806 101.943C135.166 101.031 135.837 101.727 135.765 102.159C135.429 102.207 135.07 102.231 134.734 102.279C134.758 102.159 134.782 102.063 134.806 101.943ZM137.419 104.896C137.06 104.319 140.968 102.567 141.328 102.303C141.112 102.231 140.92 102.087 140.657 101.847C140.585 101.895 135.213 105.808 134.782 104.872C134.686 104.656 140.249 101.559 140.321 101.535C140.201 101.415 140.105 101.271 139.985 101.151C139.961 101.151 139.937 101.151 139.937 101.151L139.961 101.127L139.985 101.151C140.273 101.151 140.561 101.199 140.848 101.271C142.071 100.623 143.126 99.5667 144.205 98.7026C144.037 98.6786 143.846 98.6546 143.654 98.6066C143.582 98.4626 143.558 98.3186 143.534 98.1745C142.431 99.0147 135.669 103.959 135.261 103.263C135.333 103.383 146.819 94.886 147.442 94.358C147.323 94.334 147.227 94.3099 147.107 94.2859C146.891 94.502 146.651 94.718 146.435 94.91C146.1 94.622 146.004 94.2619 145.98 93.9019C146.315 93.6859 146.675 93.5418 147.107 93.5178C147.586 93.1818 148.138 93.0137 148.737 92.9657C148.114 93.0137 147.562 93.1818 147.107 93.5178C147.107 93.7579 147.107 94.0219 147.107 94.2619C147.227 94.2859 147.323 94.3099 147.442 94.334C148.449 93.4458 157.513 84.9005 157.178 84.5885C158.257 85.5246 145.26 96.7343 144.014 97.7665C144.325 97.8865 144.637 97.9825 144.949 98.1025C145.093 98.0065 145.812 97.3824 145.98 97.5984C146.267 97.9585 141.975 100.935 141.424 101.367C141.855 101.367 142.263 101.343 142.695 101.343C142.815 101.247 143.942 100.311 144.181 100.599C144.421 100.911 143.174 101.535 143.03 101.631C143.27 102.087 142.095 102.303 141.903 102.327C141.544 102.567 137.731 105.376 137.419 104.896ZM137.707 106.312C137.467 105.88 143.486 102.303 143.942 101.991C145.548 100.839 149.648 97.9825 149.624 98.0065C148.713 98.7266 138.211 107.224 137.707 106.312ZM166.361 81.18C166.481 80.9879 166.553 80.8199 166.649 80.6759C166.721 80.7239 166.817 80.7479 166.889 80.7959C166.697 80.8919 166.529 81.0359 166.361 81.18ZM201.537 78.0355C201.178 78.1075 200.818 78.1795 200.482 78.2515C202.017 79.4997 200.171 81.252 199.02 81.7561C198.708 82.2601 198.252 82.4522 197.677 82.2841C195.399 82.9802 193.025 83.3163 190.651 83.2923C192.905 83.1003 195.183 82.9082 197.317 82.1881C196.886 82.1401 196.454 82.1641 196.046 82.2841C196.142 82.1641 196.238 82.0441 196.358 81.9481C192.761 82.6202 189.189 83.3883 185.496 82.9082C185.448 82.5962 185.28 82.3321 185.136 82.0441C186.071 82.0441 196.79 81.9241 196.526 80.7479C196.622 81.18 186.215 81.612 184.992 81.54C184.944 81.3 184.896 81.0839 184.848 80.8439C185.736 80.9399 191.275 81.348 191.227 80.7239C191.227 80.5319 185.856 80.5799 184.777 80.4839C184.633 79.8118 184.561 78.7796 184.657 78.1315C184.753 77.6514 184.944 77.1954 185.208 76.7633C188.565 76.8833 197.485 75.8272 200.506 78.2995C200.818 78.1795 201.178 78.1075 201.537 78.0355C201.537 78.0355 201.561 78.0595 201.585 78.0595L201.537 78.0355ZM201.585 78.0835L201.681 77.9875L201.585 78.0835ZM202.233 80.0758C201.705 79.8358 201.777 79.6437 202.329 79.4757C202.281 79.6917 202.257 79.8838 202.233 80.0758Z" fill="#F2F2F2"/>
<path d="M159.336 79.2603L159.361 79.2355L159.336 79.2603Z" fill="#F2F2F2"/>
<path d="M43.6886 52.6156C43.6886 52.6876 43.6646 52.7596 43.6406 52.8316C43.9044 52.9757 44.1681 53.1437 44.4319 53.2877C47.0695 50.4073 50.1148 47.9829 52.7524 45.1505C52.6565 45.0785 52.6085 44.9584 52.6085 44.8624C48.1485 48.583 44.0483 52.2555 43.6886 52.6156Z" fill="#F2F2F2"/>
<path d="M53.2319 44.359C53.3039 44.383 53.3758 44.431 53.4238 44.527C54.3829 43.7589 64.8614 37.1099 64.6456 36.6298C64.166 35.6457 58.5551 39.9663 53.2319 44.359Z" fill="#F2F2F2"/>
<path d="M52.6324 44.8627C52.8243 44.6947 53.0401 44.5266 53.2319 44.3586C52.9681 44.2626 52.6324 44.5506 52.6324 44.8627Z" fill="#F2F2F2"/>
<path d="M43.4967 52.832C42.3218 54.1522 41.003 55.4004 39.9479 56.7926C39.852 56.9126 38.6051 58.4008 38.8209 58.5689C39.5643 59.1929 43.9763 53.8161 44.4558 53.2641C44.1921 53.12 43.9283 52.952 43.6646 52.808C43.5926 52.832 43.5447 52.832 43.4967 52.832Z" fill="#F2F2F2"/>
<path d="M151.878 27.6998C150.536 26.9076 149.193 26.3316 147.802 25.6115C147.658 25.6835 147.514 25.7555 147.299 25.8035C147.275 25.8995 147.227 25.9955 147.179 26.0915C148.498 26.6436 159.096 32.9086 159.216 32.7885C159.911 32.0444 152.31 27.9638 151.878 27.6998Z" fill="#F2F2F2"/>
<path d="M134.398 21.3628C134.158 22.419 145.932 25.5154 146.004 25.5394C146.195 25.3234 146.411 25.1554 146.675 25.0114C146.819 25.0834 134.614 20.4267 134.398 21.3628Z" fill="#F2F2F2"/>
<path d="M6.28247 119.49C6.92988 119.538 7.52934 119.562 7.84106 119.466C8.58438 119.274 13.1882 116.778 12.9005 116.346C12.8285 116.25 8.63234 118.914 6.28247 119.49Z" fill="#F2F2F2"/>
<path d="M4.96359 119.49C5.25133 119.658 5.70692 119.634 6.28239 119.49C5.73089 119.442 5.13144 119.346 4.69983 119.25C4.79574 119.37 4.91563 119.442 4.96359 119.49Z" fill="#F2F2F2"/>
<path d="M4.69986 119.25C4.50804 119.058 4.24428 118.842 4.17234 118.866C3.78869 118.986 4.12439 119.13 4.69986 119.25Z" fill="#F2F2F2"/>
<path d="M10.9582 118.842C10.9102 118.866 4.50804 121.146 4.57998 120.834C4.12439 122.586 12.325 118.458 10.9582 118.842Z" fill="#F2F2F2"/>
<path d="M29.7572 104.872C29.4454 105.04 25.2732 106.696 25.513 107.104C26.0165 108.016 31.5076 103.888 29.7572 104.872Z" fill="#F2F2F2"/>
<path d="M16.1854 65.4578C16.3293 66.1299 29.1576 66.1779 28.4383 66.1059C27.5511 66.0099 16.0176 64.6897 16.1854 65.4578Z" fill="#F2F2F2"/>
<path d="M25.9925 64.9058C25.9206 65.4099 28.8459 65.6739 29.2056 65.7459C30.6203 66.034 26.1124 64.0177 25.9925 64.9058Z" fill="#F2F2F2"/>
<path d="M158.856 53.7925C158.928 53.7205 159.024 53.6725 159.096 53.6005C158.976 53.4804 158.88 53.4324 158.784 53.4804C158.784 53.5764 158.808 53.6725 158.808 53.7685C158.808 53.7685 158.832 53.7685 158.856 53.7925Z" fill="#F2F2F2"/>
<path d="M158.52 62.3614C159.48 62.6735 159.216 58.0888 158.808 53.7441C158.736 53.6961 158.688 53.6481 158.64 53.5761C158.688 53.5281 158.736 53.4801 158.784 53.4561C158.449 49.9516 158.017 46.6871 158.041 46.303C158.089 45.8469 159.983 56.3125 159.552 60.6092C160.798 55.5684 160.511 49.8316 158.688 45.4149C159.623 44.9828 153.725 37.6137 153.197 38.2378C152.646 38.9099 157.465 44.3347 158.161 45.2469C158.137 45.4149 158.137 45.871 158.137 46.039C157.777 45.6069 157.346 45.3189 156.818 45.2709C156.986 45.0788 158.113 45.0788 157.346 44.3827C157.274 44.3107 154.684 45.5589 154.492 45.7269L154.396 45.7029C154.396 45.7269 154.42 45.7509 154.42 45.7749H154.444L154.42 45.7989C154.324 45.8229 154.252 45.871 154.156 45.895C154.013 45.847 153.797 45.895 153.749 46.063C150.967 47.2152 148.162 48.3673 145.356 49.4235C145.74 49.2315 151.807 46.6871 151.591 46.183C151.831 46.8071 130.538 54.7523 128.931 56.8886C128.332 57.2007 127.732 57.4887 127.133 57.8008C127.133 57.7287 126.581 57.8008 126.533 57.8008C126.557 57.8488 126.605 57.8968 126.605 57.9448C126.581 58.1848 125.982 58.5689 125.862 58.0648C124.687 58.5929 112.938 63.7056 112.986 63.8257C113.202 64.4258 116.535 62.8655 116.894 62.6975C111.571 65.3859 112.89 66.5621 118.261 67.0662C118.237 67.0421 118.237 67.0181 118.213 66.9941C118.357 66.8981 118.429 66.9461 118.477 67.0662C118.453 67.0662 118.453 67.0662 118.429 67.0662C122.409 67.4262 126.462 67.3782 130.466 67.6422C130.706 67.4742 132.096 67.4502 132.216 67.7143C134.782 67.7623 153.701 69.6585 154.732 67.9063C154.996 68.0023 155.307 67.9783 155.523 67.8343C155.475 67.9543 155.427 68.0983 155.427 68.2423C154.204 68.1943 153.557 70.5467 153.437 71.4588C153.173 71.8189 151.807 73.1151 152.262 73.5711C152.574 73.8832 156.027 69.1545 155.739 68.3864C156.482 67.9543 156.914 66.8261 157.346 66.106C157.346 66.106 157.322 66.106 157.322 66.082C157.058 66.5381 157.537 62.6735 158.377 62.8655C158.832 62.9855 157.489 65.77 157.322 66.082C157.346 66.082 157.346 66.082 157.346 66.082C158.065 64.8818 158.64 63.5856 159.096 62.1694C158.928 62.3614 158.736 62.4335 158.52 62.3614ZM156.602 46.255C156.794 45.2469 157.274 47.0231 157.346 47.3352C157.657 47.4792 157.705 47.5992 157.417 47.6952C157.537 48.2233 158.664 52.88 158.185 52.928C158.185 52.928 156.506 46.8791 156.602 46.255ZM155.811 47.7432C155.955 46.9991 157.681 51.2238 156.746 51.4158C156.818 51.4158 155.715 48.2713 155.811 47.7432ZM144.445 51.8479C147.49 50.3116 150.632 48.7514 153.749 47.3592C153.773 47.4312 153.797 47.5032 153.845 47.5992C149.744 49.4235 145.788 51.5118 141.664 53.3121C142.599 52.808 143.51 52.3279 144.445 51.8479ZM138.019 53.2401C138.115 53.3121 138.211 53.3841 138.283 53.4321C138.187 53.3841 138.115 53.3121 138.019 53.2401C137.947 53.2641 137.899 53.2881 137.827 53.3361C137.899 53.3121 137.947 53.2881 138.019 53.2401ZM133.487 55.8085C133.967 55.6644 133.607 56.5046 132.936 56.0965C133.127 56.0005 133.295 55.8805 133.487 55.8085ZM121.834 61.4493C121.522 61.7854 121.21 61.7373 120.899 61.3053C121.234 61.0893 121.546 61.1373 121.834 61.4493ZM115.695 66.322C115.671 66.202 115.671 66.082 115.671 65.962C115.839 66.058 116.103 66.178 115.695 66.322ZM154.924 62.8655C154.756 64.1857 154.708 65.77 154.18 67.0182C154.108 67.2102 154.108 67.3782 154.18 67.5222C141.616 66.4661 128.931 66.4901 116.343 65.4819C119.124 64.8818 121.81 63.0335 124.375 61.9054C123.752 61.9054 123.464 62.3614 122.793 62.2654C122.769 62.2414 122.745 62.2414 122.721 62.2174C122.026 62.5295 115.911 64.4978 115.935 65.4579C115.647 65.4339 115.336 65.4099 115.048 65.3859C117.518 64.3057 119.844 62.9375 122.409 62.0254C122.313 61.9774 122.193 61.9294 122.074 61.8814C121.978 61.8094 121.882 61.7373 121.786 61.6653C122.337 61.5453 122.673 61.4973 123.2 61.7374C123.56 61.6173 123.944 61.4973 124.303 61.3533C124.375 61.2573 125.382 60.4892 125.43 60.9212C126.198 60.6092 126.965 60.2731 127.708 59.8891C126.869 60.3451 126.078 60.8252 125.167 61.1853C125.167 61.3773 125.263 61.4493 125.478 61.4253C126.198 61.1133 131.449 58.9049 131.401 58.5929C131.017 58.4969 130.658 58.5449 130.298 58.6889C131.161 58.3048 132.048 57.8968 132.936 57.5367C135.477 57.5847 138.69 55.2804 140.968 54.2002C145.308 52.1599 149.72 50.1916 154.013 48.0313C154.42 49.1835 154.732 50.3356 154.924 51.5358C155.14 51.5358 155.283 51.5838 155.355 51.7038C155.331 51.2238 154.108 47.9833 154.588 47.8152C155.379 47.5272 156.338 54.7283 155.739 54.6803C155.739 54.6803 155.403 52.2559 155.379 51.9679C155.331 52.0639 155.211 52.1359 155.044 52.1599C155.475 54.9203 155.427 57.6807 155.187 60.4412C155.355 59.8891 155.595 55.4004 156.171 55.4004C156.938 55.4004 155.068 62.6255 154.924 62.8655ZM155.379 64.8338C154.684 65.914 156.314 61.0412 156.53 59.8891C156.65 59.265 156.578 52.0399 156.794 51.9919C158.329 51.8239 156.195 63.7297 155.379 64.8338ZM158.281 59.265C158.113 59.8171 157.13 65.3379 156.506 65.2419C156.482 65.2419 156.482 65.2419 156.458 65.2419C156.458 65.2419 156.482 65.2419 156.506 65.2419C157.202 65.1939 158.041 53.8162 158.161 53.7922C158.976 53.6001 158.377 58.9529 158.281 59.265Z" fill="#F2F2F2"/>
<path d="M138.019 53.2404C137.947 53.2644 137.899 53.2884 137.827 53.3364C137.899 53.3124 137.947 53.2884 138.019 53.2404Z" fill="#F2F2F2"/>
<path d="M159.096 62.1937C159.335 61.9057 159.479 61.3536 159.551 60.6095C159.407 61.1376 159.264 61.6657 159.096 62.1937Z" fill="#F2F2F2"/>
<path d="M124.112 61.5692C123.92 61.6412 123.752 61.7132 123.56 61.8093C123.776 61.7852 123.968 61.7132 124.112 61.5692Z" fill="#F2F2F2"/>
<path d="M41.7222 89.6532C41.7461 89.7012 42.4175 91.0934 42.7053 90.9254C42.993 90.7814 42.2497 89.7252 42.2017 89.5812C42.0339 89.6052 41.89 89.6292 41.7222 89.6532Z" fill="#F2F2F2"/>
<path d="M61.8401 71.5307C61.912 71.3627 61.96 71.2187 62.0319 71.0507C61.936 71.0507 61.8401 71.0507 61.7442 71.0507C60.5452 71.0027 60.857 71.3387 61.8401 71.5307Z" fill="#F2F2F2"/>
<path d="M63.9022 70.4266C63.9502 70.4266 64.0221 70.4026 64.0701 70.4026C63.9981 70.4026 63.9502 70.4266 63.9022 70.4266Z" fill="#F2F2F2"/>
<path d="M82.3894 70.667C82.1736 70.739 79.2243 70.3549 78.3851 70.3549C78.409 70.4269 78.409 70.5229 78.433 70.5949C77.9774 71.6031 76.3949 71.027 76.0592 70.2589C72.0548 70.2109 68.0984 69.8748 64.094 69.8028C64.142 69.9708 64.1899 70.1629 64.2139 70.3309C64.166 70.1629 64.118 69.9708 64.094 69.8028C60.2575 69.7548 56.397 69.8028 52.5365 69.6828C52.3926 69.5148 44.3359 68.5306 44.3359 69.0347C44.312 69.5388 47.4051 69.5388 47.8368 69.6108C46.8297 69.6108 45.8466 69.6108 44.8395 69.6108C39.0128 65.6502 39.7801 78.5161 39.9719 80.6285C39.6122 83.7009 40.8591 86.7734 41.7463 89.6058C41.9141 89.5818 42.058 89.5578 42.2258 89.5338C42.1299 89.3178 42.082 89.1017 42.01 88.8857C42.106 89.0777 42.2019 89.2698 42.3218 89.4618C43.0171 88.8617 43.6885 88.9817 44.3599 89.5578C44.1921 89.7258 44.0242 89.8939 43.8564 90.0619C43.7125 90.0859 43.5686 90.1099 43.4008 90.1339C43.0651 89.9659 42.7534 89.7738 42.4177 89.6058C42.8013 90.2539 43.185 91.3341 43.8564 91.6461C43.7365 92.5343 48.0526 96.4949 48.8438 96.1588C49.0836 96.0628 45.2951 92.4622 44.9354 91.7901C48.652 90.2779 52.3687 88.7657 56.1332 87.3735C55.7975 86.9414 55.4379 86.5574 54.9823 86.2213C56.0853 86.1733 57.0444 86.3173 57.7638 86.7014C65.1011 83.4849 72.2706 79.8363 79.4641 76.3078C83.1088 74.5555 90.0625 71.4111 82.3894 70.667ZM41.0509 86.6054C41.1228 86.7974 41.2188 86.9894 41.2907 87.1814C41.5545 87.7095 41.6504 88.3096 41.9141 88.8617C41.5784 88.1896 41.1468 87.3495 41.0509 86.6054ZM71.1676 70.4029C71.3834 70.4269 71.4074 70.5469 71.2875 70.667C70.9758 70.859 70.784 70.787 70.712 70.4749C70.8559 70.4509 71.0237 70.3789 71.1676 70.4029ZM67.0194 70.1389C67.3071 70.3069 67.3071 70.4029 67.0434 70.4749C66.7556 70.4269 66.7556 70.3069 67.0194 70.1389ZM63.2548 70.3309C63.4706 70.4029 63.6864 70.4269 63.9022 70.4269C63.9502 70.4029 64.0221 70.4029 64.07 70.4029C64.118 70.4029 64.142 70.3789 64.1899 70.3789L64.2139 70.4029C64.166 70.4029 64.118 70.4029 64.07 70.4029C64.0221 70.4269 63.9502 70.4269 63.9022 70.4269C63.6145 70.4989 63.4226 70.667 63.063 70.4029C63.1109 70.3789 63.1828 70.3309 63.2548 70.3309ZM45.4629 90.2299C45.1272 89.3658 44.8395 88.4776 44.6237 87.5655C44.6716 87.6615 44.9354 88.9817 45.343 88.7657C45.5109 88.6937 44.6237 85.9093 44.288 86.0533C44.264 85.9093 44.24 85.7652 44.216 85.5972C44.5038 85.5492 43.7605 82.0687 43.9043 81.4446C44.1681 80.2444 44.5517 71.8911 45.367 71.5791C45.367 71.5551 45.367 71.5311 45.367 71.5311C45.367 71.5551 45.367 71.5791 45.367 71.5791C45.367 71.5791 45.343 71.5791 45.343 71.6031C45.4389 71.3631 45.391 71.099 45.2711 70.883C47.0695 71.051 48.8438 71.147 50.6422 71.219C50.4024 71.123 50.1627 70.907 49.9948 70.715C48.1725 70.643 46.3981 70.1869 44.5517 70.2589C44.4558 70.2109 44.3359 70.1629 44.24 70.1149C44.5278 70.2109 44.8155 70.2109 45.1032 70.1149C46.7338 70.2589 48.3163 70.2829 49.9229 70.3789C50.2346 69.9949 52.2967 70.2349 52.5365 70.4509C59.3943 70.4989 66.4199 70.859 73.2537 71.5071C70.0406 71.5791 66.8515 71.171 63.6384 71.123C63.9262 71.243 64.07 71.4591 64.07 71.7711C66.9474 71.7951 69.8248 71.9391 72.7022 71.9151C72.6063 71.8191 72.5104 71.6991 72.4145 71.6031C72.6782 71.6511 72.8701 71.7471 72.8221 71.9151C76.6107 71.8431 80.3513 71.9391 84.1399 72.2752C71.1436 77.9401 58.4831 84.517 45.4629 90.2299ZM44.0002 76.0678C44.1201 75.4677 44.288 74.8436 44.4558 74.2675C44.4318 74.8436 44.1441 75.5157 44.0002 76.0678Z" fill="#F2F2F2"/>
<path d="M52.4885 70.8829C52.1528 71.003 51.8171 71.123 51.4814 71.219C52.2727 71.219 59.0586 71.9151 59.2024 71.507C59.3463 71.027 53.1839 70.9789 52.4885 70.8829Z" fill="#F2F2F2"/>
<path d="M49.0117 93.8061C49.3234 94.6702 60.2815 89.0054 61.3365 88.5253C61.3605 88.5013 63.2069 87.7572 63.063 87.4692C63.039 87.4211 48.9158 93.5181 49.0117 93.8061ZM52.4406 92.5579C52.4646 92.6059 52.4886 92.6539 52.5125 92.6779C52.4886 92.6539 52.4646 92.6059 52.4406 92.5579ZM52.4886 92.5099C52.4886 92.5339 52.4646 92.5339 52.4646 92.5579L52.4166 92.5339C52.4406 92.5339 52.4646 92.5339 52.4886 92.5099C52.5125 92.4379 52.5605 92.3659 52.5845 92.2939C52.8722 92.4619 52.6324 92.4619 52.4886 92.5099Z" fill="#F2F2F2"/>
<path d="M49.8028 92.1503C50.0905 92.7024 62.6072 86.5094 63.8061 85.9333C65.5565 85.1172 80.7827 78.3482 80.6148 77.9161C80.5909 77.9401 49.515 91.5982 49.8028 92.1503Z" fill="#F2F2F2"/>
<path d="M65.199 86.629C65.1745 86.6535 65.1256 86.6535 65.1011 86.678C65.15 86.6535 65.1745 86.629 65.199 86.629Z" fill="#F2F2F2"/>
<path d="M65.1973 86.6287C68.0986 85.3325 87.7129 76.3552 87.4491 75.7551C87.2333 75.155 67.0196 85.7646 65.1973 86.6287Z" fill="#F2F2F2"/>
<path d="M59.8499 90.1336C59.5622 90.2056 51.7213 93.4221 51.9611 93.8781C52.2968 94.5502 60.7371 89.9175 59.8499 90.1336Z" fill="#F2F2F2"/>
<path d="M81.5983 77.4593C81.91 78.0834 88.3841 74.5308 88.3122 74.3868C88.2163 74.1228 81.4304 77.0992 81.5983 77.4593Z" fill="#F2F2F2"/>
<path d="M42.01 67.5701C42.3217 67.8582 42.7054 68.0262 43.137 68.0982C44.192 68.3143 56.0133 69.2264 56.0373 68.7943C56.0373 68.7703 42.034 67.3541 42.01 67.5701Z" fill="#F2F2F2"/>
<path d="M65.1011 67.7863C65.1011 67.8343 65.1011 67.8823 65.1011 67.9303C65.0051 67.9783 64.9572 68.0503 64.8853 68.1223C66.0122 68.2903 74.2368 68.6024 74.2608 68.1943C74.2847 67.7863 66.3719 67.9063 65.1011 67.7863Z" fill="#F2F2F2"/>
<path d="M62.8712 67.6902C61.4565 67.7142 43.4008 66.058 43.3768 66.49C43.3049 68.0743 53.4237 66.538 54.5747 67.5942C57.4041 67.6662 60.4014 68.2183 63.2309 68.0023C63.1589 67.9302 63.039 67.8102 62.8712 67.6902Z" fill="#F2F2F2"/>
<path d="M80.2554 69.0344C80.2554 69.2024 80.2074 69.3225 80.0875 69.4425C80.639 69.3465 81.0467 69.0584 80.2554 69.0344Z" fill="#F2F2F2"/>
<path d="M64.5254 68.7706C64.4535 68.9627 64.3816 69.1547 64.2856 69.3227C64.4295 69.3227 64.5974 69.3227 64.7652 69.3227C68.9134 69.3707 72.9658 69.0587 77.0181 68.9147C72.8219 68.9867 68.6976 68.9387 64.5254 68.7706Z" fill="#F2F2F2"/>
<path d="M77.0902 68.9384C77.2341 68.9624 77.4499 69.0824 77.4499 69.0824C77.3779 69.2024 77.354 69.2984 77.354 69.3944C77.8335 69.4184 78.3131 69.4184 78.7927 69.4664C78.6248 69.3224 78.4809 69.1544 78.3611 68.9624C77.9294 68.9383 77.5218 68.9384 77.0902 68.9384Z" fill="#F2F2F2"/>
<path d="M61.5044 68.6983C61.3606 68.6983 57.6199 68.5303 57.7638 68.9384C57.9317 69.4184 61.6483 69.3464 62.1518 69.3464C61.8641 69.2264 61.6483 69.0344 61.5044 68.6983Z" fill="#F2F2F2"/>
<path d="M75.2681 68.2179C75.292 69.01 77.8098 68.5059 78.3133 68.4819C78.3852 68.3859 78.4812 68.3139 78.673 68.2659C78.9847 68.2179 79.2485 68.2659 79.4643 68.4339C79.6801 68.4339 82.006 68.794 82.006 68.3139C82.0299 68.0499 75.2681 67.8098 75.2681 68.2179Z" fill="#F2F2F2"/>
<path d="M75.2199 39.7259C74.6205 40.038 76.0352 42.1743 76.203 42.4383C76.2989 42.4383 76.4428 42.4383 76.6586 42.4383C76.7305 42.4383 76.7785 42.4383 76.8504 42.4383C76.8025 42.3903 75.4597 39.5819 75.2199 39.7259Z" fill="#F2F2F2"/>
<path d="M76.4908 42.8944C76.5388 42.9424 76.5628 43.0144 76.6107 43.0624C77.0423 43.7105 79.9677 48.3432 80.2554 48.1272C80.4233 48.0072 77.4979 43.4945 77.1143 42.9184C76.8985 42.9184 76.6827 42.9184 76.4908 42.8944Z" fill="#F2F2F2"/>
<path d="M76.6585 39.8703C76.1549 40.1824 77.7614 42.2467 77.8813 42.5107C78.0971 42.5587 78.3369 42.6067 78.5288 42.7028C78.5288 42.7508 78.5288 42.7988 78.5288 42.8468C78.3609 42.8468 78.1931 42.8468 78.0492 42.8708C78.7685 44.335 88.216 57.9691 88.7195 57.585C88.4797 57.801 76.7544 39.8223 76.6585 39.8703Z" fill="#F2F2F2"/>
<path d="M82.6054 50.9593C82.3656 50.7193 80.2316 48.2709 81.1907 49.7831C82.1019 51.2473 90.3025 62.169 90.9019 61.7129C91.0937 61.5689 85.9864 55.52 85.4588 54.7999C84.4997 53.5517 83.6605 52.0875 82.6054 50.9593Z" fill="#F2F2F2"/>
<path d="M75.7234 42.9184C75.7714 42.8224 75.7954 42.7504 75.8193 42.7024C75.6755 42.4864 75.2439 41.6702 74.9321 41.8623C74.4286 42.1983 77.7616 46.951 77.8575 46.879C78.0253 46.759 76.227 43.4465 75.9153 42.9184C75.8673 42.8944 75.7954 42.9184 75.7234 42.9184Z" fill="#F2F2F2"/>
<path d="M90.2781 59.1453C90.1583 59.0253 90.0384 58.8812 89.9185 58.7372C89.8226 58.6172 89.4149 57.9211 89.1751 58.1371C88.6716 58.5692 91.9806 61.8817 92.1245 61.7617C92.2923 61.6176 91.1414 60.2494 91.0215 60.1054C90.6138 59.9374 90.3501 59.6253 90.2781 59.1453Z" fill="#F2F2F2"/>
<path d="M106.631 57.8247C106.727 57.8967 106.799 57.9447 106.847 58.0407C110.348 55.3763 112.722 49.6635 115.24 46.1589C115.168 46.1829 115.072 46.1829 115 46.1829C115.096 46.1829 115.168 46.1829 115.24 46.1589C115.479 45.8229 115.719 45.5348 115.935 45.1988C115.935 45.1508 115.935 45.0788 115.959 45.0068C116.007 45.0068 116.031 45.0068 116.055 45.0068C116.175 44.8627 116.271 44.7187 116.367 44.5507C116.415 43.4225 122.577 36.1974 121.666 35.6213C121.978 35.8134 107.83 56.0484 106.631 57.8247Z" fill="#F2F2F2"/>
<path d="M124.16 31.1086C123.992 31.3727 121.786 34.6612 122.145 34.8772C122.793 35.2373 124.136 31.7327 124.423 31.3487C124.256 31.3247 124.16 31.2287 124.16 31.1086Z" fill="#F2F2F2"/>
<path d="M124.279 30.8931C124.471 30.7731 124.663 30.7011 124.879 30.6771C125.79 29.1888 124.663 30.221 124.279 30.8931Z" fill="#F2F2F2"/>
<path d="M113.753 62.1694C114.065 62.8175 144.853 48.6794 144.709 48.3193C144.733 48.3913 117.302 60.2731 114.952 61.4973C114.496 61.6173 114.089 61.8574 113.753 62.1694Z" fill="#F2F2F2"/>
<path d="M146.076 47.9588C146.915 47.9348 152.478 44.8863 152.43 44.7663C152.19 44.2142 145.308 47.9828 146.076 47.9588Z" fill="#F2F2F2"/>
<path d="M110.492 70.6906C110.108 70.5706 109.725 70.5466 109.341 70.5946C108.957 71.7948 122.937 72.3949 122.961 71.8908C122.961 71.9628 111.403 70.8586 110.492 70.6906Z" fill="#F2F2F2"/>
<path d="M130.418 70.7386C128.883 70.8347 110.78 69.1304 110.708 69.6825C110.612 70.4266 123.272 70.8347 124.375 70.8827C124.711 70.6666 125.047 70.6666 125.383 70.8827C127.133 70.8827 140.848 72.0348 140.896 71.3867C140.92 71.3387 131.665 70.6906 130.418 70.7386Z" fill="#F2F2F2"/>
<path d="M140.441 72.2513C139.026 72.1313 124.759 72.2513 124.687 72.0353C125.286 73.8115 147.37 71.9873 147.323 72.5394C147.346 72.1553 140.585 72.2753 140.441 72.2513Z" fill="#F2F2F2"/>
<path d="M126.078 74.6036C125.958 74.6276 125.862 74.6516 125.742 74.6757C125.934 74.6516 126.054 74.6276 126.078 74.6036Z" fill="#F2F2F2"/>
<path d="M110.732 73.6427C110.636 74.1228 115.12 74.3148 115.695 74.3628C115.887 74.2668 116.223 74.2188 116.391 74.4108C119.148 74.4588 121.906 74.4108 124.639 74.6269C120.851 74.3148 110.876 72.8026 110.732 73.6427Z" fill="#F2F2F2"/>
<path d="M124.639 74.6036C124.735 74.6036 124.831 74.6276 124.903 74.6276C124.903 74.6276 124.903 74.6276 124.879 74.6276C124.807 74.6276 124.711 74.6276 124.639 74.6036Z" fill="#F2F2F2"/>
<path d="M124.903 74.6272C125.191 74.6992 125.454 74.6992 125.742 74.6512C125.55 74.6752 125.263 74.6512 124.903 74.6272Z" fill="#F2F2F2"/>
<path d="M141.903 71.4591C142.119 71.7712 142.407 71.9152 142.814 71.8912C143.534 71.9632 148.545 71.8672 148.545 71.7231C148.569 71.4591 141.903 71.0511 141.903 71.4591Z" fill="#F2F2F2"/>
<path d="M103.754 78.4195C103.179 78.8276 106.032 82.4041 106.344 82.9802C106.488 82.9082 106.703 82.8602 106.895 82.8122C106.56 82.0921 103.994 78.2515 103.754 78.4195Z" fill="#F2F2F2"/>
<path d="M106.631 83.4842C107.231 84.3724 114.352 95.03 114.76 94.7659C114.76 94.7659 107.806 84.2764 107.255 83.4122C107.039 83.4122 106.823 83.4602 106.631 83.4842Z" fill="#F2F2F2"/>
<path d="M100.733 80.8922C100.349 81.1322 101.452 82.5004 101.62 82.7644C101.908 82.8605 102.076 83.0765 101.908 83.2685C102.579 84.2767 103.275 85.3568 104.018 86.341C104.473 86.9171 106.967 90.0135 106.056 88.3813C105.672 87.6852 100.925 80.7722 100.733 80.8922Z" fill="#F2F2F2"/>
<path d="M115.12 95.2699C114.592 95.678 117.494 98.8464 117.661 98.7264C117.853 98.5824 115.455 95.0059 115.12 95.2699Z" fill="#F2F2F2"/>
<path d="M94.8821 81.804C94.9061 81.948 94.8581 82.0441 94.7382 82.0681C94.5224 82.4521 94.3306 82.8362 94.1867 83.2442C93.875 83.9643 91.0935 88.357 91.5011 88.573C91.645 88.645 96.9922 79.5717 96.8483 79.4757C96.2488 79.1396 95.0499 81.54 94.8821 81.804Z" fill="#F2F2F2"/>
<path d="M84.6432 100.791C84.5473 101.031 82.1974 104.607 82.629 104.871C82.9887 105.087 85.0748 100.719 85.1228 100.599C84.9789 100.623 84.835 100.647 84.6912 100.671C84.6672 100.695 84.6432 100.743 84.6432 100.791Z" fill="#F2F2F2"/>
<path d="M85.4106 99.4945C85.5545 99.4705 85.6744 99.4705 85.8183 99.4465C85.8662 99.3505 85.8902 99.2305 85.9382 99.1345C86.2019 98.4624 91.1894 89.7971 90.7818 89.7011C89.8466 89.485 85.7224 98.8944 85.4106 99.4945Z" fill="#F2F2F2"/>
<path d="M94.7862 80.4362C94.4265 80.2441 94.0668 81.1083 93.923 81.3723C94.1388 81.3483 94.3546 81.3723 94.5704 81.4443C94.5944 81.4443 94.5944 81.4683 94.5944 81.4683C94.6903 81.3003 95.0499 80.5562 94.7862 80.4362Z" fill="#F2F2F2"/>
<path d="M91.8368 84.9489C91.0695 86.029 92.0047 85.573 92.4603 84.7568C92.2924 84.8288 92.1006 84.8769 91.8848 84.8769C91.8848 84.9009 91.8608 84.9249 91.8368 84.9489Z" fill="#F2F2F2"/>
<path d="M93.971 81.6843C93.947 81.6363 93.947 81.5883 93.923 81.5163C93.899 81.5163 93.8751 81.4923 93.8511 81.4923C93.5633 82.0924 93.0838 82.6205 92.844 83.2446C92.9399 83.3406 93.0358 83.4366 93.1317 83.5326C93.4195 83.0045 93.899 82.5965 94.2108 82.0684C94.0669 81.9964 94.0429 81.8284 93.971 81.6843Z" fill="#F2F2F2"/>
<path d="M83.8042 99.543C83.9481 99.543 84.068 99.543 84.1879 99.543C84.2838 99.351 84.4037 99.135 84.4996 98.9429C85.0271 97.8868 91.765 86.9171 91.1415 86.5571C90.686 86.269 84.2838 98.6549 83.8042 99.543Z" fill="#F2F2F2"/>
<path d="M80.7828 105.304C81.0466 105.472 83.3965 101.271 83.6123 100.767C83.4444 100.767 83.3245 100.743 83.2286 100.671C83.0608 101.031 80.3512 105.04 80.7828 105.304Z" fill="#F2F2F2"/>
<path d="M93.3715 79.692C93.5153 79.716 93.6352 79.764 93.7551 79.836C93.8031 79.62 93.8031 79.4759 93.7551 79.4519C93.6832 79.4039 93.5393 79.4999 93.3715 79.692Z" fill="#F2F2F2"/>
<path d="M90.5421 84.8047C90.2783 85.2848 87.9045 89.3174 88.0723 89.4854C88.432 89.7975 90.7579 85.2608 91.0456 84.7327C90.9018 84.7087 90.7819 84.6607 90.638 84.6367C90.5901 84.6847 90.5661 84.7567 90.5421 84.8047Z" fill="#F2F2F2"/>
<path d="M91.1178 83.5802C91.0219 83.7722 90.9259 83.9643 90.854 84.1323C91.0698 84.0123 91.2137 83.8682 91.1417 83.6042C91.1417 83.6042 91.1417 83.6042 91.1178 83.5802Z" fill="#F2F2F2"/>
<path d="M91.5254 82.7648C91.7412 82.6928 91.957 82.6928 92.1728 82.7648C92.4845 82.3327 92.8202 81.8527 93.084 81.3966C92.7483 81.4926 92.4366 81.6126 92.1248 81.7567C91.909 82.0927 91.7172 82.4288 91.5254 82.7648Z" fill="#F2F2F2"/>
<path d="M79.5362 105.28C79.5602 105.304 88.2643 90.9981 87.8327 90.7341C87.2332 90.35 79.2245 105.088 79.5362 105.28Z" fill="#F2F2F2"/>
<path d="M99.5578 64.2814C99.366 65.2416 101.428 66.1297 100.517 67.93C99.2701 70.4024 92.9878 69.8743 94.1387 66.5858C94.3545 66.0097 97.1839 64.0174 97.2319 64.1854C96.7523 62.6972 93.6352 65.1696 93.3714 65.7697C91.7649 69.1062 96.009 70.8584 98.6226 69.8743C100.181 69.2742 101.284 68.5061 101.476 66.7298C101.572 65.8177 99.7976 63.1773 99.5578 64.2814Z" fill="#F2F2F2"/>
<path d="M71.0955 124.65C70.472 124.506 68.8895 132.548 69.0573 132.572C69.1292 132.596 71.647 124.794 71.0955 124.65Z" fill="#F2F2F2"/>
<path d="M69.8728 123.811C69.7289 123.763 65.6526 138.261 66.324 138.645C66.4439 138.717 68.7938 129.043 69.0815 128.011C69.2254 127.555 70.3763 123.955 69.8728 123.811Z" fill="#F2F2F2"/>
<path d="M126.773 109.361C126.222 109.769 134.015 121.65 133.655 121.818C134.135 121.578 128.739 112.001 128.308 111.257C128.164 110.969 127.085 109.144 126.773 109.361Z" fill="#F2F2F2"/>
<path d="M131.017 119.298C131.017 119.322 131.017 119.322 131.017 119.347C131.017 119.347 131.042 119.322 131.017 119.298Z" fill="#F2F2F2"/>
<path d="M130.777 118.266C130.634 118.002 127.804 111.617 127.181 112.097C126.701 112.457 130.969 118.746 131.017 119.298C131.137 118.938 131.065 118.602 130.777 118.266Z" fill="#F2F2F2"/>
<path d="M149.792 133.508C149.553 133.652 145.404 135.5 145.476 135.02C145.093 137.276 150.848 132.836 149.792 133.508Z" fill="#F2F2F2"/>
<path d="M176.408 80.3645C176.408 80.3885 166.601 77.196 165.714 76.9559C164.755 76.7159 176.12 81.6126 176.408 80.3645Z" fill="#F2F2F2"/>
<path d="M192.234 80.8441C192.905 81.1562 197.245 79.884 197.173 79.596C197.006 79.1879 191.73 80.6041 192.234 80.8441Z" fill="#F2F2F2"/>
<path d="M178.854 37.1816C178.902 37.2296 178.95 37.3257 178.998 37.4697C179.07 37.3977 179.094 37.3257 179.046 37.2776C179.022 37.1816 178.95 37.1576 178.854 37.1816Z" fill="#F2F2F2"/>
<path d="M177.895 37.5417C177.176 37.9018 170.246 40.9502 170.246 40.9262C170.606 41.8864 178.279 37.9978 178.902 37.5177C178.566 37.5177 178.231 37.5177 177.895 37.5417Z" fill="#F2F2F2"/>
<path d="M172.596 41.6458C173.339 41.5978 177.559 39.4855 177.535 39.3894C177.152 38.6453 171.996 41.6698 172.596 41.6458Z" fill="#F2F2F2"/>
<path d="M192.354 27.1485C192.09 27.0045 191.97 27.4126 191.898 27.5806C191.97 27.6046 192.018 27.6526 192.09 27.7006C191.994 27.7726 191.898 27.7726 191.778 27.7726C191.587 28.0607 191.323 28.2767 191.059 28.4927C191.203 28.5167 191.347 28.5647 191.491 28.6368C191.611 28.4447 192.857 27.4366 192.354 27.1485Z" fill="#F2F2F2"/>
<path d="M189.908 29.4764C189.956 29.6445 189.956 29.8125 189.884 29.9805H189.86C190.483 30.1725 190.867 29.3804 191.179 28.9964C190.939 28.9964 190.747 28.9964 190.531 28.9484C190.34 29.1884 190.124 29.3084 189.908 29.4764Z" fill="#F2F2F2"/>
<path d="M132.72 15.1945C133.007 15.4346 132.936 15.6266 132.48 15.7466C132.456 15.7946 132.432 15.8426 132.408 15.8906C132.24 16.2267 130.178 19.2511 130.418 19.3712C131.497 19.9472 133.631 13.9223 133.559 13.8983C133.151 13.6823 132.768 14.9785 132.72 15.1945Z" fill="#F2F2F2"/>
<path d="M133.991 15.8188C133.847 15.7468 131.545 18.7472 132.096 19.0113C132.552 19.2273 132.816 18.1231 132.984 17.9311C132.816 17.9071 132.72 17.8111 132.72 17.6431C132.888 17.427 133.103 17.307 133.343 17.283C133.439 16.995 134.35 15.9868 133.991 15.8188Z" fill="#F2F2F2"/>
<path d="M137.396 4.24817C137.42 4.24817 137.444 4.24817 137.469 4.24817C137.444 4.27266 137.42 4.27266 137.396 4.24817Z" fill="#F2F2F2"/>
<path d="M136.844 4.12903C136.58 4.24905 136.101 5.52124 136.317 5.61725C137.012 5.9533 137.036 4.53709 137.204 4.20104C137.108 4.17704 137.012 4.15303 136.916 4.12903C136.82 4.12903 136.844 4.12903 136.844 4.12903Z" fill="#F2F2F2"/>
<path d="M137.971 4.22517L137.996 4.20032H137.971V4.22517Z" fill="#F2F2F2"/>
<path d="M67.619 25.3482C67.4991 25.4202 68.1226 28.0126 68.5782 28.2287C69.0577 28.4447 68.9378 27.7726 68.8179 27.5326C68.5782 27.1725 67.8588 25.2282 67.619 25.3482Z" fill="#F2F2F2"/>
<path d="M69.1536 26.2843C69.2255 26.5484 69.6572 27.9886 70.1367 27.7245C70.6642 27.4605 67.7629 22.5157 67.7389 22.5157C67.1874 22.7078 69.0097 25.6842 69.1536 26.2843Z" fill="#F2F2F2"/>
<path d="M100.733 62.3374C100.733 62.4574 105.049 64.9298 105.385 66.7301C105.864 69.3945 104.33 71.5548 102.1 72.755C98.4069 74.7473 91.2614 73.1391 91.9088 67.8823C92.0767 66.418 96.3688 62.4814 96.4407 62.8175C96.2968 62.3134 94.2347 63.1535 94.0908 63.2256C86.178 67.6662 94.4745 76.6676 101.548 73.7872C104.042 72.779 106.104 70.2826 106.128 67.5702C106.152 64.5938 100.709 61.4493 100.733 62.3374Z" fill="#F2F2F2"/>
<path d="M36.3033 88.9574C34.8166 85.4288 34.4329 81.6603 35.5359 78.0357C35.2722 78.0357 34.9845 78.0117 34.7207 78.0117C31.4836 83.8446 36.6629 89.5575 38.8689 94.5502C39.1087 94.6222 39.4684 94.8863 39.1567 95.1263C39.4204 95.5584 41.4586 97.9347 41.2668 97.0706C40.6193 94.1902 37.4782 91.7418 36.3033 88.9574Z" fill="#F2F2F2"/>
<path d="M72.5104 111.113C71.2395 110.969 49.3714 104.344 50.2586 103.192C49.2994 104.44 57.5719 108.208 58.2433 108.496C58.4831 107.872 59.9458 108.064 59.5381 109.024C67.1153 111.761 74.8603 112.241 82.7971 111.497C83.7322 111.401 90.2063 110.849 89.9426 109.721C90.0865 110.225 73.8532 111.257 72.5104 111.113Z" fill="#F2F2F2"/>
<path d="M135.118 94.5262C138.019 92.63 141.52 90.7577 143.918 88.2373C143.054 89.1734 136.029 93.038 133.679 94.7663C134.159 94.5983 134.638 94.5022 135.118 94.5262Z" fill="#F2F2F2"/>
<path d="M123.392 100.959C122.553 101.392 99.7496 109.217 99.7496 107.921C99.7016 111.401 124.135 101.368 125.095 100.839L123.896 100.695C123.728 100.791 123.56 100.887 123.392 100.959Z" fill="#F2F2F2"/>
<path d="M133.175 95.1263C130.706 96.8786 127.996 98.4628 125.359 99.951C125.454 100.167 125.478 100.407 125.454 100.647C128.548 98.9669 131.665 96.9266 134.566 94.9103L133.271 95.0543C133.223 95.0783 133.199 95.1023 133.175 95.1263ZM133.032 95.8224C131.641 96.1585 133.032 95.2943 132.864 95.3904C132.84 95.3663 133.655 95.6544 133.032 95.8224Z" fill="#F2F2F2"/>
<path d="M153.102 33.8688C153.341 33.8688 153.605 33.8448 153.845 33.8688C153.701 33.7968 152.766 33.5087 153.102 33.8688Z" fill="#F2F2F2"/>
<path d="M155.451 34.6368C155.331 34.9009 155.211 34.9249 154.732 34.9009C154.636 34.9009 154.516 34.9009 154.42 34.9009C160.99 39.6776 165.066 46.0146 164.683 54.4638C164.563 57.1762 164.011 59.7446 163.196 62.241C164.299 59.4086 165.09 57.1282 165.186 56.3121C166.241 48.0789 163.364 38.6454 155.451 34.6368Z" fill="#F2F2F2"/>
<path d="M163.196 62.2169C162.573 63.8012 161.853 65.5534 161.086 67.3057C161.877 65.6494 162.597 63.9452 163.196 62.2169Z" fill="#F2F2F2"/>
<path d="M154.181 78.8755C155.188 79.7397 158.377 73.4987 161.086 67.3058C161.014 67.4738 160.942 67.6178 160.847 67.7859C160.223 69.034 153.797 78.5635 154.181 78.8755Z" fill="#F2F2F2"/>
<path d="M124.591 23.1874C124.663 23.1874 124.855 23.2114 125.143 23.2594C125.143 23.1634 125.143 23.0914 125.167 23.0194C124.975 23.0674 124.783 23.1394 124.591 23.1874Z" fill="#F2F2F2"/>
<path d="M124.592 23.1875C124.567 23.1875 124.567 23.1875 124.567 23.1875C124.567 23.2124 124.592 23.1875 124.592 23.1875Z" fill="#F2F2F2"/>
<path d="M125.143 23.2599C125.143 23.3799 125.119 23.4999 125.095 23.6199C126.557 24.4361 147.442 29.0208 147.011 29.7649C148.114 27.8686 128.787 23.836 125.143 23.2599Z" fill="#F2F2F2"/>
</g>
<defs>
<clipPath id="clip0_351_33">
<rect width="203" height="159" fill="white"/>
</clipPath>
</defs>
</svg>
