<svg width="23" height="23" viewBox="0 0 23 23" fill="none" xmlns="http://www.w3.org/2000/svg">
<path d="M11.5 0L12.1872 7.16147L15.0537 0.56285L13.4942 7.58616L18.2595 2.1963L14.606 8.39396L20.8037 4.74047L15.4138 9.5058L22.4371 7.9463L15.8385 10.8128L23 11.5L15.8385 12.1872L22.4371 15.0537L15.4138 13.4942L20.8037 18.2595L14.606 14.606L18.2595 20.8037L13.4942 15.4138L15.0537 22.4371L12.1872 15.8385L11.5 23L10.8128 15.8385L7.9463 22.4371L9.5058 15.4138L4.74047 20.8037L8.39396 14.606L2.1963 18.2595L7.58616 13.4942L0.56285 15.0537L7.16147 12.1872L0 11.5L7.16147 10.8128L0.56285 7.9463L7.58616 9.5058L2.1963 4.74047L8.39396 8.39396L4.74047 2.1963L9.5058 7.58616L7.9463 0.56285L10.8128 7.16147L11.5 0Z" fill="white"/>
</svg>
