<svg width="28" height="28" viewBox="0 0 28 28" fill="none" xmlns="http://www.w3.org/2000/svg">
<path d="M13.1797 4.15625H14.8203C14.9661 4.15625 15.0391 4.22917 15.0391 4.375V23.625C15.0391 23.7708 14.9661 23.8438 14.8203 23.8438H13.1797C13.0339 23.8438 12.9609 23.7708 12.9609 23.625V4.375C12.9609 4.22917 13.0339 4.15625 13.1797 4.15625Z" fill="white"/>
<path d="M4.8125 12.9609H23.1875C23.3333 12.9609 23.4062 13.0339 23.4062 13.1797V14.8203C23.4062 14.9661 23.3333 15.0391 23.1875 15.0391H4.8125C4.66667 15.0391 4.59375 14.9661 4.59375 14.8203V13.1797C4.59375 13.0339 4.66667 12.9609 4.8125 12.9609Z" fill="white"/>
</svg>
