<svg width="2496" height="82" viewBox="0 0 2496 82" fill="none" xmlns="http://www.w3.org/2000/svg">
<path d="M129 13.5C129 20.9558 122.956 27 115.5 27C108.044 27 102 20.9558 102 13.5C102 6.04416 108.044 0 115.5 0C122.956 0 129 6.04416 129 13.5Z" fill="black"/>
<path d="M124 13.5C124 18.1944 120.194 22 115.5 22C110.806 22 107 18.1944 107 13.5C107 8.80558 110.806 5 115.5 5C120.194 5 124 8.80558 124 13.5Z" fill="#FF3EFF"/>
<path d="M478 40.5C478 47.9558 471.956 54 464.5 54C457.044 54 451 47.9558 451 40.5C451 33.0442 457.044 27 464.5 27C471.956 27 478 33.0442 478 40.5Z" fill="#FF3EFF"/>
<path d="M473 40.5C473 45.1944 469.194 49 464.5 49C459.806 49 456 45.1944 456 40.5C456 35.8056 459.806 32 464.5 32C469.194 32 473 35.8056 473 40.5Z" fill="white"/>
<path d="M828 26.5C828 33.9558 821.956 40 814.5 40C807.044 40 801 33.9558 801 26.5C801 19.0442 807.044 13 814.5 13C821.956 13 828 19.0442 828 26.5Z" fill="black"/>
<path d="M823 26.5C823 31.1944 819.194 35 814.5 35C809.806 35 806 31.1944 806 26.5C806 21.8056 809.806 18 814.5 18C819.194 18 823 21.8056 823 26.5Z" fill="white"/>
<path d="M1178 68.5C1178 75.9558 1171.96 82 1164.5 82C1157.04 82 1151 75.9558 1151 68.5C1151 61.0442 1157.04 55 1164.5 55C1171.96 55 1178 61.0442 1178 68.5Z" fill="black"/>
<path d="M1173 68.5C1173 73.1944 1169.19 77 1164.5 77C1159.81 77 1156 73.1944 1156 68.5C1156 63.8056 1159.81 60 1164.5 60C1169.19 60 1173 63.8056 1173 68.5Z" fill="white"/>
<path d="M1528 40.5C1528 47.9558 1521.96 54 1514.5 54C1507.04 54 1501 47.9558 1501 40.5C1501 33.0442 1507.04 27 1514.5 27C1521.96 27 1528 33.0442 1528 40.5Z" fill="black"/>
<path d="M1523 40.5C1523 45.1944 1519.19 49 1514.5 49C1509.81 49 1506 45.1944 1506 40.5C1506 35.8056 1509.81 32 1514.5 32C1519.19 32 1523 35.8056 1523 40.5Z" fill="white"/>
<path d="M1878 31.5C1878 38.9558 1871.96 45 1864.5 45C1857.04 45 1851 38.9558 1851 31.5C1851 24.0442 1857.04 18 1864.5 18C1871.96 18 1878 24.0442 1878 31.5Z" fill="black"/>
<path d="M1873 31.5C1873 36.1944 1869.19 40 1864.5 40C1859.81 40 1856 36.1944 1856 31.5C1856 26.8056 1859.81 23 1864.5 23C1869.19 23 1873 26.8056 1873 31.5Z" fill="white"/>
<path d="M2228 56.5C2228 63.9558 2221.96 70 2214.5 70C2207.04 70 2201 63.9558 2201 56.5C2201 49.0442 2207.04 43 2214.5 43C2221.96 43 2228 49.0442 2228 56.5Z" fill="black"/>
<path d="M2223 56.5C2223 61.1944 2219.19 65 2214.5 65C2209.81 65 2206 61.1944 2206 56.5C2206 51.8056 2209.81 48 2214.5 48C2219.19 48 2223 51.8056 2223 56.5Z" fill="white"/>
</svg>
