<svg width="43" height="36" viewBox="0 0 43 36" fill="none" xmlns="http://www.w3.org/2000/svg">
<path d="M38.2957 0.596797C38.073 0.433497 37.7601 0.481636 37.5968 0.704318L34.9357 4.33314C34.7724 4.55582 34.8205 4.86872 35.0432 5.03202C35.2659 5.19533 35.5788 5.14719 35.7421 4.9245L38.1075 1.69888L41.3331 4.06434C41.5558 4.22764 41.8687 4.1795 42.032 3.95682C42.1953 3.73414 42.1472 3.42123 41.9245 3.25793L38.2957 0.596797ZM1 33.5C0.889189 33.9876 0.889387 33.9876 0.889669 33.9877C0.889874 33.9877 0.89024 33.9878 0.890651 33.9879C0.891473 33.9881 0.892629 33.9883 0.894117 33.9887C0.897093 33.9893 0.901397 33.9903 0.907013 33.9916C0.918245 33.9941 0.934723 33.9977 0.956314 34.0025C0.999495 34.0119 1.06313 34.0257 1.14615 34.0432C1.31219 34.0782 1.55579 34.1281 1.86841 34.1883C2.49358 34.3086 3.3951 34.4699 4.50447 34.6352C6.72213 34.9655 9.77569 35.3119 13.1156 35.3749C16.4532 35.4379 20.0925 35.2182 23.4758 34.4081C26.8568 33.5986 30.0158 32.1913 32.3536 29.8536L31.6464 29.1464C29.4842 31.3087 26.5182 32.6514 23.2429 33.4356C19.97 34.2193 16.4218 34.4371 13.1344 34.3751C9.84931 34.3131 6.84037 33.972 4.65178 33.6461C3.55802 33.4832 2.67048 33.3243 2.05737 33.2063C1.75085 33.1473 1.51301 33.0986 1.35238 33.0647C1.27207 33.0478 1.21108 33.0346 1.17046 33.0257C1.15015 33.0212 1.13493 33.0178 1.12495 33.0156C1.11995 33.0145 1.11627 33.0137 1.11391 33.0131C1.11273 33.0129 1.11188 33.0127 1.11136 33.0126C1.1111 33.0125 1.11096 33.0125 1.11083 33.0124C1.11078 33.0124 1.11081 33.0124 1 33.5ZM32.3536 29.8536C36.989 25.2181 38.4974 17.9329 38.874 11.9062C39.0633 8.8783 38.9686 6.13641 38.8269 4.15188C38.7559 3.15914 38.6732 2.35472 38.6079 1.79735C38.5753 1.51864 38.5471 1.30163 38.5269 1.15363C38.5168 1.07964 38.5087 1.02289 38.5031 0.984309C38.5003 0.965018 38.4981 0.950268 38.4966 0.940174C38.4959 0.935127 38.4953 0.931244 38.4949 0.928538C38.4947 0.927186 38.4945 0.926128 38.4944 0.925366C38.4943 0.924985 38.4943 0.924636 38.4943 0.924446C38.4942 0.924172 38.4942 0.923971 38 1C37.5058 1.07603 37.5058 1.07598 37.5058 1.076C37.5058 1.07611 37.5058 1.0762 37.5059 1.07642C37.5059 1.07684 37.506 1.07756 37.5062 1.07857C37.5065 1.0806 37.507 1.0838 37.5076 1.08816C37.5089 1.09688 37.5109 1.11024 37.5135 1.12812C37.5187 1.16388 37.5264 1.21773 37.5361 1.28875C37.5555 1.4308 37.5829 1.64151 37.6147 1.91358C37.6784 2.45778 37.7597 3.24711 37.8294 4.22312C37.9689 6.17609 38.0617 8.8717 37.876 11.8438C37.5026 17.8171 36.011 24.7819 31.6464 29.1464L32.3536 29.8536Z" fill="#AEB2BA"/>
</svg>
