<svg width="96" height="60" viewBox="0 0 96 60" fill="none" xmlns="http://www.w3.org/2000/svg">
<g clip-path="url(#clip0_228_89341)">
<path d="M90.4658 44.7795C88.1045 44.7795 85.7433 44.7795 83.382 44.7795V59.6324C85.7433 59.6324 88.1045 59.6324 90.4658 59.6324C93.5649 59.6324 96.0738 58.603 96.0738 55.2942C96.0738 54.3383 95.4097 52.5001 93.7125 51.9853C95.1145 51.3971 95.6311 50.2942 95.6311 49.1177C95.5573 46.103 93.4174 44.7795 90.4658 44.7795ZM86.186 47.353H90.4658C92.2367 47.353 92.8271 48.5295 92.8271 49.1912C92.8271 50.0736 92.2367 50.8089 90.4658 50.8089H86.186V47.353ZM86.186 53.2354H90.4658C91.6464 53.2354 93.2698 53.9706 93.2698 55.2942C93.2698 56.6912 91.6464 57.0589 90.4658 57.0589H86.186V53.2354ZM71.5019 44.853V53.3824C71.5019 55.9559 70.1737 57.5001 67.8862 57.5001C65.5988 57.5001 64.0492 56.103 64.0492 53.3824V44.853H61.2452V53.3824C61.2452 57.8677 64.2706 60.0001 67.8862 60.0001C71.6495 60.0001 74.3059 57.7206 74.3059 53.3824V44.853H71.5019ZM43.1668 44.7795V59.6324H53.6449V57.0589H45.9708V44.7795H43.1668ZM33.4266 55.8824C32.4673 56.8383 30.9915 57.353 29.6633 57.353C25.9739 57.353 24.5719 54.7795 24.4981 52.353C24.4981 49.853 26.0477 47.2059 29.6633 47.2059C30.9915 47.2059 32.246 47.6471 33.279 48.603L35.1237 46.7648C33.5742 45.2942 31.6556 44.4854 29.6633 44.4854C24.2767 44.4854 21.7679 48.4559 21.7679 52.2795C21.7679 56.1765 24.1291 59.9265 29.6633 59.9265C31.8032 59.9265 33.7955 59.1912 35.3451 57.7206L33.4266 55.8824ZM3.32052 44.7795H0V44.9265L5.75557 53.5295V59.7059H8.55957V53.5295L14.5365 44.9265V44.7795H11.0684L7.08378 50.9559L3.32052 44.7795Z" fill="white"/>
<path fill-rule="evenodd" clip-rule="evenodd" d="M62.6472 21.5442L49.4389 34.706H32.1722L45.4543 21.5442H62.6472Z" fill="#165EA0"/>
<path fill-rule="evenodd" clip-rule="evenodd" d="M82.8655 1.54419L64.9347 19.3383H47.7418L65.6726 1.54419H82.8655Z" fill="#165EA0"/>
<path fill-rule="evenodd" clip-rule="evenodd" d="M62.6472 21.5442L49.4389 34.706H32.1722L62.6472 21.5442Z" fill="#2491EB"/>
<path fill-rule="evenodd" clip-rule="evenodd" d="M82.8655 1.54419L64.9347 19.3383L65.6726 1.54419H82.8655Z" fill="#2491EB"/>
<path fill-rule="evenodd" clip-rule="evenodd" d="M47.7418 19.3383L56.3751 10.7354L64.9347 19.3383H47.7418Z" fill="#1B70BB"/>
<path fill-rule="evenodd" clip-rule="evenodd" d="M56.3751 10.7354L65.6726 1.54419H82.8655L56.3751 10.7354Z" fill="#2491EB"/>
<path fill-rule="evenodd" clip-rule="evenodd" d="M65.6725 1.54419H82.8655L65.4512 7.64713L65.6725 1.54419Z" fill="#15B0F8"/>
<path fill-rule="evenodd" clip-rule="evenodd" d="M32.1722 34.706L45.4543 21.5442L49.4389 34.706H32.1722Z" fill="#15B0F8"/>
<path fill-rule="evenodd" clip-rule="evenodd" d="M32.1724 34.7062L47.4468 28.1621L49.4391 34.7062H32.1724Z" fill="#165EA0"/>
<path fill-rule="evenodd" clip-rule="evenodd" d="M29.1468 0.882353L45.9708 17.5L54.6041 8.97059L45.528 0L29.1468 0.882353Z" fill="#165EA0"/>
<path fill-rule="evenodd" clip-rule="evenodd" d="M54.6041 8.97059L45.528 0L29.1468 0.882353L54.6041 8.97059Z" fill="#15B0F8"/>
<path fill-rule="evenodd" clip-rule="evenodd" d="M29.1468 0.882353L45.9708 17.5L46.0446 17.4265L45.528 0L29.1468 0.882353Z" fill="#104378"/>
<path fill-rule="evenodd" clip-rule="evenodd" d="M45.6756 6.10294L45.528 0L29.1468 0.882353L45.6756 6.10294Z" fill="#2491EB"/>
<path fill-rule="evenodd" clip-rule="evenodd" d="M45.4543 21.5442L47.4466 28.1618L62.6472 21.5442H45.4543Z" fill="#1B70BB"/>
<path fill-rule="evenodd" clip-rule="evenodd" d="M32.1724 34.7062L47.4468 28.1621L49.4391 34.7062H32.1724Z" fill="#135894"/>
</g>
<defs>
<clipPath id="clip0_228_89341">
<rect width="96" height="60" fill="white"/>
</clipPath>
</defs>
</svg>
