<svg width="32" height="26" viewBox="0 0 32 26" fill="none" xmlns="http://www.w3.org/2000/svg">
<path d="M23.9737 5.52022C23.9671 5.5075 23.9562 5.49753 23.943 5.4921C22.4109 4.78932 20.7941 4.28818 19.133 4.00123C19.1179 3.99842 19.1023 4.00045 19.0884 4.00701C19.0746 4.01358 19.0631 4.02435 19.0557 4.03779C18.8355 4.43728 18.6357 4.84763 18.4569 5.26726C16.6664 4.99552 14.8451 4.99552 13.0545 5.26726C12.8745 4.84656 12.6715 4.43612 12.4463 4.03779C12.4385 4.02464 12.427 4.01412 12.4132 4.00759C12.3994 4.00107 12.384 3.99886 12.3689 4.00123C10.7077 4.28758 9.09077 4.78875 7.55885 5.49214C7.54574 5.4977 7.53468 5.50719 7.52719 5.5193C4.46365 10.0932 3.62444 14.5546 4.03613 18.9607C4.03729 18.9715 4.04061 18.982 4.04589 18.9915C4.05117 19.001 4.05831 19.0093 4.06687 19.016C5.85074 20.3365 7.84601 21.3444 9.96755 21.9968C9.98249 22.0013 9.99845 22.0011 10.0133 21.9962C10.0281 21.9913 10.0411 21.9821 10.0505 21.9696C10.5061 21.3498 10.9099 20.6934 11.2576 20.0072C11.2624 19.9978 11.2651 19.9875 11.2656 19.9769C11.2661 19.9664 11.2644 19.9558 11.2605 19.946C11.2566 19.9362 11.2507 19.9273 11.2432 19.9199C11.2356 19.9126 11.2266 19.9069 11.2167 19.9032C10.58 19.6597 9.96359 19.3661 9.37329 19.0252C9.36256 19.0189 9.35356 19.0101 9.34706 18.9995C9.34057 18.9888 9.33679 18.9768 9.33605 18.9644C9.33532 18.952 9.33765 18.9396 9.34285 18.9283C9.34805 18.917 9.35595 18.9071 9.36585 18.8996C9.49006 18.8068 9.61212 18.7112 9.73193 18.6129C9.74244 18.6042 9.75515 18.5987 9.76864 18.5968C9.78213 18.595 9.79586 18.597 9.80829 18.6026C13.6756 20.3671 17.8625 20.3671 21.684 18.6026C21.6964 18.5966 21.7103 18.5944 21.724 18.596C21.7377 18.5977 21.7506 18.6032 21.7613 18.6119C21.8813 18.7108 22.0036 18.8068 22.1283 18.8996C22.1383 18.9071 22.1462 18.9168 22.1515 18.9281C22.1568 18.9393 22.1592 18.9517 22.1586 18.9641C22.1579 18.9766 22.1543 18.9886 22.1478 18.9993C22.1414 19.0099 22.1325 19.0188 22.1218 19.0252C21.5329 19.369 20.9159 19.6624 20.2776 19.9023C20.2676 19.9061 20.2586 19.9119 20.2511 19.9194C20.2436 19.9269 20.2378 19.9359 20.234 19.9458C20.2302 19.9557 20.2285 19.9663 20.2291 19.9769C20.2297 19.9874 20.2325 19.9978 20.2374 20.0072C20.5909 20.6896 20.9941 21.3451 21.4436 21.9685C21.4527 21.9813 21.4656 21.9909 21.4805 21.996C21.4954 22.001 21.5115 22.0013 21.5265 21.9967C23.6518 21.3465 25.6506 20.3385 27.4367 19.016C27.4454 19.0096 27.4526 19.0015 27.4579 18.9921C27.4632 18.9828 27.4665 18.9724 27.4674 18.9616C27.9603 13.8677 26.6423 9.44283 23.9737 5.52022ZM11.8352 16.2778C10.6708 16.2778 9.71143 15.2096 9.71143 13.8977C9.71143 12.5858 10.6522 11.5175 11.8352 11.5175C13.0273 11.5175 13.9774 12.595 13.9588 13.8976C13.9588 15.2096 13.018 16.2778 11.8352 16.2778ZM19.6872 16.2778C18.5229 16.2778 17.5635 15.2096 17.5635 13.8977C17.5635 12.5858 18.5043 11.5175 19.6872 11.5175C20.8795 11.5175 21.8295 12.595 21.8109 13.8976C21.8109 15.2096 20.8795 16.2778 19.6872 16.2778Z" fill="white"/>
</svg>
