<svg width="26" height="26" viewBox="0 0 26 26" fill="none" xmlns="http://www.w3.org/2000/svg">
<path d="M17.969 2H8.03096C4.70548 2 2 4.70548 2 8.03101V17.969C2 21.2946 4.70548 24 8.03096 24H17.969C21.2946 24 24 21.2946 24 17.969V8.03101C24 4.70548 21.2946 2 17.969 2ZM22.7008 17.969C22.7008 20.5781 20.5782 22.7008 17.969 22.7008H8.03096C5.42186 22.7008 3.2992 20.5782 3.2992 17.969V8.03101C3.2992 5.42186 5.42186 3.2992 8.03096 3.2992H17.969C20.5782 3.2992 22.7008 5.42186 22.7008 8.03101V17.969Z" fill="white"/>
<path d="M13 6.96606C9.67272 6.96606 6.96582 9.67297 6.96582 13.0002C6.96582 16.3275 9.67268 19.0344 13 19.0344C16.3272 19.0344 19.0342 16.3274 19.0342 13.0002C19.0342 9.67292 16.3272 6.96606 13 6.96606ZM13 17.7352C10.3891 17.7352 8.26498 15.611 8.26498 13.0002C8.26498 10.3893 10.3891 8.26518 13 8.26518C15.6109 8.26518 17.735 10.3893 17.735 13.0002C17.735 15.6111 15.6109 17.7352 13 17.7352Z" fill="white"/>
<path d="M19.3948 4.77173C18.3839 4.77173 17.5615 5.59419 17.5615 6.60508C17.5615 7.61596 18.3839 8.43838 19.3948 8.43838C20.4057 8.43838 21.2281 7.61592 21.2281 6.60503C21.2281 5.59415 20.4057 4.77173 19.3948 4.77173ZM19.3948 7.13913C19.1004 7.13913 18.8607 6.89954 18.8607 6.60503C18.8607 6.31053 19.1004 6.07093 19.3948 6.07093C19.6893 6.07093 19.9289 6.31057 19.9289 6.60503C19.9289 6.8995 19.6893 7.13913 19.3948 7.13913Z" fill="white"/>
</svg>
