<svg width="26" height="26" viewBox="0 0 26 26" fill="none" xmlns="http://www.w3.org/2000/svg">
<path d="M22.3978 10.425C21.6727 10.425 21.0347 10.7302 20.5651 11.2056C18.8386 9.9927 16.5104 9.21217 13.9307 9.12896L15.2707 3.00148L19.5378 3.9733C19.5378 5.03313 20.3891 5.89878 21.4336 5.89878C22.4982 5.89878 23.3543 5.01017 23.3543 3.94939C23.3543 2.88861 22.504 2 21.4346 2C20.6894 2 20.0467 2.45626 19.7262 3.07991L15.0134 2.02009C14.7762 1.956 14.5438 2.12817 14.4807 2.36922L13.0095 9.12417C10.4499 9.23226 8.14657 10.0118 6.41431 11.2257C5.94466 10.7302 5.28179 10.425 4.55675 10.425C1.86701 10.425 0.986051 14.0876 3.44909 15.3397C3.36205 15.727 3.32283 16.1403 3.32283 16.5525C3.32283 20.6665 7.89022 24 13.4983 24C19.1303 24 23.6977 20.6665 23.6977 16.5525C23.6977 16.1403 23.6547 15.7079 23.5485 15.3196C25.9618 14.0627 25.0732 10.427 22.3978 10.425ZM7.35744 15.5998C7.35744 14.5199 8.20875 13.6504 9.27814 13.6504C10.3227 13.6504 11.1749 14.5142 11.1749 15.5998C11.1749 16.6606 10.3236 17.5253 9.27814 17.5253C8.21353 17.5301 7.35744 16.6606 7.35744 15.5998ZM17.7252 20.1892C15.9642 21.976 10.9951 21.976 9.23318 20.1892C9.03901 20.017 9.03901 19.7129 9.23318 19.5168C9.40249 19.3446 9.70283 19.3446 9.87214 19.5168C11.217 20.9162 15.6782 20.9401 17.0814 19.5168C17.2507 19.3446 17.5511 19.3446 17.7204 19.5168C17.9184 19.7138 17.9184 20.018 17.7252 20.1892ZM17.686 17.5291C16.6414 17.5291 15.7901 16.6654 15.7901 15.6056C15.7901 14.5257 16.6414 13.6562 17.686 13.6562C18.7506 13.6562 19.6067 14.5199 19.6067 15.6056C19.6019 16.6606 18.7506 17.5291 17.686 17.5291Z" fill="white"/>
</svg>
