<svg width="26" height="26" viewBox="0 0 26 26" fill="none" xmlns="http://www.w3.org/2000/svg">
<path d="M21.2689 8.6635C21.283 8.85309 21.283 9.04159 21.283 9.23009C21.283 14.9988 16.8923 21.6462 8.868 21.6462C6.39584 21.6462 4.09917 20.9301 2.1665 19.6864C2.5175 19.7265 2.8555 19.7406 3.22059 19.7406C5.18466 19.7453 7.09312 19.0886 8.63834 17.8762C7.72771 17.8597 6.84496 17.5592 6.11335 17.0168C5.38173 16.4744 4.83777 15.717 4.55742 14.8504C4.82717 14.8905 5.098 14.9176 5.38184 14.9176C5.77292 14.9176 6.16617 14.8634 6.53125 14.7692C5.54299 14.5696 4.65435 14.034 4.01642 13.2532C3.3785 12.4725 3.03067 11.495 3.03209 10.4868V10.4326C3.61384 10.7565 4.28875 10.9591 5.00375 10.9862C4.40477 10.5881 3.91362 10.048 3.57412 9.41403C3.23463 8.78003 3.05734 8.07185 3.05809 7.35267C3.05809 6.54234 3.27367 5.79917 3.65175 5.15134C4.74824 6.50011 6.1158 7.60353 7.66587 8.39013C9.21594 9.17674 10.9139 9.62899 12.6499 9.71759C12.5828 9.39259 12.5416 9.05567 12.5416 8.71767C12.5413 8.14455 12.654 7.57698 12.8732 7.04743C13.0924 6.51788 13.4138 6.03672 13.819 5.63146C14.2243 5.2262 14.7055 4.90478 15.235 4.68559C15.7646 4.4664 16.3321 4.35372 16.9053 4.354C18.1619 4.354 19.2962 4.8805 20.0935 5.732C21.0704 5.54309 22.0073 5.18646 22.8625 4.67792C22.5369 5.68631 21.8547 6.54137 20.9439 7.08292C21.8104 6.9841 22.6571 6.75624 23.4562 6.40692C22.8594 7.27694 22.1199 8.03988 21.2689 8.6635Z" fill="white"/>
</svg>
