<svg width="327" height="555" viewBox="0 0 327 555" fill="none" xmlns="http://www.w3.org/2000/svg">
<g clip-path="url(#clip0_940_735)">
<g filter="url(#filter0_d_940_735)">
<path d="M115.908 104.207C128.499 97.044 142.782 93.2729 157.321 93.2729V174.887L115.908 104.207Z" fill="#FF6700"/>
</g>
<g filter="url(#filter1_d_940_735)">
<path d="M75.6316 112.5C86.6328 98.1294 101.234 86.8997 117.967 79.9392L157.736 174.988L75.6316 112.5Z" fill="#F9F871"/>
</g>
<g filter="url(#filter2_d_940_735)">
<path d="M40.2861 160.064C42.7568 139.415 50.6352 119.778 63.1296 103.127L158.264 174.098L40.2861 160.064Z" fill="#FFD14F"/>
</g>
<g filter="url(#filter3_d_940_735)">
<path d="M35.9945 220.307C27.3141 200.266 24.0775 178.299 26.61 156.615L150.5 171L35.9945 220.307Z" fill="#FFA158"/>
</g>
<g filter="url(#filter4_d_940_735)">
<path d="M98.2199 300.835C81.1198 293.99 65.5394 283.853 52.3683 271.004C39.1973 258.154 28.6934 242.844 21.4565 225.947L150.5 171L98.2199 300.835Z" fill="#FF6781"/>
</g>
<g filter="url(#filter5_d_940_735)">
<path d="M286.944 246.216C268.236 279.957 237.619 305.562 201.04 318.06C164.46 330.558 124.528 329.057 88.9966 313.848L150.5 171L286.944 246.216Z" fill="#FF2FBC"/>
</g>
<g filter="url(#filter6_d_940_735)">
<path d="M150.5 0C180.836 3.60695e-07 210.629 8.02299 236.84 23.2506C263.05 38.4781 284.742 60.3654 299.7 86.6796C314.659 112.994 322.349 142.793 321.988 173.038C321.626 203.283 313.225 232.892 297.642 258.843L150.5 171V0Z" fill="#FF3EFF"/>
</g>
</g>
<path d="M20.407 388.156C19.7917 388.156 19.2327 388.039 18.73 387.805C18.2273 387.571 17.8027 387.259 17.456 386.869C17.1093 386.47 16.8623 386.033 16.715 385.556L17.651 385.205C17.8763 385.864 18.2273 386.366 18.704 386.713C19.1807 387.051 19.7483 387.22 20.407 387.22C20.823 387.22 21.187 387.155 21.499 387.025C21.8197 386.886 22.0667 386.696 22.24 386.453C22.4133 386.21 22.5 385.929 22.5 385.608C22.5 385.131 22.37 384.763 22.11 384.503C21.85 384.243 21.4773 384.044 20.992 383.905L19.25 383.385C18.5653 383.186 18.0367 382.852 17.664 382.384C17.3 381.916 17.118 381.383 17.118 380.785C17.118 380.274 17.2437 379.823 17.495 379.433C17.7463 379.034 18.0887 378.722 18.522 378.497C18.964 378.272 19.4623 378.159 20.017 378.159C20.5977 378.159 21.1177 378.267 21.577 378.484C22.045 378.692 22.4393 378.969 22.76 379.316C23.0807 379.663 23.3103 380.048 23.449 380.473L22.539 380.837C22.331 380.265 22.006 379.832 21.564 379.537C21.1307 379.242 20.6193 379.095 20.03 379.095C19.6573 379.095 19.328 379.16 19.042 379.29C18.7647 379.42 18.548 379.606 18.392 379.849C18.236 380.092 18.158 380.378 18.158 380.707C18.158 381.106 18.2837 381.465 18.535 381.786C18.7863 382.098 19.172 382.332 19.692 382.488L21.226 382.943C21.9887 383.168 22.565 383.493 22.955 383.918C23.345 384.343 23.54 384.876 23.54 385.517C23.54 386.037 23.4057 386.496 23.137 386.895C22.877 387.285 22.5087 387.593 22.032 387.818C21.564 388.043 21.0223 388.156 20.407 388.156ZM28.0703 388.078C27.4463 388.078 26.9653 387.896 26.6273 387.532C26.2893 387.168 26.1203 386.648 26.1203 385.972V382.007H24.8333V381.032H25.1583C25.453 381.032 25.687 380.937 25.8603 380.746C26.0336 380.547 26.1203 380.3 26.1203 380.005V379.42H27.0953V381.032H28.6293V382.007H27.0953V385.972C27.0953 386.206 27.13 386.414 27.1993 386.596C27.2686 386.769 27.3856 386.908 27.5503 387.012C27.7236 387.116 27.9533 387.168 28.2393 387.168C28.3086 387.168 28.391 387.164 28.4863 387.155C28.5816 387.146 28.664 387.138 28.7333 387.129V388C28.6293 388.026 28.5123 388.043 28.3823 388.052C28.2523 388.069 28.1483 388.078 28.0703 388.078ZM32.3334 388.156C31.8914 388.156 31.497 388.074 31.1504 387.909C30.8037 387.736 30.5307 387.502 30.3314 387.207C30.132 386.912 30.0324 386.574 30.0324 386.193C30.0324 385.829 30.1104 385.5 30.2664 385.205C30.4224 384.902 30.665 384.646 30.9944 384.438C31.3237 384.23 31.744 384.083 32.2554 383.996L34.9854 383.541V384.425L32.4894 384.841C31.9867 384.928 31.6227 385.088 31.3974 385.322C31.1807 385.556 31.0724 385.833 31.0724 386.154C31.0724 386.466 31.1937 386.73 31.4364 386.947C31.6877 387.164 32.0084 387.272 32.3984 387.272C32.875 387.272 33.291 387.172 33.6464 386.973C34.0017 386.765 34.279 386.488 34.4784 386.141C34.6777 385.794 34.7774 385.409 34.7774 384.984V383.216C34.7774 382.8 34.6257 382.462 34.3224 382.202C34.019 381.942 33.6247 381.812 33.1394 381.812C32.7147 381.812 32.342 381.92 32.0214 382.137C31.7007 382.345 31.4624 382.618 31.3064 382.956L30.4224 382.475C30.5524 382.18 30.756 381.912 31.0334 381.669C31.3194 381.426 31.6444 381.236 32.0084 381.097C32.3724 380.95 32.7494 380.876 33.1394 380.876C33.6507 380.876 34.1014 380.976 34.4914 381.175C34.89 381.374 35.1977 381.652 35.4144 382.007C35.6397 382.354 35.7524 382.757 35.7524 383.216V388H34.7774V386.609L34.9204 386.752C34.799 387.012 34.6084 387.25 34.3484 387.467C34.097 387.675 33.798 387.844 33.4514 387.974C33.1134 388.095 32.7407 388.156 32.3334 388.156ZM37.7578 388V378.159H38.7328V385.049L38.3168 384.984L42.2298 381.032H43.4908L40.7608 383.827L43.7378 388H42.5678L39.7728 384.139L40.3968 384.191L38.4078 386.245L38.7328 385.439V388H37.7578ZM44.8799 388V381.032H45.8549V388H44.8799ZM44.8799 379.745V378.315H45.8549V379.745H44.8799ZM47.8506 388V381.032H48.8256V382.384L48.6046 382.332C48.7779 381.881 49.0596 381.526 49.4496 381.266C49.8483 381.006 50.3076 380.876 50.8276 380.876C51.3216 380.876 51.7636 380.989 52.1536 381.214C52.5523 381.439 52.8643 381.751 53.0896 382.15C53.3236 382.54 53.4406 382.982 53.4406 383.476V388H52.4656V383.853C52.4656 383.428 52.3876 383.069 52.2316 382.774C52.0843 382.479 51.8719 382.254 51.5946 382.098C51.3259 381.933 51.0139 381.851 50.6586 381.851C50.3033 381.851 49.9869 381.933 49.7096 382.098C49.4323 382.254 49.2156 382.484 49.0596 382.787C48.9036 383.082 48.8256 383.437 48.8256 383.853V388H47.8506ZM58.6048 390.86C58.1281 390.86 57.6861 390.786 57.2788 390.639C56.8801 390.492 56.5334 390.288 56.2388 390.028C55.9528 389.777 55.7318 389.482 55.5758 389.144L56.4728 388.663C56.6114 388.992 56.8584 389.278 57.2138 389.521C57.5691 389.764 58.0241 389.885 58.5788 389.885C59.0034 389.885 59.3934 389.803 59.7488 389.638C60.1041 389.473 60.3901 389.231 60.6068 388.91C60.8234 388.589 60.9318 388.195 60.9318 387.727V386.18L61.0878 386.323C60.8451 386.826 60.4854 387.216 60.0088 387.493C59.5321 387.762 59.0121 387.896 58.4488 387.896C57.7988 387.896 57.2138 387.74 56.6938 387.428C56.1738 387.116 55.7621 386.696 55.4588 386.167C55.1641 385.63 55.0168 385.036 55.0168 384.386C55.0168 383.727 55.1641 383.134 55.4588 382.605C55.7621 382.076 56.1694 381.656 56.6808 381.344C57.2008 381.032 57.7901 380.876 58.4488 380.876C59.0121 380.876 59.5234 381.006 59.9828 381.266C60.4508 381.526 60.8191 381.877 61.0878 382.319L60.9318 382.592V381.032H61.9068V387.727C61.9068 388.325 61.7638 388.858 61.4778 389.326C61.2004 389.803 60.8104 390.175 60.3078 390.444C59.8138 390.721 59.2461 390.86 58.6048 390.86ZM58.5008 386.921C58.9514 386.921 59.3588 386.808 59.7228 386.583C60.0868 386.349 60.3771 386.041 60.5938 385.66C60.8191 385.27 60.9318 384.845 60.9318 384.386C60.9318 383.927 60.8191 383.506 60.5938 383.125C60.3771 382.735 60.0868 382.427 59.7228 382.202C59.3588 381.968 58.9514 381.851 58.5008 381.851C58.0414 381.851 57.6254 381.968 57.2528 382.202C56.8801 382.427 56.5854 382.731 56.3688 383.112C56.1608 383.493 56.0568 383.918 56.0568 384.386C56.0568 384.845 56.1608 385.27 56.3688 385.66C56.5854 386.041 56.8758 386.349 57.2398 386.583C57.6124 386.808 58.0328 386.921 58.5008 386.921ZM17.001 404V397.032H17.976V398.176L17.846 398.007C18.0107 397.678 18.2577 397.418 18.587 397.227C18.925 397.036 19.3323 396.941 19.809 396.941H20.251V397.916H19.64C19.1373 397.916 18.7343 398.072 18.431 398.384C18.1277 398.696 17.976 399.138 17.976 399.71V404H17.001ZM24.5656 404.156C23.9156 404.156 23.3262 404 22.7976 403.688C22.2776 403.367 21.8659 402.93 21.5626 402.375C21.2592 401.82 21.1076 401.192 21.1076 400.49C21.1076 399.788 21.2549 399.168 21.5496 398.631C21.8442 398.085 22.2429 397.656 22.7456 397.344C23.2569 397.032 23.8289 396.876 24.4616 396.876C24.9642 396.876 25.4106 396.971 25.8006 397.162C26.1992 397.344 26.5372 397.595 26.8146 397.916C27.0919 398.228 27.3042 398.583 27.4516 398.982C27.5989 399.372 27.6726 399.775 27.6726 400.191C27.6726 400.278 27.6682 400.377 27.6596 400.49C27.6509 400.594 27.6379 400.702 27.6206 400.815H21.7316V399.905H27.0616L26.5936 400.295C26.6716 399.818 26.6152 399.394 26.4246 399.021C26.2426 398.64 25.9782 398.341 25.6316 398.124C25.2849 397.899 24.8949 397.786 24.4616 397.786C24.0282 397.786 23.6252 397.899 23.2526 398.124C22.8886 398.349 22.6026 398.666 22.3946 399.073C22.1866 399.472 22.1042 399.948 22.1476 400.503C22.1042 401.058 22.1909 401.543 22.4076 401.959C22.6329 402.366 22.9362 402.683 23.3176 402.908C23.7076 403.133 24.1236 403.246 24.5656 403.246C25.0769 403.246 25.5059 403.125 25.8526 402.882C26.1992 402.639 26.4809 402.336 26.6976 401.972L27.5296 402.414C27.3909 402.726 27.1786 403.016 26.8926 403.285C26.6066 403.545 26.2642 403.757 25.8656 403.922C25.4756 404.078 25.0422 404.156 24.5656 404.156ZM30.9256 404L28.5336 397.032H29.6386L31.6146 403.129H31.2246L33.0836 397.032H34.0586L35.9176 403.129H35.5276L37.5166 397.032H38.6086L36.2166 404H35.2416L33.4346 398.033H33.7076L31.9006 404H30.9256ZM41.5121 404.156C41.0701 404.156 40.6758 404.074 40.3291 403.909C39.9824 403.736 39.7094 403.502 39.5101 403.207C39.3108 402.912 39.2111 402.574 39.2111 402.193C39.2111 401.829 39.2891 401.5 39.4451 401.205C39.6011 400.902 39.8438 400.646 40.1731 400.438C40.5024 400.23 40.9228 400.083 41.4341 399.996L44.1641 399.541V400.425L41.6681 400.841C41.1654 400.928 40.8014 401.088 40.5761 401.322C40.3594 401.556 40.2511 401.833 40.2511 402.154C40.2511 402.466 40.3724 402.73 40.6151 402.947C40.8664 403.164 41.1871 403.272 41.5771 403.272C42.0538 403.272 42.4698 403.172 42.8251 402.973C43.1804 402.765 43.4578 402.488 43.6571 402.141C43.8564 401.794 43.9561 401.409 43.9561 400.984V399.216C43.9561 398.8 43.8044 398.462 43.5011 398.202C43.1978 397.942 42.8034 397.812 42.3181 397.812C41.8934 397.812 41.5208 397.92 41.2001 398.137C40.8794 398.345 40.6411 398.618 40.4851 398.956L39.6011 398.475C39.7311 398.18 39.9348 397.912 40.2121 397.669C40.4981 397.426 40.8231 397.236 41.1871 397.097C41.5511 396.95 41.9281 396.876 42.3181 396.876C42.8294 396.876 43.2801 396.976 43.6701 397.175C44.0688 397.374 44.3764 397.652 44.5931 398.007C44.8184 398.354 44.9311 398.757 44.9311 399.216V404H43.9561V402.609L44.0991 402.752C43.9778 403.012 43.7871 403.25 43.5271 403.467C43.2758 403.675 42.9768 403.844 42.6301 403.974C42.2921 404.095 41.9194 404.156 41.5121 404.156ZM46.9365 404V397.032H47.9115V398.176L47.7815 398.007C47.9462 397.678 48.1932 397.418 48.5225 397.227C48.8605 397.036 49.2679 396.941 49.7445 396.941H50.1865V397.916H49.5755C49.0729 397.916 48.6699 398.072 48.3665 398.384C48.0632 398.696 47.9115 399.138 47.9115 399.71V404H46.9365ZM54.4751 404.156C53.8251 404.156 53.2401 404 52.7201 403.688C52.2001 403.367 51.7885 402.934 51.4851 402.388C51.1905 401.833 51.0431 401.209 51.0431 400.516C51.0431 399.814 51.1905 399.19 51.4851 398.644C51.7885 398.098 52.1958 397.669 52.7071 397.357C53.2271 397.036 53.8165 396.876 54.4751 396.876C55.0731 396.876 55.6061 397.006 56.0741 397.266C56.5421 397.526 56.9105 397.877 57.1791 398.319L57.0231 398.592V394.159H57.9981V404H57.0231V402.44L57.1791 402.583C56.9365 403.086 56.5725 403.476 56.0871 403.753C55.6105 404.022 55.0731 404.156 54.4751 404.156ZM54.5271 403.181C54.9951 403.181 55.4155 403.064 55.7881 402.83C56.1695 402.596 56.4685 402.28 56.6851 401.881C56.9105 401.474 57.0231 401.019 57.0231 400.516C57.0231 400.013 56.9105 399.563 56.6851 399.164C56.4685 398.757 56.1695 398.436 55.7881 398.202C55.4155 397.968 54.9951 397.851 54.5271 397.851C54.0678 397.851 53.6518 397.968 53.2791 398.202C52.9065 398.436 52.6118 398.752 52.3951 399.151C52.1871 399.55 52.0831 400.005 52.0831 400.516C52.0831 401.019 52.1871 401.474 52.3951 401.881C52.6118 402.28 52.9021 402.596 53.2661 402.83C53.6388 403.064 54.0591 403.181 54.5271 403.181ZM62.418 404.156C61.7507 404.156 61.1657 403.987 60.663 403.649C60.1604 403.311 59.7964 402.852 59.571 402.271L60.39 401.881C60.5894 402.306 60.8667 402.644 61.222 402.895C61.586 403.146 61.9847 403.272 62.418 403.272C62.834 403.272 63.185 403.172 63.471 402.973C63.757 402.765 63.9 402.496 63.9 402.167C63.9 401.924 63.8307 401.734 63.692 401.595C63.5534 401.448 63.393 401.335 63.211 401.257C63.029 401.179 62.8687 401.123 62.73 401.088L61.729 400.802C61.0877 400.62 60.624 400.364 60.338 400.035C60.052 399.706 59.909 399.324 59.909 398.891C59.909 398.484 60.013 398.128 60.221 397.825C60.429 397.522 60.7107 397.288 61.066 397.123C61.4214 396.958 61.8157 396.876 62.249 396.876C62.8384 396.876 63.3714 397.032 63.848 397.344C64.3334 397.647 64.6757 398.072 64.875 398.618L64.043 399.008C63.8697 398.618 63.6184 398.315 63.289 398.098C62.9684 397.873 62.6087 397.76 62.21 397.76C61.82 397.76 61.508 397.86 61.274 398.059C61.04 398.258 60.923 398.51 60.923 398.813C60.923 399.047 60.9837 399.233 61.105 399.372C61.2264 399.511 61.365 399.615 61.521 399.684C61.6857 399.753 61.8287 399.805 61.95 399.84L63.107 400.178C63.6704 400.343 64.108 400.598 64.42 400.945C64.7407 401.292 64.901 401.699 64.901 402.167C64.901 402.548 64.7927 402.891 64.576 403.194C64.368 403.497 64.0777 403.736 63.705 403.909C63.3324 404.074 62.9034 404.156 62.418 404.156Z" fill="white" fill-opacity="0.6"/>
<path d="M19.809 424.156C19.2803 424.156 18.7777 424.061 18.301 423.87C17.833 423.671 17.43 423.393 17.092 423.038C16.7627 422.674 16.5373 422.245 16.416 421.751L17.963 421.205C18.119 421.647 18.3573 421.985 18.678 422.219C18.9987 422.444 19.3757 422.557 19.809 422.557C20.1557 422.557 20.4547 422.492 20.706 422.362C20.966 422.232 21.1697 422.046 21.317 421.803C21.4643 421.552 21.538 421.257 21.538 420.919C21.538 420.581 21.4643 420.295 21.317 420.061C21.1783 419.818 20.979 419.632 20.719 419.502C20.459 419.372 20.1513 419.307 19.796 419.307C19.6313 419.307 19.458 419.324 19.276 419.359C19.1027 419.394 18.9467 419.446 18.808 419.515L18.405 418.67L20.914 415.81H16.962V414.315H22.903V415.706L20.381 418.657L20.407 417.994C20.9877 418.003 21.4947 418.128 21.928 418.371C22.3613 418.614 22.6993 418.947 22.942 419.372C23.1847 419.797 23.306 420.295 23.306 420.867C23.306 421.491 23.1543 422.054 22.851 422.557C22.5477 423.051 22.1317 423.441 21.603 423.727C21.0743 424.013 20.4763 424.156 19.809 424.156ZM28.5493 424.156C27.7779 424.156 27.1019 423.948 26.5213 423.532C25.9406 423.116 25.4856 422.531 25.1563 421.777C24.8356 421.023 24.6753 420.148 24.6753 419.151C24.6753 418.146 24.8356 417.27 25.1563 416.525C25.4769 415.78 25.9276 415.199 26.5083 414.783C27.0889 414.367 27.7649 414.159 28.5363 414.159C29.3249 414.159 30.0053 414.367 30.5773 414.783C31.1579 415.199 31.6129 415.784 31.9423 416.538C32.2716 417.283 32.4363 418.154 32.4363 419.151C32.4363 420.148 32.2716 421.023 31.9423 421.777C31.6216 422.522 31.1709 423.107 30.5903 423.532C30.0096 423.948 29.3293 424.156 28.5493 424.156ZM28.5623 422.544C29.0043 422.544 29.3813 422.41 29.6933 422.141C30.0053 421.864 30.2436 421.474 30.4083 420.971C30.5816 420.46 30.6683 419.853 30.6683 419.151C30.6683 418.449 30.5816 417.847 30.4083 417.344C30.2436 416.833 30.0009 416.443 29.6803 416.174C29.3683 415.905 28.9869 415.771 28.5363 415.771C28.1029 415.771 27.7303 415.905 27.4183 416.174C27.1063 416.443 26.8636 416.833 26.6903 417.344C26.5256 417.847 26.4433 418.449 26.4433 419.151C26.4433 419.844 26.5256 420.447 26.6903 420.958C26.8636 421.461 27.1063 421.851 27.4183 422.128C27.7389 422.405 28.1203 422.544 28.5623 422.544ZM35.1404 424L42.9924 414.315H44.8124L36.9604 424H35.1404ZM36.6484 419.229C36.1717 419.229 35.7384 419.116 35.3484 418.891C34.967 418.657 34.6637 418.349 34.4384 417.968C34.213 417.587 34.1004 417.162 34.1004 416.694C34.1004 416.226 34.213 415.801 34.4384 415.42C34.6637 415.03 34.967 414.722 35.3484 414.497C35.7384 414.272 36.1717 414.159 36.6484 414.159C37.1337 414.159 37.567 414.272 37.9484 414.497C38.3297 414.722 38.633 415.03 38.8584 415.42C39.0837 415.801 39.1964 416.226 39.1964 416.694C39.1964 417.162 39.0837 417.587 38.8584 417.968C38.633 418.349 38.3297 418.657 37.9484 418.891C37.567 419.116 37.1337 419.229 36.6484 419.229ZM36.6484 417.916C36.9084 417.916 37.125 417.86 37.2984 417.747C37.4717 417.626 37.6017 417.474 37.6884 417.292C37.7837 417.101 37.8314 416.902 37.8314 416.694C37.8314 416.477 37.7837 416.278 37.6884 416.096C37.6017 415.914 37.4717 415.762 37.2984 415.641C37.125 415.52 36.9084 415.459 36.6484 415.459C36.4057 415.459 36.1934 415.52 36.0114 415.641C35.838 415.762 35.7037 415.918 35.6084 416.109C35.513 416.291 35.4654 416.486 35.4654 416.694C35.4654 416.893 35.513 417.088 35.6084 417.279C35.7037 417.47 35.838 417.626 36.0114 417.747C36.1934 417.86 36.4057 417.916 36.6484 417.916ZM43.2524 424.156C42.7757 424.156 42.3424 424.043 41.9524 423.818C41.571 423.584 41.2677 423.276 41.0424 422.895C40.817 422.514 40.7044 422.089 40.7044 421.621C40.7044 421.153 40.817 420.728 41.0424 420.347C41.2677 419.957 41.571 419.649 41.9524 419.424C42.3424 419.199 42.7757 419.086 43.2524 419.086C43.7377 419.086 44.171 419.199 44.5524 419.424C44.9337 419.649 45.237 419.957 45.4624 420.347C45.6877 420.728 45.8004 421.153 45.8004 421.621C45.8004 422.089 45.6877 422.514 45.4624 422.895C45.237 423.276 44.9337 423.584 44.5524 423.818C44.171 424.043 43.7377 424.156 43.2524 424.156ZM43.2524 422.843C43.5037 422.843 43.716 422.787 43.8894 422.674C44.0714 422.553 44.2057 422.401 44.2924 422.219C44.3877 422.028 44.4354 421.829 44.4354 421.621C44.4354 421.404 44.3877 421.205 44.2924 421.023C44.2057 420.841 44.0714 420.689 43.8894 420.568C43.716 420.447 43.5037 420.386 43.2524 420.386C43.0097 420.386 42.7974 420.447 42.6154 420.568C42.442 420.689 42.3077 420.845 42.2124 421.036C42.117 421.218 42.0694 421.413 42.0694 421.621C42.0694 421.82 42.117 422.015 42.2124 422.206C42.3077 422.397 42.442 422.553 42.6154 422.674C42.7974 422.787 43.0097 422.843 43.2524 422.843Z" fill="white"/>
<circle cx="4" cy="385" r="4" fill="#FF3EFF"/>
<path d="M17.144 460V450.315H18.054L21.694 455.593H21.187L24.814 450.315H25.724V460H24.684V451.719L25.022 451.849L21.46 457.01H21.408L17.859 451.849L18.184 451.719V460H17.144ZM29.8832 460.156C29.4412 460.156 29.0469 460.074 28.7002 459.909C28.3535 459.736 28.0805 459.502 27.8812 459.207C27.6819 458.912 27.5822 458.574 27.5822 458.193C27.5822 457.829 27.6602 457.5 27.8162 457.205C27.9722 456.902 28.2149 456.646 28.5442 456.438C28.8735 456.23 29.2939 456.083 29.8052 455.996L32.5352 455.541V456.425L30.0392 456.841C29.5365 456.928 29.1725 457.088 28.9472 457.322C28.7305 457.556 28.6222 457.833 28.6222 458.154C28.6222 458.466 28.7435 458.73 28.9862 458.947C29.2375 459.164 29.5582 459.272 29.9482 459.272C30.4249 459.272 30.8409 459.172 31.1962 458.973C31.5515 458.765 31.8289 458.488 32.0282 458.141C32.2275 457.794 32.3272 457.409 32.3272 456.984V455.216C32.3272 454.8 32.1755 454.462 31.8722 454.202C31.5689 453.942 31.1745 453.812 30.6892 453.812C30.2645 453.812 29.8919 453.92 29.5712 454.137C29.2505 454.345 29.0122 454.618 28.8562 454.956L27.9722 454.475C28.1022 454.18 28.3059 453.912 28.5832 453.669C28.8692 453.426 29.1942 453.236 29.5582 453.097C29.9222 452.95 30.2992 452.876 30.6892 452.876C31.2005 452.876 31.6512 452.976 32.0412 453.175C32.4399 453.374 32.7475 453.652 32.9642 454.007C33.1895 454.354 33.3022 454.757 33.3022 455.216V460H32.3272V458.609L32.4702 458.752C32.3489 459.012 32.1582 459.25 31.8982 459.467C31.6469 459.675 31.3479 459.844 31.0012 459.974C30.6632 460.095 30.2905 460.156 29.8832 460.156ZM35.3076 460V453.032H36.2826V454.176L36.1526 454.007C36.3173 453.678 36.5643 453.418 36.8936 453.227C37.2316 453.036 37.639 452.941 38.1156 452.941H38.5576V453.916H37.9466C37.444 453.916 37.041 454.072 36.7376 454.384C36.4343 454.696 36.2826 455.138 36.2826 455.71V460H35.3076ZM39.7002 460V450.159H40.6752V457.049L40.2592 456.984L44.1722 453.032H45.4332L42.7032 455.827L45.6802 460H44.5102L41.7152 456.139L42.3392 456.191L40.3502 458.245L40.6752 457.439V460H39.7002ZM49.8673 460.156C49.2173 460.156 48.628 460 48.0993 459.688C47.5793 459.367 47.1677 458.93 46.8643 458.375C46.561 457.82 46.4093 457.192 46.4093 456.49C46.4093 455.788 46.5567 455.168 46.8513 454.631C47.146 454.085 47.5447 453.656 48.0473 453.344C48.5587 453.032 49.1307 452.876 49.7633 452.876C50.266 452.876 50.7123 452.971 51.1023 453.162C51.501 453.344 51.839 453.595 52.1163 453.916C52.3937 454.228 52.606 454.583 52.7533 454.982C52.9007 455.372 52.9743 455.775 52.9743 456.191C52.9743 456.278 52.97 456.377 52.9613 456.49C52.9527 456.594 52.9397 456.702 52.9223 456.815H47.0333V455.905H52.3633L51.8953 456.295C51.9733 455.818 51.917 455.394 51.7263 455.021C51.5443 454.64 51.28 454.341 50.9333 454.124C50.5867 453.899 50.1967 453.786 49.7633 453.786C49.33 453.786 48.927 453.899 48.5543 454.124C48.1903 454.349 47.9043 454.666 47.6963 455.073C47.4883 455.472 47.406 455.948 47.4493 456.503C47.406 457.058 47.4927 457.543 47.7093 457.959C47.9347 458.366 48.238 458.683 48.6193 458.908C49.0093 459.133 49.4253 459.246 49.8673 459.246C50.3787 459.246 50.8077 459.125 51.1543 458.882C51.501 458.639 51.7827 458.336 51.9993 457.972L52.8313 458.414C52.6927 458.726 52.4803 459.016 52.1943 459.285C51.9083 459.545 51.566 459.757 51.1673 459.922C50.7773 460.078 50.344 460.156 49.8673 460.156ZM57.3584 460.078C56.7344 460.078 56.2534 459.896 55.9154 459.532C55.5774 459.168 55.4084 458.648 55.4084 457.972V454.007H54.1214V453.032H54.4464C54.741 453.032 54.975 452.937 55.1484 452.746C55.3217 452.547 55.4084 452.3 55.4084 452.005V451.42H56.3834V453.032H57.9174V454.007H56.3834V457.972C56.3834 458.206 56.418 458.414 56.4874 458.596C56.5567 458.769 56.6737 458.908 56.8384 459.012C57.0117 459.116 57.2414 459.168 57.5274 459.168C57.5967 459.168 57.679 459.164 57.7744 459.155C57.8697 459.146 57.952 459.138 58.0214 459.129V460C57.9174 460.026 57.8004 460.043 57.6704 460.052C57.5404 460.069 57.4364 460.078 57.3584 460.078ZM59.7334 460V453.032H60.7084V460H59.7334ZM59.7334 451.745V450.315H60.7084V451.745H59.7334ZM62.7041 460V453.032H63.6791V454.384L63.4581 454.332C63.6315 453.881 63.9131 453.526 64.3031 453.266C64.7018 453.006 65.1611 452.876 65.6811 452.876C66.1751 452.876 66.6171 452.989 67.0071 453.214C67.4058 453.439 67.7178 453.751 67.9431 454.15C68.1771 454.54 68.2941 454.982 68.2941 455.476V460H67.3191V455.853C67.3191 455.428 67.2411 455.069 67.0851 454.774C66.9378 454.479 66.7255 454.254 66.4481 454.098C66.1795 453.933 65.8675 453.851 65.5121 453.851C65.1568 453.851 64.8405 453.933 64.5631 454.098C64.2858 454.254 64.0691 454.484 63.9131 454.787C63.7571 455.082 63.6791 455.437 63.6791 455.853V460H62.7041ZM73.4583 462.86C72.9816 462.86 72.5396 462.786 72.1323 462.639C71.7336 462.492 71.3869 462.288 71.0923 462.028C70.8063 461.777 70.5853 461.482 70.4293 461.144L71.3263 460.663C71.4649 460.992 71.7119 461.278 72.0673 461.521C72.4226 461.764 72.8776 461.885 73.4323 461.885C73.8569 461.885 74.2469 461.803 74.6023 461.638C74.9576 461.473 75.2436 461.231 75.4603 460.91C75.6769 460.589 75.7853 460.195 75.7853 459.727V458.18L75.9413 458.323C75.6986 458.826 75.3389 459.216 74.8623 459.493C74.3856 459.762 73.8656 459.896 73.3023 459.896C72.6523 459.896 72.0673 459.74 71.5473 459.428C71.0273 459.116 70.6156 458.696 70.3123 458.167C70.0176 457.63 69.8703 457.036 69.8703 456.386C69.8703 455.727 70.0176 455.134 70.3123 454.605C70.6156 454.076 71.0229 453.656 71.5343 453.344C72.0543 453.032 72.6436 452.876 73.3023 452.876C73.8656 452.876 74.3769 453.006 74.8363 453.266C75.3043 453.526 75.6726 453.877 75.9413 454.319L75.7853 454.592V453.032H76.7603V459.727C76.7603 460.325 76.6173 460.858 76.3313 461.326C76.0539 461.803 75.6639 462.175 75.1613 462.444C74.6673 462.721 74.0996 462.86 73.4583 462.86ZM73.3543 458.921C73.8049 458.921 74.2123 458.808 74.5763 458.583C74.9403 458.349 75.2306 458.041 75.4473 457.66C75.6726 457.27 75.7853 456.845 75.7853 456.386C75.7853 455.927 75.6726 455.506 75.4473 455.125C75.2306 454.735 74.9403 454.427 74.5763 454.202C74.2123 453.968 73.8049 453.851 73.3543 453.851C72.8949 453.851 72.4789 453.968 72.1063 454.202C71.7336 454.427 71.4389 454.731 71.2223 455.112C71.0143 455.493 70.9103 455.918 70.9103 456.386C70.9103 456.845 71.0143 457.27 71.2223 457.66C71.4389 458.041 71.7293 458.349 72.0933 458.583C72.4659 458.808 72.8863 458.921 73.3543 458.921Z" fill="white" fill-opacity="0.6"/>
<path d="M18.249 480V471.823H16.377V470.315H20.017V480H18.249ZM25.8452 480.156C25.0738 480.156 24.3978 479.948 23.8172 479.532C23.2365 479.116 22.7815 478.531 22.4522 477.777C22.1315 477.023 21.9712 476.148 21.9712 475.151C21.9712 474.146 22.1315 473.27 22.4522 472.525C22.7728 471.78 23.2235 471.199 23.8042 470.783C24.3848 470.367 25.0608 470.159 25.8322 470.159C26.6208 470.159 27.3012 470.367 27.8732 470.783C28.4538 471.199 28.9088 471.784 29.2382 472.538C29.5675 473.283 29.7322 474.154 29.7322 475.151C29.7322 476.148 29.5675 477.023 29.2382 477.777C28.9175 478.522 28.4668 479.107 27.8862 479.532C27.3055 479.948 26.6252 480.156 25.8452 480.156ZM25.8582 478.544C26.3002 478.544 26.6772 478.41 26.9892 478.141C27.3012 477.864 27.5395 477.474 27.7042 476.971C27.8775 476.46 27.9642 475.853 27.9642 475.151C27.9642 474.449 27.8775 473.847 27.7042 473.344C27.5395 472.833 27.2968 472.443 26.9762 472.174C26.6642 471.905 26.2828 471.771 25.8322 471.771C25.3988 471.771 25.0262 471.905 24.7142 472.174C24.4022 472.443 24.1595 472.833 23.9862 473.344C23.8215 473.847 23.7392 474.449 23.7392 475.151C23.7392 475.844 23.8215 476.447 23.9862 476.958C24.1595 477.461 24.4022 477.851 24.7142 478.128C25.0348 478.405 25.4162 478.544 25.8582 478.544ZM32.4363 480L40.2883 470.315H42.1083L34.2563 480H32.4363ZM33.9443 475.229C33.4676 475.229 33.0343 475.116 32.6443 474.891C32.2629 474.657 31.9596 474.349 31.7343 473.968C31.5089 473.587 31.3963 473.162 31.3963 472.694C31.3963 472.226 31.5089 471.801 31.7343 471.42C31.9596 471.03 32.2629 470.722 32.6443 470.497C33.0343 470.272 33.4676 470.159 33.9443 470.159C34.4296 470.159 34.8629 470.272 35.2443 470.497C35.6256 470.722 35.9289 471.03 36.1543 471.42C36.3796 471.801 36.4923 472.226 36.4923 472.694C36.4923 473.162 36.3796 473.587 36.1543 473.968C35.9289 474.349 35.6256 474.657 35.2443 474.891C34.8629 475.116 34.4296 475.229 33.9443 475.229ZM33.9443 473.916C34.2043 473.916 34.4209 473.86 34.5943 473.747C34.7676 473.626 34.8976 473.474 34.9843 473.292C35.0796 473.101 35.1273 472.902 35.1273 472.694C35.1273 472.477 35.0796 472.278 34.9843 472.096C34.8976 471.914 34.7676 471.762 34.5943 471.641C34.4209 471.52 34.2043 471.459 33.9443 471.459C33.7016 471.459 33.4893 471.52 33.3073 471.641C33.1339 471.762 32.9996 471.918 32.9043 472.109C32.8089 472.291 32.7613 472.486 32.7613 472.694C32.7613 472.893 32.8089 473.088 32.9043 473.279C32.9996 473.47 33.1339 473.626 33.3073 473.747C33.4893 473.86 33.7016 473.916 33.9443 473.916ZM40.5483 480.156C40.0716 480.156 39.6383 480.043 39.2483 479.818C38.8669 479.584 38.5636 479.276 38.3383 478.895C38.1129 478.514 38.0003 478.089 38.0003 477.621C38.0003 477.153 38.1129 476.728 38.3383 476.347C38.5636 475.957 38.8669 475.649 39.2483 475.424C39.6383 475.199 40.0716 475.086 40.5483 475.086C41.0336 475.086 41.4669 475.199 41.8483 475.424C42.2296 475.649 42.5329 475.957 42.7583 476.347C42.9836 476.728 43.0963 477.153 43.0963 477.621C43.0963 478.089 42.9836 478.514 42.7583 478.895C42.5329 479.276 42.2296 479.584 41.8483 479.818C41.4669 480.043 41.0336 480.156 40.5483 480.156ZM40.5483 478.843C40.7996 478.843 41.0119 478.787 41.1853 478.674C41.3673 478.553 41.5016 478.401 41.5883 478.219C41.6836 478.028 41.7313 477.829 41.7313 477.621C41.7313 477.404 41.6836 477.205 41.5883 477.023C41.5016 476.841 41.3673 476.689 41.1853 476.568C41.0119 476.447 40.7996 476.386 40.5483 476.386C40.3056 476.386 40.0933 476.447 39.9113 476.568C39.7379 476.689 39.6036 476.845 39.5083 477.036C39.4129 477.218 39.3653 477.413 39.3653 477.621C39.3653 477.82 39.4129 478.015 39.5083 478.206C39.6036 478.397 39.7379 478.553 39.9113 478.674C40.0933 478.787 40.3056 478.843 40.5483 478.843Z" fill="white"/>
<circle cx="4" cy="457" r="4" fill="#FFA158"/>
<path d="M16.143 532L19.679 522.315H20.797L24.333 532H23.241L22.409 529.634H18.08L17.235 532H16.143ZM18.418 528.659H22.045L20.082 523.095H20.394L18.418 528.659ZM28.3736 532.156C27.7236 532.156 27.1386 532 26.6186 531.688C26.0986 531.367 25.6869 530.934 25.3836 530.388C25.0889 529.833 24.9416 529.209 24.9416 528.516C24.9416 527.814 25.0889 527.19 25.3836 526.644C25.6869 526.098 26.0942 525.669 26.6056 525.357C27.1256 525.036 27.7149 524.876 28.3736 524.876C28.9716 524.876 29.5046 525.006 29.9726 525.266C30.4406 525.526 30.8089 525.877 31.0776 526.319L30.9216 526.592V522.159H31.8966V532H30.9216V530.44L31.0776 530.583C30.8349 531.086 30.4709 531.476 29.9856 531.753C29.5089 532.022 28.9716 532.156 28.3736 532.156ZM28.4256 531.181C28.8936 531.181 29.3139 531.064 29.6866 530.83C30.0679 530.596 30.3669 530.28 30.5836 529.881C30.8089 529.474 30.9216 529.019 30.9216 528.516C30.9216 528.013 30.8089 527.563 30.5836 527.164C30.3669 526.757 30.0679 526.436 29.6866 526.202C29.3139 525.968 28.8936 525.851 28.4256 525.851C27.9662 525.851 27.5502 525.968 27.1776 526.202C26.8049 526.436 26.5102 526.752 26.2936 527.151C26.0856 527.55 25.9816 528.005 25.9816 528.516C25.9816 529.019 26.0856 529.474 26.2936 529.881C26.5102 530.28 26.8006 530.596 27.1646 530.83C27.5372 531.064 27.9576 531.181 28.4256 531.181ZM35.7575 532L33.0405 525.032H34.1325L36.4205 531.142H36.0695L38.3705 525.032H39.4755L36.7325 532H35.7575ZM40.6143 532V525.032H41.5893V532H40.6143ZM40.6143 523.745V522.315H41.5893V523.745H40.6143ZM46.003 532.156C45.3357 532.156 44.7507 531.987 44.248 531.649C43.7453 531.311 43.3813 530.852 43.156 530.271L43.975 529.881C44.1743 530.306 44.4517 530.644 44.807 530.895C45.171 531.146 45.5697 531.272 46.003 531.272C46.419 531.272 46.77 531.172 47.056 530.973C47.342 530.765 47.485 530.496 47.485 530.167C47.485 529.924 47.4157 529.734 47.277 529.595C47.1383 529.448 46.978 529.335 46.796 529.257C46.614 529.179 46.4537 529.123 46.315 529.088L45.314 528.802C44.6727 528.62 44.209 528.364 43.923 528.035C43.637 527.706 43.494 527.324 43.494 526.891C43.494 526.484 43.598 526.128 43.806 525.825C44.014 525.522 44.2957 525.288 44.651 525.123C45.0063 524.958 45.4007 524.876 45.834 524.876C46.4233 524.876 46.9563 525.032 47.433 525.344C47.9183 525.647 48.2607 526.072 48.46 526.618L47.628 527.008C47.4547 526.618 47.2033 526.315 46.874 526.098C46.5533 525.873 46.1937 525.76 45.795 525.76C45.405 525.76 45.093 525.86 44.859 526.059C44.625 526.258 44.508 526.51 44.508 526.813C44.508 527.047 44.5687 527.233 44.69 527.372C44.8113 527.511 44.95 527.615 45.106 527.684C45.2707 527.753 45.4137 527.805 45.535 527.84L46.692 528.178C47.2553 528.343 47.693 528.598 48.005 528.945C48.3257 529.292 48.486 529.699 48.486 530.167C48.486 530.548 48.3777 530.891 48.161 531.194C47.953 531.497 47.6627 531.736 47.29 531.909C46.9173 532.074 46.4883 532.156 46.003 532.156ZM53.4622 532.156C52.8036 532.156 52.2056 532 51.6682 531.688C51.1309 531.367 50.7019 530.934 50.3812 530.388C50.0692 529.833 49.9132 529.205 49.9132 528.503C49.9132 527.81 50.0692 527.19 50.3812 526.644C50.6932 526.098 51.1136 525.669 51.6422 525.357C52.1796 525.036 52.7862 524.876 53.4622 524.876C54.1382 524.876 54.7406 525.032 55.2692 525.344C55.8066 525.656 56.2269 526.085 56.5302 526.631C56.8422 527.177 56.9982 527.801 56.9982 528.503C56.9982 529.214 56.8379 529.846 56.5172 530.401C56.1966 530.947 55.7676 531.376 55.2302 531.688C54.7016 532 54.1122 532.156 53.4622 532.156ZM53.4622 531.181C53.9302 531.181 54.3506 531.064 54.7232 530.83C55.1046 530.596 55.4036 530.275 55.6202 529.868C55.8456 529.461 55.9582 529.006 55.9582 528.503C55.9582 528 55.8456 527.55 55.6202 527.151C55.4036 526.752 55.1046 526.436 54.7232 526.202C54.3506 525.968 53.9302 525.851 53.4622 525.851C52.9942 525.851 52.5696 525.968 52.1882 526.202C51.8156 526.436 51.5166 526.752 51.2912 527.151C51.0659 527.55 50.9532 528 50.9532 528.503C50.9532 529.006 51.0659 529.461 51.2912 529.868C51.5166 530.275 51.8156 530.596 52.1882 530.83C52.5696 531.064 52.9942 531.181 53.4622 531.181ZM58.7178 532V525.032H59.6928V526.176L59.5628 526.007C59.7275 525.678 59.9745 525.418 60.3038 525.227C60.6418 525.036 61.0491 524.941 61.5258 524.941H61.9678V525.916H61.3568C60.8541 525.916 60.4511 526.072 60.1478 526.384C59.8445 526.696 59.6928 527.138 59.6928 527.71V532H58.7178ZM65.5284 532.156C64.861 532.156 64.276 531.987 63.7734 531.649C63.2707 531.311 62.9067 530.852 62.6814 530.271L63.5004 529.881C63.6997 530.306 63.977 530.644 64.3324 530.895C64.6964 531.146 65.095 531.272 65.5284 531.272C65.9444 531.272 66.2954 531.172 66.5814 530.973C66.8674 530.765 67.0104 530.496 67.0104 530.167C67.0104 529.924 66.941 529.734 66.8024 529.595C66.6637 529.448 66.5034 529.335 66.3214 529.257C66.1394 529.179 65.979 529.123 65.8404 529.088L64.8394 528.802C64.198 528.62 63.7344 528.364 63.4484 528.035C63.1624 527.706 63.0194 527.324 63.0194 526.891C63.0194 526.484 63.1234 526.128 63.3314 525.825C63.5394 525.522 63.821 525.288 64.1764 525.123C64.5317 524.958 64.926 524.876 65.3594 524.876C65.9487 524.876 66.4817 525.032 66.9584 525.344C67.4437 525.647 67.786 526.072 67.9854 526.618L67.1534 527.008C66.98 526.618 66.7287 526.315 66.3994 526.098C66.0787 525.873 65.719 525.76 65.3204 525.76C64.9304 525.76 64.6184 525.86 64.3844 526.059C64.1504 526.258 64.0334 526.51 64.0334 526.813C64.0334 527.047 64.094 527.233 64.2154 527.372C64.3367 527.511 64.4754 527.615 64.6314 527.684C64.796 527.753 64.939 527.805 65.0604 527.84L66.2174 528.178C66.7807 528.343 67.2184 528.598 67.5304 528.945C67.851 529.292 68.0114 529.699 68.0114 530.167C68.0114 530.548 67.903 530.891 67.6864 531.194C67.4784 531.497 67.188 531.736 66.8154 531.909C66.4427 532.074 66.0137 532.156 65.5284 532.156Z" fill="white" fill-opacity="0.6"/>
<path d="M16.598 552V550.661L19.224 547.918C19.744 547.372 20.1427 546.939 20.42 546.618C20.706 546.289 20.9053 546.007 21.018 545.773C21.1307 545.539 21.187 545.301 21.187 545.058C21.187 544.651 21.057 544.33 20.797 544.096C20.5457 543.862 20.2207 543.745 19.822 543.745C19.406 543.745 19.0463 543.866 18.743 544.109C18.4397 544.343 18.2187 544.69 18.08 545.149L16.533 544.668C16.637 544.157 16.8493 543.715 17.17 543.342C17.4907 542.961 17.8807 542.67 18.34 542.471C18.808 542.263 19.302 542.159 19.822 542.159C20.446 542.159 20.992 542.272 21.46 542.497C21.9367 542.722 22.305 543.039 22.565 543.446C22.8337 543.853 22.968 544.33 22.968 544.876C22.968 545.223 22.903 545.565 22.773 545.903C22.643 546.241 22.448 546.588 22.188 546.943C21.928 547.29 21.59 547.68 21.174 548.113L18.899 550.505H23.098V552H16.598ZM25.3558 552V550.18H27.0718V552H25.3558ZM33.5839 552V549.868H29.1379V548.386L33.4799 542.315H35.3259V548.386H36.7429V549.868H35.3259V552H33.5839ZM30.4379 549.023L30.1259 548.386H33.5839V543.706L34.0389 543.849L30.4379 549.023ZM39.1648 552L47.0168 542.315H48.8368L40.9848 552H39.1648ZM40.6728 547.229C40.1961 547.229 39.7628 547.116 39.3728 546.891C38.9914 546.657 38.6881 546.349 38.4628 545.968C38.2374 545.587 38.1248 545.162 38.1248 544.694C38.1248 544.226 38.2374 543.801 38.4628 543.42C38.6881 543.03 38.9914 542.722 39.3728 542.497C39.7628 542.272 40.1961 542.159 40.6728 542.159C41.1581 542.159 41.5914 542.272 41.9728 542.497C42.3541 542.722 42.6574 543.03 42.8828 543.42C43.1081 543.801 43.2208 544.226 43.2208 544.694C43.2208 545.162 43.1081 545.587 42.8828 545.968C42.6574 546.349 42.3541 546.657 41.9728 546.891C41.5914 547.116 41.1581 547.229 40.6728 547.229ZM40.6728 545.916C40.9328 545.916 41.1494 545.86 41.3228 545.747C41.4961 545.626 41.6261 545.474 41.7128 545.292C41.8081 545.101 41.8558 544.902 41.8558 544.694C41.8558 544.477 41.8081 544.278 41.7128 544.096C41.6261 543.914 41.4961 543.762 41.3228 543.641C41.1494 543.52 40.9328 543.459 40.6728 543.459C40.4301 543.459 40.2178 543.52 40.0358 543.641C39.8624 543.762 39.7281 543.918 39.6328 544.109C39.5374 544.291 39.4898 544.486 39.4898 544.694C39.4898 544.893 39.5374 545.088 39.6328 545.279C39.7281 545.47 39.8624 545.626 40.0358 545.747C40.2178 545.86 40.4301 545.916 40.6728 545.916ZM47.2768 552.156C46.8001 552.156 46.3668 552.043 45.9768 551.818C45.5954 551.584 45.2921 551.276 45.0668 550.895C44.8414 550.514 44.7288 550.089 44.7288 549.621C44.7288 549.153 44.8414 548.728 45.0668 548.347C45.2921 547.957 45.5954 547.649 45.9768 547.424C46.3668 547.199 46.8001 547.086 47.2768 547.086C47.7621 547.086 48.1954 547.199 48.5768 547.424C48.9581 547.649 49.2614 547.957 49.4868 548.347C49.7121 548.728 49.8248 549.153 49.8248 549.621C49.8248 550.089 49.7121 550.514 49.4868 550.895C49.2614 551.276 48.9581 551.584 48.5768 551.818C48.1954 552.043 47.7621 552.156 47.2768 552.156ZM47.2768 550.843C47.5281 550.843 47.7404 550.787 47.9138 550.674C48.0958 550.553 48.2301 550.401 48.3168 550.219C48.4121 550.028 48.4598 549.829 48.4598 549.621C48.4598 549.404 48.4121 549.205 48.3168 549.023C48.2301 548.841 48.0958 548.689 47.9138 548.568C47.7404 548.447 47.5281 548.386 47.2768 548.386C47.0341 548.386 46.8218 548.447 46.6398 548.568C46.4664 548.689 46.3321 548.845 46.2368 549.036C46.1414 549.218 46.0938 549.413 46.0938 549.621C46.0938 549.82 46.1414 550.015 46.2368 550.206C46.3321 550.397 46.4664 550.553 46.6398 550.674C46.8218 550.787 47.0341 550.843 47.2768 550.843Z" fill="white"/>
<circle cx="4" cy="529" r="4" fill="#FF6700"/>
<path d="M147.821 388V379.29H145.143V378.315H151.513V379.29H148.861V388H147.821ZM151.879 388V381.032H152.854V382.176L152.724 382.007C152.889 381.678 153.136 381.418 153.465 381.227C153.803 381.036 154.21 380.941 154.687 380.941H155.129V381.916H154.518C154.015 381.916 153.612 382.072 153.309 382.384C153.006 382.696 152.854 383.138 152.854 383.71V388H151.879ZM159.444 388.156C158.794 388.156 158.204 388 157.676 387.688C157.156 387.367 156.744 386.93 156.441 386.375C156.137 385.82 155.986 385.192 155.986 384.49C155.986 383.788 156.133 383.168 156.428 382.631C156.722 382.085 157.121 381.656 157.624 381.344C158.135 381.032 158.707 380.876 159.34 380.876C159.842 380.876 160.289 380.971 160.679 381.162C161.077 381.344 161.415 381.595 161.693 381.916C161.97 382.228 162.182 382.583 162.33 382.982C162.477 383.372 162.551 383.775 162.551 384.191C162.551 384.278 162.546 384.377 162.538 384.49C162.529 384.594 162.516 384.702 162.499 384.815H156.61V383.905H161.94L161.472 384.295C161.55 383.818 161.493 383.394 161.303 383.021C161.121 382.64 160.856 382.341 160.51 382.124C160.163 381.899 159.773 381.786 159.34 381.786C158.906 381.786 158.503 381.899 158.131 382.124C157.767 382.349 157.481 382.666 157.273 383.073C157.065 383.472 156.982 383.948 157.026 384.503C156.982 385.058 157.069 385.543 157.286 385.959C157.511 386.366 157.814 386.683 158.196 386.908C158.586 387.133 159.002 387.246 159.444 387.246C159.955 387.246 160.384 387.125 160.731 386.882C161.077 386.639 161.359 386.336 161.576 385.972L162.408 386.414C162.269 386.726 162.057 387.016 161.771 387.285C161.485 387.545 161.142 387.757 160.744 387.922C160.354 388.078 159.92 388.156 159.444 388.156ZM166.158 388.156C165.716 388.156 165.321 388.074 164.975 387.909C164.628 387.736 164.355 387.502 164.156 387.207C163.956 386.912 163.857 386.574 163.857 386.193C163.857 385.829 163.935 385.5 164.091 385.205C164.247 384.902 164.489 384.646 164.819 384.438C165.148 384.23 165.568 384.083 166.08 383.996L168.81 383.541V384.425L166.314 384.841C165.811 384.928 165.447 385.088 165.222 385.322C165.005 385.556 164.897 385.833 164.897 386.154C164.897 386.466 165.018 386.73 165.261 386.947C165.512 387.164 165.833 387.272 166.223 387.272C166.699 387.272 167.115 387.172 167.471 386.973C167.826 386.765 168.103 386.488 168.303 386.141C168.502 385.794 168.602 385.409 168.602 384.984V383.216C168.602 382.8 168.45 382.462 168.147 382.202C167.843 381.942 167.449 381.812 166.964 381.812C166.539 381.812 166.166 381.92 165.846 382.137C165.525 382.345 165.287 382.618 165.131 382.956L164.247 382.475C164.377 382.18 164.58 381.912 164.858 381.669C165.144 381.426 165.469 381.236 165.833 381.097C166.197 380.95 166.574 380.876 166.964 380.876C167.475 380.876 167.926 380.976 168.316 381.175C168.714 381.374 169.022 381.652 169.239 382.007C169.464 382.354 169.577 382.757 169.577 383.216V388H168.602V386.609L168.745 386.752C168.623 387.012 168.433 387.25 168.173 387.467C167.921 387.675 167.622 387.844 167.276 387.974C166.938 388.095 166.565 388.156 166.158 388.156ZM174 388.156C173.333 388.156 172.748 387.987 172.245 387.649C171.742 387.311 171.378 386.852 171.153 386.271L171.972 385.881C172.171 386.306 172.449 386.644 172.804 386.895C173.168 387.146 173.567 387.272 174 387.272C174.416 387.272 174.767 387.172 175.053 386.973C175.339 386.765 175.482 386.496 175.482 386.167C175.482 385.924 175.413 385.734 175.274 385.595C175.135 385.448 174.975 385.335 174.793 385.257C174.611 385.179 174.451 385.123 174.312 385.088L173.311 384.802C172.67 384.62 172.206 384.364 171.92 384.035C171.634 383.706 171.491 383.324 171.491 382.891C171.491 382.484 171.595 382.128 171.803 381.825C172.011 381.522 172.293 381.288 172.648 381.123C173.003 380.958 173.398 380.876 173.831 380.876C174.42 380.876 174.953 381.032 175.43 381.344C175.915 381.647 176.258 382.072 176.457 382.618L175.625 383.008C175.452 382.618 175.2 382.315 174.871 382.098C174.55 381.873 174.191 381.76 173.792 381.76C173.402 381.76 173.09 381.86 172.856 382.059C172.622 382.258 172.505 382.51 172.505 382.813C172.505 383.047 172.566 383.233 172.687 383.372C172.808 383.511 172.947 383.615 173.103 383.684C173.268 383.753 173.411 383.805 173.532 383.84L174.689 384.178C175.252 384.343 175.69 384.598 176.002 384.945C176.323 385.292 176.483 385.699 176.483 386.167C176.483 386.548 176.375 386.891 176.158 387.194C175.95 387.497 175.66 387.736 175.287 387.909C174.914 388.074 174.485 388.156 174 388.156ZM180.666 388.156C180.181 388.156 179.739 388.043 179.34 387.818C178.942 387.584 178.625 387.263 178.391 386.856C178.166 386.44 178.053 385.963 178.053 385.426V381.032H179.028V385.309C179.028 385.682 179.102 386.011 179.249 386.297C179.405 386.574 179.618 386.791 179.886 386.947C180.164 387.103 180.48 387.181 180.835 387.181C181.191 387.181 181.507 387.103 181.784 386.947C182.062 386.782 182.278 386.553 182.434 386.258C182.59 385.955 182.668 385.595 182.668 385.179V381.032H183.643V388H182.668V386.648L182.889 386.7C182.725 387.151 182.443 387.506 182.044 387.766C181.646 388.026 181.186 388.156 180.666 388.156ZM185.648 388V381.032H186.623V382.176L186.493 382.007C186.658 381.678 186.905 381.418 187.234 381.227C187.572 381.036 187.98 380.941 188.456 380.941H188.898V381.916H188.287C187.785 381.916 187.382 382.072 187.078 382.384C186.775 382.696 186.623 383.138 186.623 383.71V388H185.648ZM193.213 388.156C192.563 388.156 191.974 388 191.445 387.688C190.925 387.367 190.513 386.93 190.21 386.375C189.907 385.82 189.755 385.192 189.755 384.49C189.755 383.788 189.902 383.168 190.197 382.631C190.492 382.085 190.89 381.656 191.393 381.344C191.904 381.032 192.476 380.876 193.109 380.876C193.612 380.876 194.058 380.971 194.448 381.162C194.847 381.344 195.185 381.595 195.462 381.916C195.739 382.228 195.952 382.583 196.099 382.982C196.246 383.372 196.32 383.775 196.32 384.191C196.32 384.278 196.316 384.377 196.307 384.49C196.298 384.594 196.285 384.702 196.268 384.815H190.379V383.905H195.709L195.241 384.295C195.319 383.818 195.263 383.394 195.072 383.021C194.89 382.64 194.626 382.341 194.279 382.124C193.932 381.899 193.542 381.786 193.109 381.786C192.676 381.786 192.273 381.899 191.9 382.124C191.536 382.349 191.25 382.666 191.042 383.073C190.834 383.472 190.752 383.948 190.795 384.503C190.752 385.058 190.838 385.543 191.055 385.959C191.28 386.366 191.584 386.683 191.965 386.908C192.355 387.133 192.771 387.246 193.213 387.246C193.724 387.246 194.153 387.125 194.5 386.882C194.847 386.639 195.128 386.336 195.345 385.972L196.177 386.414C196.038 386.726 195.826 387.016 195.54 387.285C195.254 387.545 194.912 387.757 194.513 387.922C194.123 388.078 193.69 388.156 193.213 388.156Z" fill="white" fill-opacity="0.6"/>
<path d="M145.598 408V406.661L148.224 403.918C148.744 403.372 149.143 402.939 149.42 402.618C149.706 402.289 149.905 402.007 150.018 401.773C150.131 401.539 150.187 401.301 150.187 401.058C150.187 400.651 150.057 400.33 149.797 400.096C149.546 399.862 149.221 399.745 148.822 399.745C148.406 399.745 148.046 399.866 147.743 400.109C147.44 400.343 147.219 400.69 147.08 401.149L145.533 400.668C145.637 400.157 145.849 399.715 146.17 399.342C146.491 398.961 146.881 398.67 147.34 398.471C147.808 398.263 148.302 398.159 148.822 398.159C149.446 398.159 149.992 398.272 150.46 398.497C150.937 398.722 151.305 399.039 151.565 399.446C151.834 399.853 151.968 400.33 151.968 400.876C151.968 401.223 151.903 401.565 151.773 401.903C151.643 402.241 151.448 402.588 151.188 402.943C150.928 403.29 150.59 403.68 150.174 404.113L147.899 406.505H152.098V408H145.598ZM153.355 408V406.661L155.981 403.918C156.501 403.372 156.9 402.939 157.177 402.618C157.463 402.289 157.662 402.007 157.775 401.773C157.888 401.539 157.944 401.301 157.944 401.058C157.944 400.651 157.814 400.33 157.554 400.096C157.303 399.862 156.978 399.745 156.579 399.745C156.163 399.745 155.803 399.866 155.5 400.109C155.197 400.343 154.976 400.69 154.837 401.149L153.29 400.668C153.394 400.157 153.606 399.715 153.927 399.342C154.248 398.961 154.638 398.67 155.097 398.471C155.565 398.263 156.059 398.159 156.579 398.159C157.203 398.159 157.749 398.272 158.217 398.497C158.694 398.722 159.062 399.039 159.322 399.446C159.591 399.853 159.725 400.33 159.725 400.876C159.725 401.223 159.66 401.565 159.53 401.903C159.4 402.241 159.205 402.588 158.945 402.943C158.685 403.29 158.347 403.68 157.931 404.113L155.656 406.505H159.855V408H153.355ZM162.113 408V406.18H163.829V408H162.113ZM169.535 408.156C168.833 408.156 168.222 408.026 167.702 407.766C167.19 407.497 166.792 407.138 166.506 406.687C166.228 406.236 166.09 405.742 166.09 405.205C166.09 404.572 166.259 404.039 166.597 403.606C166.935 403.164 167.424 402.839 168.066 402.631L167.962 403.06C167.502 402.913 167.138 402.627 166.87 402.202C166.61 401.777 166.48 401.309 166.48 400.798C166.48 400.287 166.61 399.832 166.87 399.433C167.13 399.034 167.489 398.722 167.949 398.497C168.408 398.272 168.937 398.159 169.535 398.159C170.124 398.159 170.644 398.272 171.095 398.497C171.554 398.722 171.914 399.034 172.174 399.433C172.442 399.832 172.577 400.287 172.577 400.798C172.577 401.318 172.442 401.79 172.174 402.215C171.914 402.631 171.554 402.917 171.095 403.073L171.004 402.618C171.645 402.843 172.135 403.177 172.473 403.619C172.811 404.052 172.98 404.585 172.98 405.218C172.98 405.755 172.837 406.249 172.551 406.7C172.273 407.142 171.875 407.497 171.355 407.766C170.843 408.026 170.237 408.156 169.535 408.156ZM169.535 406.661C169.873 406.661 170.167 406.6 170.419 406.479C170.67 406.349 170.865 406.171 171.004 405.946C171.142 405.712 171.212 405.448 171.212 405.153C171.212 404.85 171.142 404.59 171.004 404.373C170.865 404.148 170.67 403.974 170.419 403.853C170.167 403.723 169.873 403.658 169.535 403.658C169.197 403.658 168.902 403.723 168.651 403.853C168.408 403.974 168.217 404.148 168.079 404.373C167.94 404.59 167.871 404.85 167.871 405.153C167.871 405.448 167.94 405.712 168.079 405.946C168.217 406.171 168.408 406.349 168.651 406.479C168.902 406.6 169.197 406.661 169.535 406.661ZM169.535 402.163C169.786 402.163 170.007 402.107 170.198 401.994C170.388 401.881 170.536 401.734 170.64 401.552C170.752 401.361 170.809 401.145 170.809 400.902C170.809 400.659 170.752 400.447 170.64 400.265C170.536 400.074 170.388 399.927 170.198 399.823C170.007 399.71 169.786 399.654 169.535 399.654C169.283 399.654 169.058 399.71 168.859 399.823C168.668 399.927 168.516 400.074 168.404 400.265C168.3 400.447 168.248 400.659 168.248 400.902C168.248 401.145 168.3 401.361 168.404 401.552C168.516 401.734 168.668 401.881 168.859 401.994C169.058 402.107 169.283 402.163 169.535 402.163ZM175.63 408L183.482 398.315H185.302L177.45 408H175.63ZM177.138 403.229C176.661 403.229 176.228 403.116 175.838 402.891C175.456 402.657 175.153 402.349 174.928 401.968C174.702 401.587 174.59 401.162 174.59 400.694C174.59 400.226 174.702 399.801 174.928 399.42C175.153 399.03 175.456 398.722 175.838 398.497C176.228 398.272 176.661 398.159 177.138 398.159C177.623 398.159 178.056 398.272 178.438 398.497C178.819 398.722 179.122 399.03 179.348 399.42C179.573 399.801 179.686 400.226 179.686 400.694C179.686 401.162 179.573 401.587 179.348 401.968C179.122 402.349 178.819 402.657 178.438 402.891C178.056 403.116 177.623 403.229 177.138 403.229ZM177.138 401.916C177.398 401.916 177.614 401.86 177.788 401.747C177.961 401.626 178.091 401.474 178.178 401.292C178.273 401.101 178.321 400.902 178.321 400.694C178.321 400.477 178.273 400.278 178.178 400.096C178.091 399.914 177.961 399.762 177.788 399.641C177.614 399.52 177.398 399.459 177.138 399.459C176.895 399.459 176.683 399.52 176.501 399.641C176.327 399.762 176.193 399.918 176.098 400.109C176.002 400.291 175.955 400.486 175.955 400.694C175.955 400.893 176.002 401.088 176.098 401.279C176.193 401.47 176.327 401.626 176.501 401.747C176.683 401.86 176.895 401.916 177.138 401.916ZM183.742 408.156C183.265 408.156 182.832 408.043 182.442 407.818C182.06 407.584 181.757 407.276 181.532 406.895C181.306 406.514 181.194 406.089 181.194 405.621C181.194 405.153 181.306 404.728 181.532 404.347C181.757 403.957 182.06 403.649 182.442 403.424C182.832 403.199 183.265 403.086 183.742 403.086C184.227 403.086 184.66 403.199 185.042 403.424C185.423 403.649 185.726 403.957 185.952 404.347C186.177 404.728 186.29 405.153 186.29 405.621C186.29 406.089 186.177 406.514 185.952 406.895C185.726 407.276 185.423 407.584 185.042 407.818C184.66 408.043 184.227 408.156 183.742 408.156ZM183.742 406.843C183.993 406.843 184.205 406.787 184.379 406.674C184.561 406.553 184.695 406.401 184.782 406.219C184.877 406.028 184.925 405.829 184.925 405.621C184.925 405.404 184.877 405.205 184.782 405.023C184.695 404.841 184.561 404.689 184.379 404.568C184.205 404.447 183.993 404.386 183.742 404.386C183.499 404.386 183.287 404.447 183.105 404.568C182.931 404.689 182.797 404.845 182.702 405.036C182.606 405.218 182.559 405.413 182.559 405.621C182.559 405.82 182.606 406.015 182.702 406.206C182.797 406.397 182.931 406.553 183.105 406.674C183.287 406.787 183.499 406.843 183.742 406.843Z" fill="white"/>
<circle cx="133" cy="385" r="4" fill="#FF2FBC"/>
<path d="M145.143 460L148.679 450.315H149.797L153.333 460H152.241L151.409 457.634H147.08L146.235 460H145.143ZM147.418 456.659H151.045L149.082 451.095H149.394L147.418 456.659ZM154.481 460V453.032H155.456V460H154.481ZM154.481 451.745V450.315H155.456V451.745H154.481ZM157.452 460V453.032H158.427V454.176L158.297 454.007C158.462 453.678 158.709 453.418 159.038 453.227C159.376 453.036 159.784 452.941 160.26 452.941H160.702V453.916H160.091C159.589 453.916 159.186 454.072 158.882 454.384C158.579 454.696 158.427 455.138 158.427 455.71V460H157.452ZM164.991 460.156C164.341 460.156 163.756 460 163.236 459.688C162.716 459.367 162.304 458.934 162.001 458.388C161.706 457.833 161.559 457.209 161.559 456.516C161.559 455.814 161.706 455.19 162.001 454.644C162.304 454.098 162.711 453.669 163.223 453.357C163.743 453.036 164.332 452.876 164.991 452.876C165.589 452.876 166.122 453.006 166.59 453.266C167.058 453.526 167.426 453.877 167.695 454.319L167.539 454.592V450.159H168.514V460H167.539V458.44L167.695 458.583C167.452 459.086 167.088 459.476 166.603 459.753C166.126 460.022 165.589 460.156 164.991 460.156ZM165.043 459.181C165.511 459.181 165.931 459.064 166.304 458.83C166.685 458.596 166.984 458.28 167.201 457.881C167.426 457.474 167.539 457.019 167.539 456.516C167.539 456.013 167.426 455.563 167.201 455.164C166.984 454.757 166.685 454.436 166.304 454.202C165.931 453.968 165.511 453.851 165.043 453.851C164.583 453.851 164.167 453.968 163.795 454.202C163.422 454.436 163.127 454.752 162.911 455.151C162.703 455.55 162.599 456.005 162.599 456.516C162.599 457.019 162.703 457.474 162.911 457.881C163.127 458.28 163.418 458.596 163.782 458.83C164.154 459.064 164.575 459.181 165.043 459.181ZM170.516 460V453.032H171.491V454.176L171.361 454.007C171.525 453.678 171.772 453.418 172.102 453.227C172.44 453.036 172.847 452.941 173.324 452.941H173.766V453.916H173.155C172.652 453.916 172.249 454.072 171.946 454.384C171.642 454.696 171.491 455.138 171.491 455.71V460H170.516ZM178.171 460.156C177.513 460.156 176.915 460 176.377 459.688C175.84 459.367 175.411 458.934 175.09 458.388C174.778 457.833 174.622 457.205 174.622 456.503C174.622 455.81 174.778 455.19 175.09 454.644C175.402 454.098 175.823 453.669 176.351 453.357C176.889 453.036 177.495 452.876 178.171 452.876C178.847 452.876 179.45 453.032 179.978 453.344C180.516 453.656 180.936 454.085 181.239 454.631C181.551 455.177 181.707 455.801 181.707 456.503C181.707 457.214 181.547 457.846 181.226 458.401C180.906 458.947 180.477 459.376 179.939 459.688C179.411 460 178.821 460.156 178.171 460.156ZM178.171 459.181C178.639 459.181 179.06 459.064 179.432 458.83C179.814 458.596 180.113 458.275 180.329 457.868C180.555 457.461 180.667 457.006 180.667 456.503C180.667 456 180.555 455.55 180.329 455.151C180.113 454.752 179.814 454.436 179.432 454.202C179.06 453.968 178.639 453.851 178.171 453.851C177.703 453.851 177.279 453.968 176.897 454.202C176.525 454.436 176.226 454.752 176 455.151C175.775 455.55 175.662 456 175.662 456.503C175.662 457.006 175.775 457.461 176 457.868C176.226 458.275 176.525 458.596 176.897 458.83C177.279 459.064 177.703 459.181 178.171 459.181ZM183.427 462.6V453.032H184.402V454.592L184.246 454.319C184.523 453.877 184.891 453.526 185.351 453.266C185.819 453.006 186.352 452.876 186.95 452.876C187.608 452.876 188.193 453.036 188.705 453.357C189.225 453.669 189.632 454.098 189.927 454.644C190.23 455.19 190.382 455.814 190.382 456.516C190.382 457.209 190.23 457.833 189.927 458.388C189.632 458.934 189.225 459.367 188.705 459.688C188.193 460 187.608 460.156 186.95 460.156C186.352 460.156 185.81 460.022 185.325 459.753C184.848 459.476 184.488 459.086 184.246 458.583L184.402 458.44V462.6H183.427ZM186.898 459.181C187.366 459.181 187.782 459.064 188.146 458.83C188.518 458.596 188.809 458.28 189.017 457.881C189.233 457.474 189.342 457.019 189.342 456.516C189.342 456.005 189.233 455.55 189.017 455.151C188.809 454.752 188.518 454.436 188.146 454.202C187.782 453.968 187.366 453.851 186.898 453.851C186.43 453.851 186.005 453.968 185.624 454.202C185.251 454.436 184.952 454.757 184.727 455.164C184.51 455.563 184.402 456.013 184.402 456.516C184.402 457.019 184.51 457.474 184.727 457.881C184.952 458.28 185.251 458.596 185.624 458.83C186.005 459.064 186.43 459.181 186.898 459.181ZM194.45 460V450.315H195.36L201.041 458.466H200.69V450.315H201.73V460H200.82L195.139 451.797H195.49V460H194.45ZM204.022 460V450.315H210.002V451.29H205.062V454.657H209.612V455.632H205.062V460H204.022ZM213.253 460V451.29H210.575V450.315H216.945V451.29H214.293V460H213.253ZM219.729 460.156C219.061 460.156 218.476 459.987 217.974 459.649C217.471 459.311 217.107 458.852 216.882 458.271L217.701 457.881C217.9 458.306 218.177 458.644 218.533 458.895C218.897 459.146 219.295 459.272 219.729 459.272C220.145 459.272 220.496 459.172 220.782 458.973C221.068 458.765 221.211 458.496 221.211 458.167C221.211 457.924 221.141 457.734 221.003 457.595C220.864 457.448 220.704 457.335 220.522 457.257C220.34 457.179 220.179 457.123 220.041 457.088L219.04 456.802C218.398 456.62 217.935 456.364 217.649 456.035C217.363 455.706 217.22 455.324 217.22 454.891C217.22 454.484 217.324 454.128 217.532 453.825C217.74 453.522 218.021 453.288 218.377 453.123C218.732 452.958 219.126 452.876 219.56 452.876C220.149 452.876 220.682 453.032 221.159 453.344C221.644 453.647 221.986 454.072 222.186 454.618L221.354 455.008C221.18 454.618 220.929 454.315 220.6 454.098C220.279 453.873 219.919 453.76 219.521 453.76C219.131 453.76 218.819 453.86 218.585 454.059C218.351 454.258 218.234 454.51 218.234 454.813C218.234 455.047 218.294 455.233 218.416 455.372C218.537 455.511 218.676 455.615 218.832 455.684C218.996 455.753 219.139 455.805 219.261 455.84L220.418 456.178C220.981 456.343 221.419 456.598 221.731 456.945C222.051 457.292 222.212 457.699 222.212 458.167C222.212 458.548 222.103 458.891 221.887 459.194C221.679 459.497 221.388 459.736 221.016 459.909C220.643 460.074 220.214 460.156 219.729 460.156ZM146.001 476V466.159H146.976V470.384L146.755 470.332C146.928 469.881 147.21 469.526 147.6 469.266C147.999 469.006 148.458 468.876 148.978 468.876C149.472 468.876 149.914 468.989 150.304 469.214C150.703 469.439 151.015 469.751 151.24 470.15C151.474 470.54 151.591 470.982 151.591 471.476V476H150.616V471.853C150.616 471.428 150.538 471.069 150.382 470.774C150.226 470.479 150.009 470.254 149.732 470.098C149.463 469.933 149.156 469.851 148.809 469.851C148.462 469.851 148.15 469.933 147.873 470.098C147.596 470.254 147.375 470.484 147.21 470.787C147.054 471.082 146.976 471.437 146.976 471.853V476H146.001ZM156.716 476.156C156.057 476.156 155.459 476 154.922 475.688C154.385 475.367 153.956 474.934 153.635 474.388C153.323 473.833 153.167 473.205 153.167 472.503C153.167 471.81 153.323 471.19 153.635 470.644C153.947 470.098 154.367 469.669 154.896 469.357C155.433 469.036 156.04 468.876 156.716 468.876C157.392 468.876 157.994 469.032 158.523 469.344C159.06 469.656 159.481 470.085 159.784 470.631C160.096 471.177 160.252 471.801 160.252 472.503C160.252 473.214 160.092 473.846 159.771 474.401C159.45 474.947 159.021 475.376 158.484 475.688C157.955 476 157.366 476.156 156.716 476.156ZM156.716 475.181C157.184 475.181 157.604 475.064 157.977 474.83C158.358 474.596 158.657 474.275 158.874 473.868C159.099 473.461 159.212 473.006 159.212 472.503C159.212 472 159.099 471.55 158.874 471.151C158.657 470.752 158.358 470.436 157.977 470.202C157.604 469.968 157.184 469.851 156.716 469.851C156.248 469.851 155.823 469.968 155.442 470.202C155.069 470.436 154.77 470.752 154.545 471.151C154.32 471.55 154.207 472 154.207 472.503C154.207 473.006 154.32 473.461 154.545 473.868C154.77 474.275 155.069 474.596 155.442 474.83C155.823 475.064 156.248 475.181 156.716 475.181ZM161.972 476V466.159H162.947V476H161.972ZM168.088 476.156C167.438 476.156 166.853 476 166.333 475.688C165.813 475.367 165.402 474.934 165.098 474.388C164.804 473.833 164.656 473.209 164.656 472.516C164.656 471.814 164.804 471.19 165.098 470.644C165.402 470.098 165.809 469.669 166.32 469.357C166.84 469.036 167.43 468.876 168.088 468.876C168.686 468.876 169.219 469.006 169.687 469.266C170.155 469.526 170.524 469.877 170.792 470.319L170.636 470.592V466.159H171.611V476H170.636V474.44L170.792 474.583C170.55 475.086 170.186 475.476 169.7 475.753C169.224 476.022 168.686 476.156 168.088 476.156ZM168.14 475.181C168.608 475.181 169.029 475.064 169.401 474.83C169.783 474.596 170.082 474.28 170.298 473.881C170.524 473.474 170.636 473.019 170.636 472.516C170.636 472.013 170.524 471.563 170.298 471.164C170.082 470.757 169.783 470.436 169.401 470.202C169.029 469.968 168.608 469.851 168.14 469.851C167.681 469.851 167.265 469.968 166.892 470.202C166.52 470.436 166.225 470.752 166.008 471.151C165.8 471.55 165.696 472.005 165.696 472.516C165.696 473.019 165.8 473.474 166.008 473.881C166.225 474.28 166.515 474.596 166.879 474.83C167.252 475.064 167.672 475.181 168.14 475.181ZM176.785 476.156C176.135 476.156 175.546 476 175.017 475.688C174.497 475.367 174.086 474.93 173.782 474.375C173.479 473.82 173.327 473.192 173.327 472.49C173.327 471.788 173.475 471.168 173.769 470.631C174.064 470.085 174.463 469.656 174.965 469.344C175.477 469.032 176.049 468.876 176.681 468.876C177.184 468.876 177.63 468.971 178.02 469.162C178.419 469.344 178.757 469.595 179.034 469.916C179.312 470.228 179.524 470.583 179.671 470.982C179.819 471.372 179.892 471.775 179.892 472.191C179.892 472.278 179.888 472.377 179.879 472.49C179.871 472.594 179.858 472.702 179.84 472.815H173.951V471.905H179.281L178.813 472.295C178.891 471.818 178.835 471.394 178.644 471.021C178.462 470.64 178.198 470.341 177.851 470.124C177.505 469.899 177.115 469.786 176.681 469.786C176.248 469.786 175.845 469.899 175.472 470.124C175.108 470.349 174.822 470.666 174.614 471.073C174.406 471.472 174.324 471.948 174.367 472.503C174.324 473.058 174.411 473.543 174.627 473.959C174.853 474.366 175.156 474.683 175.537 474.908C175.927 475.133 176.343 475.246 176.785 475.246C177.297 475.246 177.726 475.125 178.072 474.882C178.419 474.639 178.701 474.336 178.917 473.972L179.749 474.414C179.611 474.726 179.398 475.016 179.112 475.285C178.826 475.545 178.484 475.757 178.085 475.922C177.695 476.078 177.262 476.156 176.785 476.156ZM181.611 476V469.032H182.586V470.176L182.456 470.007C182.621 469.678 182.868 469.418 183.197 469.227C183.535 469.036 183.943 468.941 184.419 468.941H184.861V469.916H184.25C183.748 469.916 183.345 470.072 183.041 470.384C182.738 470.696 182.586 471.138 182.586 471.71V476H181.611Z" fill="white" fill-opacity="0.6"/>
<path d="M147.249 496V487.823H145.377V486.315H149.017V496H147.249ZM154.845 496.156C154.074 496.156 153.398 495.948 152.817 495.532C152.236 495.116 151.781 494.531 151.452 493.777C151.131 493.023 150.971 492.148 150.971 491.151C150.971 490.146 151.131 489.27 151.452 488.525C151.773 487.78 152.223 487.199 152.804 486.783C153.385 486.367 154.061 486.159 154.832 486.159C155.621 486.159 156.301 486.367 156.873 486.783C157.454 487.199 157.909 487.784 158.238 488.538C158.567 489.283 158.732 490.154 158.732 491.151C158.732 492.148 158.567 493.023 158.238 493.777C157.917 494.522 157.467 495.107 156.886 495.532C156.305 495.948 155.625 496.156 154.845 496.156ZM154.858 494.544C155.3 494.544 155.677 494.41 155.989 494.141C156.301 493.864 156.539 493.474 156.704 492.971C156.877 492.46 156.964 491.853 156.964 491.151C156.964 490.449 156.877 489.847 156.704 489.344C156.539 488.833 156.297 488.443 155.976 488.174C155.664 487.905 155.283 487.771 154.832 487.771C154.399 487.771 154.026 487.905 153.714 488.174C153.402 488.443 153.159 488.833 152.986 489.344C152.821 489.847 152.739 490.449 152.739 491.151C152.739 491.844 152.821 492.447 152.986 492.958C153.159 493.461 153.402 493.851 153.714 494.128C154.035 494.405 154.416 494.544 154.858 494.544ZM161.436 496L169.288 486.315H171.108L163.256 496H161.436ZM162.944 491.229C162.468 491.229 162.034 491.116 161.644 490.891C161.263 490.657 160.96 490.349 160.734 489.968C160.509 489.587 160.396 489.162 160.396 488.694C160.396 488.226 160.509 487.801 160.734 487.42C160.96 487.03 161.263 486.722 161.644 486.497C162.034 486.272 162.468 486.159 162.944 486.159C163.43 486.159 163.863 486.272 164.244 486.497C164.626 486.722 164.929 487.03 165.154 487.42C165.38 487.801 165.492 488.226 165.492 488.694C165.492 489.162 165.38 489.587 165.154 489.968C164.929 490.349 164.626 490.657 164.244 490.891C163.863 491.116 163.43 491.229 162.944 491.229ZM162.944 489.916C163.204 489.916 163.421 489.86 163.594 489.747C163.768 489.626 163.898 489.474 163.984 489.292C164.08 489.101 164.127 488.902 164.127 488.694C164.127 488.477 164.08 488.278 163.984 488.096C163.898 487.914 163.768 487.762 163.594 487.641C163.421 487.52 163.204 487.459 162.944 487.459C162.702 487.459 162.489 487.52 162.307 487.641C162.134 487.762 162 487.918 161.904 488.109C161.809 488.291 161.761 488.486 161.761 488.694C161.761 488.893 161.809 489.088 161.904 489.279C162 489.47 162.134 489.626 162.307 489.747C162.489 489.86 162.702 489.916 162.944 489.916ZM169.548 496.156C169.072 496.156 168.638 496.043 168.248 495.818C167.867 495.584 167.564 495.276 167.338 494.895C167.113 494.514 167 494.089 167 493.621C167 493.153 167.113 492.728 167.338 492.347C167.564 491.957 167.867 491.649 168.248 491.424C168.638 491.199 169.072 491.086 169.548 491.086C170.034 491.086 170.467 491.199 170.848 491.424C171.23 491.649 171.533 491.957 171.758 492.347C171.984 492.728 172.096 493.153 172.096 493.621C172.096 494.089 171.984 494.514 171.758 494.895C171.533 495.276 171.23 495.584 170.848 495.818C170.467 496.043 170.034 496.156 169.548 496.156ZM169.548 494.843C169.8 494.843 170.012 494.787 170.185 494.674C170.367 494.553 170.502 494.401 170.588 494.219C170.684 494.028 170.731 493.829 170.731 493.621C170.731 493.404 170.684 493.205 170.588 493.023C170.502 492.841 170.367 492.689 170.185 492.568C170.012 492.447 169.8 492.386 169.548 492.386C169.306 492.386 169.093 492.447 168.911 492.568C168.738 492.689 168.604 492.845 168.508 493.036C168.413 493.218 168.365 493.413 168.365 493.621C168.365 493.82 168.413 494.015 168.508 494.206C168.604 494.397 168.738 494.553 168.911 494.674C169.093 494.787 169.306 494.843 169.548 494.843Z" fill="white"/>
<circle cx="133" cy="457" r="4" fill="#FFD14F"/>
<path d="M275.144 388V378.315H276.184V387.025H280.474V388H275.144ZM281.907 388V381.032H282.882V388H281.907ZM281.907 379.745V378.315H282.882V379.745H281.907ZM290.572 390.6V386.44L290.728 386.583C290.485 387.086 290.121 387.476 289.636 387.753C289.159 388.022 288.622 388.156 288.024 388.156C287.374 388.156 286.789 388 286.269 387.688C285.749 387.367 285.337 386.934 285.034 386.388C284.739 385.833 284.592 385.209 284.592 384.516C284.592 383.814 284.739 383.19 285.034 382.644C285.337 382.098 285.745 381.669 286.256 381.357C286.776 381.036 287.365 380.876 288.024 380.876C288.622 380.876 289.155 381.006 289.623 381.266C290.091 381.526 290.459 381.877 290.728 382.319L290.572 382.592V381.032H291.547V390.6H290.572ZM288.076 387.181C288.544 387.181 288.964 387.064 289.337 386.83C289.718 386.596 290.017 386.28 290.234 385.881C290.459 385.474 290.572 385.019 290.572 384.516C290.572 384.013 290.459 383.563 290.234 383.164C290.017 382.757 289.718 382.436 289.337 382.202C288.964 381.968 288.544 381.851 288.076 381.851C287.617 381.851 287.201 381.968 286.828 382.202C286.455 382.436 286.161 382.752 285.944 383.151C285.736 383.55 285.632 384.005 285.632 384.516C285.632 385.019 285.736 385.474 285.944 385.881C286.161 386.28 286.451 386.596 286.815 386.83C287.188 387.064 287.608 387.181 288.076 387.181ZM296.019 388.156C295.534 388.156 295.092 388.043 294.693 387.818C294.294 387.584 293.978 387.263 293.744 386.856C293.519 386.44 293.406 385.963 293.406 385.426V381.032H294.381V385.309C294.381 385.682 294.455 386.011 294.602 386.297C294.758 386.574 294.97 386.791 295.239 386.947C295.516 387.103 295.833 387.181 296.188 387.181C296.543 387.181 296.86 387.103 297.137 386.947C297.414 386.782 297.631 386.553 297.787 386.258C297.943 385.955 298.021 385.595 298.021 385.179V381.032H298.996V388H298.021V386.648L298.242 386.7C298.077 387.151 297.796 387.506 297.397 387.766C296.998 388.026 296.539 388.156 296.019 388.156ZM301.001 388V381.032H301.976V388H301.001ZM301.001 379.745V378.315H301.976V379.745H301.001ZM307.118 388.156C306.468 388.156 305.883 388 305.363 387.688C304.843 387.367 304.431 386.934 304.128 386.388C303.833 385.833 303.686 385.209 303.686 384.516C303.686 383.814 303.833 383.19 304.128 382.644C304.431 382.098 304.838 381.669 305.35 381.357C305.87 381.036 306.459 380.876 307.118 380.876C307.716 380.876 308.249 381.006 308.717 381.266C309.185 381.526 309.553 381.877 309.822 382.319L309.666 382.592V378.159H310.641V388H309.666V386.44L309.822 386.583C309.579 387.086 309.215 387.476 308.73 387.753C308.253 388.022 307.716 388.156 307.118 388.156ZM307.17 387.181C307.638 387.181 308.058 387.064 308.431 386.83C308.812 386.596 309.111 386.28 309.328 385.881C309.553 385.474 309.666 385.019 309.666 384.516C309.666 384.013 309.553 383.563 309.328 383.164C309.111 382.757 308.812 382.436 308.431 382.202C308.058 381.968 307.638 381.851 307.17 381.851C306.71 381.851 306.294 381.968 305.922 382.202C305.549 382.436 305.254 382.752 305.038 383.151C304.83 383.55 304.726 384.005 304.726 384.516C304.726 385.019 304.83 385.474 305.038 385.881C305.254 386.28 305.545 386.596 305.909 386.83C306.281 387.064 306.702 387.181 307.17 387.181ZM312.643 388V381.032H313.618V388H312.643ZM312.643 379.745V378.315H313.618V379.745H312.643ZM318.278 388.078C317.654 388.078 317.173 387.896 316.835 387.532C316.497 387.168 316.328 386.648 316.328 385.972V382.007H315.041V381.032H315.366C315.661 381.032 315.895 380.937 316.068 380.746C316.242 380.547 316.328 380.3 316.328 380.005V379.42H317.303V381.032H318.837V382.007H317.303V385.972C317.303 386.206 317.338 386.414 317.407 386.596C317.477 386.769 317.594 386.908 317.758 387.012C317.932 387.116 318.161 387.168 318.447 387.168C318.517 387.168 318.599 387.164 318.694 387.155C318.79 387.146 318.872 387.138 318.941 387.129V388C318.837 388.026 318.72 388.043 318.59 388.052C318.46 388.069 318.356 388.078 318.278 388.078ZM320.796 390.86C320.658 390.86 320.515 390.847 320.367 390.821C320.229 390.804 320.09 390.769 319.951 390.717V389.807C320.038 389.816 320.146 389.829 320.276 389.846C320.415 389.872 320.554 389.885 320.692 389.885C321.117 389.885 321.442 389.794 321.667 389.612C321.893 389.439 322.114 389.101 322.33 388.598L322.772 387.558L322.746 388.416L319.795 381.032H320.848L323.266 387.129H322.993L325.398 381.032H326.477L323.292 388.884C323.154 389.222 322.976 389.543 322.759 389.846C322.551 390.149 322.287 390.392 321.966 390.574C321.646 390.765 321.256 390.86 320.796 390.86Z" fill="white" fill-opacity="0.6"/>
<path d="M276.249 408V399.823H274.377V398.315H278.017V408H276.249ZM283.104 408.156C282.593 408.156 282.103 408.061 281.635 407.87C281.176 407.679 280.777 407.411 280.439 407.064C280.11 406.709 279.884 406.288 279.763 405.803L281.297 405.257C281.444 405.699 281.683 406.028 282.012 406.245C282.341 406.453 282.705 406.557 283.104 406.557C283.433 406.557 283.724 406.488 283.975 406.349C284.235 406.202 284.434 406.002 284.573 405.751C284.712 405.491 284.781 405.192 284.781 404.854C284.781 404.516 284.707 404.221 284.56 403.97C284.421 403.719 284.226 403.524 283.975 403.385C283.724 403.238 283.433 403.164 283.104 403.164C282.766 403.164 282.458 403.238 282.181 403.385C281.912 403.532 281.717 403.745 281.596 404.022L280.153 403.697L280.92 398.315H286.198V399.81H281.622L282.285 399.043L281.739 403.099L281.232 402.683C281.475 402.328 281.769 402.068 282.116 401.903C282.471 401.738 282.9 401.656 283.403 401.656C284.044 401.656 284.599 401.795 285.067 402.072C285.544 402.349 285.912 402.726 286.172 403.203C286.432 403.68 286.562 404.23 286.562 404.854C286.562 405.478 286.41 406.041 286.107 406.544C285.804 407.047 285.392 407.441 284.872 407.727C284.352 408.013 283.763 408.156 283.104 408.156ZM288.84 408V406.18H290.556V408H288.84ZM292.752 408V406.661L295.378 403.918C295.898 403.372 296.297 402.939 296.574 402.618C296.86 402.289 297.06 402.007 297.172 401.773C297.285 401.539 297.341 401.301 297.341 401.058C297.341 400.651 297.211 400.33 296.951 400.096C296.7 399.862 296.375 399.745 295.976 399.745C295.56 399.745 295.201 399.866 294.897 400.109C294.594 400.343 294.373 400.69 294.234 401.149L292.687 400.668C292.791 400.157 293.004 399.715 293.324 399.342C293.645 398.961 294.035 398.67 294.494 398.471C294.962 398.263 295.456 398.159 295.976 398.159C296.6 398.159 297.146 398.272 297.614 398.497C298.091 398.722 298.459 399.039 298.719 399.446C298.988 399.853 299.122 400.33 299.122 400.876C299.122 401.223 299.057 401.565 298.927 401.903C298.797 402.241 298.602 402.588 298.342 402.943C298.082 403.29 297.744 403.68 297.328 404.113L295.053 406.505H299.252V408H292.752ZM301.9 408L309.752 398.315H311.572L303.72 408H301.9ZM303.408 403.229C302.931 403.229 302.498 403.116 302.108 402.891C301.727 402.657 301.423 402.349 301.198 401.968C300.973 401.587 300.86 401.162 300.86 400.694C300.86 400.226 300.973 399.801 301.198 399.42C301.423 399.03 301.727 398.722 302.108 398.497C302.498 398.272 302.931 398.159 303.408 398.159C303.893 398.159 304.327 398.272 304.708 398.497C305.089 398.722 305.393 399.03 305.618 399.42C305.843 399.801 305.956 400.226 305.956 400.694C305.956 401.162 305.843 401.587 305.618 401.968C305.393 402.349 305.089 402.657 304.708 402.891C304.327 403.116 303.893 403.229 303.408 403.229ZM303.408 401.916C303.668 401.916 303.885 401.86 304.058 401.747C304.231 401.626 304.361 401.474 304.448 401.292C304.543 401.101 304.591 400.902 304.591 400.694C304.591 400.477 304.543 400.278 304.448 400.096C304.361 399.914 304.231 399.762 304.058 399.641C303.885 399.52 303.668 399.459 303.408 399.459C303.165 399.459 302.953 399.52 302.771 399.641C302.598 399.762 302.463 399.918 302.368 400.109C302.273 400.291 302.225 400.486 302.225 400.694C302.225 400.893 302.273 401.088 302.368 401.279C302.463 401.47 302.598 401.626 302.771 401.747C302.953 401.86 303.165 401.916 303.408 401.916ZM310.012 408.156C309.535 408.156 309.102 408.043 308.712 407.818C308.331 407.584 308.027 407.276 307.802 406.895C307.577 406.514 307.464 406.089 307.464 405.621C307.464 405.153 307.577 404.728 307.802 404.347C308.027 403.957 308.331 403.649 308.712 403.424C309.102 403.199 309.535 403.086 310.012 403.086C310.497 403.086 310.931 403.199 311.312 403.424C311.693 403.649 311.997 403.957 312.222 404.347C312.447 404.728 312.56 405.153 312.56 405.621C312.56 406.089 312.447 406.514 312.222 406.895C311.997 407.276 311.693 407.584 311.312 407.818C310.931 408.043 310.497 408.156 310.012 408.156ZM310.012 406.843C310.263 406.843 310.476 406.787 310.649 406.674C310.831 406.553 310.965 406.401 311.052 406.219C311.147 406.028 311.195 405.829 311.195 405.621C311.195 405.404 311.147 405.205 311.052 405.023C310.965 404.841 310.831 404.689 310.649 404.568C310.476 404.447 310.263 404.386 310.012 404.386C309.769 404.386 309.557 404.447 309.375 404.568C309.202 404.689 309.067 404.845 308.972 405.036C308.877 405.218 308.829 405.413 308.829 405.621C308.829 405.82 308.877 406.015 308.972 406.206C309.067 406.397 309.202 406.553 309.375 406.674C309.557 406.787 309.769 406.843 310.012 406.843Z" fill="white"/>
<circle cx="262" cy="385" r="4" fill="#FF6781"/>
<path d="M276.821 460V451.29H274.143V450.315H280.513V451.29H277.861V460H276.821ZM283.911 460.156C283.261 460.156 282.672 460 282.143 459.688C281.623 459.367 281.212 458.93 280.908 458.375C280.605 457.82 280.453 457.192 280.453 456.49C280.453 455.788 280.601 455.168 280.895 454.631C281.19 454.085 281.589 453.656 282.091 453.344C282.603 453.032 283.175 452.876 283.807 452.876C284.31 452.876 284.756 452.971 285.146 453.162C285.545 453.344 285.883 453.595 286.16 453.916C286.438 454.228 286.65 454.583 286.797 454.982C286.945 455.372 287.018 455.775 287.018 456.191C287.018 456.278 287.014 456.377 287.005 456.49C286.997 456.594 286.984 456.702 286.966 456.815H281.077V455.905H286.407L285.939 456.295C286.017 455.818 285.961 455.394 285.77 455.021C285.588 454.64 285.324 454.341 284.977 454.124C284.631 453.899 284.241 453.786 283.807 453.786C283.374 453.786 282.971 453.899 282.598 454.124C282.234 454.349 281.948 454.666 281.74 455.073C281.532 455.472 281.45 455.948 281.493 456.503C281.45 457.058 281.537 457.543 281.753 457.959C281.979 458.366 282.282 458.683 282.663 458.908C283.053 459.133 283.469 459.246 283.911 459.246C284.423 459.246 284.852 459.125 285.198 458.882C285.545 458.639 285.827 458.336 286.043 457.972L286.875 458.414C286.737 458.726 286.524 459.016 286.238 459.285C285.952 459.545 285.61 459.757 285.211 459.922C284.821 460.078 284.388 460.156 283.911 460.156ZM290.625 460.156C290.183 460.156 289.789 460.074 289.442 459.909C289.096 459.736 288.823 459.502 288.623 459.207C288.424 458.912 288.324 458.574 288.324 458.193C288.324 457.829 288.402 457.5 288.558 457.205C288.714 456.902 288.957 456.646 289.286 456.438C289.616 456.23 290.036 456.083 290.547 455.996L293.277 455.541V456.425L290.781 456.841C290.279 456.928 289.915 457.088 289.689 457.322C289.473 457.556 289.364 457.833 289.364 458.154C289.364 458.466 289.486 458.73 289.728 458.947C289.98 459.164 290.3 459.272 290.69 459.272C291.167 459.272 291.583 459.172 291.938 458.973C292.294 458.765 292.571 458.488 292.77 458.141C292.97 457.794 293.069 457.409 293.069 456.984V455.216C293.069 454.8 292.918 454.462 292.614 454.202C292.311 453.942 291.917 453.812 291.431 453.812C291.007 453.812 290.634 453.92 290.313 454.137C289.993 454.345 289.754 454.618 289.598 454.956L288.714 454.475C288.844 454.18 289.048 453.912 289.325 453.669C289.611 453.426 289.936 453.236 290.3 453.097C290.664 452.95 291.041 452.876 291.431 452.876C291.943 452.876 292.393 452.976 292.783 453.175C293.182 453.374 293.49 453.652 293.706 454.007C293.932 454.354 294.044 454.757 294.044 455.216V460H293.069V458.609L293.212 458.752C293.091 459.012 292.9 459.25 292.64 459.467C292.389 459.675 292.09 459.844 291.743 459.974C291.405 460.095 291.033 460.156 290.625 460.156ZM296.05 460V453.032H297.025V454.358L296.869 454.163C297.059 453.756 297.341 453.439 297.714 453.214C298.095 452.989 298.511 452.876 298.962 452.876C299.499 452.876 299.984 453.028 300.418 453.331C300.851 453.634 301.159 454.029 301.341 454.514L301.068 454.527C301.241 453.99 301.54 453.582 301.965 453.305C302.398 453.019 302.875 452.876 303.395 452.876C303.863 452.876 304.292 452.989 304.682 453.214C305.08 453.439 305.397 453.751 305.631 454.15C305.873 454.54 305.995 454.982 305.995 455.476V460H305.02V455.853C305.02 455.428 304.942 455.069 304.786 454.774C304.638 454.479 304.435 454.254 304.175 454.098C303.915 453.933 303.616 453.851 303.278 453.851C302.948 453.851 302.649 453.933 302.381 454.098C302.112 454.254 301.9 454.484 301.744 454.787C301.588 455.082 301.51 455.437 301.51 455.853V460H300.535V455.853C300.535 455.428 300.457 455.069 300.301 454.774C300.153 454.479 299.95 454.254 299.69 454.098C299.43 453.933 299.131 453.851 298.793 453.851C298.455 453.851 298.151 453.933 297.883 454.098C297.623 454.254 297.415 454.484 297.259 454.787C297.103 455.082 297.025 455.437 297.025 455.853V460H296.05Z" fill="white" fill-opacity="0.6"/>
<path d="M275.222 480L278.511 475.762L278.81 476.074C278.68 476.169 278.554 476.247 278.433 476.308C278.312 476.369 278.182 476.412 278.043 476.438C277.904 476.464 277.757 476.477 277.601 476.477C277.012 476.477 276.487 476.343 276.028 476.074C275.569 475.805 275.205 475.441 274.936 474.982C274.676 474.514 274.546 473.985 274.546 473.396C274.546 472.772 274.689 472.217 274.975 471.732C275.27 471.247 275.668 470.865 276.171 470.588C276.682 470.302 277.263 470.159 277.913 470.159C278.572 470.159 279.152 470.298 279.655 470.575C280.158 470.852 280.552 471.234 280.838 471.719C281.133 472.196 281.28 472.746 281.28 473.37C281.28 473.682 281.245 473.994 281.176 474.306C281.107 474.618 280.981 474.952 280.799 475.307C280.626 475.654 280.374 476.048 280.045 476.49L277.341 480H275.222ZM277.913 474.995C278.216 474.995 278.485 474.93 278.719 474.8C278.962 474.661 279.152 474.471 279.291 474.228C279.43 473.977 279.499 473.695 279.499 473.383C279.499 473.054 279.425 472.768 279.278 472.525C279.139 472.282 278.953 472.092 278.719 471.953C278.485 471.814 278.216 471.745 277.913 471.745C277.618 471.745 277.35 471.814 277.107 471.953C276.864 472.092 276.669 472.282 276.522 472.525C276.383 472.768 276.314 473.054 276.314 473.383C276.314 473.695 276.383 473.977 276.522 474.228C276.669 474.471 276.864 474.661 277.107 474.8C277.35 474.93 277.618 474.995 277.913 474.995ZM282.975 480V478.18H284.691V480H282.975ZM290.215 480.156C289.556 480.156 288.971 480.017 288.46 479.74C287.957 479.454 287.563 479.073 287.277 478.596C286.991 478.111 286.848 477.56 286.848 476.945C286.848 476.633 286.878 476.321 286.939 476.009C287.008 475.697 287.13 475.363 287.303 475.008C287.485 474.653 287.745 474.258 288.083 473.825L290.787 470.315H292.893L289.604 474.54L289.318 474.228C289.439 474.133 289.565 474.059 289.695 474.007C289.825 473.946 289.955 473.903 290.085 473.877C290.224 473.851 290.367 473.838 290.514 473.838C291.103 473.838 291.628 473.972 292.087 474.241C292.546 474.51 292.906 474.878 293.166 475.346C293.435 475.805 293.569 476.325 293.569 476.906C293.569 477.53 293.426 478.089 293.14 478.583C292.854 479.068 292.455 479.454 291.944 479.74C291.441 480.017 290.865 480.156 290.215 480.156ZM290.215 478.557C290.51 478.557 290.774 478.492 291.008 478.362C291.251 478.223 291.441 478.028 291.58 477.777C291.727 477.526 291.801 477.244 291.801 476.932C291.801 476.603 291.727 476.321 291.58 476.087C291.441 475.844 291.255 475.654 291.021 475.515C290.787 475.376 290.518 475.307 290.215 475.307C289.92 475.307 289.652 475.376 289.409 475.515C289.166 475.654 288.971 475.844 288.824 476.087C288.685 476.321 288.616 476.603 288.616 476.932C288.616 477.244 288.685 477.526 288.824 477.777C288.971 478.028 289.166 478.223 289.409 478.362C289.652 478.492 289.92 478.557 290.215 478.557ZM296.098 480L303.95 470.315H305.77L297.918 480H296.098ZM297.606 475.229C297.13 475.229 296.696 475.116 296.306 474.891C295.925 474.657 295.622 474.349 295.396 473.968C295.171 473.587 295.058 473.162 295.058 472.694C295.058 472.226 295.171 471.801 295.396 471.42C295.622 471.03 295.925 470.722 296.306 470.497C296.696 470.272 297.13 470.159 297.606 470.159C298.092 470.159 298.525 470.272 298.906 470.497C299.288 470.722 299.591 471.03 299.816 471.42C300.042 471.801 300.154 472.226 300.154 472.694C300.154 473.162 300.042 473.587 299.816 473.968C299.591 474.349 299.288 474.657 298.906 474.891C298.525 475.116 298.092 475.229 297.606 475.229ZM297.606 473.916C297.866 473.916 298.083 473.86 298.256 473.747C298.43 473.626 298.56 473.474 298.646 473.292C298.742 473.101 298.789 472.902 298.789 472.694C298.789 472.477 298.742 472.278 298.646 472.096C298.56 471.914 298.43 471.762 298.256 471.641C298.083 471.52 297.866 471.459 297.606 471.459C297.364 471.459 297.151 471.52 296.969 471.641C296.796 471.762 296.662 471.918 296.566 472.109C296.471 472.291 296.423 472.486 296.423 472.694C296.423 472.893 296.471 473.088 296.566 473.279C296.662 473.47 296.796 473.626 296.969 473.747C297.151 473.86 297.364 473.916 297.606 473.916ZM304.21 480.156C303.734 480.156 303.3 480.043 302.91 479.818C302.529 479.584 302.226 479.276 302 478.895C301.775 478.514 301.662 478.089 301.662 477.621C301.662 477.153 301.775 476.728 302 476.347C302.226 475.957 302.529 475.649 302.91 475.424C303.3 475.199 303.734 475.086 304.21 475.086C304.696 475.086 305.129 475.199 305.51 475.424C305.892 475.649 306.195 475.957 306.42 476.347C306.646 476.728 306.758 477.153 306.758 477.621C306.758 478.089 306.646 478.514 306.42 478.895C306.195 479.276 305.892 479.584 305.51 479.818C305.129 480.043 304.696 480.156 304.21 480.156ZM304.21 478.843C304.462 478.843 304.674 478.787 304.847 478.674C305.029 478.553 305.164 478.401 305.25 478.219C305.346 478.028 305.393 477.829 305.393 477.621C305.393 477.404 305.346 477.205 305.25 477.023C305.164 476.841 305.029 476.689 304.847 476.568C304.674 476.447 304.462 476.386 304.21 476.386C303.968 476.386 303.755 476.447 303.573 476.568C303.4 476.689 303.266 476.845 303.17 477.036C303.075 477.218 303.027 477.413 303.027 477.621C303.027 477.82 303.075 478.015 303.17 478.206C303.266 478.397 303.4 478.553 303.573 478.674C303.755 478.787 303.968 478.843 304.21 478.843Z" fill="white"/>
<circle cx="262" cy="457" r="4" fill="#F9F871"/>
<defs>
<filter id="filter0_d_940_735" x="95.9077" y="73.2729" width="81.4131" height="121.614" filterUnits="userSpaceOnUse" color-interpolation-filters="sRGB">
<feFlood flood-opacity="0" result="BackgroundImageFix"/>
<feColorMatrix in="SourceAlpha" type="matrix" values="0 0 0 0 0 0 0 0 0 0 0 0 0 0 0 0 0 0 127 0" result="hardAlpha"/>
<feOffset/>
<feGaussianBlur stdDeviation="10"/>
<feComposite in2="hardAlpha" operator="out"/>
<feColorMatrix type="matrix" values="0 0 0 0 0 0 0 0 0 0 0 0 0 0 0 0 0 0 0.4 0"/>
<feBlend mode="normal" in2="BackgroundImageFix" result="effect1_dropShadow_940_735"/>
<feBlend mode="normal" in="SourceGraphic" in2="effect1_dropShadow_940_735" result="shape"/>
</filter>
<filter id="filter1_d_940_735" x="55.6318" y="59.9395" width="122.104" height="135.049" filterUnits="userSpaceOnUse" color-interpolation-filters="sRGB">
<feFlood flood-opacity="0" result="BackgroundImageFix"/>
<feColorMatrix in="SourceAlpha" type="matrix" values="0 0 0 0 0 0 0 0 0 0 0 0 0 0 0 0 0 0 127 0" result="hardAlpha"/>
<feOffset/>
<feGaussianBlur stdDeviation="10"/>
<feComposite in2="hardAlpha" operator="out"/>
<feColorMatrix type="matrix" values="0 0 0 0 0 0 0 0 0 0 0 0 0 0 0 0 0 0 0.4 0"/>
<feBlend mode="normal" in2="BackgroundImageFix" result="effect1_dropShadow_940_735"/>
<feBlend mode="normal" in="SourceGraphic" in2="effect1_dropShadow_940_735" result="shape"/>
</filter>
<filter id="filter2_d_940_735" x="20.2861" y="83.127" width="157.978" height="110.971" filterUnits="userSpaceOnUse" color-interpolation-filters="sRGB">
<feFlood flood-opacity="0" result="BackgroundImageFix"/>
<feColorMatrix in="SourceAlpha" type="matrix" values="0 0 0 0 0 0 0 0 0 0 0 0 0 0 0 0 0 0 127 0" result="hardAlpha"/>
<feOffset/>
<feGaussianBlur stdDeviation="10"/>
<feComposite in2="hardAlpha" operator="out"/>
<feColorMatrix type="matrix" values="0 0 0 0 0 0 0 0 0 0 0 0 0 0 0 0 0 0 0.4 0"/>
<feBlend mode="normal" in2="BackgroundImageFix" result="effect1_dropShadow_940_735"/>
<feBlend mode="normal" in="SourceGraphic" in2="effect1_dropShadow_940_735" result="shape"/>
</filter>
<filter id="filter3_d_940_735" x="5.77295" y="136.615" width="164.727" height="103.692" filterUnits="userSpaceOnUse" color-interpolation-filters="sRGB">
<feFlood flood-opacity="0" result="BackgroundImageFix"/>
<feColorMatrix in="SourceAlpha" type="matrix" values="0 0 0 0 0 0 0 0 0 0 0 0 0 0 0 0 0 0 127 0" result="hardAlpha"/>
<feOffset/>
<feGaussianBlur stdDeviation="10"/>
<feComposite in2="hardAlpha" operator="out"/>
<feColorMatrix type="matrix" values="0 0 0 0 0 0 0 0 0 0 0 0 0 0 0 0 0 0 0.4 0"/>
<feBlend mode="normal" in2="BackgroundImageFix" result="effect1_dropShadow_940_735"/>
<feBlend mode="normal" in="SourceGraphic" in2="effect1_dropShadow_940_735" result="shape"/>
</filter>
<filter id="filter4_d_940_735" x="1.45654" y="151" width="169.044" height="169.835" filterUnits="userSpaceOnUse" color-interpolation-filters="sRGB">
<feFlood flood-opacity="0" result="BackgroundImageFix"/>
<feColorMatrix in="SourceAlpha" type="matrix" values="0 0 0 0 0 0 0 0 0 0 0 0 0 0 0 0 0 0 127 0" result="hardAlpha"/>
<feOffset/>
<feGaussianBlur stdDeviation="10"/>
<feComposite in2="hardAlpha" operator="out"/>
<feColorMatrix type="matrix" values="0 0 0 0 0 0 0 0 0 0 0 0 0 0 0 0 0 0 0.4 0"/>
<feBlend mode="normal" in2="BackgroundImageFix" result="effect1_dropShadow_940_735"/>
<feBlend mode="normal" in="SourceGraphic" in2="effect1_dropShadow_940_735" result="shape"/>
</filter>
<filter id="filter5_d_940_735" x="68.9966" y="151" width="237.948" height="195.455" filterUnits="userSpaceOnUse" color-interpolation-filters="sRGB">
<feFlood flood-opacity="0" result="BackgroundImageFix"/>
<feColorMatrix in="SourceAlpha" type="matrix" values="0 0 0 0 0 0 0 0 0 0 0 0 0 0 0 0 0 0 127 0" result="hardAlpha"/>
<feOffset/>
<feGaussianBlur stdDeviation="10"/>
<feComposite in2="hardAlpha" operator="out"/>
<feColorMatrix type="matrix" values="0 0 0 0 0 0 0 0 0 0 0 0 0 0 0 0 0 0 0.4 0"/>
<feBlend mode="normal" in2="BackgroundImageFix" result="effect1_dropShadow_940_735"/>
<feBlend mode="normal" in="SourceGraphic" in2="effect1_dropShadow_940_735" result="shape"/>
</filter>
<filter id="filter6_d_940_735" x="130.5" y="-20" width="211.5" height="298.843" filterUnits="userSpaceOnUse" color-interpolation-filters="sRGB">
<feFlood flood-opacity="0" result="BackgroundImageFix"/>
<feColorMatrix in="SourceAlpha" type="matrix" values="0 0 0 0 0 0 0 0 0 0 0 0 0 0 0 0 0 0 127 0" result="hardAlpha"/>
<feOffset/>
<feGaussianBlur stdDeviation="10"/>
<feComposite in2="hardAlpha" operator="out"/>
<feColorMatrix type="matrix" values="0 0 0 0 0 0 0 0 0 0 0 0 0 0 0 0 0 0 0.4 0"/>
<feBlend mode="normal" in2="BackgroundImageFix" result="effect1_dropShadow_940_735"/>
<feBlend mode="normal" in="SourceGraphic" in2="effect1_dropShadow_940_735" result="shape"/>
</filter>
<clipPath id="clip0_940_735">
<rect width="301" height="342" fill="white" transform="translate(21)"/>
</clipPath>
</defs>
</svg>
