<svg width="512" height="511" viewBox="0 0 512 511" fill="none" xmlns="http://www.w3.org/2000/svg">
<path d="M210.941 168.19C227.342 158.857 245.947 153.943 264.885 153.943V260.283L210.941 168.19Z" fill="#FF6700"/>
<path d="M158.479 178.996C172.808 160.272 191.827 145.64 213.624 136.57L265.425 260.416L158.479 178.996Z" fill="#F9F871"/>
<path d="M112.439 240.97C115.657 214.065 125.919 188.478 142.194 166.783L266.114 259.255L112.439 240.97Z" fill="#FFD14F"/>
<path d="M106.654 319.014C95.4262 292.867 91.2971 264.233 94.6815 235.99L256 255.22L106.654 319.014Z" fill="#FFA158"/>
<path d="M187.901 424.39C165.627 415.471 145.332 402.263 128.176 385.521C111.02 368.778 97.3376 348.83 87.911 326.814L256 255.219L187.901 424.39Z" fill="#FF6781"/>
<path d="M433.73 353.222C409.36 397.186 369.48 430.549 321.832 446.833C274.185 463.118 222.17 461.161 175.887 441.344L256 255.219L433.73 353.222Z" fill="#FF2FBC"/>
<path d="M256 32.4121C295.515 32.4121 334.322 42.8658 368.464 62.7068C402.606 82.5478 430.86 111.066 450.345 145.353C469.829 179.639 479.847 218.467 479.376 257.875C478.905 297.283 467.962 335.862 447.663 369.675L256 255.219V32.4121Z" fill="#FF3EFF"/>
</svg>
