<svg width="729" height="511" viewBox="0 0 729 511" fill="none" xmlns="http://www.w3.org/2000/svg">
<path d="M342.194 255.219L577.175 151.719H591.5M342.194 255.219L440.081 464.769L452.019 469.532M342.194 255.219L198.825 405.219H184.5M342.194 255.219L239.5 127.219H222.788M342.194 255.219L150 281.719H135.675M342.194 255.219L174.5 189.719H155.5M342.194 255.219L316 108.719H292.125" stroke="white" stroke-opacity="0.6" stroke-linejoin="round" stroke-dasharray="5 5"/>
<path d="M105.32 410.719V399.544H106.52V409.594H111.47V410.719H105.32ZM113.124 410.719V402.679H114.249V410.719H113.124ZM113.124 401.194V399.544H114.249V401.194H113.124ZM123.121 413.719V408.919L123.301 409.084C123.021 409.664 122.601 410.114 122.041 410.434C121.491 410.744 120.871 410.899 120.181 410.899C119.431 410.899 118.756 410.719 118.156 410.359C117.556 409.989 117.081 409.489 116.731 408.859C116.391 408.219 116.221 407.499 116.221 406.699C116.221 405.889 116.391 405.169 116.731 404.539C117.081 403.909 117.551 403.414 118.141 403.054C118.741 402.684 119.421 402.499 120.181 402.499C120.871 402.499 121.486 402.649 122.026 402.949C122.566 403.249 122.991 403.654 123.301 404.164L123.121 404.479V402.679H124.246V413.719H123.121ZM120.241 409.774C120.781 409.774 121.266 409.639 121.696 409.369C122.136 409.099 122.481 408.734 122.731 408.274C122.991 407.804 123.121 407.279 123.121 406.699C123.121 406.119 122.991 405.599 122.731 405.139C122.481 404.669 122.136 404.299 121.696 404.029C121.266 403.759 120.781 403.624 120.241 403.624C119.711 403.624 119.231 403.759 118.801 404.029C118.371 404.299 118.031 404.664 117.781 405.124C117.541 405.584 117.421 406.109 117.421 406.699C117.421 407.279 117.541 407.804 117.781 408.274C118.031 408.734 118.366 409.099 118.786 409.369C119.216 409.639 119.701 409.774 120.241 409.774ZM129.406 410.899C128.846 410.899 128.336 410.769 127.876 410.509C127.416 410.239 127.051 409.869 126.781 409.399C126.521 408.919 126.391 408.369 126.391 407.749V402.679H127.516V407.614C127.516 408.044 127.601 408.424 127.771 408.754C127.951 409.074 128.196 409.324 128.506 409.504C128.826 409.684 129.191 409.774 129.601 409.774C130.011 409.774 130.376 409.684 130.696 409.504C131.016 409.314 131.266 409.049 131.446 408.709C131.626 408.359 131.716 407.944 131.716 407.464V402.679H132.841V410.719H131.716V409.159L131.971 409.219C131.781 409.739 131.456 410.149 130.996 410.449C130.536 410.749 130.006 410.899 129.406 410.899ZM135.155 410.719V402.679H136.28V410.719H135.155ZM135.155 401.194V399.544H136.28V401.194H135.155ZM142.213 410.899C141.463 410.899 140.788 410.719 140.188 410.359C139.588 409.989 139.113 409.489 138.763 408.859C138.423 408.219 138.253 407.499 138.253 406.699C138.253 405.889 138.423 405.169 138.763 404.539C139.113 403.909 139.583 403.414 140.173 403.054C140.773 402.684 141.453 402.499 142.213 402.499C142.903 402.499 143.518 402.649 144.058 402.949C144.598 403.249 145.023 403.654 145.333 404.164L145.153 404.479V399.364H146.278V410.719H145.153V408.919L145.333 409.084C145.053 409.664 144.633 410.114 144.073 410.434C143.523 410.744 142.903 410.899 142.213 410.899ZM142.273 409.774C142.813 409.774 143.298 409.639 143.728 409.369C144.168 409.099 144.513 408.734 144.763 408.274C145.023 407.804 145.153 407.279 145.153 406.699C145.153 406.119 145.023 405.599 144.763 405.139C144.513 404.669 144.168 404.299 143.728 404.029C143.298 403.759 142.813 403.624 142.273 403.624C141.743 403.624 141.263 403.759 140.833 404.029C140.403 404.299 140.063 404.664 139.813 405.124C139.573 405.584 139.453 406.109 139.453 406.699C139.453 407.279 139.573 407.804 139.813 408.274C140.063 408.734 140.398 409.099 140.818 409.369C141.248 409.639 141.733 409.774 142.273 409.774ZM148.588 410.719V402.679H149.713V410.719H148.588ZM148.588 401.194V399.544H149.713V401.194H148.588ZM155.09 410.809C154.37 410.809 153.815 410.599 153.425 410.179C153.035 409.759 152.84 409.159 152.84 408.379V403.804H151.355V402.679H151.73C152.07 402.679 152.34 402.569 152.54 402.349C152.74 402.119 152.84 401.834 152.84 401.494V400.819H153.965V402.679H155.735V403.804H153.965V408.379C153.965 408.649 154.005 408.889 154.085 409.099C154.165 409.299 154.3 409.459 154.49 409.579C154.69 409.699 154.955 409.759 155.285 409.759C155.365 409.759 155.46 409.754 155.57 409.744C155.68 409.734 155.775 409.724 155.855 409.714V410.719C155.735 410.749 155.6 410.769 155.45 410.779C155.3 410.799 155.18 410.809 155.09 410.809ZM157.996 414.019C157.836 414.019 157.671 414.004 157.501 413.974C157.341 413.954 157.181 413.914 157.021 413.854V412.804C157.121 412.814 157.246 412.829 157.396 412.849C157.556 412.879 157.716 412.894 157.876 412.894C158.366 412.894 158.741 412.789 159.001 412.579C159.261 412.379 159.516 411.989 159.766 411.409L160.276 410.209L160.246 411.199L156.841 402.679H158.056L160.846 409.714H160.531L163.306 402.679H164.551L160.876 411.739C160.716 412.129 160.511 412.499 160.261 412.849C160.021 413.199 159.716 413.479 159.346 413.689C158.976 413.909 158.526 414.019 157.996 414.019Z" fill="white" fill-opacity="0.6"/>
<path d="M52.32 284.719V273.544H53.37L57.57 279.634H56.985L61.17 273.544H62.22V284.719H61.02V275.164L61.41 275.314L57.3 281.269H57.24L53.145 275.314L53.52 275.164V284.719H52.32ZM67.0191 284.899C66.5091 284.899 66.0541 284.804 65.6541 284.614C65.2541 284.414 64.9391 284.144 64.7091 283.804C64.4791 283.464 64.3641 283.074 64.3641 282.634C64.3641 282.214 64.4541 281.834 64.6341 281.494C64.8141 281.144 65.0941 280.849 65.4741 280.609C65.8541 280.369 66.3391 280.199 66.9291 280.099L70.0791 279.574V280.594L67.1991 281.074C66.6191 281.174 66.1991 281.359 65.9391 281.629C65.6891 281.899 65.5641 282.219 65.5641 282.589C65.5641 282.949 65.7041 283.254 65.9841 283.504C66.2741 283.754 66.6441 283.879 67.0941 283.879C67.6441 283.879 68.1241 283.764 68.5341 283.534C68.9441 283.294 69.2641 282.974 69.4941 282.574C69.7241 282.174 69.8391 281.729 69.8391 281.239V279.199C69.8391 278.719 69.6641 278.329 69.3141 278.029C68.9641 277.729 68.5091 277.579 67.9491 277.579C67.4591 277.579 67.0291 277.704 66.6591 277.954C66.2891 278.194 66.0141 278.509 65.8341 278.899L64.8141 278.344C64.9641 278.004 65.1991 277.694 65.5191 277.414C65.8491 277.134 66.2241 276.914 66.6441 276.754C67.0641 276.584 67.4991 276.499 67.9491 276.499C68.5391 276.499 69.0591 276.614 69.5091 276.844C69.9691 277.074 70.3241 277.394 70.5741 277.804C70.8341 278.204 70.9641 278.669 70.9641 279.199V284.719H69.8391V283.114L70.0041 283.279C69.8641 283.579 69.6441 283.854 69.3441 284.104C69.0541 284.344 68.7091 284.539 68.3091 284.689C67.9191 284.829 67.4891 284.899 67.0191 284.899ZM73.278 284.719V276.679H74.403V277.999L74.253 277.804C74.443 277.424 74.728 277.124 75.108 276.904C75.498 276.684 75.968 276.574 76.518 276.574H77.028V277.699H76.323C75.743 277.699 75.278 277.879 74.928 278.239C74.578 278.599 74.403 279.109 74.403 279.769V284.719H73.278ZM78.3464 284.719V273.364H79.4714V281.314L78.9914 281.239L83.5064 276.679H84.9614L81.8114 279.904L85.2464 284.719H83.8964L80.6714 280.264L81.3914 280.324L79.0964 282.694L79.4714 281.764V284.719H78.3464ZM90.0777 284.899C89.3277 284.899 88.6477 284.719 88.0377 284.359C87.4377 283.989 86.9627 283.484 86.6127 282.844C86.2627 282.204 86.0877 281.479 86.0877 280.669C86.0877 279.859 86.2577 279.144 86.5977 278.524C86.9377 277.894 87.3977 277.399 87.9777 277.039C88.5677 276.679 89.2277 276.499 89.9577 276.499C90.5377 276.499 91.0527 276.609 91.5027 276.829C91.9627 277.039 92.3527 277.329 92.6727 277.699C92.9927 278.059 93.2377 278.469 93.4077 278.929C93.5777 279.379 93.6627 279.844 93.6627 280.324C93.6627 280.424 93.6577 280.539 93.6477 280.669C93.6377 280.789 93.6227 280.914 93.6027 281.044H86.8077V279.994H92.9577L92.4177 280.444C92.5077 279.894 92.4427 279.404 92.2227 278.974C92.0127 278.534 91.7077 278.189 91.3077 277.939C90.9077 277.679 90.4577 277.549 89.9577 277.549C89.4577 277.549 88.9927 277.679 88.5627 277.939C88.1427 278.199 87.8127 278.564 87.5727 279.034C87.3327 279.494 87.2377 280.044 87.2877 280.684C87.2377 281.324 87.3377 281.884 87.5877 282.364C87.8477 282.834 88.1977 283.199 88.6377 283.459C89.0877 283.719 89.5677 283.849 90.0777 283.849C90.6677 283.849 91.1627 283.709 91.5627 283.429C91.9627 283.149 92.2877 282.799 92.5377 282.379L93.4977 282.889C93.3377 283.249 93.0927 283.584 92.7627 283.894C92.4327 284.194 92.0377 284.439 91.5777 284.629C91.1277 284.809 90.6277 284.899 90.0777 284.899ZM98.7212 284.809C98.0012 284.809 97.4462 284.599 97.0562 284.179C96.6662 283.759 96.4712 283.159 96.4712 282.379V277.804H94.9862V276.679H95.3612C95.7012 276.679 95.9712 276.569 96.1712 276.349C96.3712 276.119 96.4712 275.834 96.4712 275.494V274.819H97.5962V276.679H99.3662V277.804H97.5962V282.379C97.5962 282.649 97.6362 282.889 97.7162 283.099C97.7962 283.299 97.9312 283.459 98.1212 283.579C98.3212 283.699 98.5862 283.759 98.9162 283.759C98.9962 283.759 99.0912 283.754 99.2012 283.744C99.3112 283.734 99.4062 283.724 99.4862 283.714V284.719C99.3662 284.749 99.2312 284.769 99.0812 284.779C98.9312 284.799 98.8112 284.809 98.7212 284.809ZM101.462 284.719V276.679H102.587V284.719H101.462ZM101.462 275.194V273.544H102.587V275.194H101.462ZM104.889 284.719V276.679H106.014V278.239L105.759 278.179C105.959 277.659 106.284 277.249 106.734 276.949C107.194 276.649 107.724 276.499 108.324 276.499C108.894 276.499 109.404 276.629 109.854 276.889C110.314 277.149 110.674 277.509 110.934 277.969C111.204 278.419 111.339 278.929 111.339 279.499V284.719H110.214V279.934C110.214 279.444 110.124 279.029 109.944 278.689C109.774 278.349 109.529 278.089 109.209 277.909C108.899 277.719 108.539 277.624 108.129 277.624C107.719 277.624 107.354 277.719 107.034 277.909C106.714 278.089 106.464 278.354 106.284 278.704C106.104 279.044 106.014 279.454 106.014 279.934V284.719H104.889ZM117.298 288.019C116.748 288.019 116.238 287.934 115.768 287.764C115.308 287.594 114.908 287.359 114.568 287.059C114.238 286.769 113.983 286.429 113.803 286.039L114.838 285.484C114.998 285.864 115.283 286.194 115.693 286.474C116.103 286.754 116.628 286.894 117.268 286.894C117.758 286.894 118.208 286.799 118.618 286.609C119.028 286.419 119.358 286.139 119.608 285.769C119.858 285.399 119.983 284.944 119.983 284.404V282.619L120.163 282.784C119.883 283.364 119.468 283.814 118.918 284.134C118.368 284.444 117.768 284.599 117.118 284.599C116.368 284.599 115.693 284.419 115.093 284.059C114.493 283.699 114.018 283.214 113.668 282.604C113.328 281.984 113.158 281.299 113.158 280.549C113.158 279.789 113.328 279.104 113.668 278.494C114.018 277.884 114.488 277.399 115.078 277.039C115.678 276.679 116.358 276.499 117.118 276.499C117.768 276.499 118.358 276.649 118.888 276.949C119.428 277.249 119.853 277.654 120.163 278.164L119.983 278.479V276.679H121.108V284.404C121.108 285.094 120.943 285.709 120.613 286.249C120.293 286.799 119.843 287.229 119.263 287.539C118.693 287.859 118.038 288.019 117.298 288.019ZM117.178 283.474C117.698 283.474 118.168 283.344 118.588 283.084C119.008 282.814 119.343 282.459 119.593 282.019C119.853 281.569 119.983 281.079 119.983 280.549C119.983 280.019 119.853 279.534 119.593 279.094C119.343 278.644 119.008 278.289 118.588 278.029C118.168 277.759 117.698 277.624 117.178 277.624C116.648 277.624 116.168 277.759 115.738 278.029C115.308 278.289 114.968 278.639 114.718 279.079C114.478 279.519 114.358 280.009 114.358 280.549C114.358 281.079 114.478 281.569 114.718 282.019C114.968 282.459 115.303 282.814 115.723 283.084C116.153 283.344 116.638 283.474 117.178 283.474Z" fill="white" fill-opacity="0.6"/>
<path d="M0.546836 187.719L4.62684 176.544H5.91684L9.99684 187.719H8.73684L7.77684 184.989H2.78184L1.80684 187.719H0.546836ZM3.17184 183.864H7.35684L5.09184 177.444H5.45184L3.17184 183.864ZM11.322 187.719V179.679H12.447V187.719H11.322ZM11.322 178.194V176.544H12.447V178.194H11.322ZM14.7497 187.719V179.679H15.8747V180.999L15.7247 180.804C15.9147 180.424 16.1997 180.124 16.5797 179.904C16.9697 179.684 17.4397 179.574 17.9897 179.574H18.4997V180.699H17.7947C17.2147 180.699 16.7497 180.879 16.3997 181.239C16.0497 181.599 15.8747 182.109 15.8747 182.769V187.719H14.7497ZM23.4481 187.899C22.6981 187.899 22.0231 187.719 21.4231 187.359C20.8231 186.989 20.3481 186.489 19.9981 185.859C19.6581 185.219 19.4881 184.499 19.4881 183.699C19.4881 182.889 19.6581 182.169 19.9981 181.539C20.3481 180.909 20.8181 180.414 21.4081 180.054C22.0081 179.684 22.6881 179.499 23.4481 179.499C24.1381 179.499 24.7531 179.649 25.2931 179.949C25.8331 180.249 26.2581 180.654 26.5681 181.164L26.3881 181.479V176.364H27.5131V187.719H26.3881V185.919L26.5681 186.084C26.2881 186.664 25.8681 187.114 25.3081 187.434C24.7581 187.744 24.1381 187.899 23.4481 187.899ZM23.5081 186.774C24.0481 186.774 24.5331 186.639 24.9631 186.369C25.4031 186.099 25.7481 185.734 25.9981 185.274C26.2581 184.804 26.3881 184.279 26.3881 183.699C26.3881 183.119 26.2581 182.599 25.9981 182.139C25.7481 181.669 25.4031 181.299 24.9631 181.029C24.5331 180.759 24.0481 180.624 23.5081 180.624C22.9781 180.624 22.4981 180.759 22.0681 181.029C21.6381 181.299 21.2981 181.664 21.0481 182.124C20.8081 182.584 20.6881 183.109 20.6881 183.699C20.6881 184.279 20.8081 184.804 21.0481 185.274C21.2981 185.734 21.6331 186.099 22.0531 186.369C22.4831 186.639 22.9681 186.774 23.5081 186.774ZM29.823 187.719V179.679H30.948V180.999L30.798 180.804C30.988 180.424 31.273 180.124 31.653 179.904C32.043 179.684 32.513 179.574 33.063 179.574H33.573V180.699H32.868C32.288 180.699 31.823 180.879 31.473 181.239C31.123 181.599 30.948 182.109 30.948 182.769V187.719H29.823ZM38.6563 187.899C37.8963 187.899 37.2063 187.719 36.5863 187.359C35.9663 186.989 35.4713 186.489 35.1013 185.859C34.7413 185.219 34.5613 184.494 34.5613 183.684C34.5613 182.884 34.7413 182.169 35.1013 181.539C35.4613 180.909 35.9463 180.414 36.5563 180.054C37.1763 179.684 37.8763 179.499 38.6563 179.499C39.4363 179.499 40.1313 179.679 40.7413 180.039C41.3613 180.399 41.8463 180.894 42.1963 181.524C42.5563 182.154 42.7363 182.874 42.7363 183.684C42.7363 184.504 42.5513 185.234 42.1813 185.874C41.8113 186.504 41.3163 186.999 40.6963 187.359C40.0863 187.719 39.4063 187.899 38.6563 187.899ZM38.6563 186.774C39.1963 186.774 39.6813 186.639 40.1113 186.369C40.5513 186.099 40.8963 185.729 41.1463 185.259C41.4063 184.789 41.5363 184.264 41.5363 183.684C41.5363 183.104 41.4063 182.584 41.1463 182.124C40.8963 181.664 40.5513 181.299 40.1113 181.029C39.6813 180.759 39.1963 180.624 38.6563 180.624C38.1163 180.624 37.6263 180.759 37.1863 181.029C36.7563 181.299 36.4113 181.664 36.1513 182.124C35.8913 182.584 35.7613 183.104 35.7613 183.684C35.7613 184.264 35.8913 184.789 36.1513 185.259C36.4113 185.729 36.7563 186.099 37.1863 186.369C37.6263 186.639 38.1163 186.774 38.6563 186.774ZM44.7204 190.719V179.679H45.8454V181.479L45.6654 181.164C45.9854 180.654 46.4104 180.249 46.9404 179.949C47.4804 179.649 48.0954 179.499 48.7854 179.499C49.5454 179.499 50.2204 179.684 50.8104 180.054C51.4104 180.414 51.8804 180.909 52.2204 181.539C52.5704 182.169 52.7454 182.889 52.7454 183.699C52.7454 184.499 52.5704 185.219 52.2204 185.859C51.8804 186.489 51.4104 186.989 50.8104 187.359C50.2204 187.719 49.5454 187.899 48.7854 187.899C48.0954 187.899 47.4704 187.744 46.9104 187.434C46.3604 187.114 45.9454 186.664 45.6654 186.084L45.8454 185.919V190.719H44.7204ZM48.7254 186.774C49.2654 186.774 49.7454 186.639 50.1654 186.369C50.5954 186.099 50.9304 185.734 51.1704 185.274C51.4204 184.804 51.5454 184.279 51.5454 183.699C51.5454 183.109 51.4204 182.584 51.1704 182.124C50.9304 181.664 50.5954 181.299 50.1654 181.029C49.7454 180.759 49.2654 180.624 48.7254 180.624C48.1854 180.624 47.6954 180.759 47.2554 181.029C46.8254 181.299 46.4804 181.669 46.2204 182.139C45.9704 182.599 45.8454 183.119 45.8454 183.699C45.8454 184.279 45.9704 184.804 46.2204 185.274C46.4804 185.734 46.8254 186.099 47.2554 186.369C47.6954 186.639 48.1854 186.774 48.7254 186.774ZM57.4391 187.719V176.544H58.4891L65.0441 185.949H64.6391V176.544H65.8391V187.719H64.7891L58.2341 178.254H58.6391V187.719H57.4391ZM68.4841 187.719V176.544H75.3841V177.669H69.6841V181.554H74.9341V182.679H69.6841V187.719H68.4841ZM79.1349 187.719V177.669H76.0449V176.544H83.3949V177.669H80.3349V187.719H79.1349ZM86.6071 187.899C85.8371 187.899 85.1621 187.704 84.5821 187.314C84.0021 186.924 83.5821 186.394 83.3221 185.724L84.2671 185.274C84.4971 185.764 84.8171 186.154 85.2271 186.444C85.6471 186.734 86.1071 186.879 86.6071 186.879C87.0871 186.879 87.4921 186.764 87.8221 186.534C88.1521 186.294 88.3171 185.984 88.3171 185.604C88.3171 185.324 88.2371 185.104 88.0771 184.944C87.9171 184.774 87.7321 184.644 87.5221 184.554C87.3121 184.464 87.1271 184.399 86.9671 184.359L85.8121 184.029C85.0721 183.819 84.5371 183.524 84.2071 183.144C83.8771 182.764 83.7121 182.324 83.7121 181.824C83.7121 181.354 83.8321 180.944 84.0721 180.594C84.3121 180.244 84.6371 179.974 85.0471 179.784C85.4571 179.594 85.9121 179.499 86.4121 179.499C87.0921 179.499 87.7071 179.679 88.2571 180.039C88.8171 180.389 89.2121 180.879 89.4421 181.509L88.4821 181.959C88.2821 181.509 87.9921 181.159 87.6121 180.909C87.2421 180.649 86.8271 180.519 86.3671 180.519C85.9171 180.519 85.5571 180.634 85.2871 180.864C85.0171 181.094 84.8821 181.384 84.8821 181.734C84.8821 182.004 84.9521 182.219 85.0921 182.379C85.2321 182.539 85.3921 182.659 85.5721 182.739C85.7621 182.819 85.9271 182.879 86.0671 182.919L87.4021 183.309C88.0521 183.499 88.5571 183.794 88.9171 184.194C89.2871 184.594 89.4721 185.064 89.4721 185.604C89.4721 186.044 89.3471 186.439 89.0971 186.789C88.8571 187.139 88.5221 187.414 88.0921 187.614C87.6621 187.804 87.1671 187.899 86.6071 187.899ZM93.9978 187.719V176.364H95.1228V181.239L94.8678 181.179C95.0678 180.659 95.3928 180.249 95.8428 179.949C96.3028 179.649 96.8328 179.499 97.4328 179.499C98.0028 179.499 98.5128 179.629 98.9628 179.889C99.4228 180.149 99.7828 180.509 100.043 180.969C100.313 181.419 100.448 181.929 100.448 182.499V187.719H99.3228V182.934C99.3228 182.444 99.2328 182.029 99.0528 181.689C98.8728 181.349 98.6228 181.089 98.3028 180.909C97.9928 180.719 97.6378 180.624 97.2378 180.624C96.8378 180.624 96.4778 180.719 96.1578 180.909C95.8378 181.089 95.5828 181.354 95.3928 181.704C95.2128 182.044 95.1228 182.454 95.1228 182.934V187.719H93.9978ZM106.361 187.899C105.601 187.899 104.911 187.719 104.291 187.359C103.671 186.989 103.176 186.489 102.806 185.859C102.446 185.219 102.266 184.494 102.266 183.684C102.266 182.884 102.446 182.169 102.806 181.539C103.166 180.909 103.651 180.414 104.261 180.054C104.881 179.684 105.581 179.499 106.361 179.499C107.141 179.499 107.836 179.679 108.446 180.039C109.066 180.399 109.551 180.894 109.901 181.524C110.261 182.154 110.441 182.874 110.441 183.684C110.441 184.504 110.256 185.234 109.886 185.874C109.516 186.504 109.021 186.999 108.401 187.359C107.791 187.719 107.111 187.899 106.361 187.899ZM106.361 186.774C106.901 186.774 107.386 186.639 107.816 186.369C108.256 186.099 108.601 185.729 108.851 185.259C109.111 184.789 109.241 184.264 109.241 183.684C109.241 183.104 109.111 182.584 108.851 182.124C108.601 181.664 108.256 181.299 107.816 181.029C107.386 180.759 106.901 180.624 106.361 180.624C105.821 180.624 105.331 180.759 104.891 181.029C104.461 181.299 104.116 181.664 103.856 182.124C103.596 182.584 103.466 183.104 103.466 183.684C103.466 184.264 103.596 184.789 103.856 185.259C104.116 185.729 104.461 186.099 104.891 186.369C105.331 186.639 105.821 186.774 106.361 186.774ZM112.426 187.719V176.364H113.551V187.719H112.426ZM119.483 187.899C118.733 187.899 118.058 187.719 117.458 187.359C116.858 186.989 116.383 186.489 116.033 185.859C115.693 185.219 115.523 184.499 115.523 183.699C115.523 182.889 115.693 182.169 116.033 181.539C116.383 180.909 116.853 180.414 117.443 180.054C118.043 179.684 118.723 179.499 119.483 179.499C120.173 179.499 120.788 179.649 121.328 179.949C121.868 180.249 122.293 180.654 122.603 181.164L122.423 181.479V176.364H123.548V187.719H122.423V185.919L122.603 186.084C122.323 186.664 121.903 187.114 121.343 187.434C120.793 187.744 120.173 187.899 119.483 187.899ZM119.543 186.774C120.083 186.774 120.568 186.639 120.998 186.369C121.438 186.099 121.783 185.734 122.033 185.274C122.293 184.804 122.423 184.279 122.423 183.699C122.423 183.119 122.293 182.599 122.033 182.139C121.783 181.669 121.438 181.299 120.998 181.029C120.568 180.759 120.083 180.624 119.543 180.624C119.013 180.624 118.533 180.759 118.103 181.029C117.673 181.299 117.333 181.664 117.083 182.124C116.843 182.584 116.723 183.109 116.723 183.699C116.723 184.279 116.843 184.804 117.083 185.274C117.333 185.734 117.668 186.099 118.088 186.369C118.518 186.639 119.003 186.774 119.543 186.774ZM129.518 187.899C128.768 187.899 128.088 187.719 127.478 187.359C126.878 186.989 126.403 186.484 126.053 185.844C125.703 185.204 125.528 184.479 125.528 183.669C125.528 182.859 125.698 182.144 126.038 181.524C126.378 180.894 126.838 180.399 127.418 180.039C128.008 179.679 128.668 179.499 129.398 179.499C129.978 179.499 130.493 179.609 130.943 179.829C131.403 180.039 131.793 180.329 132.113 180.699C132.433 181.059 132.678 181.469 132.848 181.929C133.018 182.379 133.103 182.844 133.103 183.324C133.103 183.424 133.098 183.539 133.088 183.669C133.078 183.789 133.063 183.914 133.043 184.044H126.248V182.994H132.398L131.858 183.444C131.948 182.894 131.883 182.404 131.663 181.974C131.453 181.534 131.148 181.189 130.748 180.939C130.348 180.679 129.898 180.549 129.398 180.549C128.898 180.549 128.433 180.679 128.003 180.939C127.583 181.199 127.253 181.564 127.013 182.034C126.773 182.494 126.678 183.044 126.728 183.684C126.678 184.324 126.778 184.884 127.028 185.364C127.288 185.834 127.638 186.199 128.078 186.459C128.528 186.719 129.008 186.849 129.518 186.849C130.108 186.849 130.603 186.709 131.003 186.429C131.403 186.149 131.728 185.799 131.978 185.379L132.938 185.889C132.778 186.249 132.533 186.584 132.203 186.894C131.873 187.194 131.478 187.439 131.018 187.629C130.568 187.809 130.068 187.899 129.518 187.899ZM135.087 187.719V179.679H136.212V180.999L136.062 180.804C136.252 180.424 136.537 180.124 136.917 179.904C137.307 179.684 137.777 179.574 138.327 179.574H138.837V180.699H138.132C137.552 180.699 137.087 180.879 136.737 181.239C136.387 181.599 136.212 182.109 136.212 182.769V187.719H135.087Z" fill="white" fill-opacity="0.6"/>
<path d="M606.085 149.899C605.375 149.899 604.73 149.764 604.15 149.494C603.57 149.224 603.08 148.864 602.68 148.414C602.28 147.954 601.995 147.449 601.825 146.899L602.905 146.494C603.165 147.254 603.57 147.834 604.12 148.234C604.67 148.624 605.325 148.819 606.085 148.819C606.565 148.819 606.985 148.744 607.345 148.594C607.715 148.434 608 148.214 608.2 147.934C608.4 147.654 608.5 147.329 608.5 146.959C608.5 146.409 608.35 145.984 608.05 145.684C607.75 145.384 607.32 145.154 606.76 144.994L604.75 144.394C603.96 144.164 603.35 143.779 602.92 143.239C602.5 142.699 602.29 142.084 602.29 141.394C602.29 140.804 602.435 140.284 602.725 139.834C603.015 139.374 603.41 139.014 603.91 138.754C604.42 138.494 604.995 138.364 605.635 138.364C606.305 138.364 606.905 138.489 607.435 138.739C607.975 138.979 608.43 139.299 608.8 139.699C609.17 140.099 609.435 140.544 609.595 141.034L608.545 141.454C608.305 140.794 607.93 140.294 607.42 139.954C606.92 139.614 606.33 139.444 605.65 139.444C605.22 139.444 604.84 139.519 604.51 139.669C604.19 139.819 603.94 140.034 603.76 140.314C603.58 140.594 603.49 140.924 603.49 141.304C603.49 141.764 603.635 142.179 603.925 142.549C604.215 142.909 604.66 143.179 605.26 143.359L607.03 143.884C607.91 144.144 608.575 144.519 609.025 145.009C609.475 145.499 609.7 146.114 609.7 146.854C609.7 147.454 609.545 147.984 609.235 148.444C608.935 148.894 608.51 149.249 607.96 149.509C607.42 149.769 606.795 149.899 606.085 149.899ZM614.927 149.809C614.207 149.809 613.652 149.599 613.262 149.179C612.872 148.759 612.677 148.159 612.677 147.379V142.804H611.192V141.679H611.567C611.907 141.679 612.177 141.569 612.377 141.349C612.577 141.119 612.677 140.834 612.677 140.494V139.819H613.802V141.679H615.572V142.804H613.802V147.379C613.802 147.649 613.842 147.889 613.922 148.099C614.002 148.299 614.137 148.459 614.327 148.579C614.527 148.699 614.792 148.759 615.122 148.759C615.202 148.759 615.297 148.754 615.407 148.744C615.517 148.734 615.612 148.724 615.692 148.714V149.719C615.572 149.749 615.437 149.769 615.287 149.779C615.137 149.799 615.017 149.809 614.927 149.809ZM619.846 149.899C619.336 149.899 618.881 149.804 618.481 149.614C618.081 149.414 617.766 149.144 617.536 148.804C617.306 148.464 617.191 148.074 617.191 147.634C617.191 147.214 617.281 146.834 617.461 146.494C617.641 146.144 617.921 145.849 618.301 145.609C618.681 145.369 619.166 145.199 619.756 145.099L622.906 144.574V145.594L620.026 146.074C619.446 146.174 619.026 146.359 618.766 146.629C618.516 146.899 618.391 147.219 618.391 147.589C618.391 147.949 618.531 148.254 618.811 148.504C619.101 148.754 619.471 148.879 619.921 148.879C620.471 148.879 620.951 148.764 621.361 148.534C621.771 148.294 622.091 147.974 622.321 147.574C622.551 147.174 622.666 146.729 622.666 146.239V144.199C622.666 143.719 622.491 143.329 622.141 143.029C621.791 142.729 621.336 142.579 620.776 142.579C620.286 142.579 619.856 142.704 619.486 142.954C619.116 143.194 618.841 143.509 618.661 143.899L617.641 143.344C617.791 143.004 618.026 142.694 618.346 142.414C618.676 142.134 619.051 141.914 619.471 141.754C619.891 141.584 620.326 141.499 620.776 141.499C621.366 141.499 621.886 141.614 622.336 141.844C622.796 142.074 623.151 142.394 623.401 142.804C623.661 143.204 623.791 143.669 623.791 144.199V149.719H622.666V148.114L622.831 148.279C622.691 148.579 622.471 148.854 622.171 149.104C621.881 149.344 621.536 149.539 621.136 149.689C620.746 149.829 620.316 149.899 619.846 149.899ZM626.105 149.719V138.364H627.23V146.314L626.75 146.239L631.265 141.679H632.72L629.57 144.904L633.005 149.719H631.655L628.43 145.264L629.15 145.324L626.855 147.694L627.23 146.764V149.719H626.105ZM634.323 149.719V141.679H635.448V149.719H634.323ZM634.323 140.194V138.544H635.448V140.194H634.323ZM637.751 149.719V141.679H638.876V143.239L638.621 143.179C638.821 142.659 639.146 142.249 639.596 141.949C640.056 141.649 640.586 141.499 641.186 141.499C641.756 141.499 642.266 141.629 642.716 141.889C643.176 142.149 643.536 142.509 643.796 142.969C644.066 143.419 644.201 143.929 644.201 144.499V149.719H643.076V144.934C643.076 144.444 642.986 144.029 642.806 143.689C642.636 143.349 642.391 143.089 642.071 142.909C641.761 142.719 641.401 142.624 640.991 142.624C640.581 142.624 640.216 142.719 639.896 142.909C639.576 143.089 639.326 143.354 639.146 143.704C638.966 144.044 638.876 144.454 638.876 144.934V149.719H637.751ZM650.159 153.019C649.609 153.019 649.099 152.934 648.629 152.764C648.169 152.594 647.769 152.359 647.429 152.059C647.099 151.769 646.844 151.429 646.664 151.039L647.699 150.484C647.859 150.864 648.144 151.194 648.554 151.474C648.964 151.754 649.489 151.894 650.129 151.894C650.619 151.894 651.069 151.799 651.479 151.609C651.889 151.419 652.219 151.139 652.469 150.769C652.719 150.399 652.844 149.944 652.844 149.404V147.619L653.024 147.784C652.744 148.364 652.329 148.814 651.779 149.134C651.229 149.444 650.629 149.599 649.979 149.599C649.229 149.599 648.554 149.419 647.954 149.059C647.354 148.699 646.879 148.214 646.529 147.604C646.189 146.984 646.019 146.299 646.019 145.549C646.019 144.789 646.189 144.104 646.529 143.494C646.879 142.884 647.349 142.399 647.939 142.039C648.539 141.679 649.219 141.499 649.979 141.499C650.629 141.499 651.219 141.649 651.749 141.949C652.289 142.249 652.714 142.654 653.024 143.164L652.844 143.479V141.679H653.969V149.404C653.969 150.094 653.804 150.709 653.474 151.249C653.154 151.799 652.704 152.229 652.124 152.539C651.554 152.859 650.899 153.019 650.159 153.019ZM650.039 148.474C650.559 148.474 651.029 148.344 651.449 148.084C651.869 147.814 652.204 147.459 652.454 147.019C652.714 146.569 652.844 146.079 652.844 145.549C652.844 145.019 652.714 144.534 652.454 144.094C652.204 143.644 651.869 143.289 651.449 143.029C651.029 142.759 650.559 142.624 650.039 142.624C649.509 142.624 649.029 142.759 648.599 143.029C648.169 143.289 647.829 143.639 647.579 144.079C647.339 144.519 647.219 145.009 647.219 145.549C647.219 146.079 647.339 146.569 647.579 147.019C647.829 147.459 648.164 147.814 648.584 148.084C649.014 148.344 649.499 148.474 650.039 148.474ZM658.83 149.719V141.679H659.955V142.999L659.805 142.804C659.995 142.424 660.28 142.124 660.66 141.904C661.05 141.684 661.52 141.574 662.07 141.574H662.58V142.699H661.875C661.295 142.699 660.83 142.879 660.48 143.239C660.13 143.599 659.955 144.109 659.955 144.769V149.719H658.83ZM667.558 149.899C666.808 149.899 666.128 149.719 665.518 149.359C664.918 148.989 664.443 148.484 664.093 147.844C663.743 147.204 663.568 146.479 663.568 145.669C663.568 144.859 663.738 144.144 664.078 143.524C664.418 142.894 664.878 142.399 665.458 142.039C666.048 141.679 666.708 141.499 667.438 141.499C668.018 141.499 668.533 141.609 668.983 141.829C669.443 142.039 669.833 142.329 670.153 142.699C670.473 143.059 670.718 143.469 670.888 143.929C671.058 144.379 671.143 144.844 671.143 145.324C671.143 145.424 671.138 145.539 671.128 145.669C671.118 145.789 671.103 145.914 671.083 146.044H664.288V144.994H670.438L669.898 145.444C669.988 144.894 669.923 144.404 669.703 143.974C669.493 143.534 669.188 143.189 668.788 142.939C668.388 142.679 667.938 142.549 667.438 142.549C666.938 142.549 666.473 142.679 666.043 142.939C665.623 143.199 665.293 143.564 665.053 144.034C664.813 144.494 664.718 145.044 664.768 145.684C664.718 146.324 664.818 146.884 665.068 147.364C665.328 147.834 665.678 148.199 666.118 148.459C666.568 148.719 667.048 148.849 667.558 148.849C668.148 148.849 668.643 148.709 669.043 148.429C669.443 148.149 669.768 147.799 670.018 147.379L670.978 147.889C670.818 148.249 670.573 148.584 670.243 148.894C669.913 149.194 669.518 149.439 669.058 149.629C668.608 149.809 668.108 149.899 667.558 149.899ZM674.897 149.719L672.137 141.679H673.412L675.692 148.714H675.242L677.387 141.679H678.512L680.657 148.714H680.207L682.502 141.679H683.762L681.002 149.719H679.877L677.792 142.834H678.107L676.022 149.719H674.897ZM687.112 149.899C686.602 149.899 686.147 149.804 685.747 149.614C685.347 149.414 685.032 149.144 684.802 148.804C684.572 148.464 684.457 148.074 684.457 147.634C684.457 147.214 684.547 146.834 684.727 146.494C684.907 146.144 685.187 145.849 685.567 145.609C685.947 145.369 686.432 145.199 687.022 145.099L690.172 144.574V145.594L687.292 146.074C686.712 146.174 686.292 146.359 686.032 146.629C685.782 146.899 685.657 147.219 685.657 147.589C685.657 147.949 685.797 148.254 686.077 148.504C686.367 148.754 686.737 148.879 687.187 148.879C687.737 148.879 688.217 148.764 688.627 148.534C689.037 148.294 689.357 147.974 689.587 147.574C689.817 147.174 689.932 146.729 689.932 146.239V144.199C689.932 143.719 689.757 143.329 689.407 143.029C689.057 142.729 688.602 142.579 688.042 142.579C687.552 142.579 687.122 142.704 686.752 142.954C686.382 143.194 686.107 143.509 685.927 143.899L684.907 143.344C685.057 143.004 685.292 142.694 685.612 142.414C685.942 142.134 686.317 141.914 686.737 141.754C687.157 141.584 687.592 141.499 688.042 141.499C688.632 141.499 689.152 141.614 689.602 141.844C690.062 142.074 690.417 142.394 690.667 142.804C690.927 143.204 691.057 143.669 691.057 144.199V149.719H689.932V148.114L690.097 148.279C689.957 148.579 689.737 148.854 689.437 149.104C689.147 149.344 688.802 149.539 688.402 149.689C688.012 149.829 687.582 149.899 687.112 149.899ZM693.371 149.719V141.679H694.496V142.999L694.346 142.804C694.536 142.424 694.821 142.124 695.201 141.904C695.591 141.684 696.061 141.574 696.611 141.574H697.121V142.699H696.416C695.836 142.699 695.371 142.879 695.021 143.239C694.671 143.599 694.496 144.109 694.496 144.769V149.719H693.371ZM702.069 149.899C701.319 149.899 700.644 149.719 700.044 149.359C699.444 148.989 698.969 148.489 698.619 147.859C698.279 147.219 698.109 146.499 698.109 145.699C698.109 144.889 698.279 144.169 698.619 143.539C698.969 142.909 699.439 142.414 700.029 142.054C700.629 141.684 701.309 141.499 702.069 141.499C702.759 141.499 703.374 141.649 703.914 141.949C704.454 142.249 704.879 142.654 705.189 143.164L705.009 143.479V138.364H706.134V149.719H705.009V147.919L705.189 148.084C704.909 148.664 704.489 149.114 703.929 149.434C703.379 149.744 702.759 149.899 702.069 149.899ZM702.129 148.774C702.669 148.774 703.154 148.639 703.584 148.369C704.024 148.099 704.369 147.734 704.619 147.274C704.879 146.804 705.009 146.279 705.009 145.699C705.009 145.119 704.879 144.599 704.619 144.139C704.369 143.669 704.024 143.299 703.584 143.029C703.154 142.759 702.669 142.624 702.129 142.624C701.599 142.624 701.119 142.759 700.689 143.029C700.259 143.299 699.919 143.664 699.669 144.124C699.429 144.584 699.309 145.109 699.309 145.699C699.309 146.279 699.429 146.804 699.669 147.274C699.919 147.734 700.254 148.099 700.674 148.369C701.104 148.639 701.589 148.774 702.129 148.774ZM711.234 149.899C710.464 149.899 709.789 149.704 709.209 149.314C708.629 148.924 708.209 148.394 707.949 147.724L708.894 147.274C709.124 147.764 709.444 148.154 709.854 148.444C710.274 148.734 710.734 148.879 711.234 148.879C711.714 148.879 712.119 148.764 712.449 148.534C712.779 148.294 712.944 147.984 712.944 147.604C712.944 147.324 712.864 147.104 712.704 146.944C712.544 146.774 712.359 146.644 712.149 146.554C711.939 146.464 711.754 146.399 711.594 146.359L710.439 146.029C709.699 145.819 709.164 145.524 708.834 145.144C708.504 144.764 708.339 144.324 708.339 143.824C708.339 143.354 708.459 142.944 708.699 142.594C708.939 142.244 709.264 141.974 709.674 141.784C710.084 141.594 710.539 141.499 711.039 141.499C711.719 141.499 712.334 141.679 712.884 142.039C713.444 142.389 713.839 142.879 714.069 143.509L713.109 143.959C712.909 143.509 712.619 143.159 712.239 142.909C711.869 142.649 711.454 142.519 710.994 142.519C710.544 142.519 710.184 142.634 709.914 142.864C709.644 143.094 709.509 143.384 709.509 143.734C709.509 144.004 709.579 144.219 709.719 144.379C709.859 144.539 710.019 144.659 710.199 144.739C710.389 144.819 710.554 144.879 710.694 144.919L712.029 145.309C712.679 145.499 713.184 145.794 713.544 146.194C713.914 146.594 714.099 147.064 714.099 147.604C714.099 148.044 713.974 148.439 713.724 148.789C713.484 149.139 713.149 149.414 712.719 149.614C712.289 149.804 711.794 149.899 711.234 149.899Z" fill="white" fill-opacity="0.6"/>
<path d="M605.395 170.354C604.785 170.354 604.205 170.244 603.655 170.024C603.115 169.794 602.65 169.474 602.26 169.064C601.88 168.644 601.62 168.149 601.48 167.579L603.265 166.949C603.445 167.459 603.72 167.849 604.09 168.119C604.46 168.379 604.895 168.509 605.395 168.509C605.795 168.509 606.14 168.434 606.43 168.284C606.73 168.134 606.965 167.919 607.135 167.639C607.305 167.349 607.39 167.009 607.39 166.619C607.39 166.229 607.305 165.899 607.135 165.629C606.975 165.349 606.745 165.134 606.445 164.984C606.145 164.834 605.79 164.759 605.38 164.759C605.19 164.759 604.99 164.779 604.78 164.819C604.58 164.859 604.4 164.919 604.24 164.999L603.775 164.024L606.67 160.724H602.11V158.999H608.965V160.604L606.055 164.009L606.085 163.244C606.755 163.254 607.34 163.399 607.84 163.679C608.34 163.959 608.73 164.344 609.01 164.834C609.29 165.324 609.43 165.899 609.43 166.559C609.43 167.279 609.255 167.929 608.905 168.509C608.555 169.079 608.075 169.529 607.465 169.859C606.855 170.189 606.165 170.354 605.395 170.354ZM615.48 170.354C614.59 170.354 613.81 170.114 613.14 169.634C612.47 169.154 611.945 168.479 611.565 167.609C611.195 166.739 611.01 165.729 611.01 164.579C611.01 163.419 611.195 162.409 611.565 161.549C611.935 160.689 612.455 160.019 613.125 159.539C613.795 159.059 614.575 158.819 615.465 158.819C616.375 158.819 617.16 159.059 617.82 159.539C618.49 160.019 619.015 160.694 619.395 161.564C619.775 162.424 619.965 163.429 619.965 164.579C619.965 165.729 619.775 166.739 619.395 167.609C619.025 168.469 618.505 169.144 617.835 169.634C617.165 170.114 616.38 170.354 615.48 170.354ZM615.495 168.494C616.005 168.494 616.44 168.339 616.8 168.029C617.16 167.709 617.435 167.259 617.625 166.679C617.825 166.089 617.925 165.389 617.925 164.579C617.925 163.769 617.825 163.074 617.625 162.494C617.435 161.904 617.155 161.454 616.785 161.144C616.425 160.834 615.985 160.679 615.465 160.679C614.965 160.679 614.535 160.834 614.175 161.144C613.815 161.454 613.535 161.904 613.335 162.494C613.145 163.074 613.05 163.769 613.05 164.579C613.05 165.379 613.145 166.074 613.335 166.664C613.535 167.244 613.815 167.694 614.175 168.014C614.545 168.334 614.985 168.494 615.495 168.494ZM623.085 170.174L632.145 158.999H634.245L625.185 170.174H623.085ZM624.825 164.669C624.275 164.669 623.775 164.539 623.325 164.279C622.885 164.009 622.535 163.654 622.275 163.214C622.015 162.774 621.885 162.284 621.885 161.744C621.885 161.204 622.015 160.714 622.275 160.274C622.535 159.824 622.885 159.469 623.325 159.209C623.775 158.949 624.275 158.819 624.825 158.819C625.385 158.819 625.885 158.949 626.325 159.209C626.765 159.469 627.115 159.824 627.375 160.274C627.635 160.714 627.765 161.204 627.765 161.744C627.765 162.284 627.635 162.774 627.375 163.214C627.115 163.654 626.765 164.009 626.325 164.279C625.885 164.539 625.385 164.669 624.825 164.669ZM624.825 163.154C625.125 163.154 625.375 163.089 625.575 162.959C625.775 162.819 625.925 162.644 626.025 162.434C626.135 162.214 626.19 161.984 626.19 161.744C626.19 161.494 626.135 161.264 626.025 161.054C625.925 160.844 625.775 160.669 625.575 160.529C625.375 160.389 625.125 160.319 624.825 160.319C624.545 160.319 624.3 160.389 624.09 160.529C623.89 160.669 623.735 160.849 623.625 161.069C623.515 161.279 623.46 161.504 623.46 161.744C623.46 161.974 623.515 162.199 623.625 162.419C623.735 162.639 623.89 162.819 624.09 162.959C624.3 163.089 624.545 163.154 624.825 163.154ZM632.445 170.354C631.895 170.354 631.395 170.224 630.945 169.964C630.505 169.694 630.155 169.339 629.895 168.899C629.635 168.459 629.505 167.969 629.505 167.429C629.505 166.889 629.635 166.399 629.895 165.959C630.155 165.509 630.505 165.154 630.945 164.894C631.395 164.634 631.895 164.504 632.445 164.504C633.005 164.504 633.505 164.634 633.945 164.894C634.385 165.154 634.735 165.509 634.995 165.959C635.255 166.399 635.385 166.889 635.385 167.429C635.385 167.969 635.255 168.459 634.995 168.899C634.735 169.339 634.385 169.694 633.945 169.964C633.505 170.224 633.005 170.354 632.445 170.354ZM632.445 168.839C632.735 168.839 632.98 168.774 633.18 168.644C633.39 168.504 633.545 168.329 633.645 168.119C633.755 167.899 633.81 167.669 633.81 167.429C633.81 167.179 633.755 166.949 633.645 166.739C633.545 166.529 633.39 166.354 633.18 166.214C632.98 166.074 632.735 166.004 632.445 166.004C632.165 166.004 631.92 166.074 631.71 166.214C631.51 166.354 631.355 166.534 631.245 166.754C631.135 166.964 631.08 167.189 631.08 167.429C631.08 167.659 631.135 167.884 631.245 168.104C631.355 168.324 631.51 168.504 631.71 168.644C631.92 168.774 632.165 168.839 632.445 168.839Z" fill="white"/>
<path d="M167.255 119.719V109.669H164.165V108.544H171.515V109.669H168.455V119.719H167.255ZM175.436 119.899C174.686 119.899 174.006 119.719 173.396 119.359C172.796 118.989 172.321 118.484 171.971 117.844C171.621 117.204 171.446 116.479 171.446 115.669C171.446 114.859 171.616 114.144 171.956 113.524C172.296 112.894 172.756 112.399 173.336 112.039C173.926 111.679 174.586 111.499 175.316 111.499C175.896 111.499 176.411 111.609 176.861 111.829C177.321 112.039 177.711 112.329 178.031 112.699C178.351 113.059 178.596 113.469 178.766 113.929C178.936 114.379 179.021 114.844 179.021 115.324C179.021 115.424 179.016 115.539 179.006 115.669C178.996 115.789 178.981 115.914 178.961 116.044H172.166V114.994H178.316L177.776 115.444C177.866 114.894 177.801 114.404 177.581 113.974C177.371 113.534 177.066 113.189 176.666 112.939C176.266 112.679 175.816 112.549 175.316 112.549C174.816 112.549 174.351 112.679 173.921 112.939C173.501 113.199 173.171 113.564 172.931 114.034C172.691 114.494 172.596 115.044 172.646 115.684C172.596 116.324 172.696 116.884 172.946 117.364C173.206 117.834 173.556 118.199 173.996 118.459C174.446 118.719 174.926 118.849 175.436 118.849C176.026 118.849 176.521 118.709 176.921 118.429C177.321 118.149 177.646 117.799 177.896 117.379L178.856 117.889C178.696 118.249 178.451 118.584 178.121 118.894C177.791 119.194 177.396 119.439 176.936 119.629C176.486 119.809 175.986 119.899 175.436 119.899ZM183.183 119.899C182.673 119.899 182.218 119.804 181.818 119.614C181.418 119.414 181.103 119.144 180.873 118.804C180.643 118.464 180.528 118.074 180.528 117.634C180.528 117.214 180.618 116.834 180.798 116.494C180.978 116.144 181.258 115.849 181.638 115.609C182.018 115.369 182.503 115.199 183.093 115.099L186.243 114.574V115.594L183.363 116.074C182.783 116.174 182.363 116.359 182.103 116.629C181.853 116.899 181.728 117.219 181.728 117.589C181.728 117.949 181.868 118.254 182.148 118.504C182.438 118.754 182.808 118.879 183.258 118.879C183.808 118.879 184.288 118.764 184.698 118.534C185.108 118.294 185.428 117.974 185.658 117.574C185.888 117.174 186.003 116.729 186.003 116.239V114.199C186.003 113.719 185.828 113.329 185.478 113.029C185.128 112.729 184.673 112.579 184.113 112.579C183.623 112.579 183.193 112.704 182.823 112.954C182.453 113.194 182.178 113.509 181.998 113.899L180.978 113.344C181.128 113.004 181.363 112.694 181.683 112.414C182.013 112.134 182.388 111.914 182.808 111.754C183.228 111.584 183.663 111.499 184.113 111.499C184.703 111.499 185.223 111.614 185.673 111.844C186.133 112.074 186.488 112.394 186.738 112.804C186.998 113.204 187.128 113.669 187.128 114.199V119.719H186.003V118.114L186.168 118.279C186.028 118.579 185.808 118.854 185.508 119.104C185.218 119.344 184.873 119.539 184.473 119.689C184.083 119.829 183.653 119.899 183.183 119.899ZM189.442 119.719V111.679H190.567V113.209L190.387 112.984C190.607 112.514 190.932 112.149 191.362 111.889C191.802 111.629 192.282 111.499 192.802 111.499C193.422 111.499 193.982 111.674 194.482 112.024C194.982 112.374 195.337 112.829 195.547 113.389L195.232 113.404C195.432 112.784 195.777 112.314 196.267 111.994C196.767 111.664 197.317 111.499 197.917 111.499C198.457 111.499 198.952 111.629 199.402 111.889C199.862 112.149 200.227 112.509 200.497 112.969C200.777 113.419 200.917 113.929 200.917 114.499V119.719H199.792V114.934C199.792 114.444 199.702 114.029 199.522 113.689C199.352 113.349 199.117 113.089 198.817 112.909C198.517 112.719 198.172 112.624 197.782 112.624C197.402 112.624 197.057 112.719 196.747 112.909C196.437 113.089 196.192 113.354 196.012 113.704C195.832 114.044 195.742 114.454 195.742 114.934V119.719H194.617V114.934C194.617 114.444 194.527 114.029 194.347 113.689C194.177 113.349 193.942 113.089 193.642 112.909C193.342 112.719 192.997 112.624 192.607 112.624C192.217 112.624 191.867 112.719 191.557 112.909C191.257 113.089 191.017 113.354 190.837 113.704C190.657 114.044 190.567 114.454 190.567 114.934V119.719H189.442Z" fill="white" fill-opacity="0.6"/>
<path d="M472.405 476.719V466.669H469.315V465.544H476.665V466.669H473.605V476.719H472.405ZM477.087 476.719V468.679H478.212V469.999L478.062 469.804C478.252 469.424 478.537 469.124 478.917 468.904C479.307 468.684 479.777 468.574 480.327 468.574H480.837V469.699H480.132C479.552 469.699 479.087 469.879 478.737 470.239C478.387 470.599 478.212 471.109 478.212 471.769V476.719H477.087ZM485.815 476.899C485.065 476.899 484.385 476.719 483.775 476.359C483.175 475.989 482.7 475.484 482.35 474.844C482 474.204 481.825 473.479 481.825 472.669C481.825 471.859 481.995 471.144 482.335 470.524C482.675 469.894 483.135 469.399 483.715 469.039C484.305 468.679 484.965 468.499 485.695 468.499C486.275 468.499 486.79 468.609 487.24 468.829C487.7 469.039 488.09 469.329 488.41 469.699C488.73 470.059 488.975 470.469 489.145 470.929C489.315 471.379 489.4 471.844 489.4 472.324C489.4 472.424 489.395 472.539 489.385 472.669C489.375 472.789 489.36 472.914 489.34 473.044H482.545V471.994H488.695L488.155 472.444C488.245 471.894 488.18 471.404 487.96 470.974C487.75 470.534 487.445 470.189 487.045 469.939C486.645 469.679 486.195 469.549 485.695 469.549C485.195 469.549 484.73 469.679 484.3 469.939C483.88 470.199 483.55 470.564 483.31 471.034C483.07 471.494 482.975 472.044 483.025 472.684C482.975 473.324 483.075 473.884 483.325 474.364C483.585 474.834 483.935 475.199 484.375 475.459C484.825 475.719 485.305 475.849 485.815 475.849C486.405 475.849 486.9 475.709 487.3 475.429C487.7 475.149 488.025 474.799 488.275 474.379L489.235 474.889C489.075 475.249 488.83 475.584 488.5 475.894C488.17 476.194 487.775 476.439 487.315 476.629C486.865 476.809 486.365 476.899 485.815 476.899ZM493.563 476.899C493.053 476.899 492.598 476.804 492.198 476.614C491.798 476.414 491.483 476.144 491.253 475.804C491.023 475.464 490.908 475.074 490.908 474.634C490.908 474.214 490.998 473.834 491.178 473.494C491.358 473.144 491.638 472.849 492.018 472.609C492.398 472.369 492.883 472.199 493.473 472.099L496.623 471.574V472.594L493.743 473.074C493.163 473.174 492.743 473.359 492.483 473.629C492.233 473.899 492.108 474.219 492.108 474.589C492.108 474.949 492.248 475.254 492.528 475.504C492.818 475.754 493.188 475.879 493.638 475.879C494.188 475.879 494.668 475.764 495.078 475.534C495.488 475.294 495.808 474.974 496.038 474.574C496.268 474.174 496.383 473.729 496.383 473.239V471.199C496.383 470.719 496.208 470.329 495.858 470.029C495.508 469.729 495.053 469.579 494.493 469.579C494.003 469.579 493.573 469.704 493.203 469.954C492.833 470.194 492.558 470.509 492.378 470.899L491.358 470.344C491.508 470.004 491.743 469.694 492.063 469.414C492.393 469.134 492.768 468.914 493.188 468.754C493.608 468.584 494.043 468.499 494.493 468.499C495.083 468.499 495.603 468.614 496.053 468.844C496.513 469.074 496.868 469.394 497.118 469.804C497.378 470.204 497.508 470.669 497.508 471.199V476.719H496.383V475.114L496.548 475.279C496.408 475.579 496.188 475.854 495.888 476.104C495.598 476.344 495.253 476.539 494.853 476.689C494.463 476.829 494.033 476.899 493.563 476.899ZM502.612 476.899C501.842 476.899 501.167 476.704 500.587 476.314C500.007 475.924 499.587 475.394 499.327 474.724L500.272 474.274C500.502 474.764 500.822 475.154 501.232 475.444C501.652 475.734 502.112 475.879 502.612 475.879C503.092 475.879 503.497 475.764 503.827 475.534C504.157 475.294 504.322 474.984 504.322 474.604C504.322 474.324 504.242 474.104 504.082 473.944C503.922 473.774 503.737 473.644 503.527 473.554C503.317 473.464 503.132 473.399 502.972 473.359L501.817 473.029C501.077 472.819 500.542 472.524 500.212 472.144C499.882 471.764 499.717 471.324 499.717 470.824C499.717 470.354 499.837 469.944 500.077 469.594C500.317 469.244 500.642 468.974 501.052 468.784C501.462 468.594 501.917 468.499 502.417 468.499C503.097 468.499 503.712 468.679 504.262 469.039C504.822 469.389 505.217 469.879 505.447 470.509L504.487 470.959C504.287 470.509 503.997 470.159 503.617 469.909C503.247 469.649 502.832 469.519 502.372 469.519C501.922 469.519 501.562 469.634 501.292 469.864C501.022 470.094 500.887 470.384 500.887 470.734C500.887 471.004 500.957 471.219 501.097 471.379C501.237 471.539 501.397 471.659 501.577 471.739C501.767 471.819 501.932 471.879 502.072 471.919L503.407 472.309C504.057 472.499 504.562 472.794 504.922 473.194C505.292 473.594 505.477 474.064 505.477 474.604C505.477 475.044 505.352 475.439 505.102 475.789C504.862 476.139 504.527 476.414 504.097 476.614C503.667 476.804 503.172 476.899 502.612 476.899ZM510.303 476.899C509.743 476.899 509.233 476.769 508.773 476.509C508.313 476.239 507.948 475.869 507.678 475.399C507.418 474.919 507.288 474.369 507.288 473.749V468.679H508.413V473.614C508.413 474.044 508.498 474.424 508.668 474.754C508.848 475.074 509.093 475.324 509.403 475.504C509.723 475.684 510.088 475.774 510.498 475.774C510.908 475.774 511.273 475.684 511.593 475.504C511.913 475.314 512.163 475.049 512.343 474.709C512.523 474.359 512.613 473.944 512.613 473.464V468.679H513.738V476.719H512.613V475.159L512.868 475.219C512.678 475.739 512.353 476.149 511.893 476.449C511.433 476.749 510.903 476.899 510.303 476.899ZM516.052 476.719V468.679H517.177V469.999L517.027 469.804C517.217 469.424 517.502 469.124 517.882 468.904C518.272 468.684 518.742 468.574 519.292 468.574H519.802V469.699H519.097C518.517 469.699 518.052 469.879 517.702 470.239C517.352 470.599 517.177 471.109 517.177 471.769V476.719H516.052ZM524.78 476.899C524.03 476.899 523.35 476.719 522.74 476.359C522.14 475.989 521.665 475.484 521.315 474.844C520.965 474.204 520.79 473.479 520.79 472.669C520.79 471.859 520.96 471.144 521.3 470.524C521.64 469.894 522.1 469.399 522.68 469.039C523.27 468.679 523.93 468.499 524.66 468.499C525.24 468.499 525.755 468.609 526.205 468.829C526.665 469.039 527.055 469.329 527.375 469.699C527.695 470.059 527.94 470.469 528.11 470.929C528.28 471.379 528.365 471.844 528.365 472.324C528.365 472.424 528.36 472.539 528.35 472.669C528.34 472.789 528.325 472.914 528.305 473.044H521.51V471.994H527.66L527.12 472.444C527.21 471.894 527.145 471.404 526.925 470.974C526.715 470.534 526.41 470.189 526.01 469.939C525.61 469.679 525.16 469.549 524.66 469.549C524.16 469.549 523.695 469.679 523.265 469.939C522.845 470.199 522.515 470.564 522.275 471.034C522.035 471.494 521.94 472.044 521.99 472.684C521.94 473.324 522.04 473.884 522.29 474.364C522.55 474.834 522.9 475.199 523.34 475.459C523.79 475.719 524.27 475.849 524.78 475.849C525.37 475.849 525.865 475.709 526.265 475.429C526.665 475.149 526.99 474.799 527.24 474.379L528.2 474.889C528.04 475.249 527.795 475.584 527.465 475.894C527.135 476.194 526.74 476.439 526.28 476.629C525.83 476.809 525.33 476.899 524.78 476.899Z" fill="white" fill-opacity="0.6"/>
<path d="M239.33 83.7188L243.41 72.5437H244.7L248.78 83.7188H247.52L246.56 80.9887H241.565L240.59 83.7188H239.33ZM241.955 79.8638H246.14L243.875 73.4437H244.235L241.955 79.8638ZM253.442 83.8988C252.692 83.8988 252.017 83.7188 251.417 83.3587C250.817 82.9887 250.342 82.4887 249.992 81.8587C249.652 81.2187 249.482 80.4987 249.482 79.6987C249.482 78.8887 249.652 78.1687 249.992 77.5387C250.342 76.9087 250.812 76.4137 251.402 76.0537C252.002 75.6837 252.682 75.4987 253.442 75.4987C254.132 75.4987 254.747 75.6487 255.287 75.9487C255.827 76.2487 256.252 76.6537 256.562 77.1637L256.382 77.4787V72.3637H257.507V83.7188H256.382V81.9187L256.562 82.0837C256.282 82.6637 255.862 83.1137 255.302 83.4337C254.752 83.7437 254.132 83.8988 253.442 83.8988ZM253.502 82.7737C254.042 82.7737 254.527 82.6387 254.957 82.3687C255.397 82.0987 255.742 81.7337 255.992 81.2737C256.252 80.8037 256.382 80.2787 256.382 79.6987C256.382 79.1187 256.252 78.5987 255.992 78.1387C255.742 77.6687 255.397 77.2987 254.957 77.0287C254.527 76.7587 254.042 76.6237 253.502 76.6237C252.972 76.6237 252.492 76.7587 252.062 77.0287C251.632 77.2987 251.292 77.6637 251.042 78.1237C250.802 78.5837 250.682 79.1087 250.682 79.6987C250.682 80.2787 250.802 80.8037 251.042 81.2737C251.292 81.7337 251.627 82.0987 252.047 82.3687C252.477 82.6387 252.962 82.7737 253.502 82.7737ZM261.962 83.7188L258.827 75.6787H260.087L262.727 82.7288H262.322L264.977 75.6787H266.252L263.087 83.7188H261.962ZM267.566 83.7188V75.6787H268.691V83.7188H267.566ZM267.566 74.1937V72.5437H268.691V74.1937H267.566ZM273.784 83.8988C273.014 83.8988 272.339 83.7037 271.759 83.3137C271.179 82.9238 270.759 82.3937 270.499 81.7237L271.444 81.2737C271.674 81.7637 271.994 82.1537 272.404 82.4437C272.824 82.7337 273.284 82.8787 273.784 82.8787C274.264 82.8787 274.669 82.7637 274.999 82.5337C275.329 82.2937 275.494 81.9837 275.494 81.6037C275.494 81.3237 275.414 81.1037 275.254 80.9437C275.094 80.7737 274.909 80.6437 274.699 80.5537C274.489 80.4637 274.304 80.3987 274.144 80.3587L272.989 80.0287C272.249 79.8187 271.714 79.5237 271.384 79.1437C271.054 78.7637 270.889 78.3237 270.889 77.8237C270.889 77.3537 271.009 76.9437 271.249 76.5937C271.489 76.2437 271.814 75.9737 272.224 75.7837C272.634 75.5937 273.089 75.4987 273.589 75.4987C274.269 75.4987 274.884 75.6787 275.434 76.0387C275.994 76.3887 276.389 76.8787 276.619 77.5087L275.659 77.9587C275.459 77.5087 275.169 77.1587 274.789 76.9087C274.419 76.6487 274.004 76.5187 273.544 76.5187C273.094 76.5187 272.734 76.6337 272.464 76.8637C272.194 77.0937 272.059 77.3837 272.059 77.7337C272.059 78.0037 272.129 78.2187 272.269 78.3787C272.409 78.5387 272.569 78.6587 272.749 78.7387C272.939 78.8187 273.104 78.8787 273.244 78.9187L274.579 79.3088C275.229 79.4987 275.734 79.7937 276.094 80.1937C276.464 80.5937 276.649 81.0637 276.649 81.6037C276.649 82.0437 276.524 82.4387 276.274 82.7887C276.034 83.1387 275.699 83.4137 275.269 83.6137C274.839 83.8037 274.344 83.8988 273.784 83.8988ZM282.391 83.8988C281.631 83.8988 280.941 83.7188 280.321 83.3587C279.701 82.9887 279.206 82.4887 278.836 81.8587C278.476 81.2187 278.296 80.4937 278.296 79.6837C278.296 78.8837 278.476 78.1687 278.836 77.5387C279.196 76.9087 279.681 76.4137 280.291 76.0537C280.911 75.6837 281.611 75.4987 282.391 75.4987C283.171 75.4987 283.866 75.6787 284.476 76.0387C285.096 76.3987 285.581 76.8937 285.931 77.5237C286.291 78.1537 286.471 78.8737 286.471 79.6837C286.471 80.5037 286.286 81.2337 285.916 81.8737C285.546 82.5037 285.051 82.9987 284.431 83.3587C283.821 83.7188 283.141 83.8988 282.391 83.8988ZM282.391 82.7737C282.931 82.7737 283.416 82.6387 283.846 82.3687C284.286 82.0987 284.631 81.7287 284.881 81.2587C285.141 80.7887 285.271 80.2637 285.271 79.6837C285.271 79.1037 285.141 78.5837 284.881 78.1237C284.631 77.6637 284.286 77.2987 283.846 77.0287C283.416 76.7587 282.931 76.6237 282.391 76.6237C281.851 76.6237 281.361 76.7587 280.921 77.0287C280.491 77.2987 280.146 77.6637 279.886 78.1237C279.626 78.5837 279.496 79.1037 279.496 79.6837C279.496 80.2637 279.626 80.7887 279.886 81.2587C280.146 81.7287 280.491 82.0987 280.921 82.3687C281.361 82.6387 281.851 82.7737 282.391 82.7737ZM288.455 83.7188V75.6787H289.58V76.9987L289.43 76.8037C289.62 76.4237 289.905 76.1237 290.285 75.9037C290.675 75.6837 291.145 75.5737 291.695 75.5737H292.205V76.6987H291.5C290.92 76.6987 290.455 76.8787 290.105 77.2387C289.755 77.5987 289.58 78.1087 289.58 78.7687V83.7188H288.455ZM296.313 83.8988C295.543 83.8988 294.868 83.7037 294.288 83.3137C293.708 82.9238 293.288 82.3937 293.028 81.7237L293.973 81.2737C294.203 81.7637 294.523 82.1537 294.933 82.4437C295.353 82.7337 295.813 82.8787 296.313 82.8787C296.793 82.8787 297.198 82.7637 297.528 82.5337C297.858 82.2937 298.023 81.9837 298.023 81.6037C298.023 81.3237 297.943 81.1037 297.783 80.9437C297.623 80.7737 297.438 80.6437 297.228 80.5537C297.018 80.4637 296.833 80.3987 296.673 80.3587L295.518 80.0287C294.778 79.8187 294.243 79.5237 293.913 79.1437C293.583 78.7637 293.418 78.3237 293.418 77.8237C293.418 77.3537 293.538 76.9437 293.778 76.5937C294.018 76.2437 294.343 75.9737 294.753 75.7837C295.163 75.5937 295.618 75.4987 296.118 75.4987C296.798 75.4987 297.413 75.6787 297.963 76.0387C298.523 76.3887 298.918 76.8787 299.148 77.5087L298.188 77.9587C297.988 77.5087 297.698 77.1587 297.318 76.9087C296.948 76.6487 296.533 76.5187 296.073 76.5187C295.623 76.5187 295.263 76.6337 294.993 76.8637C294.723 77.0937 294.588 77.3837 294.588 77.7337C294.588 78.0037 294.658 78.2187 294.798 78.3787C294.938 78.5387 295.098 78.6587 295.278 78.7387C295.468 78.8187 295.633 78.8787 295.773 78.9187L297.108 79.3088C297.758 79.4987 298.263 79.7937 298.623 80.1937C298.993 80.5937 299.178 81.0637 299.178 81.6037C299.178 82.0437 299.053 82.4387 298.803 82.7887C298.563 83.1387 298.228 83.4137 297.798 83.6137C297.368 83.8037 296.873 83.8988 296.313 83.8988Z" fill="white" fill-opacity="0.6"/>
<path d="M239.69 103.537V101.992L242.72 98.8271C243.32 98.1971 243.78 97.6971 244.1 97.3271C244.43 96.9471 244.66 96.6221 244.79 96.3521C244.92 96.0821 244.985 95.8071 244.985 95.5271C244.985 95.0571 244.835 94.6871 244.535 94.4171C244.245 94.1471 243.87 94.0121 243.41 94.0121C242.93 94.0121 242.515 94.1521 242.165 94.4321C241.815 94.7021 241.56 95.1021 241.4 95.6321L239.615 95.0771C239.735 94.4871 239.98 93.9771 240.35 93.5471C240.72 93.1071 241.17 92.7721 241.7 92.5421C242.24 92.3021 242.81 92.1821 243.41 92.1821C244.13 92.1821 244.76 92.3121 245.3 92.5721C245.85 92.8321 246.275 93.1971 246.575 93.6671C246.885 94.1371 247.04 94.6871 247.04 95.3171C247.04 95.7171 246.965 96.1121 246.815 96.5021C246.665 96.8921 246.44 97.2921 246.14 97.7021C245.84 98.1021 245.45 98.5521 244.97 99.0521L242.345 101.812H247.19V103.537H239.69ZM249.795 103.537V101.437H251.775V103.537H249.795ZM259.289 103.537V101.077H254.159V99.3671L259.169 92.3621H261.299V99.3671H262.934V101.077H261.299V103.537H259.289ZM255.659 100.102L255.299 99.3671H259.289V93.9671L259.814 94.1321L255.659 100.102ZM265.729 103.537L274.789 92.3621H276.889L267.829 103.537H265.729ZM267.469 98.0321C266.919 98.0321 266.419 97.9021 265.969 97.6421C265.529 97.3721 265.179 97.0171 264.919 96.5771C264.659 96.1371 264.529 95.6471 264.529 95.1071C264.529 94.5671 264.659 94.0771 264.919 93.6371C265.179 93.1871 265.529 92.8321 265.969 92.5721C266.419 92.3121 266.919 92.1821 267.469 92.1821C268.029 92.1821 268.529 92.3121 268.969 92.5721C269.409 92.8321 269.759 93.1871 270.019 93.6371C270.279 94.0771 270.409 94.5671 270.409 95.1071C270.409 95.6471 270.279 96.1371 270.019 96.5771C269.759 97.0171 269.409 97.3721 268.969 97.6421C268.529 97.9021 268.029 98.0321 267.469 98.0321ZM267.469 96.5171C267.769 96.5171 268.019 96.4521 268.219 96.3221C268.419 96.1821 268.569 96.0071 268.669 95.7971C268.779 95.5771 268.834 95.3471 268.834 95.1071C268.834 94.8571 268.779 94.6271 268.669 94.4171C268.569 94.2071 268.419 94.0321 268.219 93.8921C268.019 93.7521 267.769 93.6821 267.469 93.6821C267.189 93.6821 266.944 93.7521 266.734 93.8921C266.534 94.0321 266.379 94.2121 266.269 94.4321C266.159 94.6421 266.104 94.8671 266.104 95.1071C266.104 95.3371 266.159 95.5621 266.269 95.7821C266.379 96.0021 266.534 96.1821 266.734 96.3221C266.944 96.4521 267.189 96.5171 267.469 96.5171ZM275.089 103.717C274.539 103.717 274.039 103.587 273.589 103.327C273.149 103.057 272.799 102.702 272.539 102.262C272.279 101.822 272.149 101.332 272.149 100.792C272.149 100.252 272.279 99.7621 272.539 99.3221C272.799 98.8721 273.149 98.5171 273.589 98.2571C274.039 97.9971 274.539 97.8671 275.089 97.8671C275.649 97.8671 276.149 97.9971 276.589 98.2571C277.029 98.5171 277.379 98.8721 277.639 99.3221C277.899 99.7621 278.029 100.252 278.029 100.792C278.029 101.332 277.899 101.822 277.639 102.262C277.379 102.702 277.029 103.057 276.589 103.327C276.149 103.587 275.649 103.717 275.089 103.717ZM275.089 102.202C275.379 102.202 275.624 102.137 275.824 102.007C276.034 101.867 276.189 101.692 276.289 101.482C276.399 101.262 276.454 101.032 276.454 100.792C276.454 100.542 276.399 100.312 276.289 100.102C276.189 99.8921 276.034 99.7171 275.824 99.5771C275.624 99.4371 275.379 99.3671 275.089 99.3671C274.809 99.3671 274.564 99.4371 274.354 99.5771C274.154 99.7171 273.999 99.8971 273.889 100.117C273.779 100.327 273.724 100.552 273.724 100.792C273.724 101.022 273.779 101.247 273.889 101.467C273.999 101.687 274.154 101.867 274.354 102.007C274.564 102.137 274.809 102.202 275.089 102.202Z" fill="white"/>
<path d="M165.41 140.719L169.205 135.829L169.55 136.189C169.4 136.299 169.255 136.389 169.115 136.459C168.975 136.529 168.825 136.579 168.665 136.609C168.505 136.639 168.335 136.654 168.155 136.654C167.475 136.654 166.87 136.499 166.34 136.189C165.81 135.879 165.39 135.459 165.08 134.929C164.78 134.389 164.63 133.779 164.63 133.099C164.63 132.379 164.795 131.739 165.125 131.179C165.465 130.619 165.925 130.179 166.505 129.859C167.095 129.529 167.765 129.364 168.515 129.364C169.275 129.364 169.945 129.524 170.525 129.844C171.105 130.164 171.56 130.604 171.89 131.164C172.23 131.714 172.4 132.349 172.4 133.069C172.4 133.429 172.36 133.789 172.28 134.149C172.2 134.509 172.055 134.894 171.845 135.304C171.645 135.704 171.355 136.159 170.975 136.669L167.855 140.719H165.41ZM168.515 134.944C168.865 134.944 169.175 134.869 169.445 134.719C169.725 134.559 169.945 134.339 170.105 134.059C170.265 133.769 170.345 133.444 170.345 133.084C170.345 132.704 170.26 132.374 170.09 132.094C169.93 131.814 169.715 131.594 169.445 131.434C169.175 131.274 168.865 131.194 168.515 131.194C168.175 131.194 167.865 131.274 167.585 131.434C167.305 131.594 167.08 131.814 166.91 132.094C166.75 132.374 166.67 132.704 166.67 133.084C166.67 133.444 166.75 133.769 166.91 134.059C167.08 134.339 167.305 134.559 167.585 134.719C167.865 134.869 168.175 134.944 168.515 134.944ZM174.356 140.719V138.619H176.336V140.719H174.356ZM182.71 140.899C181.95 140.899 181.275 140.739 180.685 140.419C180.105 140.089 179.65 139.649 179.32 139.099C178.99 138.539 178.825 137.904 178.825 137.194C178.825 136.834 178.86 136.474 178.93 136.114C179.01 135.754 179.15 135.369 179.35 134.959C179.56 134.549 179.86 134.094 180.25 133.594L183.37 129.544H185.8L182.005 134.419L181.675 134.059C181.815 133.949 181.96 133.864 182.11 133.804C182.26 133.734 182.41 133.684 182.56 133.654C182.72 133.624 182.885 133.609 183.055 133.609C183.735 133.609 184.34 133.764 184.87 134.074C185.4 134.384 185.815 134.809 186.115 135.349C186.425 135.879 186.58 136.479 186.58 137.149C186.58 137.869 186.415 138.514 186.085 139.084C185.755 139.644 185.295 140.089 184.705 140.419C184.125 140.739 183.46 140.899 182.71 140.899ZM182.71 139.054C183.05 139.054 183.355 138.979 183.625 138.829C183.905 138.669 184.125 138.444 184.285 138.154C184.455 137.864 184.54 137.539 184.54 137.179C184.54 136.799 184.455 136.474 184.285 136.204C184.125 135.924 183.91 135.704 183.64 135.544C183.37 135.384 183.06 135.304 182.71 135.304C182.37 135.304 182.06 135.384 181.78 135.544C181.5 135.704 181.275 135.924 181.105 136.204C180.945 136.474 180.865 136.799 180.865 137.179C180.865 137.539 180.945 137.864 181.105 138.154C181.275 138.444 181.5 138.669 181.78 138.829C182.06 138.979 182.37 139.054 182.71 139.054ZM189.498 140.719L198.558 129.544H200.658L191.598 140.719H189.498ZM191.238 135.214C190.688 135.214 190.188 135.084 189.738 134.824C189.298 134.554 188.948 134.199 188.688 133.759C188.428 133.319 188.298 132.829 188.298 132.289C188.298 131.749 188.428 131.259 188.688 130.819C188.948 130.369 189.298 130.014 189.738 129.754C190.188 129.494 190.688 129.364 191.238 129.364C191.798 129.364 192.298 129.494 192.738 129.754C193.178 130.014 193.528 130.369 193.788 130.819C194.048 131.259 194.178 131.749 194.178 132.289C194.178 132.829 194.048 133.319 193.788 133.759C193.528 134.199 193.178 134.554 192.738 134.824C192.298 135.084 191.798 135.214 191.238 135.214ZM191.238 133.699C191.538 133.699 191.788 133.634 191.988 133.504C192.188 133.364 192.338 133.189 192.438 132.979C192.548 132.759 192.603 132.529 192.603 132.289C192.603 132.039 192.548 131.809 192.438 131.599C192.338 131.389 192.188 131.214 191.988 131.074C191.788 130.934 191.538 130.864 191.238 130.864C190.958 130.864 190.713 130.934 190.503 131.074C190.303 131.214 190.148 131.394 190.038 131.614C189.928 131.824 189.873 132.049 189.873 132.289C189.873 132.519 189.928 132.744 190.038 132.964C190.148 133.184 190.303 133.364 190.503 133.504C190.713 133.634 190.958 133.699 191.238 133.699ZM198.858 140.899C198.308 140.899 197.808 140.769 197.358 140.509C196.918 140.239 196.568 139.884 196.308 139.444C196.048 139.004 195.918 138.514 195.918 137.974C195.918 137.434 196.048 136.944 196.308 136.504C196.568 136.054 196.918 135.699 197.358 135.439C197.808 135.179 198.308 135.049 198.858 135.049C199.418 135.049 199.918 135.179 200.358 135.439C200.798 135.699 201.148 136.054 201.408 136.504C201.668 136.944 201.798 137.434 201.798 137.974C201.798 138.514 201.668 139.004 201.408 139.444C201.148 139.884 200.798 140.239 200.358 140.509C199.918 140.769 199.418 140.899 198.858 140.899ZM198.858 139.384C199.148 139.384 199.393 139.319 199.593 139.189C199.803 139.049 199.958 138.874 200.058 138.664C200.168 138.444 200.223 138.214 200.223 137.974C200.223 137.724 200.168 137.494 200.058 137.284C199.958 137.074 199.803 136.899 199.593 136.759C199.393 136.619 199.148 136.549 198.858 136.549C198.578 136.549 198.333 136.619 198.123 136.759C197.923 136.899 197.768 137.079 197.658 137.299C197.548 137.509 197.493 137.734 197.493 137.974C197.493 138.204 197.548 138.429 197.658 138.649C197.768 138.869 197.923 139.049 198.123 139.189C198.333 139.319 198.578 139.384 198.858 139.384Z" fill="white"/>
<path d="M469.69 497.956V496.411L472.72 493.246C473.32 492.616 473.78 492.116 474.1 491.746C474.43 491.366 474.66 491.041 474.79 490.771C474.92 490.501 474.985 490.226 474.985 489.946C474.985 489.476 474.835 489.106 474.535 488.836C474.245 488.566 473.87 488.431 473.41 488.431C472.93 488.431 472.515 488.571 472.165 488.851C471.815 489.121 471.56 489.521 471.4 490.051L469.615 489.496C469.735 488.906 469.98 488.396 470.35 487.966C470.72 487.526 471.17 487.191 471.7 486.961C472.24 486.721 472.81 486.601 473.41 486.601C474.13 486.601 474.76 486.731 475.3 486.991C475.85 487.251 476.275 487.616 476.575 488.086C476.885 488.556 477.04 489.106 477.04 489.736C477.04 490.136 476.965 490.531 476.815 490.921C476.665 491.311 476.44 491.711 476.14 492.121C475.84 492.521 475.45 492.971 474.97 493.471L472.345 496.231H477.19V497.956H469.69ZM478.64 497.956V496.411L481.67 493.246C482.27 492.616 482.73 492.116 483.05 491.746C483.38 491.366 483.61 491.041 483.74 490.771C483.87 490.501 483.935 490.226 483.935 489.946C483.935 489.476 483.785 489.106 483.485 488.836C483.195 488.566 482.82 488.431 482.36 488.431C481.88 488.431 481.465 488.571 481.115 488.851C480.765 489.121 480.51 489.521 480.35 490.051L478.565 489.496C478.685 488.906 478.93 488.396 479.3 487.966C479.67 487.526 480.12 487.191 480.65 486.961C481.19 486.721 481.76 486.601 482.36 486.601C483.08 486.601 483.71 486.731 484.25 486.991C484.8 487.251 485.225 487.616 485.525 488.086C485.835 488.556 485.99 489.106 485.99 489.736C485.99 490.136 485.915 490.531 485.765 490.921C485.615 491.311 485.39 491.711 485.09 492.121C484.79 492.521 484.4 492.971 483.92 493.471L481.295 496.231H486.14V497.956H478.64ZM488.745 497.956V495.856H490.725V497.956H488.745ZM497.309 498.136C496.499 498.136 495.794 497.986 495.194 497.686C494.604 497.376 494.144 496.961 493.814 496.441C493.494 495.921 493.334 495.351 493.334 494.731C493.334 494.001 493.529 493.386 493.919 492.886C494.309 492.376 494.874 492.001 495.614 491.761L495.494 492.256C494.964 492.086 494.544 491.756 494.234 491.266C493.934 490.776 493.784 490.236 493.784 489.646C493.784 489.056 493.934 488.531 494.234 488.071C494.534 487.611 494.949 487.251 495.479 486.991C496.009 486.731 496.619 486.601 497.309 486.601C497.989 486.601 498.589 486.731 499.109 486.991C499.639 487.251 500.054 487.611 500.354 488.071C500.664 488.531 500.819 489.056 500.819 489.646C500.819 490.246 500.664 490.791 500.354 491.281C500.054 491.761 499.639 492.091 499.109 492.271L499.004 491.746C499.744 492.006 500.309 492.391 500.699 492.901C501.089 493.401 501.284 494.016 501.284 494.746C501.284 495.366 501.119 495.936 500.789 496.456C500.469 496.966 500.009 497.376 499.409 497.686C498.819 497.986 498.119 498.136 497.309 498.136ZM497.309 496.411C497.699 496.411 498.039 496.341 498.329 496.201C498.619 496.051 498.844 495.846 499.004 495.586C499.164 495.316 499.244 495.011 499.244 494.671C499.244 494.321 499.164 494.021 499.004 493.771C498.844 493.511 498.619 493.311 498.329 493.171C498.039 493.021 497.699 492.946 497.309 492.946C496.919 492.946 496.579 493.021 496.289 493.171C496.009 493.311 495.789 493.511 495.629 493.771C495.469 494.021 495.389 494.321 495.389 494.671C495.389 495.011 495.469 495.316 495.629 495.586C495.789 495.846 496.009 496.051 496.289 496.201C496.579 496.341 496.919 496.411 497.309 496.411ZM497.309 491.221C497.599 491.221 497.854 491.156 498.074 491.026C498.294 490.896 498.464 490.726 498.584 490.516C498.714 490.296 498.779 490.046 498.779 489.766C498.779 489.486 498.714 489.241 498.584 489.031C498.464 488.811 498.294 488.641 498.074 488.521C497.854 488.391 497.599 488.326 497.309 488.326C497.019 488.326 496.759 488.391 496.529 488.521C496.309 488.641 496.134 488.811 496.004 489.031C495.884 489.241 495.824 489.486 495.824 489.766C495.824 490.046 495.884 490.296 496.004 490.516C496.134 490.726 496.309 490.896 496.529 491.026C496.759 491.156 497.019 491.221 497.309 491.221ZM504.342 497.956L513.402 486.781H515.502L506.442 497.956H504.342ZM506.082 492.451C505.532 492.451 505.032 492.321 504.582 492.061C504.142 491.791 503.792 491.436 503.532 490.996C503.272 490.556 503.142 490.066 503.142 489.526C503.142 488.986 503.272 488.496 503.532 488.056C503.792 487.606 504.142 487.251 504.582 486.991C505.032 486.731 505.532 486.601 506.082 486.601C506.642 486.601 507.142 486.731 507.582 486.991C508.022 487.251 508.372 487.606 508.632 488.056C508.892 488.496 509.022 488.986 509.022 489.526C509.022 490.066 508.892 490.556 508.632 490.996C508.372 491.436 508.022 491.791 507.582 492.061C507.142 492.321 506.642 492.451 506.082 492.451ZM506.082 490.936C506.382 490.936 506.632 490.871 506.832 490.741C507.032 490.601 507.182 490.426 507.282 490.216C507.392 489.996 507.447 489.766 507.447 489.526C507.447 489.276 507.392 489.046 507.282 488.836C507.182 488.626 507.032 488.451 506.832 488.311C506.632 488.171 506.382 488.101 506.082 488.101C505.802 488.101 505.557 488.171 505.347 488.311C505.147 488.451 504.992 488.631 504.882 488.851C504.772 489.061 504.717 489.286 504.717 489.526C504.717 489.756 504.772 489.981 504.882 490.201C504.992 490.421 505.147 490.601 505.347 490.741C505.557 490.871 505.802 490.936 506.082 490.936ZM513.702 498.136C513.152 498.136 512.652 498.006 512.202 497.746C511.762 497.476 511.412 497.121 511.152 496.681C510.892 496.241 510.762 495.751 510.762 495.211C510.762 494.671 510.892 494.181 511.152 493.741C511.412 493.291 511.762 492.936 512.202 492.676C512.652 492.416 513.152 492.286 513.702 492.286C514.262 492.286 514.762 492.416 515.202 492.676C515.642 492.936 515.992 493.291 516.252 493.741C516.512 494.181 516.642 494.671 516.642 495.211C516.642 495.751 516.512 496.241 516.252 496.681C515.992 497.121 515.642 497.476 515.202 497.746C514.762 498.006 514.262 498.136 513.702 498.136ZM513.702 496.621C513.992 496.621 514.237 496.556 514.437 496.426C514.647 496.286 514.802 496.111 514.902 495.901C515.012 495.681 515.067 495.451 515.067 495.211C515.067 494.961 515.012 494.731 514.902 494.521C514.802 494.311 514.647 494.136 514.437 493.996C514.237 493.856 513.992 493.786 513.702 493.786C513.422 493.786 513.177 493.856 512.967 493.996C512.767 494.136 512.612 494.316 512.502 494.536C512.392 494.746 512.337 494.971 512.337 495.211C512.337 495.441 512.392 495.666 512.502 495.886C512.612 496.106 512.767 496.286 512.967 496.426C513.177 496.556 513.422 496.621 513.702 496.621Z" fill="white"/>
<path d="M106.595 430.869V421.434H104.435V419.694H108.635V430.869H106.595ZM114.505 431.049C113.915 431.049 113.35 430.939 112.81 430.719C112.28 430.499 111.82 430.189 111.43 429.789C111.05 429.379 110.79 428.894 110.65 428.334L112.42 427.704C112.59 428.214 112.865 428.594 113.245 428.844C113.625 429.084 114.045 429.204 114.505 429.204C114.885 429.204 115.22 429.124 115.51 428.964C115.81 428.794 116.04 428.564 116.2 428.274C116.36 427.974 116.44 427.629 116.44 427.239C116.44 426.849 116.355 426.509 116.185 426.219C116.025 425.929 115.8 425.704 115.51 425.544C115.22 425.374 114.885 425.289 114.505 425.289C114.115 425.289 113.76 425.374 113.44 425.544C113.13 425.714 112.905 425.959 112.765 426.279L111.1 425.904L111.985 419.694H118.075V421.419H112.795L113.56 420.534L112.93 425.214L112.345 424.734C112.625 424.324 112.965 424.024 113.365 423.834C113.775 423.644 114.27 423.549 114.85 423.549C115.59 423.549 116.23 423.709 116.77 424.029C117.32 424.349 117.745 424.784 118.045 425.334C118.345 425.884 118.495 426.519 118.495 427.239C118.495 427.959 118.32 428.609 117.97 429.189C117.62 429.769 117.145 430.224 116.545 430.554C115.945 430.884 115.265 431.049 114.505 431.049ZM121.123 430.869V428.769H123.103V430.869H121.123ZM125.637 430.869V429.324L128.667 426.159C129.267 425.529 129.727 425.029 130.047 424.659C130.377 424.279 130.607 423.954 130.737 423.684C130.867 423.414 130.932 423.139 130.932 422.859C130.932 422.389 130.782 422.019 130.482 421.749C130.192 421.479 129.817 421.344 129.357 421.344C128.877 421.344 128.462 421.484 128.112 421.764C127.762 422.034 127.507 422.434 127.347 422.964L125.562 422.409C125.682 421.819 125.927 421.309 126.297 420.879C126.667 420.439 127.117 420.104 127.647 419.874C128.187 419.634 128.757 419.514 129.357 419.514C130.077 419.514 130.707 419.644 131.247 419.904C131.797 420.164 132.222 420.529 132.522 420.999C132.832 421.469 132.987 422.019 132.987 422.649C132.987 423.049 132.912 423.444 132.762 423.834C132.612 424.224 132.387 424.624 132.087 425.034C131.787 425.434 131.397 425.884 130.917 426.384L128.292 429.144H133.137V430.869H125.637ZM136.192 430.869L145.252 419.694H147.352L138.292 430.869H136.192ZM137.932 425.364C137.382 425.364 136.882 425.234 136.432 424.974C135.992 424.704 135.642 424.349 135.382 423.909C135.122 423.469 134.992 422.979 134.992 422.439C134.992 421.899 135.122 421.409 135.382 420.969C135.642 420.519 135.992 420.164 136.432 419.904C136.882 419.644 137.382 419.514 137.932 419.514C138.492 419.514 138.992 419.644 139.432 419.904C139.872 420.164 140.222 420.519 140.482 420.969C140.742 421.409 140.872 421.899 140.872 422.439C140.872 422.979 140.742 423.469 140.482 423.909C140.222 424.349 139.872 424.704 139.432 424.974C138.992 425.234 138.492 425.364 137.932 425.364ZM137.932 423.849C138.232 423.849 138.482 423.784 138.682 423.654C138.882 423.514 139.032 423.339 139.132 423.129C139.242 422.909 139.297 422.679 139.297 422.439C139.297 422.189 139.242 421.959 139.132 421.749C139.032 421.539 138.882 421.364 138.682 421.224C138.482 421.084 138.232 421.014 137.932 421.014C137.652 421.014 137.407 421.084 137.197 421.224C136.997 421.364 136.842 421.544 136.732 421.764C136.622 421.974 136.567 422.199 136.567 422.439C136.567 422.669 136.622 422.894 136.732 423.114C136.842 423.334 136.997 423.514 137.197 423.654C137.407 423.784 137.652 423.849 137.932 423.849ZM145.552 431.049C145.002 431.049 144.502 430.919 144.052 430.659C143.612 430.389 143.262 430.034 143.002 429.594C142.742 429.154 142.612 428.664 142.612 428.124C142.612 427.584 142.742 427.094 143.002 426.654C143.262 426.204 143.612 425.849 144.052 425.589C144.502 425.329 145.002 425.199 145.552 425.199C146.112 425.199 146.612 425.329 147.052 425.589C147.492 425.849 147.842 426.204 148.102 426.654C148.362 427.094 148.492 427.584 148.492 428.124C148.492 428.664 148.362 429.154 148.102 429.594C147.842 430.034 147.492 430.389 147.052 430.659C146.612 430.919 146.112 431.049 145.552 431.049ZM145.552 429.534C145.842 429.534 146.087 429.469 146.287 429.339C146.497 429.199 146.652 429.024 146.752 428.814C146.862 428.594 146.917 428.364 146.917 428.124C146.917 427.874 146.862 427.644 146.752 427.434C146.652 427.224 146.497 427.049 146.287 426.909C146.087 426.769 145.842 426.699 145.552 426.699C145.272 426.699 145.027 426.769 144.817 426.909C144.617 427.049 144.462 427.229 144.352 427.449C144.242 427.659 144.187 427.884 144.187 428.124C144.187 428.354 144.242 428.579 144.352 428.799C144.462 429.019 144.617 429.199 144.817 429.339C145.027 429.469 145.272 429.534 145.552 429.534Z" fill="white"/>
<path d="M53.595 305.312V295.877H51.435V294.137H55.635V305.312H53.595ZM62.3598 305.493C61.4698 305.493 60.6898 305.252 60.0198 304.772C59.3498 304.292 58.8248 303.617 58.4448 302.747C58.0748 301.877 57.8898 300.867 57.8898 299.717C57.8898 298.557 58.0748 297.547 58.4448 296.687C58.8148 295.827 59.3348 295.157 60.0048 294.677C60.6748 294.197 61.4548 293.957 62.3448 293.957C63.2548 293.957 64.0398 294.197 64.6998 294.677C65.3698 295.157 65.8948 295.832 66.2748 296.702C66.6548 297.562 66.8448 298.567 66.8448 299.717C66.8448 300.867 66.6548 301.877 66.2748 302.747C65.9048 303.607 65.3848 304.282 64.7148 304.772C64.0448 305.252 63.2598 305.493 62.3598 305.493ZM62.3748 303.632C62.8848 303.632 63.3198 303.477 63.6798 303.167C64.0398 302.847 64.3148 302.397 64.5048 301.817C64.7048 301.227 64.8048 300.527 64.8048 299.717C64.8048 298.907 64.7048 298.212 64.5048 297.632C64.3148 297.042 64.0348 296.592 63.6648 296.282C63.3048 295.972 62.8648 295.817 62.3448 295.817C61.8448 295.817 61.4148 295.972 61.0548 296.282C60.6948 296.592 60.4148 297.042 60.2148 297.632C60.0248 298.212 59.9298 298.907 59.9298 299.717C59.9298 300.517 60.0248 301.212 60.2148 301.802C60.4148 302.382 60.6948 302.832 61.0548 303.152C61.4248 303.472 61.8648 303.632 62.3748 303.632ZM69.9649 305.312L79.0249 294.137H81.1249L72.0649 305.312H69.9649ZM71.7049 299.807C71.1549 299.807 70.6549 299.677 70.2049 299.417C69.7649 299.147 69.4149 298.792 69.1549 298.352C68.8949 297.912 68.7649 297.422 68.7649 296.882C68.7649 296.342 68.8949 295.852 69.1549 295.412C69.4149 294.962 69.7649 294.607 70.2049 294.347C70.6549 294.087 71.1549 293.957 71.7049 293.957C72.2649 293.957 72.7649 294.087 73.2049 294.347C73.6449 294.607 73.9949 294.962 74.2549 295.412C74.5149 295.852 74.6449 296.342 74.6449 296.882C74.6449 297.422 74.5149 297.912 74.2549 298.352C73.9949 298.792 73.6449 299.147 73.2049 299.417C72.7649 299.677 72.2649 299.807 71.7049 299.807ZM71.7049 298.292C72.0049 298.292 72.2549 298.227 72.4549 298.097C72.6549 297.957 72.8049 297.782 72.9049 297.572C73.0149 297.352 73.0699 297.122 73.0699 296.882C73.0699 296.632 73.0149 296.402 72.9049 296.192C72.8049 295.982 72.6549 295.807 72.4549 295.667C72.2549 295.527 72.0049 295.457 71.7049 295.457C71.4249 295.457 71.1799 295.527 70.9699 295.667C70.7699 295.807 70.6149 295.987 70.5049 296.207C70.3949 296.417 70.3399 296.642 70.3399 296.882C70.3399 297.112 70.3949 297.337 70.5049 297.557C70.6149 297.777 70.7699 297.957 70.9699 298.097C71.1799 298.227 71.4249 298.292 71.7049 298.292ZM79.3249 305.493C78.7749 305.493 78.2749 305.362 77.8249 305.102C77.3849 304.832 77.0349 304.477 76.7749 304.037C76.5149 303.597 76.3849 303.107 76.3849 302.567C76.3849 302.027 76.5149 301.537 76.7749 301.097C77.0349 300.647 77.3849 300.292 77.8249 300.032C78.2749 299.772 78.7749 299.642 79.3249 299.642C79.8849 299.642 80.3849 299.772 80.8249 300.032C81.2649 300.292 81.6149 300.647 81.8749 301.097C82.1349 301.537 82.2649 302.027 82.2649 302.567C82.2649 303.107 82.1349 303.597 81.8749 304.037C81.6149 304.477 81.2649 304.832 80.8249 305.102C80.3849 305.362 79.8849 305.493 79.3249 305.493ZM79.3249 303.977C79.6149 303.977 79.8599 303.912 80.0599 303.782C80.2699 303.642 80.4249 303.467 80.5249 303.257C80.6349 303.037 80.6899 302.807 80.6899 302.567C80.6899 302.317 80.6349 302.087 80.5249 301.877C80.4249 301.667 80.2699 301.493 80.0599 301.353C79.8599 301.212 79.6149 301.142 79.3249 301.142C79.0449 301.142 78.7999 301.212 78.5899 301.353C78.3899 301.493 78.2349 301.672 78.1249 301.892C78.0149 302.102 77.9599 302.327 77.9599 302.567C77.9599 302.797 78.0149 303.022 78.1249 303.242C78.2349 303.462 78.3899 303.642 78.5899 303.782C78.7999 303.912 79.0449 303.977 79.3249 303.977Z" fill="white"/>
<path d="M2.595 207.85V198.415H0.435V196.675H4.635V207.85H2.595ZM11.3598 208.03C10.4698 208.03 9.6898 207.79 9.0198 207.31C8.3498 206.83 7.8248 206.155 7.4448 205.285C7.0748 204.415 6.8898 203.405 6.8898 202.255C6.8898 201.095 7.0748 200.085 7.4448 199.225C7.8148 198.365 8.3348 197.695 9.0048 197.215C9.6748 196.735 10.4548 196.495 11.3448 196.495C12.2548 196.495 13.0398 196.735 13.6998 197.215C14.3698 197.695 14.8948 198.37 15.2748 199.24C15.6548 200.1 15.8448 201.105 15.8448 202.255C15.8448 203.405 15.6548 204.415 15.2748 205.285C14.9048 206.145 14.3848 206.82 13.7148 207.31C13.0448 207.79 12.2598 208.03 11.3598 208.03ZM11.3748 206.17C11.8848 206.17 12.3198 206.015 12.6798 205.705C13.0398 205.385 13.3148 204.935 13.5048 204.355C13.7048 203.765 13.8048 203.065 13.8048 202.255C13.8048 201.445 13.7048 200.75 13.5048 200.17C13.3148 199.58 13.0348 199.13 12.6648 198.82C12.3048 198.51 11.8648 198.355 11.3448 198.355C10.8448 198.355 10.4148 198.51 10.0548 198.82C9.6948 199.13 9.4148 199.58 9.2148 200.17C9.0248 200.75 8.9298 201.445 8.9298 202.255C8.9298 203.055 9.0248 203.75 9.2148 204.34C9.4148 204.92 9.6948 205.37 10.0548 205.69C10.4248 206.01 10.8648 206.17 11.3748 206.17ZM18.9649 207.85L28.0249 196.675H30.1249L21.0649 207.85H18.9649ZM20.7049 202.345C20.1549 202.345 19.6549 202.215 19.2049 201.955C18.7649 201.685 18.4149 201.33 18.1549 200.89C17.8949 200.45 17.7649 199.96 17.7649 199.42C17.7649 198.88 17.8949 198.39 18.1549 197.95C18.4149 197.5 18.7649 197.145 19.2049 196.885C19.6549 196.625 20.1549 196.495 20.7049 196.495C21.2649 196.495 21.7649 196.625 22.2049 196.885C22.6449 197.145 22.9949 197.5 23.2549 197.95C23.5149 198.39 23.6449 198.88 23.6449 199.42C23.6449 199.96 23.5149 200.45 23.2549 200.89C22.9949 201.33 22.6449 201.685 22.2049 201.955C21.7649 202.215 21.2649 202.345 20.7049 202.345ZM20.7049 200.83C21.0049 200.83 21.2549 200.765 21.4549 200.635C21.6549 200.495 21.8049 200.32 21.9049 200.11C22.0149 199.89 22.0699 199.66 22.0699 199.42C22.0699 199.17 22.0149 198.94 21.9049 198.73C21.8049 198.52 21.6549 198.345 21.4549 198.205C21.2549 198.065 21.0049 197.995 20.7049 197.995C20.4249 197.995 20.1799 198.065 19.9699 198.205C19.7699 198.345 19.6149 198.525 19.5049 198.745C19.3949 198.955 19.3399 199.18 19.3399 199.42C19.3399 199.65 19.3949 199.875 19.5049 200.095C19.6149 200.315 19.7699 200.495 19.9699 200.635C20.1799 200.765 20.4249 200.83 20.7049 200.83ZM28.3249 208.03C27.7749 208.03 27.2749 207.9 26.8249 207.64C26.3849 207.37 26.0349 207.015 25.7749 206.575C25.5149 206.135 25.3849 205.645 25.3849 205.105C25.3849 204.565 25.5149 204.075 25.7749 203.635C26.0349 203.185 26.3849 202.83 26.8249 202.57C27.2749 202.31 27.7749 202.18 28.3249 202.18C28.8849 202.18 29.3849 202.31 29.8249 202.57C30.2649 202.83 30.6149 203.185 30.8749 203.635C31.1349 204.075 31.2649 204.565 31.2649 205.105C31.2649 205.645 31.1349 206.135 30.8749 206.575C30.6149 207.015 30.2649 207.37 29.8249 207.64C29.3849 207.9 28.8849 208.03 28.3249 208.03ZM28.3249 206.515C28.6149 206.515 28.8599 206.45 29.0599 206.32C29.2699 206.18 29.4249 206.005 29.5249 205.795C29.6349 205.575 29.6899 205.345 29.6899 205.105C29.6899 204.855 29.6349 204.625 29.5249 204.415C29.4249 204.205 29.2699 204.03 29.0599 203.89C28.8599 203.75 28.6149 203.68 28.3249 203.68C28.0449 203.68 27.7999 203.75 27.5899 203.89C27.3899 204.03 27.2349 204.21 27.1249 204.43C27.0149 204.64 26.9599 204.865 26.9599 205.105C26.9599 205.335 27.0149 205.56 27.1249 205.78C27.2349 206 27.3899 206.18 27.5899 206.32C27.7999 206.45 28.0449 206.515 28.3249 206.515Z" fill="white"/>
<g filter="url(#filter0_d_1067_756)">
<path d="M295.941 168.19C312.342 158.857 330.947 153.943 349.885 153.943V260.283L295.941 168.19Z" fill="#FF6700"/>
</g>
<g filter="url(#filter1_d_1067_756)">
<path d="M243.479 178.996C257.808 160.272 276.827 145.64 298.624 136.57L350.425 260.416L243.479 178.996Z" fill="#F9F871"/>
</g>
<g filter="url(#filter2_d_1067_756)">
<path d="M197.439 240.97C200.657 214.065 210.919 188.478 227.194 166.783L351.114 259.255L197.439 240.97Z" fill="#FFD14F"/>
</g>
<g filter="url(#filter3_d_1067_756)">
<path d="M191.654 319.014C180.426 292.867 176.297 264.233 179.681 235.99L341 255.22L191.654 319.014Z" fill="#FFA158"/>
</g>
<g filter="url(#filter4_d_1067_756)">
<path d="M272.901 424.39C250.627 415.471 230.332 402.263 213.176 385.521C196.02 368.778 182.338 348.83 172.911 326.814L341 255.219L272.901 424.39Z" fill="#FF6781"/>
</g>
<g filter="url(#filter5_d_1067_756)">
<path d="M518.73 353.222C494.36 397.186 454.48 430.549 406.832 446.833C359.185 463.118 307.17 461.161 260.887 441.344L341 255.219L518.73 353.222Z" fill="#FF2FBC"/>
</g>
<g filter="url(#filter6_d_1067_756)">
<path d="M341 32.4121C380.515 32.4121 419.322 42.8658 453.464 62.7068C487.606 82.5478 515.86 111.066 535.345 145.353C554.829 179.639 564.847 218.467 564.376 257.875C563.905 297.283 552.962 335.862 532.663 369.675L341 255.219V32.4121Z" fill="#FF3EFF"/>
</g>
<defs>
<filter id="filter0_d_1067_756" x="275.941" y="133.943" width="93.9443" height="146.34" filterUnits="userSpaceOnUse" color-interpolation-filters="sRGB">
<feFlood flood-opacity="0" result="BackgroundImageFix"/>
<feColorMatrix in="SourceAlpha" type="matrix" values="0 0 0 0 0 0 0 0 0 0 0 0 0 0 0 0 0 0 127 0" result="hardAlpha"/>
<feOffset/>
<feGaussianBlur stdDeviation="10"/>
<feComposite in2="hardAlpha" operator="out"/>
<feColorMatrix type="matrix" values="0 0 0 0 0 0 0 0 0 0 0 0 0 0 0 0 0 0 0.4 0"/>
<feBlend mode="normal" in2="BackgroundImageFix" result="effect1_dropShadow_1067_756"/>
<feBlend mode="normal" in="SourceGraphic" in2="effect1_dropShadow_1067_756" result="shape"/>
</filter>
<filter id="filter1_d_1067_756" x="223.479" y="116.57" width="146.947" height="163.846" filterUnits="userSpaceOnUse" color-interpolation-filters="sRGB">
<feFlood flood-opacity="0" result="BackgroundImageFix"/>
<feColorMatrix in="SourceAlpha" type="matrix" values="0 0 0 0 0 0 0 0 0 0 0 0 0 0 0 0 0 0 127 0" result="hardAlpha"/>
<feOffset/>
<feGaussianBlur stdDeviation="10"/>
<feComposite in2="hardAlpha" operator="out"/>
<feColorMatrix type="matrix" values="0 0 0 0 0 0 0 0 0 0 0 0 0 0 0 0 0 0 0.4 0"/>
<feBlend mode="normal" in2="BackgroundImageFix" result="effect1_dropShadow_1067_756"/>
<feBlend mode="normal" in="SourceGraphic" in2="effect1_dropShadow_1067_756" result="shape"/>
</filter>
<filter id="filter2_d_1067_756" x="177.438" y="146.783" width="193.675" height="132.472" filterUnits="userSpaceOnUse" color-interpolation-filters="sRGB">
<feFlood flood-opacity="0" result="BackgroundImageFix"/>
<feColorMatrix in="SourceAlpha" type="matrix" values="0 0 0 0 0 0 0 0 0 0 0 0 0 0 0 0 0 0 127 0" result="hardAlpha"/>
<feOffset/>
<feGaussianBlur stdDeviation="10"/>
<feComposite in2="hardAlpha" operator="out"/>
<feColorMatrix type="matrix" values="0 0 0 0 0 0 0 0 0 0 0 0 0 0 0 0 0 0 0.4 0"/>
<feBlend mode="normal" in2="BackgroundImageFix" result="effect1_dropShadow_1067_756"/>
<feBlend mode="normal" in="SourceGraphic" in2="effect1_dropShadow_1067_756" result="shape"/>
</filter>
<filter id="filter3_d_1067_756" x="158.533" y="215.989" width="202.467" height="123.025" filterUnits="userSpaceOnUse" color-interpolation-filters="sRGB">
<feFlood flood-opacity="0" result="BackgroundImageFix"/>
<feColorMatrix in="SourceAlpha" type="matrix" values="0 0 0 0 0 0 0 0 0 0 0 0 0 0 0 0 0 0 127 0" result="hardAlpha"/>
<feOffset/>
<feGaussianBlur stdDeviation="10"/>
<feComposite in2="hardAlpha" operator="out"/>
<feColorMatrix type="matrix" values="0 0 0 0 0 0 0 0 0 0 0 0 0 0 0 0 0 0 0.4 0"/>
<feBlend mode="normal" in2="BackgroundImageFix" result="effect1_dropShadow_1067_756"/>
<feBlend mode="normal" in="SourceGraphic" in2="effect1_dropShadow_1067_756" result="shape"/>
</filter>
<filter id="filter4_d_1067_756" x="152.911" y="235.219" width="208.089" height="209.171" filterUnits="userSpaceOnUse" color-interpolation-filters="sRGB">
<feFlood flood-opacity="0" result="BackgroundImageFix"/>
<feColorMatrix in="SourceAlpha" type="matrix" values="0 0 0 0 0 0 0 0 0 0 0 0 0 0 0 0 0 0 127 0" result="hardAlpha"/>
<feOffset/>
<feGaussianBlur stdDeviation="10"/>
<feComposite in2="hardAlpha" operator="out"/>
<feColorMatrix type="matrix" values="0 0 0 0 0 0 0 0 0 0 0 0 0 0 0 0 0 0 0.4 0"/>
<feBlend mode="normal" in2="BackgroundImageFix" result="effect1_dropShadow_1067_756"/>
<feBlend mode="normal" in="SourceGraphic" in2="effect1_dropShadow_1067_756" result="shape"/>
</filter>
<filter id="filter5_d_1067_756" x="240.888" y="235.219" width="297.842" height="242.552" filterUnits="userSpaceOnUse" color-interpolation-filters="sRGB">
<feFlood flood-opacity="0" result="BackgroundImageFix"/>
<feColorMatrix in="SourceAlpha" type="matrix" values="0 0 0 0 0 0 0 0 0 0 0 0 0 0 0 0 0 0 127 0" result="hardAlpha"/>
<feOffset/>
<feGaussianBlur stdDeviation="10"/>
<feComposite in2="hardAlpha" operator="out"/>
<feColorMatrix type="matrix" values="0 0 0 0 0 0 0 0 0 0 0 0 0 0 0 0 0 0 0.4 0"/>
<feBlend mode="normal" in2="BackgroundImageFix" result="effect1_dropShadow_1067_756"/>
<feBlend mode="normal" in="SourceGraphic" in2="effect1_dropShadow_1067_756" result="shape"/>
</filter>
<filter id="filter6_d_1067_756" x="321" y="12.4121" width="263.392" height="377.264" filterUnits="userSpaceOnUse" color-interpolation-filters="sRGB">
<feFlood flood-opacity="0" result="BackgroundImageFix"/>
<feColorMatrix in="SourceAlpha" type="matrix" values="0 0 0 0 0 0 0 0 0 0 0 0 0 0 0 0 0 0 127 0" result="hardAlpha"/>
<feOffset/>
<feGaussianBlur stdDeviation="10"/>
<feComposite in2="hardAlpha" operator="out"/>
<feColorMatrix type="matrix" values="0 0 0 0 0 0 0 0 0 0 0 0 0 0 0 0 0 0 0.4 0"/>
<feBlend mode="normal" in2="BackgroundImageFix" result="effect1_dropShadow_1067_756"/>
<feBlend mode="normal" in="SourceGraphic" in2="effect1_dropShadow_1067_756" result="shape"/>
</filter>
</defs>
</svg>
