<svg width="729" height="511" viewBox="0 0 729 511" fill="none" xmlns="http://www.w3.org/2000/svg">
<path d="M342.194 255.219L577.175 151.719H591.5M342.194 255.219L440.081 464.769L452.019 469.532M342.194 255.219L198.825 405.219H184.5M342.194 255.219L239.5 127.219H222.788M342.194 255.219L150 281.719H135.675M342.194 255.219L174.5 189.719H155.5M342.194 255.219L316 108.719H292.125" stroke="white" stroke-opacity="0.6" stroke-linejoin="round" stroke-dasharray="5 5"/>
<path d="M105.32 410.719V399.544H106.52V409.594H111.47V410.719H105.32ZM113.124 410.719V402.679H114.249V410.719H113.124ZM113.124 401.194V399.544H114.249V401.194H113.124ZM123.121 413.719V408.919L123.301 409.084C123.021 409.664 122.601 410.114 122.041 410.434C121.491 410.744 120.871 410.899 120.181 410.899C119.431 410.899 118.756 410.719 118.156 410.359C117.556 409.989 117.081 409.489 116.731 408.859C116.391 408.219 116.221 407.499 116.221 406.699C116.221 405.889 116.391 405.169 116.731 404.539C117.081 403.909 117.551 403.414 118.141 403.054C118.741 402.684 119.421 402.499 120.181 402.499C120.871 402.499 121.486 402.649 122.026 402.949C122.566 403.249 122.991 403.654 123.301 404.164L123.121 404.479V402.679H124.246V413.719H123.121ZM120.241 409.774C120.781 409.774 121.266 409.639 121.696 409.369C122.136 409.099 122.481 408.734 122.731 408.274C122.991 407.804 123.121 407.279 123.121 406.699C123.121 406.119 122.991 405.599 122.731 405.139C122.481 404.669 122.136 404.299 121.696 404.029C121.266 403.759 120.781 403.624 120.241 403.624C119.711 403.624 119.231 403.759 118.801 404.029C118.371 404.299 118.031 404.664 117.781 405.124C117.541 405.584 117.421 406.109 117.421 406.699C117.421 407.279 117.541 407.804 117.781 408.274C118.031 408.734 118.366 409.099 118.786 409.369C119.216 409.639 119.701 409.774 120.241 409.774ZM129.406 410.899C128.846 410.899 128.336 410.769 127.876 410.509C127.416 410.239 127.051 409.869 126.781 409.399C126.521 408.919 126.391 408.369 126.391 407.749V402.679H127.516V407.614C127.516 408.044 127.601 408.424 127.771 408.754C127.951 409.074 128.196 409.324 128.506 409.504C128.826 409.684 129.191 409.774 129.601 409.774C130.011 409.774 130.376 409.684 130.696 409.504C131.016 409.314 131.266 409.049 131.446 408.709C131.626 408.359 131.716 407.944 131.716 407.464V402.679H132.841V410.719H131.716V409.159L131.971 409.219C131.781 409.739 131.456 410.149 130.996 410.449C130.536 410.749 130.006 410.899 129.406 410.899ZM135.155 410.719V402.679H136.28V410.719H135.155ZM135.155 401.194V399.544H136.28V401.194H135.155ZM142.213 410.899C141.463 410.899 140.788 410.719 140.188 410.359C139.588 409.989 139.113 409.489 138.763 408.859C138.423 408.219 138.253 407.499 138.253 406.699C138.253 405.889 138.423 405.169 138.763 404.539C139.113 403.909 139.583 403.414 140.173 403.054C140.773 402.684 141.453 402.499 142.213 402.499C142.903 402.499 143.518 402.649 144.058 402.949C144.598 403.249 145.023 403.654 145.333 404.164L145.153 404.479V399.364H146.278V410.719H145.153V408.919L145.333 409.084C145.053 409.664 144.633 410.114 144.073 410.434C143.523 410.744 142.903 410.899 142.213 410.899ZM142.273 409.774C142.813 409.774 143.298 409.639 143.728 409.369C144.168 409.099 144.513 408.734 144.763 408.274C145.023 407.804 145.153 407.279 145.153 406.699C145.153 406.119 145.023 405.599 144.763 405.139C144.513 404.669 144.168 404.299 143.728 404.029C143.298 403.759 142.813 403.624 142.273 403.624C141.743 403.624 141.263 403.759 140.833 404.029C140.403 404.299 140.063 404.664 139.813 405.124C139.573 405.584 139.453 406.109 139.453 406.699C139.453 407.279 139.573 407.804 139.813 408.274C140.063 408.734 140.398 409.099 140.818 409.369C141.248 409.639 141.733 409.774 142.273 409.774ZM148.588 410.719V402.679H149.713V410.719H148.588ZM148.588 401.194V399.544H149.713V401.194H148.588ZM155.09 410.809C154.37 410.809 153.815 410.599 153.425 410.179C153.035 409.759 152.84 409.159 152.84 408.379V403.804H151.355V402.679H151.73C152.07 402.679 152.34 402.569 152.54 402.349C152.74 402.119 152.84 401.834 152.84 401.494V400.819H153.965V402.679H155.735V403.804H153.965V408.379C153.965 408.649 154.005 408.889 154.085 409.099C154.165 409.299 154.3 409.459 154.49 409.579C154.69 409.699 154.955 409.759 155.285 409.759C155.365 409.759 155.46 409.754 155.57 409.744C155.68 409.734 155.775 409.724 155.855 409.714V410.719C155.735 410.749 155.6 410.769 155.45 410.779C155.3 410.799 155.18 410.809 155.09 410.809ZM157.996 414.019C157.836 414.019 157.671 414.004 157.501 413.974C157.341 413.954 157.181 413.914 157.021 413.854V412.804C157.121 412.814 157.246 412.829 157.396 412.849C157.556 412.879 157.716 412.894 157.876 412.894C158.366 412.894 158.741 412.789 159.001 412.579C159.261 412.379 159.516 411.989 159.766 411.409L160.276 410.209L160.246 411.199L156.841 402.679H158.056L160.846 409.714H160.531L163.306 402.679H164.551L160.876 411.739C160.716 412.129 160.511 412.499 160.261 412.849C160.021 413.199 159.716 413.479 159.346 413.689C158.976 413.909 158.526 414.019 157.996 414.019Z" fill="white" fill-opacity="0.6"/>
<path d="M52.32 284.719V273.544H53.37L57.57 279.634H56.985L61.17 273.544H62.22V284.719H61.02V275.164L61.41 275.314L57.3 281.269H57.24L53.145 275.314L53.52 275.164V284.719H52.32ZM67.0191 284.899C66.5091 284.899 66.0541 284.804 65.6541 284.614C65.2541 284.414 64.9391 284.144 64.7091 283.804C64.4791 283.464 64.3641 283.074 64.3641 282.634C64.3641 282.214 64.4541 281.834 64.6341 281.494C64.8141 281.144 65.0941 280.849 65.4741 280.609C65.8541 280.369 66.3391 280.199 66.9291 280.099L70.0791 279.574V280.594L67.1991 281.074C66.6191 281.174 66.1991 281.359 65.9391 281.629C65.6891 281.899 65.5641 282.219 65.5641 282.589C65.5641 282.949 65.7041 283.254 65.9841 283.504C66.2741 283.754 66.6441 283.879 67.0941 283.879C67.6441 283.879 68.1241 283.764 68.5341 283.534C68.9441 283.294 69.2641 282.974 69.4941 282.574C69.7241 282.174 69.8391 281.729 69.8391 281.239V279.199C69.8391 278.719 69.6641 278.329 69.3141 278.029C68.9641 277.729 68.5091 277.579 67.9491 277.579C67.4591 277.579 67.0291 277.704 66.6591 277.954C66.2891 278.194 66.0141 278.509 65.8341 278.899L64.8141 278.344C64.9641 278.004 65.1991 277.694 65.5191 277.414C65.8491 277.134 66.2241 276.914 66.6441 276.754C67.0641 276.584 67.4991 276.499 67.9491 276.499C68.5391 276.499 69.0591 276.614 69.5091 276.844C69.9691 277.074 70.3241 277.394 70.5741 277.804C70.8341 278.204 70.9641 278.669 70.9641 279.199V284.719H69.8391V283.114L70.0041 283.279C69.8641 283.579 69.6441 283.854 69.3441 284.104C69.0541 284.344 68.7091 284.539 68.3091 284.689C67.9191 284.829 67.4891 284.899 67.0191 284.899ZM73.278 284.719V276.679H74.403V277.999L74.253 277.804C74.443 277.424 74.728 277.124 75.108 276.904C75.498 276.684 75.968 276.574 76.518 276.574H77.028V277.699H76.323C75.743 277.699 75.278 277.879 74.928 278.239C74.578 278.599 74.403 279.109 74.403 279.769V284.719H73.278ZM78.3464 284.719V273.364H79.4714V281.314L78.9914 281.239L83.5064 276.679H84.9614L81.8114 279.904L85.2464 284.719H83.8964L80.6714 280.264L81.3914 280.324L79.0964 282.694L79.4714 281.764V284.719H78.3464ZM90.0777 284.899C89.3277 284.899 88.6477 284.719 88.0377 284.359C87.4377 283.989 86.9627 283.484 86.6127 282.844C86.2627 282.204 86.0877 281.479 86.0877 280.669C86.0877 279.859 86.2577 279.144 86.5977 278.524C86.9377 277.894 87.3977 277.399 87.9777 277.039C88.5677 276.679 89.2277 276.499 89.9577 276.499C90.5377 276.499 91.0527 276.609 91.5027 276.829C91.9627 277.039 92.3527 277.329 92.6727 277.699C92.9927 278.059 93.2377 278.469 93.4077 278.929C93.5777 279.379 93.6627 279.844 93.6627 280.324C93.6627 280.424 93.6577 280.539 93.6477 280.669C93.6377 280.789 93.6227 280.914 93.6027 281.044H86.8077V279.994H92.9577L92.4177 280.444C92.5077 279.894 92.4427 279.404 92.2227 278.974C92.0127 278.534 91.7077 278.189 91.3077 277.939C90.9077 277.679 90.4577 277.549 89.9577 277.549C89.4577 277.549 88.9927 277.679 88.5627 277.939C88.1427 278.199 87.8127 278.564 87.5727 279.034C87.3327 279.494 87.2377 280.044 87.2877 280.684C87.2377 281.324 87.3377 281.884 87.5877 282.364C87.8477 282.834 88.1977 283.199 88.6377 283.459C89.0877 283.719 89.5677 283.849 90.0777 283.849C90.6677 283.849 91.1627 283.709 91.5627 283.429C91.9627 283.149 92.2877 282.799 92.5377 282.379L93.4977 282.889C93.3377 283.249 93.0927 283.584 92.7627 283.894C92.4327 284.194 92.0377 284.439 91.5777 284.629C91.1277 284.809 90.6277 284.899 90.0777 284.899ZM98.7212 284.809C98.0012 284.809 97.4462 284.599 97.0562 284.179C96.6662 283.759 96.4712 283.159 96.4712 282.379V277.804H94.9862V276.679H95.3612C95.7012 276.679 95.9712 276.569 96.1712 276.349C96.3712 276.119 96.4712 275.834 96.4712 275.494V274.819H97.5962V276.679H99.3662V277.804H97.5962V282.379C97.5962 282.649 97.6362 282.889 97.7162 283.099C97.7962 283.299 97.9312 283.459 98.1212 283.579C98.3212 283.699 98.5862 283.759 98.9162 283.759C98.9962 283.759 99.0912 283.754 99.2012 283.744C99.3112 283.734 99.4062 283.724 99.4862 283.714V284.719C99.3662 284.749 99.2312 284.769 99.0812 284.779C98.9312 284.799 98.8112 284.809 98.7212 284.809ZM101.462 284.719V276.679H102.587V284.719H101.462ZM101.462 275.194V273.544H102.587V275.194H101.462ZM104.889 284.719V276.679H106.014V278.239L105.759 278.179C105.959 277.659 106.284 277.249 106.734 276.949C107.194 276.649 107.724 276.499 108.324 276.499C108.894 276.499 109.404 276.629 109.854 276.889C110.314 277.149 110.674 277.509 110.934 277.969C111.204 278.419 111.339 278.929 111.339 279.499V284.719H110.214V279.934C110.214 279.444 110.124 279.029 109.944 278.689C109.774 278.349 109.529 278.089 109.209 277.909C108.899 277.719 108.539 277.624 108.129 277.624C107.719 277.624 107.354 277.719 107.034 277.909C106.714 278.089 106.464 278.354 106.284 278.704C106.104 279.044 106.014 279.454 106.014 279.934V284.719H104.889ZM117.298 288.019C116.748 288.019 116.238 287.934 115.768 287.764C115.308 287.594 114.908 287.359 114.568 287.059C114.238 286.769 113.983 286.429 113.803 286.039L114.838 285.484C114.998 285.864 115.283 286.194 115.693 286.474C116.103 286.754 116.628 286.894 117.268 286.894C117.758 286.894 118.208 286.799 118.618 286.609C119.028 286.419 119.358 286.139 119.608 285.769C119.858 285.399 119.983 284.944 119.983 284.404V282.619L120.163 282.784C119.883 283.364 119.468 283.814 118.918 284.134C118.368 284.444 117.768 284.599 117.118 284.599C116.368 284.599 115.693 284.419 115.093 284.059C114.493 283.699 114.018 283.214 113.668 282.604C113.328 281.984 113.158 281.299 113.158 280.549C113.158 279.789 113.328 279.104 113.668 278.494C114.018 277.884 114.488 277.399 115.078 277.039C115.678 276.679 116.358 276.499 117.118 276.499C117.768 276.499 118.358 276.649 118.888 276.949C119.428 277.249 119.853 277.654 120.163 278.164L119.983 278.479V276.679H121.108V284.404C121.108 285.094 120.943 285.709 120.613 286.249C120.293 286.799 119.843 287.229 119.263 287.539C118.693 287.859 118.038 288.019 117.298 288.019ZM117.178 283.474C117.698 283.474 118.168 283.344 118.588 283.084C119.008 282.814 119.343 282.459 119.593 282.019C119.853 281.569 119.983 281.079 119.983 280.549C119.983 280.019 119.853 279.534 119.593 279.094C119.343 278.644 119.008 278.289 118.588 278.029C118.168 277.759 117.698 277.624 117.178 277.624C116.648 277.624 116.168 277.759 115.738 278.029C115.308 278.289 114.968 278.639 114.718 279.079C114.478 279.519 114.358 280.009 114.358 280.549C114.358 281.079 114.478 281.569 114.718 282.019C114.968 282.459 115.303 282.814 115.723 283.084C116.153 283.344 116.638 283.474 117.178 283.474Z" fill="white" fill-opacity="0.6"/>
<path d="M1.53777 189V177.825H5.37777C6.10777 177.825 6.74777 177.97 7.29777 178.26C7.84777 178.54 8.27277 178.94 8.57277 179.46C8.88277 179.97 9.03777 180.565 9.03777 181.245C9.03777 181.925 8.88277 182.52 8.57277 183.03C8.27277 183.54 7.84777 183.94 7.29777 184.23C6.75777 184.51 6.11777 184.65 5.37777 184.65H2.73777V189H1.53777ZM2.73777 183.525H5.43777C5.91777 183.525 6.33777 183.435 6.69777 183.255C7.05777 183.065 7.33777 182.8 7.53777 182.46C7.73777 182.11 7.83777 181.7 7.83777 181.23C7.83777 180.76 7.73777 180.355 7.53777 180.015C7.33777 179.675 7.05777 179.415 6.69777 179.235C6.33777 179.045 5.91777 178.95 5.43777 178.95H2.73777V183.525ZM11.0114 189V180.96H12.1364V182.28L11.9864 182.085C12.1764 181.705 12.4614 181.405 12.8414 181.185C13.2314 180.965 13.7014 180.855 14.2514 180.855H14.7614V181.98H14.0564C13.4764 181.98 13.0114 182.16 12.6614 182.52C12.3114 182.88 12.1364 183.39 12.1364 184.05V189H11.0114ZM19.7398 189.18C18.9898 189.18 18.3098 189 17.6998 188.64C17.0998 188.27 16.6248 187.765 16.2748 187.125C15.9248 186.485 15.7498 185.76 15.7498 184.95C15.7498 184.14 15.9198 183.425 16.2598 182.805C16.5998 182.175 17.0598 181.68 17.6398 181.32C18.2298 180.96 18.8898 180.78 19.6198 180.78C20.1998 180.78 20.7148 180.89 21.1648 181.11C21.6248 181.32 22.0148 181.61 22.3348 181.98C22.6548 182.34 22.8998 182.75 23.0698 183.21C23.2398 183.66 23.3248 184.125 23.3248 184.605C23.3248 184.705 23.3198 184.82 23.3098 184.95C23.2998 185.07 23.2848 185.195 23.2648 185.325H16.4698V184.275H22.6198L22.0798 184.725C22.1698 184.175 22.1048 183.685 21.8848 183.255C21.6748 182.815 21.3698 182.47 20.9698 182.22C20.5698 181.96 20.1198 181.83 19.6198 181.83C19.1198 181.83 18.6548 181.96 18.2248 182.22C17.8048 182.48 17.4748 182.845 17.2348 183.315C16.9948 183.775 16.8998 184.325 16.9498 184.965C16.8998 185.605 16.9998 186.165 17.2498 186.645C17.5098 187.115 17.8598 187.48 18.2998 187.74C18.7498 188 19.2298 188.13 19.7398 188.13C20.3298 188.13 20.8248 187.99 21.2248 187.71C21.6248 187.43 21.9498 187.08 22.1998 186.66L23.1598 187.17C22.9998 187.53 22.7548 187.865 22.4248 188.175C22.0948 188.475 21.6998 188.72 21.2398 188.91C20.7898 189.09 20.2898 189.18 19.7398 189.18ZM28.0983 189.18C27.3283 189.18 26.6533 188.985 26.0733 188.595C25.4933 188.205 25.0733 187.675 24.8133 187.005L25.7583 186.555C25.9883 187.045 26.3083 187.435 26.7183 187.725C27.1383 188.015 27.5983 188.16 28.0983 188.16C28.5783 188.16 28.9833 188.045 29.3133 187.815C29.6433 187.575 29.8083 187.265 29.8083 186.885C29.8083 186.605 29.7283 186.385 29.5683 186.225C29.4083 186.055 29.2233 185.925 29.0133 185.835C28.8033 185.745 28.6183 185.68 28.4583 185.64L27.3033 185.31C26.5633 185.1 26.0283 184.805 25.6983 184.425C25.3683 184.045 25.2033 183.605 25.2033 183.105C25.2033 182.635 25.3233 182.225 25.5633 181.875C25.8033 181.525 26.1283 181.255 26.5383 181.065C26.9483 180.875 27.4033 180.78 27.9033 180.78C28.5833 180.78 29.1983 180.96 29.7483 181.32C30.3083 181.67 30.7033 182.16 30.9333 182.79L29.9733 183.24C29.7733 182.79 29.4833 182.44 29.1033 182.19C28.7333 181.93 28.3183 181.8 27.8583 181.8C27.4083 181.8 27.0483 181.915 26.7783 182.145C26.5083 182.375 26.3733 182.665 26.3733 183.015C26.3733 183.285 26.4433 183.5 26.5833 183.66C26.7233 183.82 26.8833 183.94 27.0633 184.02C27.2533 184.1 27.4183 184.16 27.5583 184.2L28.8933 184.59C29.5433 184.78 30.0483 185.075 30.4083 185.475C30.7783 185.875 30.9633 186.345 30.9633 186.885C30.9633 187.325 30.8383 187.72 30.5883 188.07C30.3483 188.42 30.0133 188.695 29.5833 188.895C29.1533 189.085 28.6583 189.18 28.0983 189.18ZM35.2652 189.18C34.7552 189.18 34.3002 189.085 33.9002 188.895C33.5002 188.695 33.1852 188.425 32.9552 188.085C32.7252 187.745 32.6102 187.355 32.6102 186.915C32.6102 186.495 32.7002 186.115 32.8802 185.775C33.0602 185.425 33.3402 185.13 33.7202 184.89C34.1002 184.65 34.5852 184.48 35.1752 184.38L38.3252 183.855V184.875L35.4452 185.355C34.8652 185.455 34.4452 185.64 34.1852 185.91C33.9352 186.18 33.8102 186.5 33.8102 186.87C33.8102 187.23 33.9502 187.535 34.2302 187.785C34.5202 188.035 34.8902 188.16 35.3402 188.16C35.8902 188.16 36.3702 188.045 36.7802 187.815C37.1902 187.575 37.5102 187.255 37.7402 186.855C37.9702 186.455 38.0852 186.01 38.0852 185.52V183.48C38.0852 183 37.9102 182.61 37.5602 182.31C37.2102 182.01 36.7552 181.86 36.1952 181.86C35.7052 181.86 35.2752 181.985 34.9052 182.235C34.5352 182.475 34.2602 182.79 34.0802 183.18L33.0602 182.625C33.2102 182.285 33.4452 181.975 33.7652 181.695C34.0952 181.415 34.4702 181.195 34.8902 181.035C35.3102 180.865 35.7452 180.78 36.1952 180.78C36.7852 180.78 37.3052 180.895 37.7552 181.125C38.2152 181.355 38.5702 181.675 38.8202 182.085C39.0802 182.485 39.2102 182.95 39.2102 183.48V189H38.0852V187.395L38.2502 187.56C38.1102 187.86 37.8902 188.135 37.5902 188.385C37.3002 188.625 36.9552 188.82 36.5552 188.97C36.1652 189.11 35.7352 189.18 35.2652 189.18ZM41.5241 189V177.645H42.6491V189H41.5241ZM48.6119 189.18C47.8619 189.18 47.1819 189 46.5719 188.64C45.9719 188.27 45.4969 187.765 45.1469 187.125C44.7969 186.485 44.6219 185.76 44.6219 184.95C44.6219 184.14 44.7919 183.425 45.1319 182.805C45.4719 182.175 45.9319 181.68 46.5119 181.32C47.1019 180.96 47.7619 180.78 48.4919 180.78C49.0719 180.78 49.5869 180.89 50.0369 181.11C50.4969 181.32 50.8869 181.61 51.2069 181.98C51.5269 182.34 51.7719 182.75 51.9419 183.21C52.1119 183.66 52.1969 184.125 52.1969 184.605C52.1969 184.705 52.1919 184.82 52.1819 184.95C52.1719 185.07 52.1569 185.195 52.1369 185.325H45.3419V184.275H51.4919L50.9519 184.725C51.0419 184.175 50.9769 183.685 50.7569 183.255C50.5469 182.815 50.2419 182.47 49.8419 182.22C49.4419 181.96 48.9919 181.83 48.4919 181.83C47.9919 181.83 47.5269 181.96 47.0969 182.22C46.6769 182.48 46.3469 182.845 46.1069 183.315C45.8669 183.775 45.7719 184.325 45.8219 184.965C45.7719 185.605 45.8719 186.165 46.1219 186.645C46.3819 187.115 46.7319 187.48 47.1719 187.74C47.6219 188 48.1019 188.13 48.6119 188.13C49.2019 188.13 49.6969 187.99 50.0969 187.71C50.4969 187.43 50.8219 187.08 51.0719 186.66L52.0319 187.17C51.8719 187.53 51.6269 187.865 51.2969 188.175C50.9669 188.475 50.5719 188.72 50.1119 188.91C49.6619 189.09 49.1619 189.18 48.6119 189.18ZM55.7392 189L59.8192 177.825H61.1092L65.1892 189H63.9292L62.9692 186.27H57.9742L56.9992 189H55.7392ZM58.3642 185.145H62.5492L60.2842 178.725H60.6442L58.3642 185.145ZM66.5144 189V177.645H67.6394V189H66.5144ZM69.9421 189V177.645H71.0671V189H69.9421ZM77.1348 189.18C76.3748 189.18 75.6848 189 75.0648 188.64C74.4448 188.27 73.9498 187.77 73.5798 187.14C73.2198 186.5 73.0398 185.775 73.0398 184.965C73.0398 184.165 73.2198 183.45 73.5798 182.82C73.9398 182.19 74.4248 181.695 75.0348 181.335C75.6548 180.965 76.3548 180.78 77.1348 180.78C77.9148 180.78 78.6098 180.96 79.2198 181.32C79.8398 181.68 80.3248 182.175 80.6748 182.805C81.0348 183.435 81.2148 184.155 81.2148 184.965C81.2148 185.785 81.0298 186.515 80.6598 187.155C80.2898 187.785 79.7948 188.28 79.1748 188.64C78.5648 189 77.8848 189.18 77.1348 189.18ZM77.1348 188.055C77.6748 188.055 78.1598 187.92 78.5898 187.65C79.0298 187.38 79.3748 187.01 79.6248 186.54C79.8848 186.07 80.0148 185.545 80.0148 184.965C80.0148 184.385 79.8848 183.865 79.6248 183.405C79.3748 182.945 79.0298 182.58 78.5898 182.31C78.1598 182.04 77.6748 181.905 77.1348 181.905C76.5948 181.905 76.1048 182.04 75.6648 182.31C75.2348 182.58 74.8898 182.945 74.6298 183.405C74.3698 183.865 74.2398 184.385 74.2398 184.965C74.2398 185.545 74.3698 186.07 74.6298 186.54C74.8898 187.01 75.2348 187.38 75.6648 187.65C76.1048 187.92 76.5948 188.055 77.1348 188.055ZM86.8739 189.18C86.0839 189.18 85.3889 188.995 84.7889 188.625C84.1889 188.255 83.7189 187.755 83.3789 187.125C83.0389 186.485 82.8689 185.765 82.8689 184.965C82.8689 184.165 83.0389 183.45 83.3789 182.82C83.7189 182.19 84.1889 181.695 84.7889 181.335C85.3889 180.965 86.0839 180.78 86.8739 180.78C87.3739 180.78 87.8439 180.87 88.2839 181.05C88.7239 181.23 89.1139 181.475 89.4539 181.785C89.7939 182.085 90.0489 182.435 90.2189 182.835L89.1989 183.36C88.9989 182.93 88.6939 182.58 88.2839 182.31C87.8739 182.04 87.4039 181.905 86.8739 181.905C86.3439 181.905 85.8639 182.04 85.4339 182.31C85.0139 182.57 84.6789 182.935 84.4289 183.405C84.1889 183.865 84.0689 184.39 84.0689 184.98C84.0689 185.56 84.1889 186.085 84.4289 186.555C84.6789 187.015 85.0139 187.38 85.4339 187.65C85.8639 187.92 86.3439 188.055 86.8739 188.055C87.4039 188.055 87.8689 187.92 88.2689 187.65C88.6789 187.38 88.9889 187.02 89.1989 186.57L90.2189 187.125C90.0489 187.515 89.7939 187.865 89.4539 188.175C89.1139 188.485 88.7239 188.73 88.2839 188.91C87.8439 189.09 87.3739 189.18 86.8739 189.18ZM94.3716 189.18C93.8616 189.18 93.4066 189.085 93.0066 188.895C92.6066 188.695 92.2916 188.425 92.0616 188.085C91.8316 187.745 91.7166 187.355 91.7166 186.915C91.7166 186.495 91.8066 186.115 91.9866 185.775C92.1666 185.425 92.4466 185.13 92.8266 184.89C93.2066 184.65 93.6916 184.48 94.2816 184.38L97.4316 183.855V184.875L94.5516 185.355C93.9716 185.455 93.5516 185.64 93.2916 185.91C93.0416 186.18 92.9166 186.5 92.9166 186.87C92.9166 187.23 93.0566 187.535 93.3366 187.785C93.6266 188.035 93.9966 188.16 94.4466 188.16C94.9966 188.16 95.4766 188.045 95.8866 187.815C96.2966 187.575 96.6166 187.255 96.8466 186.855C97.0766 186.455 97.1916 186.01 97.1916 185.52V183.48C97.1916 183 97.0166 182.61 96.6666 182.31C96.3166 182.01 95.8616 181.86 95.3016 181.86C94.8116 181.86 94.3816 181.985 94.0116 182.235C93.6416 182.475 93.3666 182.79 93.1866 183.18L92.1666 182.625C92.3166 182.285 92.5516 181.975 92.8716 181.695C93.2016 181.415 93.5766 181.195 93.9966 181.035C94.4166 180.865 94.8516 180.78 95.3016 180.78C95.8916 180.78 96.4116 180.895 96.8616 181.125C97.3216 181.355 97.6766 181.675 97.9266 182.085C98.1866 182.485 98.3166 182.95 98.3166 183.48V189H97.1916V187.395L97.3566 187.56C97.2166 187.86 96.9966 188.135 96.6966 188.385C96.4066 188.625 96.0616 188.82 95.6616 188.97C95.2716 189.11 94.8416 189.18 94.3716 189.18ZM103.559 189.09C102.839 189.09 102.284 188.88 101.894 188.46C101.504 188.04 101.309 187.44 101.309 186.66V182.085H99.8241V180.96H100.199C100.539 180.96 100.809 180.85 101.009 180.63C101.209 180.4 101.309 180.115 101.309 179.775V179.1H102.434V180.96H104.204V182.085H102.434V186.66C102.434 186.93 102.474 187.17 102.554 187.38C102.634 187.58 102.769 187.74 102.959 187.86C103.159 187.98 103.424 188.04 103.754 188.04C103.834 188.04 103.929 188.035 104.039 188.025C104.149 188.015 104.244 188.005 104.324 187.995V189C104.204 189.03 104.069 189.05 103.919 189.06C103.769 189.08 103.649 189.09 103.559 189.09ZM106.3 189V180.96H107.425V189H106.3ZM106.3 179.475V177.825H107.425V179.475H106.3ZM113.492 189.18C112.732 189.18 112.042 189 111.422 188.64C110.802 188.27 110.307 187.77 109.937 187.14C109.577 186.5 109.397 185.775 109.397 184.965C109.397 184.165 109.577 183.45 109.937 182.82C110.297 182.19 110.782 181.695 111.392 181.335C112.012 180.965 112.712 180.78 113.492 180.78C114.272 180.78 114.967 180.96 115.577 181.32C116.197 181.68 116.682 182.175 117.032 182.805C117.392 183.435 117.572 184.155 117.572 184.965C117.572 185.785 117.387 186.515 117.017 187.155C116.647 187.785 116.152 188.28 115.532 188.64C114.922 189 114.242 189.18 113.492 189.18ZM113.492 188.055C114.032 188.055 114.517 187.92 114.947 187.65C115.387 187.38 115.732 187.01 115.982 186.54C116.242 186.07 116.372 185.545 116.372 184.965C116.372 184.385 116.242 183.865 115.982 183.405C115.732 182.945 115.387 182.58 114.947 182.31C114.517 182.04 114.032 181.905 113.492 181.905C112.952 181.905 112.462 182.04 112.022 182.31C111.592 182.58 111.247 182.945 110.987 183.405C110.727 183.865 110.597 184.385 110.597 184.965C110.597 185.545 110.727 186.07 110.987 186.54C111.247 187.01 111.592 187.38 112.022 187.65C112.462 187.92 112.952 188.055 113.492 188.055ZM119.556 189V180.96H120.681V182.52L120.426 182.46C120.626 181.94 120.951 181.53 121.401 181.23C121.861 180.93 122.391 180.78 122.991 180.78C123.561 180.78 124.071 180.91 124.521 181.17C124.981 181.43 125.341 181.79 125.601 182.25C125.871 182.7 126.006 183.21 126.006 183.78V189H124.881V184.215C124.881 183.725 124.791 183.31 124.611 182.97C124.441 182.63 124.196 182.37 123.876 182.19C123.566 182 123.206 181.905 122.796 181.905C122.386 181.905 122.021 182 121.701 182.19C121.381 182.37 121.131 182.635 120.951 182.985C120.771 183.325 120.681 183.735 120.681 184.215V189H119.556Z" fill="white" fill-opacity="0.6"/>
<path d="M606.085 149.899C605.375 149.899 604.73 149.764 604.15 149.494C603.57 149.224 603.08 148.864 602.68 148.414C602.28 147.954 601.995 147.449 601.825 146.899L602.905 146.494C603.165 147.254 603.57 147.834 604.12 148.234C604.67 148.624 605.325 148.819 606.085 148.819C606.565 148.819 606.985 148.744 607.345 148.594C607.715 148.434 608 148.214 608.2 147.934C608.4 147.654 608.5 147.329 608.5 146.959C608.5 146.409 608.35 145.984 608.05 145.684C607.75 145.384 607.32 145.154 606.76 144.994L604.75 144.394C603.96 144.164 603.35 143.779 602.92 143.239C602.5 142.699 602.29 142.084 602.29 141.394C602.29 140.804 602.435 140.284 602.725 139.834C603.015 139.374 603.41 139.014 603.91 138.754C604.42 138.494 604.995 138.364 605.635 138.364C606.305 138.364 606.905 138.489 607.435 138.739C607.975 138.979 608.43 139.299 608.8 139.699C609.17 140.099 609.435 140.544 609.595 141.034L608.545 141.454C608.305 140.794 607.93 140.294 607.42 139.954C606.92 139.614 606.33 139.444 605.65 139.444C605.22 139.444 604.84 139.519 604.51 139.669C604.19 139.819 603.94 140.034 603.76 140.314C603.58 140.594 603.49 140.924 603.49 141.304C603.49 141.764 603.635 142.179 603.925 142.549C604.215 142.909 604.66 143.179 605.26 143.359L607.03 143.884C607.91 144.144 608.575 144.519 609.025 145.009C609.475 145.499 609.7 146.114 609.7 146.854C609.7 147.454 609.545 147.984 609.235 148.444C608.935 148.894 608.51 149.249 607.96 149.509C607.42 149.769 606.795 149.899 606.085 149.899ZM614.927 149.809C614.207 149.809 613.652 149.599 613.262 149.179C612.872 148.759 612.677 148.159 612.677 147.379V142.804H611.192V141.679H611.567C611.907 141.679 612.177 141.569 612.377 141.349C612.577 141.119 612.677 140.834 612.677 140.494V139.819H613.802V141.679H615.572V142.804H613.802V147.379C613.802 147.649 613.842 147.889 613.922 148.099C614.002 148.299 614.137 148.459 614.327 148.579C614.527 148.699 614.792 148.759 615.122 148.759C615.202 148.759 615.297 148.754 615.407 148.744C615.517 148.734 615.612 148.724 615.692 148.714V149.719C615.572 149.749 615.437 149.769 615.287 149.779C615.137 149.799 615.017 149.809 614.927 149.809ZM619.846 149.899C619.336 149.899 618.881 149.804 618.481 149.614C618.081 149.414 617.766 149.144 617.536 148.804C617.306 148.464 617.191 148.074 617.191 147.634C617.191 147.214 617.281 146.834 617.461 146.494C617.641 146.144 617.921 145.849 618.301 145.609C618.681 145.369 619.166 145.199 619.756 145.099L622.906 144.574V145.594L620.026 146.074C619.446 146.174 619.026 146.359 618.766 146.629C618.516 146.899 618.391 147.219 618.391 147.589C618.391 147.949 618.531 148.254 618.811 148.504C619.101 148.754 619.471 148.879 619.921 148.879C620.471 148.879 620.951 148.764 621.361 148.534C621.771 148.294 622.091 147.974 622.321 147.574C622.551 147.174 622.666 146.729 622.666 146.239V144.199C622.666 143.719 622.491 143.329 622.141 143.029C621.791 142.729 621.336 142.579 620.776 142.579C620.286 142.579 619.856 142.704 619.486 142.954C619.116 143.194 618.841 143.509 618.661 143.899L617.641 143.344C617.791 143.004 618.026 142.694 618.346 142.414C618.676 142.134 619.051 141.914 619.471 141.754C619.891 141.584 620.326 141.499 620.776 141.499C621.366 141.499 621.886 141.614 622.336 141.844C622.796 142.074 623.151 142.394 623.401 142.804C623.661 143.204 623.791 143.669 623.791 144.199V149.719H622.666V148.114L622.831 148.279C622.691 148.579 622.471 148.854 622.171 149.104C621.881 149.344 621.536 149.539 621.136 149.689C620.746 149.829 620.316 149.899 619.846 149.899ZM626.105 149.719V138.364H627.23V146.314L626.75 146.239L631.265 141.679H632.72L629.57 144.904L633.005 149.719H631.655L628.43 145.264L629.15 145.324L626.855 147.694L627.23 146.764V149.719H626.105ZM634.323 149.719V141.679H635.448V149.719H634.323ZM634.323 140.194V138.544H635.448V140.194H634.323ZM637.751 149.719V141.679H638.876V143.239L638.621 143.179C638.821 142.659 639.146 142.249 639.596 141.949C640.056 141.649 640.586 141.499 641.186 141.499C641.756 141.499 642.266 141.629 642.716 141.889C643.176 142.149 643.536 142.509 643.796 142.969C644.066 143.419 644.201 143.929 644.201 144.499V149.719H643.076V144.934C643.076 144.444 642.986 144.029 642.806 143.689C642.636 143.349 642.391 143.089 642.071 142.909C641.761 142.719 641.401 142.624 640.991 142.624C640.581 142.624 640.216 142.719 639.896 142.909C639.576 143.089 639.326 143.354 639.146 143.704C638.966 144.044 638.876 144.454 638.876 144.934V149.719H637.751ZM650.159 153.019C649.609 153.019 649.099 152.934 648.629 152.764C648.169 152.594 647.769 152.359 647.429 152.059C647.099 151.769 646.844 151.429 646.664 151.039L647.699 150.484C647.859 150.864 648.144 151.194 648.554 151.474C648.964 151.754 649.489 151.894 650.129 151.894C650.619 151.894 651.069 151.799 651.479 151.609C651.889 151.419 652.219 151.139 652.469 150.769C652.719 150.399 652.844 149.944 652.844 149.404V147.619L653.024 147.784C652.744 148.364 652.329 148.814 651.779 149.134C651.229 149.444 650.629 149.599 649.979 149.599C649.229 149.599 648.554 149.419 647.954 149.059C647.354 148.699 646.879 148.214 646.529 147.604C646.189 146.984 646.019 146.299 646.019 145.549C646.019 144.789 646.189 144.104 646.529 143.494C646.879 142.884 647.349 142.399 647.939 142.039C648.539 141.679 649.219 141.499 649.979 141.499C650.629 141.499 651.219 141.649 651.749 141.949C652.289 142.249 652.714 142.654 653.024 143.164L652.844 143.479V141.679H653.969V149.404C653.969 150.094 653.804 150.709 653.474 151.249C653.154 151.799 652.704 152.229 652.124 152.539C651.554 152.859 650.899 153.019 650.159 153.019ZM650.039 148.474C650.559 148.474 651.029 148.344 651.449 148.084C651.869 147.814 652.204 147.459 652.454 147.019C652.714 146.569 652.844 146.079 652.844 145.549C652.844 145.019 652.714 144.534 652.454 144.094C652.204 143.644 651.869 143.289 651.449 143.029C651.029 142.759 650.559 142.624 650.039 142.624C649.509 142.624 649.029 142.759 648.599 143.029C648.169 143.289 647.829 143.639 647.579 144.079C647.339 144.519 647.219 145.009 647.219 145.549C647.219 146.079 647.339 146.569 647.579 147.019C647.829 147.459 648.164 147.814 648.584 148.084C649.014 148.344 649.499 148.474 650.039 148.474ZM658.83 149.719V141.679H659.955V142.999L659.805 142.804C659.995 142.424 660.28 142.124 660.66 141.904C661.05 141.684 661.52 141.574 662.07 141.574H662.58V142.699H661.875C661.295 142.699 660.83 142.879 660.48 143.239C660.13 143.599 659.955 144.109 659.955 144.769V149.719H658.83ZM667.558 149.899C666.808 149.899 666.128 149.719 665.518 149.359C664.918 148.989 664.443 148.484 664.093 147.844C663.743 147.204 663.568 146.479 663.568 145.669C663.568 144.859 663.738 144.144 664.078 143.524C664.418 142.894 664.878 142.399 665.458 142.039C666.048 141.679 666.708 141.499 667.438 141.499C668.018 141.499 668.533 141.609 668.983 141.829C669.443 142.039 669.833 142.329 670.153 142.699C670.473 143.059 670.718 143.469 670.888 143.929C671.058 144.379 671.143 144.844 671.143 145.324C671.143 145.424 671.138 145.539 671.128 145.669C671.118 145.789 671.103 145.914 671.083 146.044H664.288V144.994H670.438L669.898 145.444C669.988 144.894 669.923 144.404 669.703 143.974C669.493 143.534 669.188 143.189 668.788 142.939C668.388 142.679 667.938 142.549 667.438 142.549C666.938 142.549 666.473 142.679 666.043 142.939C665.623 143.199 665.293 143.564 665.053 144.034C664.813 144.494 664.718 145.044 664.768 145.684C664.718 146.324 664.818 146.884 665.068 147.364C665.328 147.834 665.678 148.199 666.118 148.459C666.568 148.719 667.048 148.849 667.558 148.849C668.148 148.849 668.643 148.709 669.043 148.429C669.443 148.149 669.768 147.799 670.018 147.379L670.978 147.889C670.818 148.249 670.573 148.584 670.243 148.894C669.913 149.194 669.518 149.439 669.058 149.629C668.608 149.809 668.108 149.899 667.558 149.899ZM674.897 149.719L672.137 141.679H673.412L675.692 148.714H675.242L677.387 141.679H678.512L680.657 148.714H680.207L682.502 141.679H683.762L681.002 149.719H679.877L677.792 142.834H678.107L676.022 149.719H674.897ZM687.112 149.899C686.602 149.899 686.147 149.804 685.747 149.614C685.347 149.414 685.032 149.144 684.802 148.804C684.572 148.464 684.457 148.074 684.457 147.634C684.457 147.214 684.547 146.834 684.727 146.494C684.907 146.144 685.187 145.849 685.567 145.609C685.947 145.369 686.432 145.199 687.022 145.099L690.172 144.574V145.594L687.292 146.074C686.712 146.174 686.292 146.359 686.032 146.629C685.782 146.899 685.657 147.219 685.657 147.589C685.657 147.949 685.797 148.254 686.077 148.504C686.367 148.754 686.737 148.879 687.187 148.879C687.737 148.879 688.217 148.764 688.627 148.534C689.037 148.294 689.357 147.974 689.587 147.574C689.817 147.174 689.932 146.729 689.932 146.239V144.199C689.932 143.719 689.757 143.329 689.407 143.029C689.057 142.729 688.602 142.579 688.042 142.579C687.552 142.579 687.122 142.704 686.752 142.954C686.382 143.194 686.107 143.509 685.927 143.899L684.907 143.344C685.057 143.004 685.292 142.694 685.612 142.414C685.942 142.134 686.317 141.914 686.737 141.754C687.157 141.584 687.592 141.499 688.042 141.499C688.632 141.499 689.152 141.614 689.602 141.844C690.062 142.074 690.417 142.394 690.667 142.804C690.927 143.204 691.057 143.669 691.057 144.199V149.719H689.932V148.114L690.097 148.279C689.957 148.579 689.737 148.854 689.437 149.104C689.147 149.344 688.802 149.539 688.402 149.689C688.012 149.829 687.582 149.899 687.112 149.899ZM693.371 149.719V141.679H694.496V142.999L694.346 142.804C694.536 142.424 694.821 142.124 695.201 141.904C695.591 141.684 696.061 141.574 696.611 141.574H697.121V142.699H696.416C695.836 142.699 695.371 142.879 695.021 143.239C694.671 143.599 694.496 144.109 694.496 144.769V149.719H693.371ZM702.069 149.899C701.319 149.899 700.644 149.719 700.044 149.359C699.444 148.989 698.969 148.489 698.619 147.859C698.279 147.219 698.109 146.499 698.109 145.699C698.109 144.889 698.279 144.169 698.619 143.539C698.969 142.909 699.439 142.414 700.029 142.054C700.629 141.684 701.309 141.499 702.069 141.499C702.759 141.499 703.374 141.649 703.914 141.949C704.454 142.249 704.879 142.654 705.189 143.164L705.009 143.479V138.364H706.134V149.719H705.009V147.919L705.189 148.084C704.909 148.664 704.489 149.114 703.929 149.434C703.379 149.744 702.759 149.899 702.069 149.899ZM702.129 148.774C702.669 148.774 703.154 148.639 703.584 148.369C704.024 148.099 704.369 147.734 704.619 147.274C704.879 146.804 705.009 146.279 705.009 145.699C705.009 145.119 704.879 144.599 704.619 144.139C704.369 143.669 704.024 143.299 703.584 143.029C703.154 142.759 702.669 142.624 702.129 142.624C701.599 142.624 701.119 142.759 700.689 143.029C700.259 143.299 699.919 143.664 699.669 144.124C699.429 144.584 699.309 145.109 699.309 145.699C699.309 146.279 699.429 146.804 699.669 147.274C699.919 147.734 700.254 148.099 700.674 148.369C701.104 148.639 701.589 148.774 702.129 148.774ZM711.234 149.899C710.464 149.899 709.789 149.704 709.209 149.314C708.629 148.924 708.209 148.394 707.949 147.724L708.894 147.274C709.124 147.764 709.444 148.154 709.854 148.444C710.274 148.734 710.734 148.879 711.234 148.879C711.714 148.879 712.119 148.764 712.449 148.534C712.779 148.294 712.944 147.984 712.944 147.604C712.944 147.324 712.864 147.104 712.704 146.944C712.544 146.774 712.359 146.644 712.149 146.554C711.939 146.464 711.754 146.399 711.594 146.359L710.439 146.029C709.699 145.819 709.164 145.524 708.834 145.144C708.504 144.764 708.339 144.324 708.339 143.824C708.339 143.354 708.459 142.944 708.699 142.594C708.939 142.244 709.264 141.974 709.674 141.784C710.084 141.594 710.539 141.499 711.039 141.499C711.719 141.499 712.334 141.679 712.884 142.039C713.444 142.389 713.839 142.879 714.069 143.509L713.109 143.959C712.909 143.509 712.619 143.159 712.239 142.909C711.869 142.649 711.454 142.519 710.994 142.519C710.544 142.519 710.184 142.634 709.914 142.864C709.644 143.094 709.509 143.384 709.509 143.734C709.509 144.004 709.579 144.219 709.719 144.379C709.859 144.539 710.019 144.659 710.199 144.739C710.389 144.819 710.554 144.879 710.694 144.919L712.029 145.309C712.679 145.499 713.184 145.794 713.544 146.194C713.914 146.594 714.099 147.064 714.099 147.604C714.099 148.044 713.974 148.439 713.724 148.789C713.484 149.139 713.149 149.414 712.719 149.614C712.289 149.804 711.794 149.899 711.234 149.899Z" fill="white" fill-opacity="0.6"/>
<path d="M605.395 170.354C604.785 170.354 604.205 170.244 603.655 170.024C603.115 169.794 602.65 169.474 602.26 169.064C601.88 168.644 601.62 168.149 601.48 167.579L603.265 166.949C603.445 167.459 603.72 167.849 604.09 168.119C604.46 168.379 604.895 168.509 605.395 168.509C605.795 168.509 606.14 168.434 606.43 168.284C606.73 168.134 606.965 167.919 607.135 167.639C607.305 167.349 607.39 167.009 607.39 166.619C607.39 166.229 607.305 165.899 607.135 165.629C606.975 165.349 606.745 165.134 606.445 164.984C606.145 164.834 605.79 164.759 605.38 164.759C605.19 164.759 604.99 164.779 604.78 164.819C604.58 164.859 604.4 164.919 604.24 164.999L603.775 164.024L606.67 160.724H602.11V158.999H608.965V160.604L606.055 164.009L606.085 163.244C606.755 163.254 607.34 163.399 607.84 163.679C608.34 163.959 608.73 164.344 609.01 164.834C609.29 165.324 609.43 165.899 609.43 166.559C609.43 167.279 609.255 167.929 608.905 168.509C608.555 169.079 608.075 169.529 607.465 169.859C606.855 170.189 606.165 170.354 605.395 170.354ZM615.48 170.354C614.59 170.354 613.81 170.114 613.14 169.634C612.47 169.154 611.945 168.479 611.565 167.609C611.195 166.739 611.01 165.729 611.01 164.579C611.01 163.419 611.195 162.409 611.565 161.549C611.935 160.689 612.455 160.019 613.125 159.539C613.795 159.059 614.575 158.819 615.465 158.819C616.375 158.819 617.16 159.059 617.82 159.539C618.49 160.019 619.015 160.694 619.395 161.564C619.775 162.424 619.965 163.429 619.965 164.579C619.965 165.729 619.775 166.739 619.395 167.609C619.025 168.469 618.505 169.144 617.835 169.634C617.165 170.114 616.38 170.354 615.48 170.354ZM615.495 168.494C616.005 168.494 616.44 168.339 616.8 168.029C617.16 167.709 617.435 167.259 617.625 166.679C617.825 166.089 617.925 165.389 617.925 164.579C617.925 163.769 617.825 163.074 617.625 162.494C617.435 161.904 617.155 161.454 616.785 161.144C616.425 160.834 615.985 160.679 615.465 160.679C614.965 160.679 614.535 160.834 614.175 161.144C613.815 161.454 613.535 161.904 613.335 162.494C613.145 163.074 613.05 163.769 613.05 164.579C613.05 165.379 613.145 166.074 613.335 166.664C613.535 167.244 613.815 167.694 614.175 168.014C614.545 168.334 614.985 168.494 615.495 168.494ZM623.085 170.174L632.145 158.999H634.245L625.185 170.174H623.085ZM624.825 164.669C624.275 164.669 623.775 164.539 623.325 164.279C622.885 164.009 622.535 163.654 622.275 163.214C622.015 162.774 621.885 162.284 621.885 161.744C621.885 161.204 622.015 160.714 622.275 160.274C622.535 159.824 622.885 159.469 623.325 159.209C623.775 158.949 624.275 158.819 624.825 158.819C625.385 158.819 625.885 158.949 626.325 159.209C626.765 159.469 627.115 159.824 627.375 160.274C627.635 160.714 627.765 161.204 627.765 161.744C627.765 162.284 627.635 162.774 627.375 163.214C627.115 163.654 626.765 164.009 626.325 164.279C625.885 164.539 625.385 164.669 624.825 164.669ZM624.825 163.154C625.125 163.154 625.375 163.089 625.575 162.959C625.775 162.819 625.925 162.644 626.025 162.434C626.135 162.214 626.19 161.984 626.19 161.744C626.19 161.494 626.135 161.264 626.025 161.054C625.925 160.844 625.775 160.669 625.575 160.529C625.375 160.389 625.125 160.319 624.825 160.319C624.545 160.319 624.3 160.389 624.09 160.529C623.89 160.669 623.735 160.849 623.625 161.069C623.515 161.279 623.46 161.504 623.46 161.744C623.46 161.974 623.515 162.199 623.625 162.419C623.735 162.639 623.89 162.819 624.09 162.959C624.3 163.089 624.545 163.154 624.825 163.154ZM632.445 170.354C631.895 170.354 631.395 170.224 630.945 169.964C630.505 169.694 630.155 169.339 629.895 168.899C629.635 168.459 629.505 167.969 629.505 167.429C629.505 166.889 629.635 166.399 629.895 165.959C630.155 165.509 630.505 165.154 630.945 164.894C631.395 164.634 631.895 164.504 632.445 164.504C633.005 164.504 633.505 164.634 633.945 164.894C634.385 165.154 634.735 165.509 634.995 165.959C635.255 166.399 635.385 166.889 635.385 167.429C635.385 167.969 635.255 168.459 634.995 168.899C634.735 169.339 634.385 169.694 633.945 169.964C633.505 170.224 633.005 170.354 632.445 170.354ZM632.445 168.839C632.735 168.839 632.98 168.774 633.18 168.644C633.39 168.504 633.545 168.329 633.645 168.119C633.755 167.899 633.81 167.669 633.81 167.429C633.81 167.179 633.755 166.949 633.645 166.739C633.545 166.529 633.39 166.354 633.18 166.214C632.98 166.074 632.735 166.004 632.445 166.004C632.165 166.004 631.92 166.074 631.71 166.214C631.51 166.354 631.355 166.534 631.245 166.754C631.135 166.964 631.08 167.189 631.08 167.429C631.08 167.659 631.135 167.884 631.245 168.104C631.355 168.324 631.51 168.504 631.71 168.644C631.92 168.774 632.165 168.839 632.445 168.839Z" fill="white"/>
<path d="M167.255 119.719V109.669H164.165V108.544H171.515V109.669H168.455V119.719H167.255ZM175.436 119.899C174.686 119.899 174.006 119.719 173.396 119.359C172.796 118.989 172.321 118.484 171.971 117.844C171.621 117.204 171.446 116.479 171.446 115.669C171.446 114.859 171.616 114.144 171.956 113.524C172.296 112.894 172.756 112.399 173.336 112.039C173.926 111.679 174.586 111.499 175.316 111.499C175.896 111.499 176.411 111.609 176.861 111.829C177.321 112.039 177.711 112.329 178.031 112.699C178.351 113.059 178.596 113.469 178.766 113.929C178.936 114.379 179.021 114.844 179.021 115.324C179.021 115.424 179.016 115.539 179.006 115.669C178.996 115.789 178.981 115.914 178.961 116.044H172.166V114.994H178.316L177.776 115.444C177.866 114.894 177.801 114.404 177.581 113.974C177.371 113.534 177.066 113.189 176.666 112.939C176.266 112.679 175.816 112.549 175.316 112.549C174.816 112.549 174.351 112.679 173.921 112.939C173.501 113.199 173.171 113.564 172.931 114.034C172.691 114.494 172.596 115.044 172.646 115.684C172.596 116.324 172.696 116.884 172.946 117.364C173.206 117.834 173.556 118.199 173.996 118.459C174.446 118.719 174.926 118.849 175.436 118.849C176.026 118.849 176.521 118.709 176.921 118.429C177.321 118.149 177.646 117.799 177.896 117.379L178.856 117.889C178.696 118.249 178.451 118.584 178.121 118.894C177.791 119.194 177.396 119.439 176.936 119.629C176.486 119.809 175.986 119.899 175.436 119.899ZM183.183 119.899C182.673 119.899 182.218 119.804 181.818 119.614C181.418 119.414 181.103 119.144 180.873 118.804C180.643 118.464 180.528 118.074 180.528 117.634C180.528 117.214 180.618 116.834 180.798 116.494C180.978 116.144 181.258 115.849 181.638 115.609C182.018 115.369 182.503 115.199 183.093 115.099L186.243 114.574V115.594L183.363 116.074C182.783 116.174 182.363 116.359 182.103 116.629C181.853 116.899 181.728 117.219 181.728 117.589C181.728 117.949 181.868 118.254 182.148 118.504C182.438 118.754 182.808 118.879 183.258 118.879C183.808 118.879 184.288 118.764 184.698 118.534C185.108 118.294 185.428 117.974 185.658 117.574C185.888 117.174 186.003 116.729 186.003 116.239V114.199C186.003 113.719 185.828 113.329 185.478 113.029C185.128 112.729 184.673 112.579 184.113 112.579C183.623 112.579 183.193 112.704 182.823 112.954C182.453 113.194 182.178 113.509 181.998 113.899L180.978 113.344C181.128 113.004 181.363 112.694 181.683 112.414C182.013 112.134 182.388 111.914 182.808 111.754C183.228 111.584 183.663 111.499 184.113 111.499C184.703 111.499 185.223 111.614 185.673 111.844C186.133 112.074 186.488 112.394 186.738 112.804C186.998 113.204 187.128 113.669 187.128 114.199V119.719H186.003V118.114L186.168 118.279C186.028 118.579 185.808 118.854 185.508 119.104C185.218 119.344 184.873 119.539 184.473 119.689C184.083 119.829 183.653 119.899 183.183 119.899ZM189.442 119.719V111.679H190.567V113.209L190.387 112.984C190.607 112.514 190.932 112.149 191.362 111.889C191.802 111.629 192.282 111.499 192.802 111.499C193.422 111.499 193.982 111.674 194.482 112.024C194.982 112.374 195.337 112.829 195.547 113.389L195.232 113.404C195.432 112.784 195.777 112.314 196.267 111.994C196.767 111.664 197.317 111.499 197.917 111.499C198.457 111.499 198.952 111.629 199.402 111.889C199.862 112.149 200.227 112.509 200.497 112.969C200.777 113.419 200.917 113.929 200.917 114.499V119.719H199.792V114.934C199.792 114.444 199.702 114.029 199.522 113.689C199.352 113.349 199.117 113.089 198.817 112.909C198.517 112.719 198.172 112.624 197.782 112.624C197.402 112.624 197.057 112.719 196.747 112.909C196.437 113.089 196.192 113.354 196.012 113.704C195.832 114.044 195.742 114.454 195.742 114.934V119.719H194.617V114.934C194.617 114.444 194.527 114.029 194.347 113.689C194.177 113.349 193.942 113.089 193.642 112.909C193.342 112.719 192.997 112.624 192.607 112.624C192.217 112.624 191.867 112.719 191.557 112.909C191.257 113.089 191.017 113.354 190.837 113.704C190.657 114.044 190.567 114.454 190.567 114.934V119.719H189.442Z" fill="white" fill-opacity="0.6"/>
<path d="M472.405 476.719V466.669H469.315V465.544H476.665V466.669H473.605V476.719H472.405ZM477.087 476.719V468.679H478.212V469.999L478.062 469.804C478.252 469.424 478.537 469.124 478.917 468.904C479.307 468.684 479.777 468.574 480.327 468.574H480.837V469.699H480.132C479.552 469.699 479.087 469.879 478.737 470.239C478.387 470.599 478.212 471.109 478.212 471.769V476.719H477.087ZM485.815 476.899C485.065 476.899 484.385 476.719 483.775 476.359C483.175 475.989 482.7 475.484 482.35 474.844C482 474.204 481.825 473.479 481.825 472.669C481.825 471.859 481.995 471.144 482.335 470.524C482.675 469.894 483.135 469.399 483.715 469.039C484.305 468.679 484.965 468.499 485.695 468.499C486.275 468.499 486.79 468.609 487.24 468.829C487.7 469.039 488.09 469.329 488.41 469.699C488.73 470.059 488.975 470.469 489.145 470.929C489.315 471.379 489.4 471.844 489.4 472.324C489.4 472.424 489.395 472.539 489.385 472.669C489.375 472.789 489.36 472.914 489.34 473.044H482.545V471.994H488.695L488.155 472.444C488.245 471.894 488.18 471.404 487.96 470.974C487.75 470.534 487.445 470.189 487.045 469.939C486.645 469.679 486.195 469.549 485.695 469.549C485.195 469.549 484.73 469.679 484.3 469.939C483.88 470.199 483.55 470.564 483.31 471.034C483.07 471.494 482.975 472.044 483.025 472.684C482.975 473.324 483.075 473.884 483.325 474.364C483.585 474.834 483.935 475.199 484.375 475.459C484.825 475.719 485.305 475.849 485.815 475.849C486.405 475.849 486.9 475.709 487.3 475.429C487.7 475.149 488.025 474.799 488.275 474.379L489.235 474.889C489.075 475.249 488.83 475.584 488.5 475.894C488.17 476.194 487.775 476.439 487.315 476.629C486.865 476.809 486.365 476.899 485.815 476.899ZM493.563 476.899C493.053 476.899 492.598 476.804 492.198 476.614C491.798 476.414 491.483 476.144 491.253 475.804C491.023 475.464 490.908 475.074 490.908 474.634C490.908 474.214 490.998 473.834 491.178 473.494C491.358 473.144 491.638 472.849 492.018 472.609C492.398 472.369 492.883 472.199 493.473 472.099L496.623 471.574V472.594L493.743 473.074C493.163 473.174 492.743 473.359 492.483 473.629C492.233 473.899 492.108 474.219 492.108 474.589C492.108 474.949 492.248 475.254 492.528 475.504C492.818 475.754 493.188 475.879 493.638 475.879C494.188 475.879 494.668 475.764 495.078 475.534C495.488 475.294 495.808 474.974 496.038 474.574C496.268 474.174 496.383 473.729 496.383 473.239V471.199C496.383 470.719 496.208 470.329 495.858 470.029C495.508 469.729 495.053 469.579 494.493 469.579C494.003 469.579 493.573 469.704 493.203 469.954C492.833 470.194 492.558 470.509 492.378 470.899L491.358 470.344C491.508 470.004 491.743 469.694 492.063 469.414C492.393 469.134 492.768 468.914 493.188 468.754C493.608 468.584 494.043 468.499 494.493 468.499C495.083 468.499 495.603 468.614 496.053 468.844C496.513 469.074 496.868 469.394 497.118 469.804C497.378 470.204 497.508 470.669 497.508 471.199V476.719H496.383V475.114L496.548 475.279C496.408 475.579 496.188 475.854 495.888 476.104C495.598 476.344 495.253 476.539 494.853 476.689C494.463 476.829 494.033 476.899 493.563 476.899ZM502.612 476.899C501.842 476.899 501.167 476.704 500.587 476.314C500.007 475.924 499.587 475.394 499.327 474.724L500.272 474.274C500.502 474.764 500.822 475.154 501.232 475.444C501.652 475.734 502.112 475.879 502.612 475.879C503.092 475.879 503.497 475.764 503.827 475.534C504.157 475.294 504.322 474.984 504.322 474.604C504.322 474.324 504.242 474.104 504.082 473.944C503.922 473.774 503.737 473.644 503.527 473.554C503.317 473.464 503.132 473.399 502.972 473.359L501.817 473.029C501.077 472.819 500.542 472.524 500.212 472.144C499.882 471.764 499.717 471.324 499.717 470.824C499.717 470.354 499.837 469.944 500.077 469.594C500.317 469.244 500.642 468.974 501.052 468.784C501.462 468.594 501.917 468.499 502.417 468.499C503.097 468.499 503.712 468.679 504.262 469.039C504.822 469.389 505.217 469.879 505.447 470.509L504.487 470.959C504.287 470.509 503.997 470.159 503.617 469.909C503.247 469.649 502.832 469.519 502.372 469.519C501.922 469.519 501.562 469.634 501.292 469.864C501.022 470.094 500.887 470.384 500.887 470.734C500.887 471.004 500.957 471.219 501.097 471.379C501.237 471.539 501.397 471.659 501.577 471.739C501.767 471.819 501.932 471.879 502.072 471.919L503.407 472.309C504.057 472.499 504.562 472.794 504.922 473.194C505.292 473.594 505.477 474.064 505.477 474.604C505.477 475.044 505.352 475.439 505.102 475.789C504.862 476.139 504.527 476.414 504.097 476.614C503.667 476.804 503.172 476.899 502.612 476.899ZM510.303 476.899C509.743 476.899 509.233 476.769 508.773 476.509C508.313 476.239 507.948 475.869 507.678 475.399C507.418 474.919 507.288 474.369 507.288 473.749V468.679H508.413V473.614C508.413 474.044 508.498 474.424 508.668 474.754C508.848 475.074 509.093 475.324 509.403 475.504C509.723 475.684 510.088 475.774 510.498 475.774C510.908 475.774 511.273 475.684 511.593 475.504C511.913 475.314 512.163 475.049 512.343 474.709C512.523 474.359 512.613 473.944 512.613 473.464V468.679H513.738V476.719H512.613V475.159L512.868 475.219C512.678 475.739 512.353 476.149 511.893 476.449C511.433 476.749 510.903 476.899 510.303 476.899ZM516.052 476.719V468.679H517.177V469.999L517.027 469.804C517.217 469.424 517.502 469.124 517.882 468.904C518.272 468.684 518.742 468.574 519.292 468.574H519.802V469.699H519.097C518.517 469.699 518.052 469.879 517.702 470.239C517.352 470.599 517.177 471.109 517.177 471.769V476.719H516.052ZM524.78 476.899C524.03 476.899 523.35 476.719 522.74 476.359C522.14 475.989 521.665 475.484 521.315 474.844C520.965 474.204 520.79 473.479 520.79 472.669C520.79 471.859 520.96 471.144 521.3 470.524C521.64 469.894 522.1 469.399 522.68 469.039C523.27 468.679 523.93 468.499 524.66 468.499C525.24 468.499 525.755 468.609 526.205 468.829C526.665 469.039 527.055 469.329 527.375 469.699C527.695 470.059 527.94 470.469 528.11 470.929C528.28 471.379 528.365 471.844 528.365 472.324C528.365 472.424 528.36 472.539 528.35 472.669C528.34 472.789 528.325 472.914 528.305 473.044H521.51V471.994H527.66L527.12 472.444C527.21 471.894 527.145 471.404 526.925 470.974C526.715 470.534 526.41 470.189 526.01 469.939C525.61 469.679 525.16 469.549 524.66 469.549C524.16 469.549 523.695 469.679 523.265 469.939C522.845 470.199 522.515 470.564 522.275 471.034C522.035 471.494 521.94 472.044 521.99 472.684C521.94 473.324 522.04 473.884 522.29 474.364C522.55 474.834 522.9 475.199 523.34 475.459C523.79 475.719 524.27 475.849 524.78 475.849C525.37 475.849 525.865 475.709 526.265 475.429C526.665 475.149 526.99 474.799 527.24 474.379L528.2 474.889C528.04 475.249 527.795 475.584 527.465 475.894C527.135 476.194 526.74 476.439 526.28 476.629C525.83 476.809 525.33 476.899 524.78 476.899Z" fill="white" fill-opacity="0.6"/>
<path d="M239.33 83.7188L243.41 72.5437H244.7L248.78 83.7188H247.52L246.56 80.9887H241.565L240.59 83.7188H239.33ZM241.955 79.8638H246.14L243.875 73.4437H244.235L241.955 79.8638ZM253.442 83.8988C252.692 83.8988 252.017 83.7188 251.417 83.3587C250.817 82.9887 250.342 82.4887 249.992 81.8587C249.652 81.2187 249.482 80.4987 249.482 79.6987C249.482 78.8887 249.652 78.1687 249.992 77.5387C250.342 76.9087 250.812 76.4137 251.402 76.0537C252.002 75.6837 252.682 75.4987 253.442 75.4987C254.132 75.4987 254.747 75.6487 255.287 75.9487C255.827 76.2487 256.252 76.6537 256.562 77.1637L256.382 77.4787V72.3637H257.507V83.7188H256.382V81.9187L256.562 82.0837C256.282 82.6637 255.862 83.1137 255.302 83.4337C254.752 83.7437 254.132 83.8988 253.442 83.8988ZM253.502 82.7737C254.042 82.7737 254.527 82.6387 254.957 82.3687C255.397 82.0987 255.742 81.7337 255.992 81.2737C256.252 80.8037 256.382 80.2787 256.382 79.6987C256.382 79.1187 256.252 78.5987 255.992 78.1387C255.742 77.6687 255.397 77.2987 254.957 77.0287C254.527 76.7587 254.042 76.6237 253.502 76.6237C252.972 76.6237 252.492 76.7587 252.062 77.0287C251.632 77.2987 251.292 77.6637 251.042 78.1237C250.802 78.5837 250.682 79.1087 250.682 79.6987C250.682 80.2787 250.802 80.8037 251.042 81.2737C251.292 81.7337 251.627 82.0987 252.047 82.3687C252.477 82.6387 252.962 82.7737 253.502 82.7737ZM261.962 83.7188L258.827 75.6787H260.087L262.727 82.7288H262.322L264.977 75.6787H266.252L263.087 83.7188H261.962ZM267.566 83.7188V75.6787H268.691V83.7188H267.566ZM267.566 74.1937V72.5437H268.691V74.1937H267.566ZM273.784 83.8988C273.014 83.8988 272.339 83.7037 271.759 83.3137C271.179 82.9238 270.759 82.3937 270.499 81.7237L271.444 81.2737C271.674 81.7637 271.994 82.1537 272.404 82.4437C272.824 82.7337 273.284 82.8787 273.784 82.8787C274.264 82.8787 274.669 82.7637 274.999 82.5337C275.329 82.2937 275.494 81.9837 275.494 81.6037C275.494 81.3237 275.414 81.1037 275.254 80.9437C275.094 80.7737 274.909 80.6437 274.699 80.5537C274.489 80.4637 274.304 80.3987 274.144 80.3587L272.989 80.0287C272.249 79.8187 271.714 79.5237 271.384 79.1437C271.054 78.7637 270.889 78.3237 270.889 77.8237C270.889 77.3537 271.009 76.9437 271.249 76.5937C271.489 76.2437 271.814 75.9737 272.224 75.7837C272.634 75.5937 273.089 75.4987 273.589 75.4987C274.269 75.4987 274.884 75.6787 275.434 76.0387C275.994 76.3887 276.389 76.8787 276.619 77.5087L275.659 77.9587C275.459 77.5087 275.169 77.1587 274.789 76.9087C274.419 76.6487 274.004 76.5187 273.544 76.5187C273.094 76.5187 272.734 76.6337 272.464 76.8637C272.194 77.0937 272.059 77.3837 272.059 77.7337C272.059 78.0037 272.129 78.2187 272.269 78.3787C272.409 78.5387 272.569 78.6587 272.749 78.7387C272.939 78.8187 273.104 78.8787 273.244 78.9187L274.579 79.3088C275.229 79.4987 275.734 79.7937 276.094 80.1937C276.464 80.5937 276.649 81.0637 276.649 81.6037C276.649 82.0437 276.524 82.4387 276.274 82.7887C276.034 83.1387 275.699 83.4137 275.269 83.6137C274.839 83.8037 274.344 83.8988 273.784 83.8988ZM282.391 83.8988C281.631 83.8988 280.941 83.7188 280.321 83.3587C279.701 82.9887 279.206 82.4887 278.836 81.8587C278.476 81.2187 278.296 80.4937 278.296 79.6837C278.296 78.8837 278.476 78.1687 278.836 77.5387C279.196 76.9087 279.681 76.4137 280.291 76.0537C280.911 75.6837 281.611 75.4987 282.391 75.4987C283.171 75.4987 283.866 75.6787 284.476 76.0387C285.096 76.3987 285.581 76.8937 285.931 77.5237C286.291 78.1537 286.471 78.8737 286.471 79.6837C286.471 80.5037 286.286 81.2337 285.916 81.8737C285.546 82.5037 285.051 82.9987 284.431 83.3587C283.821 83.7188 283.141 83.8988 282.391 83.8988ZM282.391 82.7737C282.931 82.7737 283.416 82.6387 283.846 82.3687C284.286 82.0987 284.631 81.7287 284.881 81.2587C285.141 80.7887 285.271 80.2637 285.271 79.6837C285.271 79.1037 285.141 78.5837 284.881 78.1237C284.631 77.6637 284.286 77.2987 283.846 77.0287C283.416 76.7587 282.931 76.6237 282.391 76.6237C281.851 76.6237 281.361 76.7587 280.921 77.0287C280.491 77.2987 280.146 77.6637 279.886 78.1237C279.626 78.5837 279.496 79.1037 279.496 79.6837C279.496 80.2637 279.626 80.7887 279.886 81.2587C280.146 81.7287 280.491 82.0987 280.921 82.3687C281.361 82.6387 281.851 82.7737 282.391 82.7737ZM288.455 83.7188V75.6787H289.58V76.9987L289.43 76.8037C289.62 76.4237 289.905 76.1237 290.285 75.9037C290.675 75.6837 291.145 75.5737 291.695 75.5737H292.205V76.6987H291.5C290.92 76.6987 290.455 76.8787 290.105 77.2387C289.755 77.5987 289.58 78.1087 289.58 78.7687V83.7188H288.455ZM296.313 83.8988C295.543 83.8988 294.868 83.7037 294.288 83.3137C293.708 82.9238 293.288 82.3937 293.028 81.7237L293.973 81.2737C294.203 81.7637 294.523 82.1537 294.933 82.4437C295.353 82.7337 295.813 82.8787 296.313 82.8787C296.793 82.8787 297.198 82.7637 297.528 82.5337C297.858 82.2937 298.023 81.9837 298.023 81.6037C298.023 81.3237 297.943 81.1037 297.783 80.9437C297.623 80.7737 297.438 80.6437 297.228 80.5537C297.018 80.4637 296.833 80.3987 296.673 80.3587L295.518 80.0287C294.778 79.8187 294.243 79.5237 293.913 79.1437C293.583 78.7637 293.418 78.3237 293.418 77.8237C293.418 77.3537 293.538 76.9437 293.778 76.5937C294.018 76.2437 294.343 75.9737 294.753 75.7837C295.163 75.5937 295.618 75.4987 296.118 75.4987C296.798 75.4987 297.413 75.6787 297.963 76.0387C298.523 76.3887 298.918 76.8787 299.148 77.5087L298.188 77.9587C297.988 77.5087 297.698 77.1587 297.318 76.9087C296.948 76.6487 296.533 76.5187 296.073 76.5187C295.623 76.5187 295.263 76.6337 294.993 76.8637C294.723 77.0937 294.588 77.3837 294.588 77.7337C294.588 78.0037 294.658 78.2187 294.798 78.3787C294.938 78.5387 295.098 78.6587 295.278 78.7387C295.468 78.8187 295.633 78.8787 295.773 78.9187L297.108 79.3088C297.758 79.4987 298.263 79.7937 298.623 80.1937C298.993 80.5937 299.178 81.0637 299.178 81.6037C299.178 82.0437 299.053 82.4387 298.803 82.7887C298.563 83.1387 298.228 83.4137 297.798 83.6137C297.368 83.8037 296.873 83.8988 296.313 83.8988Z" fill="white" fill-opacity="0.6"/>
<path d="M239.69 103.537V101.992L242.72 98.8271C243.32 98.1971 243.78 97.6971 244.1 97.3271C244.43 96.9471 244.66 96.6221 244.79 96.3521C244.92 96.0821 244.985 95.8071 244.985 95.5271C244.985 95.0571 244.835 94.6871 244.535 94.4171C244.245 94.1471 243.87 94.0121 243.41 94.0121C242.93 94.0121 242.515 94.1521 242.165 94.4321C241.815 94.7021 241.56 95.1021 241.4 95.6321L239.615 95.0771C239.735 94.4871 239.98 93.9771 240.35 93.5471C240.72 93.1071 241.17 92.7721 241.7 92.5421C242.24 92.3021 242.81 92.1821 243.41 92.1821C244.13 92.1821 244.76 92.3121 245.3 92.5721C245.85 92.8321 246.275 93.1971 246.575 93.6671C246.885 94.1371 247.04 94.6871 247.04 95.3171C247.04 95.7171 246.965 96.1121 246.815 96.5021C246.665 96.8921 246.44 97.2921 246.14 97.7021C245.84 98.1021 245.45 98.5521 244.97 99.0521L242.345 101.812H247.19V103.537H239.69ZM249.795 103.537V101.437H251.775V103.537H249.795ZM259.289 103.537V101.077H254.159V99.3671L259.169 92.3621H261.299V99.3671H262.934V101.077H261.299V103.537H259.289ZM255.659 100.102L255.299 99.3671H259.289V93.9671L259.814 94.1321L255.659 100.102ZM265.729 103.537L274.789 92.3621H276.889L267.829 103.537H265.729ZM267.469 98.0321C266.919 98.0321 266.419 97.9021 265.969 97.6421C265.529 97.3721 265.179 97.0171 264.919 96.5771C264.659 96.1371 264.529 95.6471 264.529 95.1071C264.529 94.5671 264.659 94.0771 264.919 93.6371C265.179 93.1871 265.529 92.8321 265.969 92.5721C266.419 92.3121 266.919 92.1821 267.469 92.1821C268.029 92.1821 268.529 92.3121 268.969 92.5721C269.409 92.8321 269.759 93.1871 270.019 93.6371C270.279 94.0771 270.409 94.5671 270.409 95.1071C270.409 95.6471 270.279 96.1371 270.019 96.5771C269.759 97.0171 269.409 97.3721 268.969 97.6421C268.529 97.9021 268.029 98.0321 267.469 98.0321ZM267.469 96.5171C267.769 96.5171 268.019 96.4521 268.219 96.3221C268.419 96.1821 268.569 96.0071 268.669 95.7971C268.779 95.5771 268.834 95.3471 268.834 95.1071C268.834 94.8571 268.779 94.6271 268.669 94.4171C268.569 94.2071 268.419 94.0321 268.219 93.8921C268.019 93.7521 267.769 93.6821 267.469 93.6821C267.189 93.6821 266.944 93.7521 266.734 93.8921C266.534 94.0321 266.379 94.2121 266.269 94.4321C266.159 94.6421 266.104 94.8671 266.104 95.1071C266.104 95.3371 266.159 95.5621 266.269 95.7821C266.379 96.0021 266.534 96.1821 266.734 96.3221C266.944 96.4521 267.189 96.5171 267.469 96.5171ZM275.089 103.717C274.539 103.717 274.039 103.587 273.589 103.327C273.149 103.057 272.799 102.702 272.539 102.262C272.279 101.822 272.149 101.332 272.149 100.792C272.149 100.252 272.279 99.7621 272.539 99.3221C272.799 98.8721 273.149 98.5171 273.589 98.2571C274.039 97.9971 274.539 97.8671 275.089 97.8671C275.649 97.8671 276.149 97.9971 276.589 98.2571C277.029 98.5171 277.379 98.8721 277.639 99.3221C277.899 99.7621 278.029 100.252 278.029 100.792C278.029 101.332 277.899 101.822 277.639 102.262C277.379 102.702 277.029 103.057 276.589 103.327C276.149 103.587 275.649 103.717 275.089 103.717ZM275.089 102.202C275.379 102.202 275.624 102.137 275.824 102.007C276.034 101.867 276.189 101.692 276.289 101.482C276.399 101.262 276.454 101.032 276.454 100.792C276.454 100.542 276.399 100.312 276.289 100.102C276.189 99.8921 276.034 99.7171 275.824 99.5771C275.624 99.4371 275.379 99.3671 275.089 99.3671C274.809 99.3671 274.564 99.4371 274.354 99.5771C274.154 99.7171 273.999 99.8971 273.889 100.117C273.779 100.327 273.724 100.552 273.724 100.792C273.724 101.022 273.779 101.247 273.889 101.467C273.999 101.687 274.154 101.867 274.354 102.007C274.564 102.137 274.809 102.202 275.089 102.202Z" fill="white"/>
<path d="M165.41 140.719L169.205 135.829L169.55 136.189C169.4 136.299 169.255 136.389 169.115 136.459C168.975 136.529 168.825 136.579 168.665 136.609C168.505 136.639 168.335 136.654 168.155 136.654C167.475 136.654 166.87 136.499 166.34 136.189C165.81 135.879 165.39 135.459 165.08 134.929C164.78 134.389 164.63 133.779 164.63 133.099C164.63 132.379 164.795 131.739 165.125 131.179C165.465 130.619 165.925 130.179 166.505 129.859C167.095 129.529 167.765 129.364 168.515 129.364C169.275 129.364 169.945 129.524 170.525 129.844C171.105 130.164 171.56 130.604 171.89 131.164C172.23 131.714 172.4 132.349 172.4 133.069C172.4 133.429 172.36 133.789 172.28 134.149C172.2 134.509 172.055 134.894 171.845 135.304C171.645 135.704 171.355 136.159 170.975 136.669L167.855 140.719H165.41ZM168.515 134.944C168.865 134.944 169.175 134.869 169.445 134.719C169.725 134.559 169.945 134.339 170.105 134.059C170.265 133.769 170.345 133.444 170.345 133.084C170.345 132.704 170.26 132.374 170.09 132.094C169.93 131.814 169.715 131.594 169.445 131.434C169.175 131.274 168.865 131.194 168.515 131.194C168.175 131.194 167.865 131.274 167.585 131.434C167.305 131.594 167.08 131.814 166.91 132.094C166.75 132.374 166.67 132.704 166.67 133.084C166.67 133.444 166.75 133.769 166.91 134.059C167.08 134.339 167.305 134.559 167.585 134.719C167.865 134.869 168.175 134.944 168.515 134.944ZM174.356 140.719V138.619H176.336V140.719H174.356ZM182.71 140.899C181.95 140.899 181.275 140.739 180.685 140.419C180.105 140.089 179.65 139.649 179.32 139.099C178.99 138.539 178.825 137.904 178.825 137.194C178.825 136.834 178.86 136.474 178.93 136.114C179.01 135.754 179.15 135.369 179.35 134.959C179.56 134.549 179.86 134.094 180.25 133.594L183.37 129.544H185.8L182.005 134.419L181.675 134.059C181.815 133.949 181.96 133.864 182.11 133.804C182.26 133.734 182.41 133.684 182.56 133.654C182.72 133.624 182.885 133.609 183.055 133.609C183.735 133.609 184.34 133.764 184.87 134.074C185.4 134.384 185.815 134.809 186.115 135.349C186.425 135.879 186.58 136.479 186.58 137.149C186.58 137.869 186.415 138.514 186.085 139.084C185.755 139.644 185.295 140.089 184.705 140.419C184.125 140.739 183.46 140.899 182.71 140.899ZM182.71 139.054C183.05 139.054 183.355 138.979 183.625 138.829C183.905 138.669 184.125 138.444 184.285 138.154C184.455 137.864 184.54 137.539 184.54 137.179C184.54 136.799 184.455 136.474 184.285 136.204C184.125 135.924 183.91 135.704 183.64 135.544C183.37 135.384 183.06 135.304 182.71 135.304C182.37 135.304 182.06 135.384 181.78 135.544C181.5 135.704 181.275 135.924 181.105 136.204C180.945 136.474 180.865 136.799 180.865 137.179C180.865 137.539 180.945 137.864 181.105 138.154C181.275 138.444 181.5 138.669 181.78 138.829C182.06 138.979 182.37 139.054 182.71 139.054ZM189.498 140.719L198.558 129.544H200.658L191.598 140.719H189.498ZM191.238 135.214C190.688 135.214 190.188 135.084 189.738 134.824C189.298 134.554 188.948 134.199 188.688 133.759C188.428 133.319 188.298 132.829 188.298 132.289C188.298 131.749 188.428 131.259 188.688 130.819C188.948 130.369 189.298 130.014 189.738 129.754C190.188 129.494 190.688 129.364 191.238 129.364C191.798 129.364 192.298 129.494 192.738 129.754C193.178 130.014 193.528 130.369 193.788 130.819C194.048 131.259 194.178 131.749 194.178 132.289C194.178 132.829 194.048 133.319 193.788 133.759C193.528 134.199 193.178 134.554 192.738 134.824C192.298 135.084 191.798 135.214 191.238 135.214ZM191.238 133.699C191.538 133.699 191.788 133.634 191.988 133.504C192.188 133.364 192.338 133.189 192.438 132.979C192.548 132.759 192.603 132.529 192.603 132.289C192.603 132.039 192.548 131.809 192.438 131.599C192.338 131.389 192.188 131.214 191.988 131.074C191.788 130.934 191.538 130.864 191.238 130.864C190.958 130.864 190.713 130.934 190.503 131.074C190.303 131.214 190.148 131.394 190.038 131.614C189.928 131.824 189.873 132.049 189.873 132.289C189.873 132.519 189.928 132.744 190.038 132.964C190.148 133.184 190.303 133.364 190.503 133.504C190.713 133.634 190.958 133.699 191.238 133.699ZM198.858 140.899C198.308 140.899 197.808 140.769 197.358 140.509C196.918 140.239 196.568 139.884 196.308 139.444C196.048 139.004 195.918 138.514 195.918 137.974C195.918 137.434 196.048 136.944 196.308 136.504C196.568 136.054 196.918 135.699 197.358 135.439C197.808 135.179 198.308 135.049 198.858 135.049C199.418 135.049 199.918 135.179 200.358 135.439C200.798 135.699 201.148 136.054 201.408 136.504C201.668 136.944 201.798 137.434 201.798 137.974C201.798 138.514 201.668 139.004 201.408 139.444C201.148 139.884 200.798 140.239 200.358 140.509C199.918 140.769 199.418 140.899 198.858 140.899ZM198.858 139.384C199.148 139.384 199.393 139.319 199.593 139.189C199.803 139.049 199.958 138.874 200.058 138.664C200.168 138.444 200.223 138.214 200.223 137.974C200.223 137.724 200.168 137.494 200.058 137.284C199.958 137.074 199.803 136.899 199.593 136.759C199.393 136.619 199.148 136.549 198.858 136.549C198.578 136.549 198.333 136.619 198.123 136.759C197.923 136.899 197.768 137.079 197.658 137.299C197.548 137.509 197.493 137.734 197.493 137.974C197.493 138.204 197.548 138.429 197.658 138.649C197.768 138.869 197.923 139.049 198.123 139.189C198.333 139.319 198.578 139.384 198.858 139.384Z" fill="white"/>
<path d="M469.69 497.956V496.411L472.72 493.246C473.32 492.616 473.78 492.116 474.1 491.746C474.43 491.366 474.66 491.041 474.79 490.771C474.92 490.501 474.985 490.226 474.985 489.946C474.985 489.476 474.835 489.106 474.535 488.836C474.245 488.566 473.87 488.431 473.41 488.431C472.93 488.431 472.515 488.571 472.165 488.851C471.815 489.121 471.56 489.521 471.4 490.051L469.615 489.496C469.735 488.906 469.98 488.396 470.35 487.966C470.72 487.526 471.17 487.191 471.7 486.961C472.24 486.721 472.81 486.601 473.41 486.601C474.13 486.601 474.76 486.731 475.3 486.991C475.85 487.251 476.275 487.616 476.575 488.086C476.885 488.556 477.04 489.106 477.04 489.736C477.04 490.136 476.965 490.531 476.815 490.921C476.665 491.311 476.44 491.711 476.14 492.121C475.84 492.521 475.45 492.971 474.97 493.471L472.345 496.231H477.19V497.956H469.69ZM478.64 497.956V496.411L481.67 493.246C482.27 492.616 482.73 492.116 483.05 491.746C483.38 491.366 483.61 491.041 483.74 490.771C483.87 490.501 483.935 490.226 483.935 489.946C483.935 489.476 483.785 489.106 483.485 488.836C483.195 488.566 482.82 488.431 482.36 488.431C481.88 488.431 481.465 488.571 481.115 488.851C480.765 489.121 480.51 489.521 480.35 490.051L478.565 489.496C478.685 488.906 478.93 488.396 479.3 487.966C479.67 487.526 480.12 487.191 480.65 486.961C481.19 486.721 481.76 486.601 482.36 486.601C483.08 486.601 483.71 486.731 484.25 486.991C484.8 487.251 485.225 487.616 485.525 488.086C485.835 488.556 485.99 489.106 485.99 489.736C485.99 490.136 485.915 490.531 485.765 490.921C485.615 491.311 485.39 491.711 485.09 492.121C484.79 492.521 484.4 492.971 483.92 493.471L481.295 496.231H486.14V497.956H478.64ZM488.745 497.956V495.856H490.725V497.956H488.745ZM497.309 498.136C496.499 498.136 495.794 497.986 495.194 497.686C494.604 497.376 494.144 496.961 493.814 496.441C493.494 495.921 493.334 495.351 493.334 494.731C493.334 494.001 493.529 493.386 493.919 492.886C494.309 492.376 494.874 492.001 495.614 491.761L495.494 492.256C494.964 492.086 494.544 491.756 494.234 491.266C493.934 490.776 493.784 490.236 493.784 489.646C493.784 489.056 493.934 488.531 494.234 488.071C494.534 487.611 494.949 487.251 495.479 486.991C496.009 486.731 496.619 486.601 497.309 486.601C497.989 486.601 498.589 486.731 499.109 486.991C499.639 487.251 500.054 487.611 500.354 488.071C500.664 488.531 500.819 489.056 500.819 489.646C500.819 490.246 500.664 490.791 500.354 491.281C500.054 491.761 499.639 492.091 499.109 492.271L499.004 491.746C499.744 492.006 500.309 492.391 500.699 492.901C501.089 493.401 501.284 494.016 501.284 494.746C501.284 495.366 501.119 495.936 500.789 496.456C500.469 496.966 500.009 497.376 499.409 497.686C498.819 497.986 498.119 498.136 497.309 498.136ZM497.309 496.411C497.699 496.411 498.039 496.341 498.329 496.201C498.619 496.051 498.844 495.846 499.004 495.586C499.164 495.316 499.244 495.011 499.244 494.671C499.244 494.321 499.164 494.021 499.004 493.771C498.844 493.511 498.619 493.311 498.329 493.171C498.039 493.021 497.699 492.946 497.309 492.946C496.919 492.946 496.579 493.021 496.289 493.171C496.009 493.311 495.789 493.511 495.629 493.771C495.469 494.021 495.389 494.321 495.389 494.671C495.389 495.011 495.469 495.316 495.629 495.586C495.789 495.846 496.009 496.051 496.289 496.201C496.579 496.341 496.919 496.411 497.309 496.411ZM497.309 491.221C497.599 491.221 497.854 491.156 498.074 491.026C498.294 490.896 498.464 490.726 498.584 490.516C498.714 490.296 498.779 490.046 498.779 489.766C498.779 489.486 498.714 489.241 498.584 489.031C498.464 488.811 498.294 488.641 498.074 488.521C497.854 488.391 497.599 488.326 497.309 488.326C497.019 488.326 496.759 488.391 496.529 488.521C496.309 488.641 496.134 488.811 496.004 489.031C495.884 489.241 495.824 489.486 495.824 489.766C495.824 490.046 495.884 490.296 496.004 490.516C496.134 490.726 496.309 490.896 496.529 491.026C496.759 491.156 497.019 491.221 497.309 491.221ZM504.342 497.956L513.402 486.781H515.502L506.442 497.956H504.342ZM506.082 492.451C505.532 492.451 505.032 492.321 504.582 492.061C504.142 491.791 503.792 491.436 503.532 490.996C503.272 490.556 503.142 490.066 503.142 489.526C503.142 488.986 503.272 488.496 503.532 488.056C503.792 487.606 504.142 487.251 504.582 486.991C505.032 486.731 505.532 486.601 506.082 486.601C506.642 486.601 507.142 486.731 507.582 486.991C508.022 487.251 508.372 487.606 508.632 488.056C508.892 488.496 509.022 488.986 509.022 489.526C509.022 490.066 508.892 490.556 508.632 490.996C508.372 491.436 508.022 491.791 507.582 492.061C507.142 492.321 506.642 492.451 506.082 492.451ZM506.082 490.936C506.382 490.936 506.632 490.871 506.832 490.741C507.032 490.601 507.182 490.426 507.282 490.216C507.392 489.996 507.447 489.766 507.447 489.526C507.447 489.276 507.392 489.046 507.282 488.836C507.182 488.626 507.032 488.451 506.832 488.311C506.632 488.171 506.382 488.101 506.082 488.101C505.802 488.101 505.557 488.171 505.347 488.311C505.147 488.451 504.992 488.631 504.882 488.851C504.772 489.061 504.717 489.286 504.717 489.526C504.717 489.756 504.772 489.981 504.882 490.201C504.992 490.421 505.147 490.601 505.347 490.741C505.557 490.871 505.802 490.936 506.082 490.936ZM513.702 498.136C513.152 498.136 512.652 498.006 512.202 497.746C511.762 497.476 511.412 497.121 511.152 496.681C510.892 496.241 510.762 495.751 510.762 495.211C510.762 494.671 510.892 494.181 511.152 493.741C511.412 493.291 511.762 492.936 512.202 492.676C512.652 492.416 513.152 492.286 513.702 492.286C514.262 492.286 514.762 492.416 515.202 492.676C515.642 492.936 515.992 493.291 516.252 493.741C516.512 494.181 516.642 494.671 516.642 495.211C516.642 495.751 516.512 496.241 516.252 496.681C515.992 497.121 515.642 497.476 515.202 497.746C514.762 498.006 514.262 498.136 513.702 498.136ZM513.702 496.621C513.992 496.621 514.237 496.556 514.437 496.426C514.647 496.286 514.802 496.111 514.902 495.901C515.012 495.681 515.067 495.451 515.067 495.211C515.067 494.961 515.012 494.731 514.902 494.521C514.802 494.311 514.647 494.136 514.437 493.996C514.237 493.856 513.992 493.786 513.702 493.786C513.422 493.786 513.177 493.856 512.967 493.996C512.767 494.136 512.612 494.316 512.502 494.536C512.392 494.746 512.337 494.971 512.337 495.211C512.337 495.441 512.392 495.666 512.502 495.886C512.612 496.106 512.767 496.286 512.967 496.426C513.177 496.556 513.422 496.621 513.702 496.621Z" fill="white"/>
<path d="M106.595 430.869V421.434H104.435V419.694H108.635V430.869H106.595ZM114.505 431.049C113.915 431.049 113.35 430.939 112.81 430.719C112.28 430.499 111.82 430.189 111.43 429.789C111.05 429.379 110.79 428.894 110.65 428.334L112.42 427.704C112.59 428.214 112.865 428.594 113.245 428.844C113.625 429.084 114.045 429.204 114.505 429.204C114.885 429.204 115.22 429.124 115.51 428.964C115.81 428.794 116.04 428.564 116.2 428.274C116.36 427.974 116.44 427.629 116.44 427.239C116.44 426.849 116.355 426.509 116.185 426.219C116.025 425.929 115.8 425.704 115.51 425.544C115.22 425.374 114.885 425.289 114.505 425.289C114.115 425.289 113.76 425.374 113.44 425.544C113.13 425.714 112.905 425.959 112.765 426.279L111.1 425.904L111.985 419.694H118.075V421.419H112.795L113.56 420.534L112.93 425.214L112.345 424.734C112.625 424.324 112.965 424.024 113.365 423.834C113.775 423.644 114.27 423.549 114.85 423.549C115.59 423.549 116.23 423.709 116.77 424.029C117.32 424.349 117.745 424.784 118.045 425.334C118.345 425.884 118.495 426.519 118.495 427.239C118.495 427.959 118.32 428.609 117.97 429.189C117.62 429.769 117.145 430.224 116.545 430.554C115.945 430.884 115.265 431.049 114.505 431.049ZM121.123 430.869V428.769H123.103V430.869H121.123ZM125.637 430.869V429.324L128.667 426.159C129.267 425.529 129.727 425.029 130.047 424.659C130.377 424.279 130.607 423.954 130.737 423.684C130.867 423.414 130.932 423.139 130.932 422.859C130.932 422.389 130.782 422.019 130.482 421.749C130.192 421.479 129.817 421.344 129.357 421.344C128.877 421.344 128.462 421.484 128.112 421.764C127.762 422.034 127.507 422.434 127.347 422.964L125.562 422.409C125.682 421.819 125.927 421.309 126.297 420.879C126.667 420.439 127.117 420.104 127.647 419.874C128.187 419.634 128.757 419.514 129.357 419.514C130.077 419.514 130.707 419.644 131.247 419.904C131.797 420.164 132.222 420.529 132.522 420.999C132.832 421.469 132.987 422.019 132.987 422.649C132.987 423.049 132.912 423.444 132.762 423.834C132.612 424.224 132.387 424.624 132.087 425.034C131.787 425.434 131.397 425.884 130.917 426.384L128.292 429.144H133.137V430.869H125.637ZM136.192 430.869L145.252 419.694H147.352L138.292 430.869H136.192ZM137.932 425.364C137.382 425.364 136.882 425.234 136.432 424.974C135.992 424.704 135.642 424.349 135.382 423.909C135.122 423.469 134.992 422.979 134.992 422.439C134.992 421.899 135.122 421.409 135.382 420.969C135.642 420.519 135.992 420.164 136.432 419.904C136.882 419.644 137.382 419.514 137.932 419.514C138.492 419.514 138.992 419.644 139.432 419.904C139.872 420.164 140.222 420.519 140.482 420.969C140.742 421.409 140.872 421.899 140.872 422.439C140.872 422.979 140.742 423.469 140.482 423.909C140.222 424.349 139.872 424.704 139.432 424.974C138.992 425.234 138.492 425.364 137.932 425.364ZM137.932 423.849C138.232 423.849 138.482 423.784 138.682 423.654C138.882 423.514 139.032 423.339 139.132 423.129C139.242 422.909 139.297 422.679 139.297 422.439C139.297 422.189 139.242 421.959 139.132 421.749C139.032 421.539 138.882 421.364 138.682 421.224C138.482 421.084 138.232 421.014 137.932 421.014C137.652 421.014 137.407 421.084 137.197 421.224C136.997 421.364 136.842 421.544 136.732 421.764C136.622 421.974 136.567 422.199 136.567 422.439C136.567 422.669 136.622 422.894 136.732 423.114C136.842 423.334 136.997 423.514 137.197 423.654C137.407 423.784 137.652 423.849 137.932 423.849ZM145.552 431.049C145.002 431.049 144.502 430.919 144.052 430.659C143.612 430.389 143.262 430.034 143.002 429.594C142.742 429.154 142.612 428.664 142.612 428.124C142.612 427.584 142.742 427.094 143.002 426.654C143.262 426.204 143.612 425.849 144.052 425.589C144.502 425.329 145.002 425.199 145.552 425.199C146.112 425.199 146.612 425.329 147.052 425.589C147.492 425.849 147.842 426.204 148.102 426.654C148.362 427.094 148.492 427.584 148.492 428.124C148.492 428.664 148.362 429.154 148.102 429.594C147.842 430.034 147.492 430.389 147.052 430.659C146.612 430.919 146.112 431.049 145.552 431.049ZM145.552 429.534C145.842 429.534 146.087 429.469 146.287 429.339C146.497 429.199 146.652 429.024 146.752 428.814C146.862 428.594 146.917 428.364 146.917 428.124C146.917 427.874 146.862 427.644 146.752 427.434C146.652 427.224 146.497 427.049 146.287 426.909C146.087 426.769 145.842 426.699 145.552 426.699C145.272 426.699 145.027 426.769 144.817 426.909C144.617 427.049 144.462 427.229 144.352 427.449C144.242 427.659 144.187 427.884 144.187 428.124C144.187 428.354 144.242 428.579 144.352 428.799C144.462 429.019 144.617 429.199 144.817 429.339C145.027 429.469 145.272 429.534 145.552 429.534Z" fill="white"/>
<path d="M53.595 305.312V295.877H51.435V294.137H55.635V305.312H53.595ZM62.7198 305.312V302.852H57.5898V301.142L62.5998 294.137H64.7298V301.142H66.3648V302.852H64.7298V305.312H62.7198ZM59.0898 301.877L58.7298 301.142H62.7198V295.742L63.2448 295.907L59.0898 301.877ZM68.7093 305.312V303.212H70.6893V305.312H68.7093ZM74.6155 305.312V295.877H72.4555V294.137H76.6555V305.312H74.6155ZM80.6653 305.312V295.877H78.5053V294.137H82.7053V305.312H80.6653ZM86.4151 305.312L95.4751 294.137H97.5751L88.5151 305.312H86.4151ZM88.1551 299.807C87.6051 299.807 87.1051 299.677 86.6551 299.417C86.2151 299.147 85.8651 298.792 85.6051 298.352C85.3451 297.912 85.2151 297.422 85.2151 296.882C85.2151 296.342 85.3451 295.852 85.6051 295.412C85.8651 294.962 86.2151 294.607 86.6551 294.347C87.1051 294.087 87.6051 293.957 88.1551 293.957C88.7151 293.957 89.2151 294.087 89.6551 294.347C90.0951 294.607 90.4451 294.962 90.7051 295.412C90.9651 295.852 91.0951 296.342 91.0951 296.882C91.0951 297.422 90.9651 297.912 90.7051 298.352C90.4451 298.792 90.0951 299.147 89.6551 299.417C89.2151 299.677 88.7151 299.807 88.1551 299.807ZM88.1551 298.292C88.4551 298.292 88.7051 298.227 88.9051 298.097C89.1051 297.957 89.2551 297.782 89.3551 297.572C89.4651 297.352 89.5201 297.122 89.5201 296.882C89.5201 296.632 89.4651 296.402 89.3551 296.192C89.2551 295.982 89.1051 295.807 88.9051 295.667C88.7051 295.527 88.4551 295.457 88.1551 295.457C87.8751 295.457 87.6301 295.527 87.4201 295.667C87.2201 295.807 87.0651 295.987 86.9551 296.207C86.8451 296.417 86.7901 296.642 86.7901 296.882C86.7901 297.112 86.8451 297.337 86.9551 297.557C87.0651 297.777 87.2201 297.957 87.4201 298.097C87.6301 298.227 87.8751 298.292 88.1551 298.292ZM95.7751 305.493C95.2251 305.493 94.7251 305.362 94.2751 305.102C93.8351 304.832 93.4851 304.477 93.2251 304.037C92.9651 303.597 92.8351 303.107 92.8351 302.567C92.8351 302.027 92.9651 301.537 93.2251 301.097C93.4851 300.647 93.8351 300.292 94.2751 300.032C94.7251 299.772 95.2251 299.642 95.7751 299.642C96.3351 299.642 96.8351 299.772 97.2751 300.032C97.7151 300.292 98.0651 300.647 98.3251 301.097C98.5851 301.537 98.7151 302.027 98.7151 302.567C98.7151 303.107 98.5851 303.597 98.3251 304.037C98.0651 304.477 97.7151 304.832 97.2751 305.102C96.8351 305.362 96.3351 305.493 95.7751 305.493ZM95.7751 303.977C96.0651 303.977 96.3101 303.912 96.5101 303.782C96.7201 303.642 96.8751 303.467 96.9751 303.257C97.0851 303.037 97.1401 302.807 97.1401 302.567C97.1401 302.317 97.0851 302.087 96.9751 301.877C96.8751 301.667 96.7201 301.493 96.5101 301.353C96.3101 301.212 96.0651 301.142 95.7751 301.142C95.4951 301.142 95.2501 301.212 95.0401 301.353C94.8401 301.493 94.6851 301.672 94.5751 301.892C94.4651 302.102 94.4101 302.327 94.4101 302.567C94.4101 302.797 94.4651 303.022 94.5751 303.242C94.6851 303.462 94.8401 303.642 95.0401 303.782C95.2501 303.912 95.4951 303.977 95.7751 303.977Z" fill="white"/>
<path d="M4.455 208.03C3.865 208.03 3.3 207.92 2.76 207.7C2.23 207.48 1.77 207.17 1.38 206.77C1 206.36 0.74 205.875 0.6 205.315L2.37 204.685C2.54 205.195 2.815 205.575 3.195 205.825C3.575 206.065 3.995 206.185 4.455 206.185C4.835 206.185 5.17 206.105 5.46 205.945C5.76 205.775 5.99 205.545 6.15 205.255C6.31 204.955 6.39 204.61 6.39 204.22C6.39 203.83 6.305 203.49 6.135 203.2C5.975 202.91 5.75 202.685 5.46 202.525C5.17 202.355 4.835 202.27 4.455 202.27C4.065 202.27 3.71 202.355 3.39 202.525C3.08 202.695 2.855 202.94 2.715 203.26L1.05 202.885L1.935 196.675H8.025V198.4H2.745L3.51 197.515L2.88 202.195L2.295 201.715C2.575 201.305 2.915 201.005 3.315 200.815C3.725 200.625 4.22 200.53 4.8 200.53C5.54 200.53 6.18 200.69 6.72 201.01C7.27 201.33 7.695 201.765 7.995 202.315C8.295 202.865 8.445 203.5 8.445 204.22C8.445 204.94 8.27 205.59 7.92 206.17C7.57 206.75 7.095 207.205 6.495 207.535C5.895 207.865 5.215 208.03 4.455 208.03ZM11.0735 207.85V205.75H13.0535V207.85H11.0735ZM19.6375 208.03C18.8275 208.03 18.1225 207.88 17.5225 207.58C16.9325 207.27 16.4725 206.855 16.1425 206.335C15.8225 205.815 15.6625 205.245 15.6625 204.625C15.6625 203.895 15.8575 203.28 16.2475 202.78C16.6375 202.27 17.2025 201.895 17.9425 201.655L17.8225 202.15C17.2925 201.98 16.8725 201.65 16.5625 201.16C16.2625 200.67 16.1125 200.13 16.1125 199.54C16.1125 198.95 16.2625 198.425 16.5625 197.965C16.8625 197.505 17.2775 197.145 17.8075 196.885C18.3375 196.625 18.9475 196.495 19.6375 196.495C20.3175 196.495 20.9175 196.625 21.4375 196.885C21.9675 197.145 22.3825 197.505 22.6825 197.965C22.9925 198.425 23.1475 198.95 23.1475 199.54C23.1475 200.14 22.9925 200.685 22.6825 201.175C22.3825 201.655 21.9675 201.985 21.4375 202.165L21.3325 201.64C22.0725 201.9 22.6375 202.285 23.0275 202.795C23.4175 203.295 23.6125 203.91 23.6125 204.64C23.6125 205.26 23.4475 205.83 23.1175 206.35C22.7975 206.86 22.3375 207.27 21.7375 207.58C21.1475 207.88 20.4475 208.03 19.6375 208.03ZM19.6375 206.305C20.0275 206.305 20.3675 206.235 20.6575 206.095C20.9475 205.945 21.1725 205.74 21.3325 205.48C21.4925 205.21 21.5725 204.905 21.5725 204.565C21.5725 204.215 21.4925 203.915 21.3325 203.665C21.1725 203.405 20.9475 203.205 20.6575 203.065C20.3675 202.915 20.0275 202.84 19.6375 202.84C19.2475 202.84 18.9075 202.915 18.6175 203.065C18.3375 203.205 18.1175 203.405 17.9575 203.665C17.7975 203.915 17.7175 204.215 17.7175 204.565C17.7175 204.905 17.7975 205.21 17.9575 205.48C18.1175 205.74 18.3375 205.945 18.6175 206.095C18.9075 206.235 19.2475 206.305 19.6375 206.305ZM19.6375 201.115C19.9275 201.115 20.1825 201.05 20.4025 200.92C20.6225 200.79 20.7925 200.62 20.9125 200.41C21.0425 200.19 21.1075 199.94 21.1075 199.66C21.1075 199.38 21.0425 199.135 20.9125 198.925C20.7925 198.705 20.6225 198.535 20.4025 198.415C20.1825 198.285 19.9275 198.22 19.6375 198.22C19.3475 198.22 19.0875 198.285 18.8575 198.415C18.6375 198.535 18.4625 198.705 18.3325 198.925C18.2125 199.135 18.1525 199.38 18.1525 199.66C18.1525 199.94 18.2125 200.19 18.3325 200.41C18.4625 200.62 18.6375 200.79 18.8575 200.92C19.0875 201.05 19.3475 201.115 19.6375 201.115ZM25.785 207.85L29.58 202.96L29.925 203.32C29.775 203.43 29.63 203.52 29.49 203.59C29.35 203.66 29.2 203.71 29.04 203.74C28.88 203.77 28.71 203.785 28.53 203.785C27.85 203.785 27.245 203.63 26.715 203.32C26.185 203.01 25.765 202.59 25.455 202.06C25.155 201.52 25.005 200.91 25.005 200.23C25.005 199.51 25.17 198.87 25.5 198.31C25.84 197.75 26.3 197.31 26.88 196.99C27.47 196.66 28.14 196.495 28.89 196.495C29.65 196.495 30.32 196.655 30.9 196.975C31.48 197.295 31.935 197.735 32.265 198.295C32.605 198.845 32.775 199.48 32.775 200.2C32.775 200.56 32.735 200.92 32.655 201.28C32.575 201.64 32.43 202.025 32.22 202.435C32.02 202.835 31.73 203.29 31.35 203.8L28.23 207.85H25.785ZM28.89 202.075C29.24 202.075 29.55 202 29.82 201.85C30.1 201.69 30.32 201.47 30.48 201.19C30.64 200.9 30.72 200.575 30.72 200.215C30.72 199.835 30.635 199.505 30.465 199.225C30.305 198.945 30.09 198.725 29.82 198.565C29.55 198.405 29.24 198.325 28.89 198.325C28.55 198.325 28.24 198.405 27.96 198.565C27.68 198.725 27.455 198.945 27.285 199.225C27.125 199.505 27.045 199.835 27.045 200.215C27.045 200.575 27.125 200.9 27.285 201.19C27.455 201.47 27.68 201.69 27.96 201.85C28.24 202 28.55 202.075 28.89 202.075ZM35.6934 207.85L44.7534 196.675H46.8534L37.7934 207.85H35.6934ZM37.4334 202.345C36.8834 202.345 36.3834 202.215 35.9334 201.955C35.4934 201.685 35.1434 201.33 34.8834 200.89C34.6234 200.45 34.4934 199.96 34.4934 199.42C34.4934 198.88 34.6234 198.39 34.8834 197.95C35.1434 197.5 35.4934 197.145 35.9334 196.885C36.3834 196.625 36.8834 196.495 37.4334 196.495C37.9934 196.495 38.4934 196.625 38.9334 196.885C39.3734 197.145 39.7234 197.5 39.9834 197.95C40.2434 198.39 40.3734 198.88 40.3734 199.42C40.3734 199.96 40.2434 200.45 39.9834 200.89C39.7234 201.33 39.3734 201.685 38.9334 201.955C38.4934 202.215 37.9934 202.345 37.4334 202.345ZM37.4334 200.83C37.7334 200.83 37.9834 200.765 38.1834 200.635C38.3834 200.495 38.5334 200.32 38.6334 200.11C38.7434 199.89 38.7984 199.66 38.7984 199.42C38.7984 199.17 38.7434 198.94 38.6334 198.73C38.5334 198.52 38.3834 198.345 38.1834 198.205C37.9834 198.065 37.7334 197.995 37.4334 197.995C37.1534 197.995 36.9084 198.065 36.6984 198.205C36.4984 198.345 36.3434 198.525 36.2334 198.745C36.1234 198.955 36.0684 199.18 36.0684 199.42C36.0684 199.65 36.1234 199.875 36.2334 200.095C36.3434 200.315 36.4984 200.495 36.6984 200.635C36.9084 200.765 37.1534 200.83 37.4334 200.83ZM45.0534 208.03C44.5034 208.03 44.0034 207.9 43.5534 207.64C43.1134 207.37 42.7634 207.015 42.5034 206.575C42.2434 206.135 42.1134 205.645 42.1134 205.105C42.1134 204.565 42.2434 204.075 42.5034 203.635C42.7634 203.185 43.1134 202.83 43.5534 202.57C44.0034 202.31 44.5034 202.18 45.0534 202.18C45.6134 202.18 46.1134 202.31 46.5534 202.57C46.9934 202.83 47.3434 203.185 47.6034 203.635C47.8634 204.075 47.9934 204.565 47.9934 205.105C47.9934 205.645 47.8634 206.135 47.6034 206.575C47.3434 207.015 46.9934 207.37 46.5534 207.64C46.1134 207.9 45.6134 208.03 45.0534 208.03ZM45.0534 206.515C45.3434 206.515 45.5884 206.45 45.7884 206.32C45.9984 206.18 46.1534 206.005 46.2534 205.795C46.3634 205.575 46.4184 205.345 46.4184 205.105C46.4184 204.855 46.3634 204.625 46.2534 204.415C46.1534 204.205 45.9984 204.03 45.7884 203.89C45.5884 203.75 45.3434 203.68 45.0534 203.68C44.7734 203.68 44.5284 203.75 44.3184 203.89C44.1184 204.03 43.9634 204.21 43.8534 204.43C43.7434 204.64 43.6884 204.865 43.6884 205.105C43.6884 205.335 43.7434 205.56 43.8534 205.78C43.9634 206 44.1184 206.18 44.3184 206.32C44.5284 206.45 44.7734 206.515 45.0534 206.515Z" fill="white"/>
<g filter="url(#filter0_d_1214_12064)">
<path d="M295.941 168.19C312.342 158.857 330.947 153.943 349.885 153.943V260.283L295.941 168.19Z" fill="#FF6700"/>
</g>
<g filter="url(#filter1_d_1214_12064)">
<path d="M243.479 178.996C257.808 160.272 276.827 145.64 298.624 136.57L350.425 260.416L243.479 178.996Z" fill="#F9F871"/>
</g>
<g filter="url(#filter2_d_1214_12064)">
<path d="M197.439 240.97C200.657 214.065 210.919 188.478 227.194 166.783L351.114 259.255L197.439 240.97Z" fill="#FFD14F"/>
</g>
<g filter="url(#filter3_d_1214_12064)">
<path d="M191.654 319.014C180.426 292.867 176.297 264.233 179.681 235.99L341 255.22L191.654 319.014Z" fill="#FFA158"/>
</g>
<g filter="url(#filter4_d_1214_12064)">
<path d="M272.901 424.39C250.627 415.471 230.332 402.263 213.176 385.521C196.02 368.778 182.338 348.83 172.911 326.814L341 255.219L272.901 424.39Z" fill="#FF6781"/>
</g>
<g filter="url(#filter5_d_1214_12064)">
<path d="M518.73 353.222C494.36 397.186 454.48 430.549 406.832 446.833C359.185 463.118 307.17 461.161 260.887 441.344L341 255.219L518.73 353.222Z" fill="#FF2FBC"/>
</g>
<g filter="url(#filter6_d_1214_12064)">
<path d="M341 32.4121C380.515 32.4121 419.322 42.8658 453.464 62.7068C487.606 82.5478 515.86 111.066 535.345 145.353C554.829 179.639 564.847 218.467 564.376 257.875C563.905 297.283 552.962 335.862 532.663 369.675L341 255.219V32.4121Z" fill="#FF3EFF"/>
</g>
<defs>
<filter id="filter0_d_1214_12064" x="275.941" y="133.943" width="93.944" height="146.34" filterUnits="userSpaceOnUse" color-interpolation-filters="sRGB">
<feFlood flood-opacity="0" result="BackgroundImageFix"/>
<feColorMatrix in="SourceAlpha" type="matrix" values="0 0 0 0 0 0 0 0 0 0 0 0 0 0 0 0 0 0 127 0" result="hardAlpha"/>
<feOffset/>
<feGaussianBlur stdDeviation="10"/>
<feComposite in2="hardAlpha" operator="out"/>
<feColorMatrix type="matrix" values="0 0 0 0 0 0 0 0 0 0 0 0 0 0 0 0 0 0 0.4 0"/>
<feBlend mode="normal" in2="BackgroundImageFix" result="effect1_dropShadow_1214_12064"/>
<feBlend mode="normal" in="SourceGraphic" in2="effect1_dropShadow_1214_12064" result="shape"/>
</filter>
<filter id="filter1_d_1214_12064" x="223.479" y="116.57" width="146.947" height="163.846" filterUnits="userSpaceOnUse" color-interpolation-filters="sRGB">
<feFlood flood-opacity="0" result="BackgroundImageFix"/>
<feColorMatrix in="SourceAlpha" type="matrix" values="0 0 0 0 0 0 0 0 0 0 0 0 0 0 0 0 0 0 127 0" result="hardAlpha"/>
<feOffset/>
<feGaussianBlur stdDeviation="10"/>
<feComposite in2="hardAlpha" operator="out"/>
<feColorMatrix type="matrix" values="0 0 0 0 0 0 0 0 0 0 0 0 0 0 0 0 0 0 0.4 0"/>
<feBlend mode="normal" in2="BackgroundImageFix" result="effect1_dropShadow_1214_12064"/>
<feBlend mode="normal" in="SourceGraphic" in2="effect1_dropShadow_1214_12064" result="shape"/>
</filter>
<filter id="filter2_d_1214_12064" x="177.439" y="146.783" width="193.676" height="132.472" filterUnits="userSpaceOnUse" color-interpolation-filters="sRGB">
<feFlood flood-opacity="0" result="BackgroundImageFix"/>
<feColorMatrix in="SourceAlpha" type="matrix" values="0 0 0 0 0 0 0 0 0 0 0 0 0 0 0 0 0 0 127 0" result="hardAlpha"/>
<feOffset/>
<feGaussianBlur stdDeviation="10"/>
<feComposite in2="hardAlpha" operator="out"/>
<feColorMatrix type="matrix" values="0 0 0 0 0 0 0 0 0 0 0 0 0 0 0 0 0 0 0.4 0"/>
<feBlend mode="normal" in2="BackgroundImageFix" result="effect1_dropShadow_1214_12064"/>
<feBlend mode="normal" in="SourceGraphic" in2="effect1_dropShadow_1214_12064" result="shape"/>
</filter>
<filter id="filter3_d_1214_12064" x="158.533" y="215.989" width="202.467" height="123.025" filterUnits="userSpaceOnUse" color-interpolation-filters="sRGB">
<feFlood flood-opacity="0" result="BackgroundImageFix"/>
<feColorMatrix in="SourceAlpha" type="matrix" values="0 0 0 0 0 0 0 0 0 0 0 0 0 0 0 0 0 0 127 0" result="hardAlpha"/>
<feOffset/>
<feGaussianBlur stdDeviation="10"/>
<feComposite in2="hardAlpha" operator="out"/>
<feColorMatrix type="matrix" values="0 0 0 0 0 0 0 0 0 0 0 0 0 0 0 0 0 0 0.4 0"/>
<feBlend mode="normal" in2="BackgroundImageFix" result="effect1_dropShadow_1214_12064"/>
<feBlend mode="normal" in="SourceGraphic" in2="effect1_dropShadow_1214_12064" result="shape"/>
</filter>
<filter id="filter4_d_1214_12064" x="152.911" y="235.219" width="208.089" height="209.171" filterUnits="userSpaceOnUse" color-interpolation-filters="sRGB">
<feFlood flood-opacity="0" result="BackgroundImageFix"/>
<feColorMatrix in="SourceAlpha" type="matrix" values="0 0 0 0 0 0 0 0 0 0 0 0 0 0 0 0 0 0 127 0" result="hardAlpha"/>
<feOffset/>
<feGaussianBlur stdDeviation="10"/>
<feComposite in2="hardAlpha" operator="out"/>
<feColorMatrix type="matrix" values="0 0 0 0 0 0 0 0 0 0 0 0 0 0 0 0 0 0 0.4 0"/>
<feBlend mode="normal" in2="BackgroundImageFix" result="effect1_dropShadow_1214_12064"/>
<feBlend mode="normal" in="SourceGraphic" in2="effect1_dropShadow_1214_12064" result="shape"/>
</filter>
<filter id="filter5_d_1214_12064" x="240.887" y="235.219" width="297.842" height="242.552" filterUnits="userSpaceOnUse" color-interpolation-filters="sRGB">
<feFlood flood-opacity="0" result="BackgroundImageFix"/>
<feColorMatrix in="SourceAlpha" type="matrix" values="0 0 0 0 0 0 0 0 0 0 0 0 0 0 0 0 0 0 127 0" result="hardAlpha"/>
<feOffset/>
<feGaussianBlur stdDeviation="10"/>
<feComposite in2="hardAlpha" operator="out"/>
<feColorMatrix type="matrix" values="0 0 0 0 0 0 0 0 0 0 0 0 0 0 0 0 0 0 0.4 0"/>
<feBlend mode="normal" in2="BackgroundImageFix" result="effect1_dropShadow_1214_12064"/>
<feBlend mode="normal" in="SourceGraphic" in2="effect1_dropShadow_1214_12064" result="shape"/>
</filter>
<filter id="filter6_d_1214_12064" x="321" y="12.4121" width="263.392" height="377.264" filterUnits="userSpaceOnUse" color-interpolation-filters="sRGB">
<feFlood flood-opacity="0" result="BackgroundImageFix"/>
<feColorMatrix in="SourceAlpha" type="matrix" values="0 0 0 0 0 0 0 0 0 0 0 0 0 0 0 0 0 0 127 0" result="hardAlpha"/>
<feOffset/>
<feGaussianBlur stdDeviation="10"/>
<feComposite in2="hardAlpha" operator="out"/>
<feColorMatrix type="matrix" values="0 0 0 0 0 0 0 0 0 0 0 0 0 0 0 0 0 0 0.4 0"/>
<feBlend mode="normal" in2="BackgroundImageFix" result="effect1_dropShadow_1214_12064"/>
<feBlend mode="normal" in="SourceGraphic" in2="effect1_dropShadow_1214_12064" result="shape"/>
</filter>
</defs>
</svg>
