<svg width="1150" height="409" viewBox="0 0 1150 409" fill="none" xmlns="http://www.w3.org/2000/svg">
<path fill-rule="evenodd" clip-rule="evenodd" d="M70.1648 100.944L321.759 59.1585L494.56 81.7546L450.395 33.8373L288.834 0L296.327 17.8271L229.682 25.6619L103.771 26.2296L108.767 46.8954L77.2041 57.1147L70.1648 100.944ZM189.604 320.887L37.9208 323.044L35.0824 367.896L179.272 368.123L189.604 320.887ZM678.828 281.031L286.223 249.124L282.476 264.113L660.095 288.526L678.828 281.031ZM628.305 151.7L314.947 116.5L225.027 125.925L217.988 140.345L74.3657 157.718L71.3002 146.136L60.1738 146.818L64.3745 114.456L324.598 76.872L608.096 120.134L628.305 151.7ZM652.715 198.596L632.506 167.143L299.506 131.262L245.804 137.62L231.272 164.304L64.6016 183.153L60.6278 165.78L44.3923 167.029L40.1915 196.097L54.4971 194.848L58.9248 211.994L234.564 198.368L245.009 176.113L292.467 172.139H294.284L564.157 191.896L598.104 194.394L652.715 198.596ZM1150 258.662L1079.38 409H0L13.1702 260.252L24.9778 224.825L47.5713 223.803L38.8291 301.924L197.438 298.177L234.791 214.946L264.651 213.584L277.14 190.988L589.589 213.584L1150 258.662Z" fill="white" fill-opacity="0.25"/>
</svg>
