<svg width="1121" height="269" viewBox="0 0 1121 269" fill="none" xmlns="http://www.w3.org/2000/svg">
<g clip-path="url(#clip0_1246_12425)">
<path fill-rule="evenodd" clip-rule="evenodd" d="M101.826 151.263C125.784 147.304 271.54 151.263 356.397 151.263C371.534 151.263 376.94 144.804 390.055 137.04C370.994 146.356 360.35 147.392 353.416 147.393C277.666 147.397 201.917 147.393 126.167 147.393C113.64 147.579 107.291 149.31 101.826 151.263ZM631.855 244.365C655.813 240.405 801.569 244.365 886.426 244.365C901.563 244.365 906.969 237.905 920.084 230.141C901.023 239.457 890.379 240.494 883.445 240.494C807.695 240.498 731.946 240.494 656.196 240.494C643.669 240.68 637.32 242.412 631.855 244.365ZM290.327 170.2C214.068 170.2 171.446 170.2 95.1866 170.2C86.3105 170.2 75.5918 170.029 58.2234 174.071C128.209 174.071 186.324 174.071 256.309 174.071C266.909 174.071 281.33 175.858 290.251 170.249C290.273 170.235 290.299 170.218 290.327 170.2ZM-9.13161 192.262C14.827 188.302 160.583 192.262 245.44 192.262C260.577 192.262 265.983 185.802 279.098 178.038C260.037 187.354 249.393 188.391 242.459 188.391C166.709 188.395 90.9596 188.391 15.2098 188.391C2.68271 188.577 -3.66599 190.309 -9.13161 192.262ZM498.141 123.667C498.799 123.923 499.893 123.95 500.176 123.955L710.622 126.176C712.746 125.721 714.823 124.895 716.889 123.326C719.168 121.598 721.439 118.993 723.662 116.137C722.779 116.986 721.889 117.746 720.994 118.388C718.922 119.873 716.81 120.661 714.679 121.09C710.366 121.96 705.994 121.682 701.667 121.621C680.918 121.598 502.129 117.781 498.141 123.667ZM1119.1 150.418C1119.96 150.292 1120.79 149.948 1121 149.812H795.613C783.978 149.812 773.214 148.874 761.991 145.729C759.24 144.958 755.652 143.856 752.763 143.88C750.932 143.896 749.133 144.062 747.276 144.049C714.206 143.829 681.134 143.851 648.066 143.388C636.476 143.225 625.282 143.776 613.802 145.528C606.501 146.642 599.262 148.87 592.069 150.569C582.523 152.824 573.308 154.155 563.477 154.287C546.193 154.519 528.905 154.742 511.626 155.236C483.296 156.045 455.176 157.75 426.944 160.269C408.342 161.928 389.69 165.28 371.466 169.323C351.202 173.818 331.11 179.295 311.264 185.37C287.737 192.571 264.426 200.656 241.468 209.505L241.307 209.567L241.135 209.57C205.899 210.196 170.664 210.896 135.43 211.588C100.194 212.278 64.9585 212.978 29.7222 213.604C16.7035 213.836 3.68451 214.06 -9.33415 214.237C-16.8257 214.34 -24.3547 214.476 -31.8462 214.42C-47.6378 214.3 -63.5185 215.641 -77.6184 223.36C-79.7387 224.52 -81.7902 225.8 -83.7768 227.177C-97.5179 236.699 -104.423 250.075 -122.523 258.923C-114.341 258.923 -103.986 250.285 -86.9063 236.162C-68.9036 219.665 -43.9063 218.815 -26.209 218.722C65.3061 218.242 156.788 215.572 248.282 213.79C267.827 206.414 287.607 199.592 307.542 193.394C327.529 187.181 347.764 181.561 368.173 176.924C386.527 172.753 405.312 169.269 424.047 167.479C452.48 164.762 480.8 162.859 509.332 161.851C526.735 161.236 544.145 160.89 561.553 160.537C571.455 160.335 580.735 158.94 590.349 156.618C597.593 154.868 604.884 152.59 612.236 151.424C623.799 149.591 635.072 148.961 646.745 149.042C680.049 149.273 713.357 149.018 746.662 149.006C748.533 149.005 750.344 148.826 752.189 148.798C755.099 148.754 758.711 149.831 761.482 150.582C772.785 153.649 783.626 154.51 795.344 154.428C892.227 153.751 989.111 153.208 1085.99 152.398C1097.03 152.306 1108.07 152.029 1119.1 150.418ZM-141.6 268.654C-140.213 269.404 809.672 268.7 900.651 268.7C920.221 267.792 935.776 264.408 952.622 254.009L1067.03 183.389L951.304 252.653C931.139 265.101 898.018 263.817 874.898 263.822L-32.7762 264.004C-69.3436 264.025 -105.788 261.393 -141.599 268.654H-141.6ZM461.924 233.811C464.638 233.741 99.0235 233.123 -48.7211 231.467C167.219 240.74 291.619 238.159 461.924 233.811ZM332.969 203.413C334.458 203.599 336.934 203.608 337.573 203.608L813.847 203.062C818.654 202.698 823.355 202.055 828.03 200.857C833.186 199.536 838.326 197.557 843.357 195.39C841.359 196.036 839.346 196.617 837.321 197.108C832.631 198.244 827.85 198.857 823.029 199.202C813.267 199.9 803.373 199.737 793.579 199.737C746.622 199.938 341.994 198.954 332.967 203.413H332.969ZM856.625 189.084L400.397 187.525C379.791 187.455 376.31 189.022 358.27 194.527C367.431 192.868 379.147 189.786 398.176 189.885L829.632 192.139C836.445 192.174 853.548 190.862 856.626 189.084H856.625ZM-130.707 257.665C-146.634 257.042 -171.777 255.589 -191 253.052H-123.372C-125.609 254.669 -128.031 256.218 -130.707 257.665ZM346.525 64.5345C327.826 58.4727 305.457 18.1737 310.131 0C302.756 30.1399 337.715 67.9045 337.71 67.9495C337.638 68.7193 340.296 71.4733 333.679 76.8408C364.858 69.885 397.349 68.1129 429.216 69.4083C415.957 65.3769 372.855 63.514 346.525 64.5345ZM245.841 105.553C249.172 103.809 252.548 102.152 255.961 100.575H128.795C162.945 106.676 222.176 105.553 245.841 105.553ZM263.533 105.553C316.32 105.989 310.786 98.753 348.72 90.8456C391.078 82.0155 436.119 81.485 477.961 84.8031C503.605 86.8368 527.056 90.0508 554.65 92.9738C582.244 95.8972 614.798 103.282 651.689 105.553C644.582 104.163 637.478 102.758 630.372 101.362C605.572 96.491 580.794 91.8149 555.809 87.9635C524.725 83.1715 493.528 79.6274 462.186 77.0232C396.9 71.5975 323.225 75.5726 263.533 105.553ZM401.284 129.202C325.025 129.202 282.403 129.202 206.144 129.202C197.267 129.202 186.549 129.03 169.18 133.072C239.166 133.072 297.28 133.072 367.266 133.072C377.866 133.072 392.287 134.859 401.208 129.25C401.23 129.236 401.255 129.22 401.284 129.202Z" fill="#FEFEFE"/>
</g>
<defs>
<clipPath id="clip0_1246_12425">
<rect width="1121" height="269" fill="white"/>
</clipPath>
</defs>
</svg>
