<svg width="2126" height="82" viewBox="0 0 2126 82" fill="none" xmlns="http://www.w3.org/2000/svg">
<path d="M27 13.5C27 20.9558 20.9558 27 13.5 27C6.04416 27 0 20.9558 0 13.5C0 6.04416 6.04416 0 13.5 0C20.9558 0 27 6.04416 27 13.5Z" fill="black"/>
<path d="M22 13.5C22 18.1944 18.1944 22 13.5 22C8.80558 22 5 18.1944 5 13.5C5 8.80558 8.80558 5 13.5 5C18.1944 5 22 8.80558 22 13.5Z" fill="#FF3EFF"/>
<path d="M376 40.5C376 47.9558 369.956 54 362.5 54C355.044 54 349 47.9558 349 40.5C349 33.0442 355.044 27 362.5 27C369.956 27 376 33.0442 376 40.5Z" fill="#FF3EFF"/>
<path d="M371 40.5C371 45.1944 367.194 49 362.5 49C357.806 49 354 45.1944 354 40.5C354 35.8056 357.806 32 362.5 32C367.194 32 371 35.8056 371 40.5Z" fill="white"/>
<path d="M726 26.5C726 33.9558 719.956 40 712.5 40C705.044 40 699 33.9558 699 26.5C699 19.0442 705.044 13 712.5 13C719.956 13 726 19.0442 726 26.5Z" fill="black"/>
<path d="M721 26.5C721 31.1944 717.194 35 712.5 35C707.806 35 704 31.1944 704 26.5C704 21.8056 707.806 18 712.5 18C717.194 18 721 21.8056 721 26.5Z" fill="white"/>
<path d="M1076 68.5C1076 75.9558 1069.96 82 1062.5 82C1055.04 82 1049 75.9558 1049 68.5C1049 61.0442 1055.04 55 1062.5 55C1069.96 55 1076 61.0442 1076 68.5Z" fill="black"/>
<path d="M1071 68.5C1071 73.1944 1067.19 77 1062.5 77C1057.81 77 1054 73.1944 1054 68.5C1054 63.8056 1057.81 60 1062.5 60C1067.19 60 1071 63.8056 1071 68.5Z" fill="white"/>
<path d="M1426 40.5C1426 47.9558 1419.96 54 1412.5 54C1405.04 54 1399 47.9558 1399 40.5C1399 33.0442 1405.04 27 1412.5 27C1419.96 27 1426 33.0442 1426 40.5Z" fill="black"/>
<path d="M1421 40.5C1421 45.1944 1417.19 49 1412.5 49C1407.81 49 1404 45.1944 1404 40.5C1404 35.8056 1407.81 32 1412.5 32C1417.19 32 1421 35.8056 1421 40.5Z" fill="white"/>
<path d="M1776 31.5C1776 38.9558 1769.96 45 1762.5 45C1755.04 45 1749 38.9558 1749 31.5C1749 24.0442 1755.04 18 1762.5 18C1769.96 18 1776 24.0442 1776 31.5Z" fill="black"/>
<path d="M1771 31.5C1771 36.1944 1767.19 40 1762.5 40C1757.81 40 1754 36.1944 1754 31.5C1754 26.8056 1757.81 23 1762.5 23C1767.19 23 1771 26.8056 1771 31.5Z" fill="white"/>
<path d="M2126 56.5C2126 63.9558 2119.96 70 2112.5 70C2105.04 70 2099 63.9558 2099 56.5C2099 49.0442 2105.04 43 2112.5 43C2119.96 43 2126 49.0442 2126 56.5Z" fill="black"/>
<path d="M2121 56.5C2121 61.1944 2117.19 65 2112.5 65C2107.81 65 2104 61.1944 2104 56.5C2104 51.8056 2107.81 48 2112.5 48C2117.19 48 2121 51.8056 2121 56.5Z" fill="white"/>
</svg>
