<svg width="24" height="24" viewBox="0 0 24 24" fill="none" xmlns="http://www.w3.org/2000/svg">
<path d="M4.85584 20.1739H16.9544L16.3766 18.2139L17.7587 19.4566L19.0255 20.6459L21.3334 22.6663V3.53301C21.2757 2.34367 20.2983 1.33301 19.0866 1.33301L4.86008 1.33567C3.64929 1.33567 2.66675 2.34812 2.66675 3.53745V17.973C2.66675 19.2272 3.6476 20.1739 4.85584 20.1739V20.1739ZM13.8057 6.38456L13.7777 6.39523L13.7878 6.38456H13.8057ZM7.33087 7.51256C8.88614 6.32679 10.3277 6.38367 10.3277 6.38367L10.444 6.50367C8.54081 6.97923 7.6779 7.8699 7.6779 7.8699C7.6779 7.8699 7.90869 7.75167 8.31172 7.57123C10.875 6.51523 13.6741 6.59167 16.2654 7.92856C16.2654 7.92856 15.4008 7.09567 13.6147 6.56234L13.7726 6.39967C14.0195 6.40056 15.3261 6.44856 16.7244 7.51967C16.7244 7.51967 18.2891 10.3197 18.2891 13.7597C18.2373 13.6939 17.3184 15.2406 14.9537 15.2939C14.9537 15.2939 14.5532 14.8192 14.2681 14.405C15.6511 13.989 16.1687 13.157 16.1687 13.157C15.7147 13.4566 15.3007 13.6343 14.9647 13.8121C14.448 14.0503 13.9304 14.1677 13.4137 14.2877C10.9666 14.7037 9.59293 14.0077 8.29475 13.4557L7.85099 13.2192C7.85099 13.2192 8.36772 14.0512 9.6956 14.4672C9.34687 14.8841 9.00154 15.3579 9.00154 15.3579C6.63766 15.2992 5.7756 13.7526 5.7756 13.7526C5.7756 10.3072 7.33087 7.51256 7.33087 7.51256V7.51256Z" fill="white"/>
<path d="M14.3081 12.7707C15.0191 12.7707 15.5981 12.1707 15.5981 11.4307C15.5981 10.6957 15.0221 10.0957 14.3081 10.0957V10.0987C13.6001 10.0987 13.0201 10.6967 13.0181 11.4367C13.0181 12.1707 13.5971 12.7707 14.3081 12.7707Z" fill="white"/>
<path d="M9.6899 12.7707C10.4009 12.7707 10.9799 12.1707 10.9799 11.4307C10.9799 10.6957 10.4049 10.0957 9.6939 10.0957L9.6899 10.0987C8.9789 10.0987 8.3999 10.6967 8.3999 11.4367C8.3999 12.1707 8.9789 12.7707 9.6899 12.7707V12.7707Z" fill="white"/>
</svg>
