<svg width="28" height="30" viewBox="0 0 28 30" fill="none" xmlns="http://www.w3.org/2000/svg">
<g filter="url(#filter0_d_1301_1640)">
<path d="M23.9492 7.88007C23.9023 6.81739 23.7304 6.08681 23.4842 5.45375C23.2302 4.78177 22.8394 4.18015 22.3274 3.68002C21.8272 3.17211 21.2215 2.77744 20.5572 2.52745C19.9203 2.28128 19.1934 2.10943 18.1306 2.06257C17.0597 2.01175 16.7198 2 14.0039 2C11.288 2 10.948 2.01175 9.8812 2.05861C8.81831 2.10546 8.08759 2.27746 7.45456 2.52348C6.7823 2.77744 6.18057 3.16814 5.68034 3.68002C5.17233 4.18015 4.77774 4.78574 4.52755 5.44993C4.28133 6.08681 4.10945 6.81342 4.06259 7.8761C4.01175 8.94672 4 9.2866 4 12.002C4 14.7174 4.01175 15.0572 4.05862 16.1239C4.10548 17.1866 4.27751 17.9172 4.52373 18.5502C4.77774 19.2222 5.17233 19.8238 5.68034 20.3239C6.18057 20.8319 6.78627 21.2265 7.45059 21.4765C8.08759 21.7227 8.81434 21.8945 9.87738 21.9414C10.9441 21.9884 11.2842 22 14.0001 22C16.716 22 17.0559 21.9884 18.1228 21.9414C19.1857 21.8945 19.9164 21.7227 20.5494 21.4765C21.8938 20.9569 22.9567 19.8942 23.4764 18.5502C23.7225 17.9133 23.8945 17.1866 23.9414 16.1239C23.9882 15.0572 24 14.7174 24 12.002C24 9.2866 23.996 8.94672 23.9492 7.88007ZM22.1478 16.0458C22.1047 17.0225 21.9406 17.55 21.8039 17.9016C21.4677 18.7729 20.7761 19.4644 19.9046 19.8005C19.5529 19.9372 19.0216 20.1013 18.0484 20.1442C16.9933 20.1912 16.6769 20.2028 14.0079 20.2028C11.3388 20.2028 11.0184 20.1912 9.96714 20.1442C8.99019 20.1013 8.46264 19.9372 8.11094 19.8005C7.67727 19.6402 7.28253 19.3863 6.96212 19.0542C6.62996 18.7299 6.37596 18.3391 6.21568 17.9056C6.0789 17.5539 5.91481 17.0225 5.87191 16.0497C5.8249 14.9948 5.8133 14.6783 5.8133 12.0098C5.8133 9.34124 5.8249 9.02089 5.87191 7.96996C5.91481 6.99321 6.0789 6.46576 6.21568 6.11413C6.37596 5.68039 6.62996 5.28587 6.96609 4.96537C7.29031 4.63327 7.68109 4.37932 8.11491 4.21922C8.46661 4.08247 8.99813 3.91841 9.9711 3.87537C11.0262 3.82852 11.3428 3.81677 14.0117 3.81677C16.6847 3.81677 17.0011 3.82852 18.0524 3.87537C19.0293 3.91841 19.5569 4.08247 19.9086 4.21922C20.3423 4.37932 20.737 4.63327 21.0574 4.96537C21.3896 5.28968 21.6436 5.68039 21.8039 6.11413C21.9406 6.46576 22.1047 6.99702 22.1478 7.96996C22.1946 9.02486 22.2064 9.34124 22.2064 12.0098C22.2064 14.6783 22.1946 14.9909 22.1478 16.0458Z" fill="white"/>
<path d="M14 7C11.2396 7 9 9.23948 9 12C9 14.7605 11.2396 17 14 17C16.7605 17 19 14.7605 19 12C19 9.23948 16.7605 7 14 7ZM14 15.2434C12.2092 15.2434 10.7566 13.7909 10.7566 12C10.7566 10.2091 12.2092 8.75662 14 8.75662C15.7909 8.75662 17.2434 10.2091 17.2434 12C17.2434 13.7909 15.7909 15.2434 14 15.2434Z" fill="white"/>
<path d="M21 6.5C21 7.32835 20.3284 8 19.4999 8C18.6716 8 18 7.32835 18 6.5C18 5.67146 18.6716 5 19.4999 5C20.3284 5 21 5.67146 21 6.5Z" fill="white"/>
</g>
<defs>
<filter id="filter0_d_1301_1640" x="-2" y="0" width="32" height="32" filterUnits="userSpaceOnUse" color-interpolation-filters="sRGB">
<feFlood flood-opacity="0" result="BackgroundImageFix"/>
<feColorMatrix in="SourceAlpha" type="matrix" values="0 0 0 0 0 0 0 0 0 0 0 0 0 0 0 0 0 0 127 0" result="hardAlpha"/>
<feOffset dy="4"/>
<feGaussianBlur stdDeviation="2"/>
<feComposite in2="hardAlpha" operator="out"/>
<feColorMatrix type="matrix" values="0 0 0 0 0 0 0 0 0 0 0 0 0 0 0 0 0 0 0.25 0"/>
<feBlend mode="normal" in2="BackgroundImageFix" result="effect1_dropShadow_1301_1640"/>
<feBlend mode="normal" in="SourceGraphic" in2="effect1_dropShadow_1301_1640" result="shape"/>
</filter>
</defs>
</svg>
