<svg width="54" height="54" viewBox="0 0 54 54" fill="none" xmlns="http://www.w3.org/2000/svg">
<g clip-path="url(#clip0_833_56026)">
<path d="M8.055 47.691H40.1378L38.6055 42.7297L42.2708 45.8753L45.63 48.8857L51.75 54V5.56875C51.597 2.55825 49.005 0 45.792 0L8.06625 0.00675C4.8555 0.00675 2.25 2.5695 2.25 5.58V42.12C2.25 45.2948 4.851 47.691 8.055 47.691ZM31.788 12.7867L31.7138 12.8138L31.7408 12.7867H31.788ZM14.6183 15.642C18.7425 12.6405 22.5653 12.7845 22.5653 12.7845L22.8735 13.0883C17.8268 14.292 15.5385 16.5465 15.5385 16.5465C15.5385 16.5465 16.1505 16.2472 17.2192 15.7905C24.0165 13.1175 31.4393 13.311 38.3108 16.695C38.3108 16.695 36.018 14.5868 31.2817 13.2367L31.7002 12.825C32.355 12.8272 35.82 12.9487 39.528 15.66C39.528 15.66 43.677 22.7475 43.677 31.455C43.5398 31.2885 41.103 35.2035 34.8322 35.3385C34.8322 35.3385 33.7703 34.137 33.0143 33.0885C36.6818 32.0355 38.0542 29.9295 38.0542 29.9295C36.8505 30.6877 35.7525 31.1377 34.8615 31.5877C33.4913 32.1908 32.1188 32.4878 30.7485 32.7915C24.2595 33.8445 20.6167 32.0827 17.1742 30.6855L15.9975 30.087C15.9975 30.087 17.3678 32.193 20.889 33.246C19.9643 34.3013 19.0485 35.5005 19.0485 35.5005C12.78 35.352 10.494 31.437 10.494 31.437C10.494 22.716 14.6183 15.642 14.6183 15.642Z" fill="url(#paint0_linear_833_56026)"/>
<path d="M32.193 28.7346C33.7928 28.7346 35.0955 27.3846 35.0955 25.7196C35.0955 24.0658 33.7995 22.7158 32.193 22.7158V22.7226C30.6 22.7226 29.295 24.0681 29.2905 25.7331C29.2905 27.3846 30.5933 28.7346 32.193 28.7346Z" fill="#7268FF"/>
<path d="M21.8024 28.7346C23.4022 28.7346 24.7049 27.3846 24.7049 25.7196C24.7049 24.0658 23.4112 22.7158 21.8114 22.7158L21.8024 22.7226C20.2027 22.7226 18.8999 24.0681 18.8999 25.7331C18.8999 27.3846 20.2027 28.7346 21.8024 28.7346Z" fill="#7268FF"/>
</g>
<defs>
<linearGradient id="paint0_linear_833_56026" x1="-2.95299" y1="-6.32812" x2="65.3908" y2="62.4375" gradientUnits="userSpaceOnUse">
<stop stop-color="#008AFF"/>
<stop offset="1" stop-color="#FF3EFF"/>
</linearGradient>
<clipPath id="clip0_833_56026">
<rect width="54" height="54" fill="white"/>
</clipPath>
</defs>
</svg>
