<svg width="54" height="54" viewBox="0 0 54 54" fill="none" xmlns="http://www.w3.org/2000/svg">
<g clip-path="url(#clip0_982_756)">
<path d="M48.4515 16.0042C50.6475 14.445 52.4948 12.4988 54 10.2578V10.2555C51.9907 11.1353 49.8533 11.7203 47.6213 12.0037C49.9163 10.6335 51.669 8.48025 52.4925 5.886C50.3527 7.16175 47.9902 8.06175 45.4725 8.56575C43.4407 6.40125 40.545 5.0625 37.386 5.0625C31.257 5.0625 26.3228 10.0373 26.3228 16.1348C26.3228 17.0122 26.397 17.856 26.5793 18.6593C17.3767 18.2093 9.23175 13.7992 3.75975 7.0785C2.80575 8.73675 2.24325 10.6335 2.24325 12.6742C2.24325 16.5082 4.2165 19.9058 7.16175 21.8745C5.382 21.8407 3.63825 21.3232 2.16 20.511V20.6325C2.16 26.0123 5.99625 30.4808 11.0295 31.5112C10.1272 31.7588 9.14625 31.8757 8.127 31.8757C7.41825 31.8757 6.70275 31.8353 6.03225 31.6868C7.4655 36.0697 11.538 39.294 16.3755 39.3997C12.609 42.345 7.8255 44.1202 2.64825 44.1202C1.7415 44.1202 0.87075 44.0798 0 43.9695C4.905 47.1307 10.7145 48.9375 16.983 48.9375C36.5197 48.9375 49.2525 32.6385 48.4515 16.0042Z" fill="#2491EB"/>
</g>
<defs>
<clipPath id="clip0_982_756">
<rect width="54" height="54" fill="white"/>
</clipPath>
</defs>
</svg>
